<?xml version="1.0" standalone="no"?>
<!DOCTYPE svg PUBLIC "-//W3C//DTD SVG 1.1//EN" "http://www.w3.org/Graphics/SVG/1.1/DTD/svg11.dtd" >
<svg xmlns="http://www.w3.org/2000/svg" xmlns:xlink="http://www.w3.org/1999/xlink" version="1.1">
<metadata>
Created by FontForge 20170731 at Sun Mar 25 04:00:00 2012
 By Aleksey,,,
SHREE-KAN-0854 Copyright(c) 1992, Modular Infotech, Pune, INDIA. - Licenced to User with Reg. No. 400832
</metadata>
<defs>
<font id="SHREE-KAN-0854" horiz-adv-x="5" >
  <font-face 
    font-family="SHREE-KAN-0854"
    font-weight="400"
    font-stretch="normal"
    units-per-em="1000"
    panose-1="0 0 0 0 0 0 0 0 0 0"
    ascent="620"
    descent="-380"
    x-height="450"
    cap-height="460"
    bbox="-525 -540 1210 880"
    underline-thickness="20"
    underline-position="-130"
    unicode-range="U+0020-2122"
  />
<missing-glyph horiz-adv-x="364" 
d="M33 0v620h265v-620h-265zM66 33h199v554h-199v-554z" />
    <glyph glyph-name=".notdef" horiz-adv-x="364" 
d="M33 0v620h265v-620h-265zM66 33h199v554h-199v-554z" />
    <glyph glyph-name=".null" horiz-adv-x="0" 
 />
    <glyph glyph-name="nonmarkingreturn" horiz-adv-x="0" 
 />
    <glyph glyph-name="space" unicode=" " horiz-adv-x="249" 
 />
    <glyph glyph-name="exclam" unicode="!" horiz-adv-x="230" 
d="M55 -60q0 25 17.5 42.5t42.5 17.5t42.5 -17.5t17.5 -42.5t-17.5 -42.5t-42.5 -17.5t-42.5 17.5t-17.5 42.5v0zM55 450v100h120v-100l-40 -410h-40l-40 410v0z" />
    <glyph glyph-name="quotedbl" unicode="&#x22;" horiz-adv-x="210" 
d="M55 415q0 53 28.5 92.5t71.5 47.5v-30q-19 -7 -32 -25.5t-18 -44.5q21 0 35.5 -14.5t14.5 -35.5t-14.5 -35.5t-35.5 -14.5t-35.5 17.5t-14.5 42.5v0z" />
    <glyph glyph-name="numbersign" unicode="#" horiz-adv-x="840" 
d="M415 577v70h80v-70h-80v0zM255 627h70q0 -41 38 -70.5t92 -29.5t92 29.5t38 70.5h70q0 -66 -58.5 -113t-141.5 -47t-141.5 47t-58.5 113v0zM90 387q23 33 59 51.5t76 18.5q62 0 106 -38t44 -92q0 -35 -16.5 -62.5t-43.5 -37.5q32 -11 51 -40t19 -65q0 -52 -47 -88.5
t-113 -36.5q-51 0 -97 34t-73 91l50 35q21 -46 53.5 -73t66.5 -27q37 0 63.5 17.5t26.5 42.5q0 33 -26.5 56.5t-63.5 23.5h-30v60h30q33 0 56.5 20.5t23.5 49.5t-23.5 49.5t-56.5 20.5q-26 0 -50 -13t-40 -37l-45 40v0zM385 197v60q6 -5 17.5 -7.5t28.5 -2.5q18 0 37 22
t32 58q16 43 51.5 69t78.5 26q64 0 109.5 -55t45.5 -133q0 -77 -45.5 -132t-109.5 -55q-50 0 -85 35t-35 85h60q2 -25 19.5 -42.5t40.5 -17.5q35 0 60 38t25 92q0 50 -25 85t-60 35q-22 0 -46.5 -24.5t-43.5 -65.5q-18 -39 -48 -62t-63 -23q-13 0 -24 4t-20 11v0z" />
    <glyph glyph-name="dollar" unicode="$" horiz-adv-x="270" 
d="M0 0v1h1v-1h-1v0z" />
    <glyph glyph-name="percent" unicode="%" horiz-adv-x="610" 
d="M75 0l390 550h70l-390 -550h-70v0zM315 130q0 54 35 92t85 38t85 -38t35 -92t-35 -92t-85 -38t-85 38t-35 92v0zM385 130q0 -29 14.5 -49.5t35.5 -20.5t35.5 20.5t14.5 49.5t-14.5 49.5t-35.5 20.5t-35.5 -20.5t-14.5 -49.5v0zM55 420q0 54 35 92t85 38t85 -38t35 -92
t-35 -92t-85 -38t-85 38t-35 92v0zM125 420q0 -29 14.5 -49.5t35.5 -20.5t35.5 20.5t14.5 49.5t-14.5 49.5t-35.5 20.5t-35.5 -20.5t-14.5 -49.5v0z" />
    <glyph glyph-name="ampersand" unicode="&#x26;" horiz-adv-x="490" 
d="M55 220v60h380v-60h-380v0z" />
    <glyph glyph-name="quotesingle" unicode="'" horiz-adv-x="210" 
d="M55 500q0 21 14.5 35.5t35.5 14.5t35.5 -17.5t14.5 -42.5q0 -50 -28 -89t-72 -51v30q23 8 36.5 27.5t13.5 42.5q-21 0 -35.5 14.5t-14.5 35.5v0z" />
    <glyph glyph-name="parenleft" unicode="(" horiz-adv-x="400" 
d="M55 170q0 142 67 262.5t183 187.5l40 -60q-102 -59 -161 -163.5t-59 -226.5t59 -226.5t161 -163.5l-40 -60q-116 67 -183 187.5t-67 262.5v0z" />
    <glyph glyph-name="parenright" unicode=")" horiz-adv-x="400" 
d="M55 -220q102 59 161 163.5t59 226.5t-59 226.5t-161 163.5l40 60q116 -67 183 -187.5t67 -262.5t-67 -262.5t-183 -187.5l-40 60v0z" />
    <glyph glyph-name="asterisk" unicode="*" horiz-adv-x="810" 
d="M55 240h260l90 270l90 -270h260l-210 -160l80 -260l-220 160l-220 -160l80 260l-210 160v0z" />
    <glyph glyph-name="plus" unicode="+" horiz-adv-x="510" 
d="M55 190v60h160v160h70v-160h170v-60h-170v-160h-70v160h-160v0z" />
    <glyph glyph-name="comma" unicode="," horiz-adv-x="210" 
d="M55 50q0 21 14.5 35.5t35.5 14.5t35.5 -17.5t14.5 -42.5q0 -50 -28 -89t-72 -51v30q23 8 36.5 27.5t13.5 42.5q-21 0 -35.5 14.5t-14.5 35.5v0z" />
    <glyph glyph-name="hyphen" unicode="-" 
d="M0 0v1h1v-1h-1v0z" />
    <glyph glyph-name="period" unicode="." horiz-adv-x="210" 
d="M55 50q0 21 14.5 35.5t35.5 14.5t35.5 -14.5t14.5 -35.5t-14.5 -35.5t-35.5 -14.5t-35.5 14.5t-14.5 35.5v0z" />
    <glyph glyph-name="slash" unicode="/" horiz-adv-x="550" 
d="M55 -210l385 800h55l-380 -800h-60v0z" />
    <glyph glyph-name="zero" unicode="0" horiz-adv-x="500" 
d="M21 295q0 122 62 213.5t167 91.5t167 -91.5t62 -213.5t-62 -213.5t-167 -91.5t-167 91.5t-62 213.5v0zM90 295q0 -95 41.5 -165.5t118.5 -70.5t118.5 70.5t41.5 165.5t-41.5 165.5t-118.5 70.5t-118.5 -70.5t-41.5 -165.5v0z" />
    <glyph glyph-name="one" unicode="1" horiz-adv-x="499" 
d="M92 425v53q67 0 118.5 32.5t56.5 89.5h46v-550h94v-60h-272v60h110v375h-153v0z" />
    <glyph glyph-name="two" unicode="2" horiz-adv-x="499" 
d="M40 -10q0 87 59.5 157t154.5 125q64 37 100.5 73.5t36.5 86.5q0 46 -40 72.5t-94 26.5t-93.5 -35t-39.5 -87v-38h-69v38q0 80 59.5 135.5t142.5 55.5q81 0 141.5 -47t60.5 -121q0 -66 -44.5 -119t-115.5 -94q-155 -89 -167 -160h327v-69h-419v0z" />
    <glyph glyph-name="three" unicode="3" horiz-adv-x="499" 
d="M32 181h69q0 -54 45.5 -88t106.5 -34q58 0 101.5 31.5t43.5 82.5q0 49 -43.5 78t-101.5 29h-53v68h53q46 0 80.5 28.5t34.5 71.5q0 41 -38.5 62t-91.5 21q-51 0 -86.5 -38t-35.5 -91h-69q0 82 56.5 140t137.5 58q78 0 136.5 -42t58.5 -110q0 -41 -17.5 -76t-50.5 -54
q46 -12 72.5 -53t26.5 -92q0 -79 -64 -131t-150 -52q-89 0 -155 54t-66 137v0z" />
    <glyph glyph-name="four" unicode="4" horiz-adv-x="499" 
d="M36 133v68l275 389h68v-389h84v-68h-84v-143h-68v143h-275v0zM120 201h191v267l-191 -267v0z" />
    <glyph glyph-name="five" unicode="5" horiz-adv-x="499" 
d="M32 173h69q0 -51 43.5 -82.5t101.5 -31.5q62 0 107 39.5t45 97.5q0 61 -45 103t-107 42q-40 0 -76.5 -15.5t-61.5 -45.5h-68l61 320h320v-69h-259l-31 -160q19 22 48 30t67 8q91 0 156 -62t65 -151q0 -87 -65.5 -146.5t-155.5 -59.5q-86 0 -150 52t-64 131v0z" />
    <glyph glyph-name="six" unicode="6" horiz-adv-x="500" 
d="M21 219v76q0 122 62 213.5t167 91.5q80 0 139 -47.5t59 -120.5h-69q0 45 -38.5 72t-90.5 27q-75 0 -117.5 -68t-42.5 -160q28 39 70 61.5t90 22.5q93 0 161 -56.5t68 -142.5t-68.5 -142t-160.5 -56q-95 0 -162 67t-67 162v0zM97 181q0 -54 46 -88t107 -34q64 0 112 36
t48 93t-48 93.5t-112 36.5q-62 0 -107.5 -39t-45.5 -98v0z" />
    <glyph glyph-name="seven" unicode="7" horiz-adv-x="500" 
d="M21 531v69h458v-69q-120 -84 -177 -227.5t-57 -313.5h-69q0 177 47.5 318.5t163.5 222.5h-366v0z" />
    <glyph glyph-name="eight" unicode="8" horiz-adv-x="500" 
d="M21 173q0 47 29.5 86.5t77.5 66.5q-34 20 -55 52.5t-21 69.5q0 69 59.5 110.5t138.5 41.5t138.5 -41.5t59.5 -110.5q0 -37 -21 -69.5t-55 -52.5q48 -27 77.5 -66.5t29.5 -86.5q0 -81 -68.5 -132t-160.5 -51t-160.5 51t-68.5 132v0zM90 173q0 -53 48 -83.5t112 -30.5
t112 30.5t48 83.5t-48 83.5t-112 30.5t-112 -30.5t-48 -83.5v0zM120 448q0 -43 39 -67.5t91 -24.5t90.5 24.5t38.5 67.5q0 41 -38.5 62t-90.5 21q-53 0 -91.5 -21t-38.5 -62v0z" />
    <glyph glyph-name="nine" unicode="9" horiz-adv-x="500" 
d="M21 402q0 86 68.5 142t160.5 56q95 0 162 -67t67 -162v-76q0 -122 -62 -213.5t-167 -91.5q-80 0 -139 47.5t-59 120.5h68q0 -45 39 -72t91 -27q72 0 112 66t40 155q-30 -30 -69.5 -45.5t-82.5 -15.5q-92 0 -160.5 51t-68.5 132v0zM90 409q0 -57 48 -93t112 -36
q61 0 106.5 36.5t45.5 92.5q0 54 -45.5 88t-106.5 34q-64 0 -112 -33.5t-48 -88.5v0z" />
    <glyph glyph-name="colon" unicode=":" horiz-adv-x="210" 
d="M55 380q0 21 14.5 35.5t35.5 14.5t35.5 -14.5t14.5 -35.5t-14.5 -35.5t-35.5 -14.5t-35.5 14.5t-14.5 35.5v0zM55 50q0 21 14.5 35.5t35.5 14.5t35.5 -14.5t14.5 -35.5t-14.5 -35.5t-35.5 -14.5t-35.5 14.5t-14.5 35.5v0z" />
    <glyph glyph-name="semicolon" unicode=";" horiz-adv-x="210" 
d="M55 50q0 21 14.5 35.5t35.5 14.5t35.5 -17.5t14.5 -42.5q0 -50 -28 -89t-72 -51v30q23 8 36.5 27.5t13.5 42.5q-21 0 -35.5 14.5t-14.5 35.5v0zM55 380q0 21 14.5 35.5t35.5 14.5t35.5 -14.5t14.5 -35.5t-14.5 -35.5t-35.5 -14.5t-35.5 14.5t-14.5 35.5v0z" />
    <glyph glyph-name="equal" unicode="=" horiz-adv-x="510" 
d="M55 90v60h400v-60h-400v0zM55 250v60h400v-60h-400v0z" />
    <glyph glyph-name="greater" unicode="&#x3e;" horiz-adv-x="180" 
d="M55 -30v510h70v-510h-70v0z" />
    <glyph glyph-name="question" unicode="?" horiz-adv-x="510" 
d="M195 -10q0 25 17.5 42.5t42.5 17.5t42.5 -17.5t17.5 -42.5t-17.5 -42.5t-42.5 -17.5t-42.5 17.5t-17.5 42.5v0zM55 440q0 66 58.5 113t141.5 47t141.5 -47t58.5 -113q0 -49 -21 -93.5t-59 -76.5t-59 -79t-21 -101h-70q0 67 18.5 119.5t51.5 80.5q43 36 66.5 75.5
t23.5 74.5q0 41 -38 70.5t-92 29.5t-92 -29.5t-38 -70.5q0 -14 7.5 -31t22.5 -34l-60 -35q-19 23 -29.5 49t-10.5 51v0z" />
    <glyph glyph-name="at" unicode="@" horiz-adv-x="259" 
d="M79 350q0 41 29.5 70.5t70.5 29.5t70.5 -29.5t29.5 -70.5t-29.5 -70.5t-70.5 -29.5t-70.5 29.5t-29.5 70.5v0zM129 350q0 -21 14.5 -35.5t35.5 -14.5t35.5 14.5t14.5 35.5t-14.5 35.5t-35.5 14.5t-35.5 -14.5t-14.5 -35.5v0zM79 100q0 41 29.5 70.5t70.5 29.5t70.5 -29.5
t29.5 -70.5t-29.5 -70.5t-70.5 -29.5t-70.5 29.5t-29.5 70.5v0zM129 100q0 -21 14.5 -35.5t35.5 -14.5t35.5 14.5t14.5 35.5t-14.5 35.5t-35.5 14.5t-35.5 -14.5t-14.5 -35.5v0z" />
    <glyph glyph-name="A" unicode="A" horiz-adv-x="574" 
d="M159 350q0 -19 10.5 -32t24.5 -13q12 0 21 13t9 32t-9 32t-21 13q-14 0 -24.5 -13t-10.5 -32v0zM444 350q0 -19 9 -32t21 -13t21 10.5t9 24.5q0 21 -9 35.5t-21 14.5t-21 -11.5t-9 -28.5v0zM79 265q0 88 33 141.5t87 53.5q39 0 67 -32t28 -78t-29.5 -78t-70.5 -32
q-18 0 -45 10q0 -82 50.5 -131t134.5 -49t134.5 49t50.5 131q-9 -5 -22.5 -7.5t-32.5 -2.5v-40h-175v70h115q-15 17 -22.5 38t-7.5 42q0 46 29.5 78t70.5 32q54 0 87 -53.5t33 -141.5q0 -120 -71 -192.5t-189 -72.5q-116 0 -185.5 72.5t-69.5 192.5v0z" />
    <glyph glyph-name="B" unicode="B" horiz-adv-x="573" 
d="M158 350q0 -19 9 -32t21 -13t21 13t9 32t-9 32t-21 13t-21 -13t-9 -32v0zM468 360q0 -17 10.5 -35.5t29.5 -34.5q10 12 15 28.5t5 36.5q0 14 -9 24.5t-21 10.5t-21 -9t-9 -21v0zM78 270q0 86 33 138t87 52q37 0 63.5 -32t26.5 -78t-28 -78t-67 -32q-18 0 -45 10
q0 -82 50.5 -131t134.5 -49q72 0 123.5 25t51.5 60q0 17 -6.5 32.5t-18.5 27.5q-7 -2 -15.5 -3.5t-19.5 -1.5h-155v60h155q-21 15 -33 39t-12 51q0 41 28 70.5t67 29.5t67 -31t28 -74q0 -29 -13 -57.5t-37 -52.5q17 -20 26 -43.5t9 -46.5q0 -70 -67 -112.5t-178 -42.5
q-116 0 -185.5 73.5t-69.5 196.5v0z" />
    <glyph glyph-name="C" unicode="C" horiz-adv-x="530" 
d="M210 100q0 -12 23.5 -21t56.5 -9q28 0 54 9t46 26q-20 17 -46 26t-54 9q-33 0 -56.5 -11.5t-23.5 -28.5v0zM40 330q0 54 38 92t92 38q38 0 70.5 -21.5t49.5 -58.5q17 37 49.5 58.5t70.5 21.5q58 0 99 -52.5t41 -127.5q0 -53 -15.5 -99t-44.5 -81q24 -29 37 -67.5
t13 -82.5h-70q0 29 -7.5 56.5t-22.5 53.5q-35 -29 -73.5 -44.5t-76.5 -15.5q-62 0 -106 29.5t-44 70.5t44 70.5t106 29.5q44 0 82.5 -13t67.5 -37q19 23 29.5 56.5t10.5 73.5q0 46 -20.5 78t-49.5 32q-35 0 -60 -29.5t-25 -70.5v-40h-70v40q0 41 -25 70.5t-60 29.5
q-25 0 -42.5 -17.5t-17.5 -42.5q0 -12 7.5 -27.5t22.5 -32.5l-50 -40q-24 20 -37 46t-13 54v0z" />
    <glyph glyph-name="D" unicode="D" horiz-adv-x="763" 
d="M163 260h295q-10 56 -51 93t-94 37q-55 0 -97.5 -37t-52.5 -93v0zM163 200q10 -56 52.5 -93t97.5 -37q53 0 94 37t51 93h-295v0zM683 260q14 12 22 27.5t8 32.5t-7.5 28.5t-17.5 11.5q-12 0 -21 -13t-9 -32q0 -14 6.5 -28.5t18.5 -26.5v0zM43 200v60h50q7 41 25 74.5
t45 55.5h-80v60h380q29 0 49.5 17.5t20.5 42.5q0 20 -12 40t-33 35l45 35q29 -24 44.5 -53t15.5 -57q0 -50 -38 -85t-92 -35q27 -22 45 -55.5t25 -74.5h70q-7 13 -11 27t-4 29q0 43 29.5 73.5t70.5 30.5q39 0 67 -29.5t28 -70.5q0 -37 -20.5 -68t-54.5 -47q17 -20 26 -43.5
t9 -46.5q0 -52 -36.5 -88.5t-88.5 -36.5v72q23 0 39 15.5t16 37.5q0 18 -10.5 40t-29.5 45h-100q-7 -85 -70.5 -142.5t-149.5 -57.5t-149.5 57.5t-70.5 142.5h-50v0z" />
    <glyph glyph-name="E" unicode="E" horiz-adv-x="875" 
d="M175 350q0 -17 11.5 -28.5t28.5 -11.5t28.5 11.5t11.5 28.5t-11.5 28.5t-28.5 11.5t-28.5 -11.5t-11.5 -28.5v0zM715 70q46 0 78 44t32 106t-24.5 108.5t-65.5 61.5l40 60q55 -26 87.5 -88t32.5 -142q0 -91 -52.5 -155.5t-127.5 -64.5q-62 0 -106 50t-44 120v80
q0 58 -20.5 99t-49.5 41q-25 0 -42.5 -26.5t-17.5 -63.5q0 -20 5 -60t5 -60q0 -75 -44 -127.5t-106 -52.5q-89 0 -152 72t-63 173q0 98 37 156.5t98 58.5q46 0 78 -32t32 -78t-32 -78t-78 -32q-19 0 -36 6.5t-29 18.5q-1 -11 -1 -16q0 -74 43 -126.5t103 -52.5q33 0 56.5 32
t23.5 78q0 20 -5 60t-5 60q0 66 38 113t92 47q58 0 99 -61.5t41 -148.5v-80q0 -41 23.5 -70.5t56.5 -29.5v0z" />
    <glyph glyph-name="F" unicode="F" horiz-adv-x="1190" 
d="M165 350q0 -21 11.5 -35.5t28.5 -14.5q14 0 24.5 14.5t10.5 35.5t-10.5 35.5t-24.5 14.5q-17 0 -28.5 -14.5t-11.5 -35.5v0zM705 60q29 0 49.5 35t20.5 85q0 20 -5 60t-5 60q0 66 58.5 113t141.5 47q101 0 173 -70.5t72 -169.5q0 -91 -50 -155.5t-120 -64.5
q-62 0 -106 44t-44 106q0 50 35 85t85 35q37 0 63.5 -20.5t26.5 -49.5q0 -21 -14.5 -35.5t-35.5 -14.5t-35.5 17.5t-14.5 42.5q-18 -7 -29 -23.5t-11 -36.5q0 -37 23.5 -63.5t56.5 -26.5q41 0 70.5 47t29.5 113q0 75 -51.5 127.5t-123.5 52.5q-54 0 -92 -29.5t-38 -70.5
q0 -20 5 -60t5 -60q0 -75 -41 -127.5t-99 -52.5q-62 0 -106 50t-44 120q0 22 5 65t5 65q0 41 -23.5 70.5t-56.5 29.5q-25 0 -42.5 -29.5t-17.5 -70.5q0 -20 5 -60t5 -60q0 -75 -44 -127.5t-106 -52.5q-85 0 -145 76t-60 184q0 91 34 145.5t91 54.5q41 0 70.5 -35t29.5 -85
q0 -41 -29.5 -70.5t-70.5 -29.5q-14 0 -30 8t-30 22q0 -87 41 -148.5t99 -61.5q33 0 56.5 35t23.5 85q0 20 -5 60t-5 60q0 66 38 113t92 47q62 0 106 -47t44 -113q0 -22 -5 -65t-5 -65q0 -46 23.5 -78t56.5 -32v0z" />
    <glyph glyph-name="G" unicode="G" horiz-adv-x="554" 
d="M504 180q0 95 -96.5 162.5t-233.5 67.5v60q166 0 283 -85t117 -205q0 -75 -44 -127.5t-106 -52.5q-39 0 -72 24.5t-48 65.5q-15 -41 -48 -65.5t-72 -24.5q-54 0 -92 41t-38 99q0 41 29.5 70.5t70.5 29.5q31 0 54 -26t26 -64h-50q0 12 -9 21t-21 9t-21 -14.5t-9 -35.5
q0 -29 17.5 -49.5t42.5 -20.5q37 0 63.5 35t26.5 85h60q0 -50 26.5 -85t63.5 -35q33 0 56.5 35t23.5 85v0z" />
    <glyph glyph-name="H" unicode="H" horiz-adv-x="557" 
d="M507 210q0 61 -41 113t-109 77q-12 -44 -42.5 -72t-67.5 -28q-58 0 -99 47t-41 113h60q0 -37 23.5 -63.5t56.5 -26.5q25 0 42.5 32t17.5 78q117 -21 193.5 -97.5t76.5 -172.5q0 -95 -41 -152.5t-109 -57.5q-41 0 -74 22t-46 58q-13 -36 -46 -58t-74 -22q-54 0 -92 38
t-38 92q0 46 29.5 78t70.5 32q31 0 54 -26t26 -64h-50q0 12 -9 21t-21 9t-21 -14.5t-9 -35.5q0 -29 17.5 -49.5t42.5 -20.5q37 0 63.5 35t26.5 85h60q0 -50 26.5 -85t63.5 -35q36 0 58 41t22 109v0z" />
    <glyph glyph-name="I" unicode="I" horiz-adv-x="581" 
d="M531 230q0 70 -23.5 120t-56.5 50q-37 0 -63.5 -35t-26.5 -85h-60q0 50 -23.5 85t-56.5 35t-56.5 -35t-23.5 -85h-60q0 75 41 127.5t99 52.5q33 0 63 -21.5t47 -58.5q17 37 49.5 58.5t70.5 21.5q62 0 106 -67.5t44 -162.5t-44 -162.5t-106 -67.5q-41 0 -74 22t-46 58
q-13 -36 -46 -58t-74 -22q-54 0 -92 38t-38 92q0 46 29.5 78t70.5 32q31 0 54 -26t26 -64h-50q0 12 -9 21t-21 9t-21 -14.5t-9 -35.5q0 -29 17.5 -49.5t42.5 -20.5q37 0 63.5 35t26.5 85h60q0 -50 26.5 -85t63.5 -35q33 0 56.5 50t23.5 120v0z" />
    <glyph glyph-name="J" unicode="J" horiz-adv-x="578" 
d="M278 360q0 -38 -15.5 -72t-44.5 -58q-26 -22 -40.5 -45.5t-14.5 -44.5q0 -29 17.5 -49.5t42.5 -20.5q37 0 63.5 32t26.5 78h60q0 -46 28 -78t67 -32q27 0 46 22t19 53q0 25 -12 45t-33 30l40 45q32 -19 51 -51t19 -69q0 -60 -39.5 -102.5t-95.5 -42.5q-40 0 -73 23.5
t-47 61.5q-14 -38 -47 -61.5t-73 -23.5q-54 0 -92 41t-38 99q0 31 17 62.5t48 57.5q24 20 37 46t13 54q0 17 -11 28.5t-27 11.5q-15 0 -26 -11.5t-11 -28.5q0 -11 4 -21t11 -19l-55 -30q-15 17 -22.5 35t-7.5 35q0 43 31.5 74t75.5 31q45 0 76.5 -31t31.5 -74v0z" />
    <glyph glyph-name="K" unicode="K" horiz-adv-x="578" 
d="M98 535q0 27 19 50.5t51 34.5l35 -30q-27 -19 -30.5 -56t18.5 -71q38 -7 62.5 -36.5t24.5 -66.5q0 -38 -15.5 -72t-44.5 -58q-26 -22 -40.5 -45.5t-14.5 -44.5q0 -29 17.5 -49.5t42.5 -20.5q37 0 63.5 32t26.5 78h60q0 -46 28 -78t67 -32q27 0 46 22t19 53q0 25 -12 45
t-33 30l40 45q32 -19 51 -51t19 -69q0 -60 -39.5 -102.5t-95.5 -42.5q-40 0 -73 23.5t-47 61.5q-14 -38 -47 -61.5t-73 -23.5q-54 0 -92 41t-38 99q0 31 17 62.5t48 57.5q24 20 37 46t13 54q0 17 -11 28.5t-27 11.5q-15 0 -26 -11.5t-11 -28.5q0 -11 4 -21t11 -19l-55 -30
q-15 17 -22.5 35t-7.5 35q0 35 22 63.5t57 37.5q-21 18 -32.5 37t-11.5 37v0z" />
    <glyph glyph-name="L" unicode="L" horiz-adv-x="578" 
d="M73 460v50h170q18 0 18 20t-18 30h-170v60h350q75 0 127.5 -52.5t52.5 -127.5t-41 -127.5t-99 -52.5q-54 0 -92 35t-38 85q0 41 29.5 70.5t70.5 29.5q29 0 49.5 -17.5t20.5 -42.5q0 -17 -11.5 -28.5t-28.5 -11.5q-15 0 -24 13.5t-6 31.5q-17 0 -28.5 -13t-11.5 -32
q0 -27 20.5 -46t49.5 -19t49.5 33.5t20.5 81.5q0 54 -32 92t-78 38h-120q10 -8 15 -18.5t5 -21.5q0 -25 -23.5 -42.5t-56.5 -17.5h-40q33 -10 54 -38t21 -62q0 -38 -15.5 -72t-44.5 -58q-26 -22 -40.5 -45.5t-14.5 -44.5q0 -29 17.5 -49.5t42.5 -20.5q37 0 63.5 32t26.5 78
h60q0 -46 28 -78t67 -32q27 0 46 19t19 46q0 23 -11 42t-29 28l40 45q30 -17 47.5 -48t17.5 -67q0 -56 -39.5 -95.5t-95.5 -39.5q-40 0 -73 23.5t-47 61.5q-14 -38 -47 -61.5t-73 -23.5q-54 0 -92 41t-38 99q0 31 17 62.5t48 57.5q24 20 37 46t13 54q0 17 -11 28.5t-27 11.5
q-15 0 -26 -11.5t-11 -28.5q0 -11 4 -21t11 -19l-55 -30q-15 17 -22.5 35t-7.5 35q0 34 20.5 62t53.5 38h-64v0z" />
    <glyph glyph-name="M" unicode="M" horiz-adv-x="640" 
d="M145 360q0 -17 9 -28.5t21 -11.5t21 11.5t9 28.5q0 11 -2.5 21t-7.5 19q-21 0 -35.5 -11.5t-14.5 -28.5v0zM145 100q0 -17 14.5 -28.5t35.5 -11.5q5 9 7.5 19t2.5 21q0 17 -9 28.5t-21 11.5t-21 -11.5t-9 -28.5v0zM75 100q0 41 29.5 70.5t70.5 29.5q36 0 64 -28.5
t36 -71.5q14 12 22 46t8 84q0 45 -8 76.5t-22 43.5q0 -37 -29.5 -63.5t-70.5 -26.5t-70.5 29.5t-29.5 70.5t35 70.5t85 29.5q75 0 127.5 -67.5t52.5 -162.5v-40q10 -56 38.5 -93t61.5 -37q48 0 81.5 48.5t33.5 116.5t-33.5 116.5t-81.5 48.5h-25v60h100q19 0 32 14.5
t13 35.5q0 17 -10.5 33t-29.5 27l35 50q34 -16 54.5 -46t20.5 -64q0 -42 -20 -73.5t-50 -36.5q31 -26 48 -69t17 -96q0 -93 -54 -159t-131 -66q-40 0 -75.5 24.5t-54.5 65.5q-19 -41 -60 -65.5t-90 -24.5q-50 0 -85 29.5t-35 70.5v0z" />
    <glyph glyph-name="N" unicode="N" horiz-adv-x="699" 
d="M264 250v80h80v-80h-80v0zM264 -140v30l20 130h40l20 -130v-30h-80v0zM604 260q19 0 32 14.5t13 35.5q0 31 -14 64.5t-41 65.5l50 30q36 -36 55.5 -77.5t19.5 -82.5q0 -48 -33.5 -82t-80.5 -34q-16 0 -31.5 4t-29.5 12q10 -57 10 -55q0 -64 -38 -109.5t-92 -45.5
q-39 0 -72 24.5t-48 65.5q-15 -41 -48 -65.5t-72 -24.5q-54 0 -92 38t-38 92q0 46 29.5 78t70.5 32q33 0 56.5 -26.5t23.5 -63.5h-50q0 12 -9 21t-21 9t-21 -14.5t-9 -35.5q0 -25 16 -42.5t39 -17.5q39 0 67 32t28 78h60q0 -46 26.5 -78t63.5 -32q25 0 42.5 25t17.5 60
q0 36 -15.5 77t-44.5 83l65 35q19 -41 50.5 -65.5t64.5 -24.5v0zM54 390v60h360q33 0 56.5 17.5t23.5 42.5q0 21 -14.5 35.5t-35.5 14.5q-14 0 -21 -1t-9 -4q13 -1 21.5 -11t8.5 -24q0 -17 -11.5 -28.5t-28.5 -11.5q-21 0 -35.5 14.5t-14.5 35.5q0 37 26.5 63.5t63.5 26.5
q46 0 78 -32t32 -78q0 -50 -41 -85t-99 -35h-360v0z" />
    <glyph glyph-name="O" unicode="O" horiz-adv-x="631" 
d="M81 450h483v-60h-483v60v0zM81 240q0 46 41 78t99 32q48 0 83.5 -18t46.5 -47q11 29 46.5 47t83.5 18q70 0 120 -50t50 -120q0 -75 -44 -127.5t-106 -52.5q-41 0 -70.5 26.5t-29.5 63.5q0 33 26.5 56.5t63.5 23.5v-40q-12 0 -21 -9t-9 -21t11.5 -21t28.5 -9q33 0 56.5 32
t23.5 78t-29.5 78t-70.5 32t-70.5 -26.5t-29.5 -63.5h-60q0 37 -28 63.5t-67 26.5q-31 0 -53 -13t-22 -32q0 -17 20.5 -28.5t49.5 -11.5v-60q-29 0 -49.5 -12.5t-20.5 -30.5q0 -13 16 -22.5t39 -9.5q22 0 41.5 8t33.5 22l35 -50q-20 -24 -50 -37t-65 -13q-50 0 -85 29.5
t-35 70.5q0 25 12 45t33 30q-21 10 -33 27.5t-12 37.5v0z" />
    <glyph glyph-name="P" unicode="P" horiz-adv-x="429" 
d="M159 170q0 -41 26.5 -70.5t63.5 -29.5t63.5 29.5t26.5 70.5t-26.5 70.5t-63.5 29.5t-63.5 -29.5t-26.5 -70.5v0zM49 325h170v65h-170v60h310v-60h-80v-65h170v-55h-85q21 -18 33 -44t12 -56q0 -70 -47 -120t-113 -50t-113 50t-47 120q0 26 11.5 52t33.5 48h-85v55v0z" />
    <glyph glyph-name="Q" unicode="Q" horiz-adv-x="429" 
d="M159 170q0 -41 26.5 -70.5t63.5 -29.5t63.5 29.5t26.5 70.5t-26.5 70.5t-63.5 29.5t-63.5 -29.5t-26.5 -70.5v0zM49 325h155q38 38 55 75h-10q-46 0 -78 29.5t-32 70.5q0 46 32 78t78 32q48 0 81.5 -32t33.5 -78q0 -44 -18 -89.5t-52 -85.5h155v-55h-85q21 -18 33 -44
t12 -56q0 -70 -47 -120t-113 -50t-113 50t-47 120q0 26 11.5 52t33.5 48h-85v55v0zM199 500q0 -21 14.5 -35.5t35.5 -14.5t35.5 14.5t14.5 35.5t-14.5 35.5t-35.5 14.5t-35.5 -14.5t-14.5 -35.5v0z" />
    <glyph glyph-name="R" unicode="R" horiz-adv-x="82" 
d="M-57 -260q0 -29 17.5 -49.5t42.5 -20.5t42.5 20.5t17.5 49.5t-17.5 49.5t-42.5 20.5t-42.5 -20.5t-17.5 -49.5v0zM-147 -140h130q24 35 37 65.5t13 54.5q0 22 -4 39.5t-11 30.5l45 20q10 -17 15 -40t5 -50q0 -29 -9 -59.5t-26 -60.5h105v-50h-60q15 -17 22.5 -35t7.5 -35
q0 -50 -35 -85t-85 -35t-85 35t-35 85q0 17 7.5 35t22.5 35h-60v50v0z" />
    <glyph glyph-name="S" unicode="S" horiz-adv-x="654" 
d="M124 100q0 -12 17.5 -21t42.5 -9q26 0 49.5 7.5t40.5 22.5q-23 19 -46 29.5t-44 10.5q-25 0 -42.5 -11.5t-17.5 -28.5v0zM484 70q50 0 85 52.5t35 127.5q0 99 -61.5 169.5t-148.5 70.5v60q116 0 198 -88t82 -212q0 -104 -55.5 -177t-134.5 -73q-48 0 -91.5 15.5
t-78.5 44.5q-24 -29 -58 -44.5t-72 -15.5q-54 0 -92 29.5t-38 70.5q0 43 38 74t92 31q30 0 59.5 -11.5t55.5 -33.5q15 41 15 90q0 62 -26.5 106t-63.5 44q-21 0 -35.5 -13t-14.5 -32q6 7 14 11t16 4q17 0 28.5 -13t11.5 -32t-14.5 -32t-35.5 -13q-33 0 -56.5 26.5
t-23.5 63.5t32 63.5t78 26.5q66 0 113 -61.5t47 -148.5q0 -39 -9 -74.5t-26 -65.5q23 -19 58 -29.5t77 -10.5v0z" />
    <glyph glyph-name="T" unicode="T" horiz-adv-x="653" 
d="M123 100q0 -12 17.5 -21t42.5 -9q26 0 49.5 7.5t40.5 22.5q-23 19 -46 29.5t-44 10.5q-25 0 -42.5 -11.5t-17.5 -28.5v0zM483 70q50 0 85 47t35 113t-41 113t-99 47h-40v60h140v-15q51 -29 80.5 -84t29.5 -121q0 -95 -55.5 -162.5t-134.5 -67.5q-51 0 -94.5 14t-75.5 41
q-22 -26 -56 -40.5t-74 -14.5q-54 0 -92 29.5t-38 70.5t38 70.5t92 29.5q30 0 59.5 -11.5t55.5 -33.5q15 41 15 95q0 62 -26.5 106t-63.5 44q-21 0 -35.5 -13t-14.5 -32q6 7 14 11t16 4q17 0 28.5 -13t11.5 -32t-14.5 -32t-35.5 -13q-33 0 -56.5 23.5t-23.5 56.5
q0 41 32 70.5t78 29.5q66 0 113 -61.5t47 -148.5q0 -39 -9 -74.5t-26 -65.5q23 -19 58 -29.5t77 -10.5v0z" />
    <glyph glyph-name="U" unicode="U" horiz-adv-x="654" 
d="M124 100q0 -12 17.5 -21t42.5 -9q26 0 49.5 7.5t40.5 22.5q-23 19 -46 29.5t-44 10.5q-25 0 -42.5 -11.5t-17.5 -28.5v0zM484 70q50 0 85 61.5t35 148.5q0 57 -15.5 106t-44.5 84q-9 -25 -33.5 -40t-56.5 -15q-48 0 -81.5 31t-33.5 74q0 46 33.5 78t81.5 32
q91 0 155.5 -102.5t64.5 -247.5q0 -116 -55.5 -198t-134.5 -82q-48 0 -90.5 14t-74.5 41q-22 -26 -57.5 -40.5t-77.5 -14.5q-54 0 -92 29.5t-38 70.5q0 43 38 74t92 31q27 0 56.5 -13t58.5 -37q15 41 15 95q0 62 -26.5 106t-63.5 44q-21 0 -35.5 -13t-14.5 -32q6 7 14 11
t16 4q17 0 28.5 -13t11.5 -32t-14.5 -32t-35.5 -13q-33 0 -56.5 26.5t-23.5 63.5t32 63.5t78 26.5q66 0 113 -61.5t47 -148.5q0 -39 -9 -74.5t-26 -65.5q23 -19 58 -29.5t77 -10.5v0zM404 520q0 -17 14.5 -28.5t35.5 -11.5t35.5 11.5t14.5 28.5q0 21 -14.5 35.5t-35.5 14.5
t-35.5 -14.5t-14.5 -35.5v0z" />
    <glyph glyph-name="V" unicode="V" horiz-adv-x="22" 
d="M-125 -330q0 -10 13 -17.5t32 -7.5q13 0 25.5 5t24.5 15q-17 15 -35 22.5t-35 7.5q-10 0 -17.5 -7.5t-7.5 -17.5v0zM-180 -325q0 29 23.5 49.5t56.5 20.5q21 0 44 -10.5t46 -29.5q20 55 20 90q0 37 -20.5 63.5t-49.5 26.5q-15 0 -26.5 -8.5t-13.5 -21.5h20q17 0 28.5 -9
t11.5 -21q0 -21 -11.5 -35.5t-28.5 -14.5q-29 0 -49.5 20.5t-20.5 49.5q0 37 26.5 63.5t63.5 26.5q50 0 85 -41t35 -99q0 -36 -5 -65t-15 -50q50 -35 65 -35q29 0 47 37t18 98q0 34 -13 67.5t-37 62.5l40 35q32 -45 48.5 -87.5t16.5 -77.5q0 -84 -33 -134.5t-87 -50.5
q-19 0 -42.5 13t-47.5 37q-20 -24 -45 -37t-50 -13q-41 0 -70.5 23.5t-29.5 56.5v0z" />
    <glyph glyph-name="W" unicode="W" horiz-adv-x="477" 
d="M97 0v150q0 70 20.5 132t59.5 108h-80v60h300l20 -60q39 -46 59.5 -108t20.5 -132v-150h-70v150q0 99 -38 169.5t-92 70.5t-92 -70.5t-38 -169.5v-150h-70v0z" />
    <glyph glyph-name="X" unicode="X" horiz-adv-x="478" 
d="M98 0v150q0 83 23.5 148.5t66.5 101.5q-40 11 -65 36t-25 54q0 46 38 78t92 32q112 0 191 -102.5t79 -247.5v-100v-150h-70v150q0 99 -38 169.5t-92 70.5t-92 -70.5t-38 -169.5v-150h-70v0zM168 490q0 -17 38 -28.5t92 -11.5q30 0 62.5 -19.5t62.5 -55.5q-20 73 -74 119
t-121 46q-25 0 -42.5 -14.5t-17.5 -35.5v0z" />
    <glyph glyph-name="Y" unicode="Y" 
d="M-170 -365v100q0 83 50 141.5t120 58.5t120 -58.5t50 -141.5v-100h-60v100q0 62 -32 106t-78 44t-78 -44t-32 -106v-100h-60v0z" />
    <glyph glyph-name="Z" unicode="Z" horiz-adv-x="704" 
d="M264 250v80h80v-80h-80v0zM264 -140v30l20 130h40l20 -130v-30h-80v0zM604 260q19 0 32 14.5t13 35.5q0 31 -14 64.5t-41 65.5l50 30q38 -38 59 -80t21 -80q0 -48 -34 -82.5t-82 -34.5q-15 0 -30 4.5t-29 12.5q5 -28 5 -55q0 -64 -38 -109.5t-92 -45.5q-39 0 -72 24.5
t-48 65.5q-15 -41 -49 -65.5t-76 -24.5q-52 0 -88.5 38t-36.5 92q0 46 29.5 78t70.5 32q33 0 56.5 -26.5t23.5 -63.5h-50q0 12 -9 21t-21 9t-21 -14.5t-9 -35.5q0 -25 16 -42.5t39 -17.5q39 0 67 32t28 78h60q0 -46 26.5 -78t63.5 -32q25 0 42.5 25t17.5 60q0 43 -15.5 84
t-44.5 76l65 35q19 -41 50.5 -65.5t64.5 -24.5v0zM54 390v60h390q21 0 35.5 14.5t14.5 35.5q0 22 -12 41t-33 29l35 40q32 -15 51 -45t19 -65q0 -46 -32 -78t-78 -32h-390v0z" />
    <glyph glyph-name="bracketleft" unicode="[" horiz-adv-x="704" 
d="M264 250v80h80v-80h-80v0zM264 -140v30l20 130h40l20 -130v-30h-80v0zM604 260q21 0 35.5 14.5t14.5 35.5q0 19 -9 39.5t-26 40.5h-565v60h677v-60h-37q15 -21 22.5 -41.5t7.5 -38.5q0 -50 -35 -85t-85 -35q-12 0 -27.5 5t-32.5 15q10 -57 10 -60q0 -62 -38 -106t-92 -44
q-39 0 -72 24.5t-48 65.5q-15 -41 -49 -65.5t-76 -24.5q-52 0 -88.5 38t-36.5 92q0 46 29.5 78t70.5 32q33 0 56.5 -26.5t23.5 -63.5h-50q0 12 -9 21t-21 9t-21 -14.5t-9 -35.5q0 -25 16 -42.5t39 -17.5q39 0 67 32t28 78h60q0 -46 26.5 -78t63.5 -32q25 0 42.5 25t17.5 60
q0 36 -15.5 77t-44.5 83l65 35q19 -41 50.5 -65.5t64.5 -24.5v0z" />
    <glyph glyph-name="backslash" unicode="\" horiz-adv-x="699" 
d="M264 -140v30l20 130h40l20 -130v-30h-80v0zM604 260q19 0 32 14.5t13 35.5q0 34 -15.5 67.5t-44.5 62.5l55 30q36 -36 55.5 -77.5t19.5 -82.5q0 -48 -33.5 -82t-80.5 -34q-16 0 -31.5 4t-29.5 12q10 -57 10 -55q0 -64 -38 -109.5t-92 -45.5q-39 0 -72 24.5t-48 65.5
q-15 -41 -48 -65.5t-72 -24.5q-54 0 -92 38t-38 92q0 46 29.5 78t70.5 32q33 0 56.5 -26.5t23.5 -63.5h-50q0 12 -9 21t-21 9t-21 -14.5t-9 -35.5q0 -25 16 -42.5t39 -17.5q39 0 67 32t28 78h60q0 -46 26.5 -78t63.5 -32q25 0 42.5 25t17.5 60q0 36 -15.5 77t-44.5 83l65 35
q19 -41 50.5 -65.5t64.5 -24.5v0zM244 460q0 -17 11.5 -28.5t28.5 -11.5t28.5 11.5t11.5 28.5t-11.5 28.5t-28.5 11.5t-28.5 -11.5t-11.5 -28.5v0zM184 460q0 39 29.5 67t70.5 28q54 0 92 -42.5t38 -102.5q0 -62 -35 -106t-85 -44q-17 0 -35 5t-35 15l15 50q14 -5 27.5 -7.5
t27.5 -2.5q25 0 42.5 25t17.5 60q-9 -16 -28 -25.5t-42 -9.5q-41 0 -70.5 26.5t-29.5 63.5v0z" />
    <glyph glyph-name="bracketright" unicode="]" horiz-adv-x="868" 
d="M318 110q0 -33 38 -56.5t92 -23.5q72 0 123.5 44t51.5 106q0 14 -2.5 27.5t-7.5 27.5q-20 -35 -59 -55t-86 -20h-80q-29 0 -49.5 -14.5t-20.5 -35.5v0zM518 550q0 -15 26 -34t74 -41q-7 41 -30 68t-50 27q-8 0 -14 -6t-6 -14v0zM78 120q0 51 15.5 99.5t44.5 90.5l50 -30
q-22 -38 -33.5 -79t-11.5 -81q0 -133 98 -226.5t237 -93.5q143 0 244 86.5t101 208.5q0 85 -41 162t-114 128q0 -22 -5 -42.5t-15 -37.5q19 -23 29.5 -55.5t10.5 -69.5q0 -87 -70.5 -148.5t-169.5 -61.5q-83 0 -141.5 41t-58.5 99q0 46 41 78t99 32h80q39 0 71 20.5t44 54.5
q-17 30 -48 47.5t-67 17.5q-26 0 -47.5 -10.5t-32.5 -29.5q9 -2 14.5 -10.5t5.5 -19.5q0 -17 -11.5 -28.5t-28.5 -11.5q-21 0 -35.5 14.5t-14.5 35.5q0 50 44 85t106 35q36 0 72 -14t68 -41q5 14 7.5 27.5t2.5 27.5q-56 20 -90 40q-32 19 -51 43t-19 47q0 29 23.5 49.5
t56.5 20.5q58 0 99 -51.5t41 -123.5q97 -56 153.5 -147t56.5 -193q0 -151 -120 -258t-290 -107q-166 0 -283 111.5t-117 268.5v0z" />
    <glyph glyph-name="asciicircum" unicode="^" horiz-adv-x="70" 
d="M-10 -410v30l20 50h20l20 -50v-30h-60v0zM-180 -250q0 41 29.5 70.5t70.5 29.5q13 0 25.5 -5t24.5 -15l-20 -40q-6 5 -13.5 7.5t-16.5 2.5q-17 0 -28.5 -14.5t-11.5 -35.5t11.5 -35.5t28.5 -14.5q29 0 49.5 29.5t20.5 70.5h60q0 -41 20.5 -70.5t49.5 -29.5q23 0 39 29.5
t16 70.5q0 33 -22.5 67.5t-62.5 62.5l35 40q32 -38 64.5 -59t60.5 -21q17 0 13.5 28t-23.5 52l50 20q15 -17 22.5 -40.5t7.5 -49.5q0 -25 -20.5 -42.5t-49.5 -17.5q-13 0 -25 5t-20 15q7 -13 11 -28t4 -32q0 -62 -29.5 -106t-70.5 -44q-31 0 -58 19t-42 51q-15 -32 -42 -51
t-58 -19q-41 0 -70.5 29.5t-29.5 70.5v0z" />
    <glyph glyph-name="underscore" unicode="_" horiz-adv-x="590" 
d="M310 210v70h70v-70h-70v0zM65 360q0 41 31 70.5t74 29.5q41 0 70.5 -29.5t29.5 -70.5q70 49 123.5 74.5t86.5 25.5q54 0 92 -29.5t38 -70.5q0 -18 -5 -33t-15 -27l-60 30q5 9 7.5 16.5t2.5 13.5q0 17 -17.5 28.5t-42.5 11.5q-42 0 -110 -38.5t-155 -111.5
q-26 -22 -40.5 -51t-14.5 -59q0 -29 17.5 -49.5t42.5 -20.5q37 0 63.5 31t26.5 74h60q0 -43 26.5 -74t63.5 -31q29 0 49.5 20.5t20.5 49.5q0 24 -13.5 45.5t-36.5 34.5l40 50q37 -21 58.5 -56t21.5 -74q0 -58 -41 -99t-99 -41q-36 0 -68.5 24.5t-51.5 65.5
q-19 -41 -51.5 -65.5t-68.5 -24.5q-54 0 -92 41t-38 99q0 29 15.5 60t44.5 60t44.5 55t15.5 45q0 17 -11.5 28.5t-28.5 11.5t-28.5 -11.5t-11.5 -28.5q0 -14 2.5 -24t7.5 -16l-50 -20q-12 12 -18.5 27.5t-6.5 32.5v0z" />
    <glyph glyph-name="grave" unicode="`" horiz-adv-x="25" 
d="M30 -245v50h70v-50h-70v0zM-170 -315q0 24 12 46t33 39q26 20 40.5 40t14.5 35q0 12 -9 21t-21 9t-21 -6t-9 -14q0 -6 2.5 -11t7.5 -9l-35 -30q-12 7 -18.5 20t-6.5 30q0 29 23.5 49.5t56.5 20.5t56.5 -20.5t23.5 -49.5q35 29 71 44.5t69 15.5t56.5 -20.5t23.5 -49.5
q0 -17 -8 -32.5t-22 -27.5l-40 20q20 24 20 30q0 12 -9 21t-21 9q-26 0 -66 -22t-89 -63q-39 -32 -45 -40q-15 -17 -22.5 -31.5t-7.5 -23.5q0 -17 11.5 -28.5t28.5 -11.5q29 0 49.5 23.5t20.5 56.5h60q0 -33 20.5 -56.5t49.5 -23.5q17 0 28.5 11.5t11.5 28.5q0 8 -5 18
t-15 22l45 35q17 -14 26 -33.5t9 -41.5q0 -37 -29.5 -63.5t-70.5 -26.5q-33 0 -60 16.5t-40 43.5q-13 -27 -40 -43.5t-60 -16.5q-41 0 -70.5 26.5t-29.5 63.5v0z" />
    <glyph glyph-name="a" unicode="a" horiz-adv-x="583" 
d="M393 310h60v80h-60v60h113l7 -60v-80h90v-60h-40q19 -16 29.5 -42t10.5 -58q0 -62 -41 -106t-99 -44q-36 0 -68.5 24.5t-51.5 65.5q-19 -41 -51.5 -65.5t-68.5 -24.5q-54 0 -92 41t-38 99q0 34 17 69t48 66q24 24 37 46t13 39t-11.5 28.5t-28.5 11.5q-14 0 -24.5 -11.5
t-10.5 -28.5q0 -11 2.5 -21t7.5 -19l-55 -20q-12 14 -18.5 29.5t-6.5 30.5q0 43 31 74t74 31q46 0 78 -31t32 -74q0 -24 -15.5 -52.5t-44.5 -57.5q-26 -26 -40.5 -55t-14.5 -55q0 -29 17.5 -49.5t42.5 -20.5q37 0 63.5 32t26.5 78h60q0 -46 26.5 -78t63.5 -32
q29 0 49.5 26.5t20.5 63.5t-22 63.5t-53 26.5h-65v60v0z" />
    <glyph glyph-name="b" unicode="b" horiz-adv-x="583" 
d="M393 310h40q48 57 60 90h-20q-41 0 -70.5 29.5t-29.5 70.5t29.5 70.5t70.5 29.5t70.5 -35t29.5 -85q0 -43 -21 -87.5t-59 -82.5h110v-60h-35q17 -14 26 -37.5t9 -52.5q0 -66 -41 -113t-99 -47q-40 0 -73 23.5t-47 61.5q-18 -39 -50.5 -62t-69.5 -23q-54 0 -92 41t-38 99
q0 38 17 73.5t48 61.5q24 20 37 42.5t13 42.5q0 17 -11.5 28.5t-28.5 11.5q-14 0 -24.5 -11.5t-10.5 -28.5q0 -11 2.5 -21t7.5 -19l-50 -20q-15 17 -22.5 32.5t-7.5 27.5q0 43 31 74t74 31q46 0 78 -31t32 -74q0 -21 -15.5 -50.5t-44.5 -64.5q-27 -32 -41 -60t-14 -50
q0 -27 19 -46t46 -19q35 0 60 32t25 78h60q0 -46 26.5 -78t63.5 -32q29 0 49.5 26.5t20.5 63.5t-20.5 63.5t-49.5 26.5h-70v60v0zM423 500q0 -21 14.5 -35.5t35.5 -14.5t35.5 14.5t14.5 35.5t-14.5 35.5t-35.5 14.5t-35.5 -14.5t-14.5 -35.5v0z" />
    <glyph glyph-name="c" unicode="c" horiz-adv-x="22" 
d="M-175 -315q0 20 13 42.5t37 42.5q26 22 40.5 41.5t14.5 33.5q0 12 -9 21t-21 9t-21 -6t-9 -14q0 -6 2.5 -11t7.5 -9l-30 -30q-14 12 -22 25t-8 25q0 29 23.5 49.5t56.5 20.5q35 0 60 -22t25 -53q0 -24 -13 -48.5t-37 -43.5t-37 -38.5t-13 -34.5q0 -17 11.5 -28.5
t28.5 -11.5q29 0 49.5 23.5t20.5 56.5h60q0 -33 19 -56.5t46 -23.5q23 0 39 19t16 46t-16 46t-39 19h-65v50h60q12 14 18.5 32.5t6.5 37.5q0 12 -4 24.5t-11 25.5l50 20q10 -17 15 -35t5 -35t-5 -35t-15 -35h50v-50h-25q12 -10 18.5 -27t6.5 -38q0 -48 -31 -81.5t-74 -33.5
q-31 0 -56.5 16.5t-38.5 43.5q-13 -27 -40 -43.5t-60 -16.5q-41 0 -70.5 26.5t-29.5 63.5v0z" />
    <glyph glyph-name="d" unicode="d" horiz-adv-x="569" 
d="M189 360q0 -19 10.5 -32t24.5 -13t24.5 13t10.5 32t-10.5 32t-24.5 13t-24.5 -13t-10.5 -32v0zM299 -140v30l20 130h40l20 -130v-30h-80v0zM449 70q29 0 49.5 47t20.5 113t-28 113t-67 47h-30v60h95l25 -40q36 -30 55.5 -77t19.5 -103q0 -95 -41 -162.5t-99 -67.5
q-37 0 -67.5 20.5t-42.5 54.5q-12 -34 -42.5 -54.5t-67.5 -20.5q-58 0 -99 61.5t-41 148.5q0 113 38 181.5t102 68.5q39 0 67 -29.5t28 -70.5q0 -43 -31 -74t-74 -31q-14 0 -27 6.5t-23 18.5q-10 -19 -10 -75t20.5 -95.5t49.5 -39.5q33 0 56.5 32t23.5 78h60q0 -46 23.5 -78
t56.5 -32v0z" />
    <glyph glyph-name="e" unicode="e" horiz-adv-x="569" 
d="M184 360q0 -19 10.5 -32t24.5 -13t24.5 13t10.5 32t-10.5 32t-24.5 13t-24.5 -13t-10.5 -32v0zM299 -140v30l20 130h40l20 -130v-30h-80v0zM449 70q29 0 49.5 54t20.5 131q0 66 -13 116t-37 79q-11 -23 -32.5 -36.5t-47.5 -13.5q-41 0 -70.5 29.5t-29.5 70.5t26.5 70.5
t63.5 29.5q47 0 93 -39.5t77 -105.5q20 -42 30 -93t10 -107q0 -106 -41 -180.5t-99 -74.5q-36 0 -66.5 22t-43.5 58q-13 -36 -43.5 -58t-66.5 -22q-58 0 -99 63t-41 152q0 111 35.5 178t94.5 67q39 0 67 -29.5t28 -70.5t-29.5 -70.5t-70.5 -29.5q-13 0 -24.5 4t-20.5 11
q-10 -29 -10 -60q0 -60 20.5 -102.5t49.5 -42.5q33 0 56.5 32t23.5 78h60q0 -46 23.5 -78t56.5 -32v0zM339 500q0 -21 14.5 -35.5t35.5 -14.5t35.5 14.5t14.5 35.5t-14.5 35.5t-35.5 14.5t-35.5 -14.5t-14.5 -35.5v0z" />
    <glyph glyph-name="f" unicode="f" horiz-adv-x="20" 
d="M-100 -150q0 -8 6 -14t14 -6t14 6t6 14t-6 14t-14 6t-14 -6t-6 -14v0zM-10 -420v30l20 50h20l20 -50v-30h-60v0zM-180 -220q0 58 29.5 99t70.5 41q29 0 49.5 -20.5t20.5 -49.5t-20.5 -49.5t-49.5 -20.5q-16 0 -29.5 11t-20.5 29v-40q0 -37 17.5 -63.5t42.5 -26.5
t42.5 20.5t17.5 49.5h60q0 -29 14.5 -49.5t35.5 -20.5q27 0 46 29.5t19 70.5q0 31 -15.5 63.5t-44.5 61.5l45 30q34 -34 52 -74t18 -81q0 -62 -35 -106t-85 -44q-24 0 -45.5 16.5t-34.5 43.5q-13 -27 -37.5 -43.5t-52.5 -16.5q-46 0 -78 41t-32 99v0z" />
    <glyph glyph-name="g" unicode="g" horiz-adv-x="578" 
d="M273 350q0 -35 -14.5 -66.5t-40.5 -53.5t-40.5 -45.5t-14.5 -44.5q0 -29 17.5 -49.5t42.5 -20.5q37 0 63.5 32t26.5 78h60q0 -46 28 -78t67 -32q27 0 46 22t19 53q0 25 -12 45t-33 30l40 45q32 -19 51 -51t19 -69q0 -60 -39.5 -102.5t-95.5 -42.5q-40 0 -73 23.5
t-47 61.5q-14 -38 -47 -61.5t-73 -23.5q-54 0 -92 41t-38 99q0 31 17 62.5t48 57.5q24 20 37 46t13 54q0 17 -10.5 28.5t-24.5 11.5q-17 0 -28.5 -11.5t-11.5 -28.5q0 -11 4 -21t11 -19l-55 -30q-15 17 -22.5 35t-7.5 35q0 43 32 74t78 31q26 0 47 -9.5t33 -25.5
q46 -39 90 -59.5t80 -20.5q38 0 71 27.5t49 72.5l50 -35q-21 -59 -68 -94.5t-102 -35.5q-35 0 -73.5 17t-76.5 48v0z" />
    <glyph glyph-name="h" unicode="h" horiz-adv-x="578" 
d="M93 130q0 31 15.5 63.5t44.5 61.5q26 26 40.5 53.5t14.5 51.5q0 17 -10.5 28.5t-24.5 11.5q-17 0 -28.5 -11.5t-11.5 -28.5q0 -14 2.5 -24t7.5 -16l-50 -30q-15 17 -22.5 35t-7.5 35q0 43 32 74t78 31q26 0 47 -9.5t33 -25.5q70 -49 123.5 -74.5t86.5 -25.5q8 0 14 9
t6 21t-9 21t-21 9h-40v60h93v-30q17 -12 27 -28t10 -32q0 -37 -25 -63.5t-60 -26.5q-38 0 -85.5 23t-99.5 67q0 -40 -14.5 -74t-40.5 -56t-40.5 -45.5t-14.5 -44.5q0 -29 17.5 -49.5t42.5 -20.5q37 0 63.5 32t26.5 78h60q0 -46 28 -78t67 -32q27 0 46 22t19 53
q0 18 -12 37.5t-33 37.5l40 45q33 -23 51.5 -53.5t18.5 -61.5q0 -62 -39.5 -106t-95.5 -44q-40 0 -73 23.5t-47 61.5q-14 -38 -47 -61.5t-73 -23.5q-54 0 -92 38t-38 92v0z" />
    <glyph glyph-name="i" unicode="i" horiz-adv-x="579" 
d="M274 350q0 -35 -14.5 -66.5t-40.5 -53.5t-40.5 -45.5t-14.5 -44.5q0 -29 17.5 -49.5t42.5 -20.5q37 0 63.5 32t26.5 78h60q0 -46 29.5 -78t70.5 -32q25 0 42.5 22t17.5 53q0 25 -12 46.5t-33 33.5l45 45q31 -26 48 -59t17 -66q0 -60 -36.5 -102.5t-88.5 -42.5
q-45 0 -80.5 23.5t-49.5 61.5q-14 -38 -48.5 -61.5t-76.5 -23.5q-52 0 -88.5 41t-36.5 99q0 34 19.5 69.5t55.5 65.5q19 16 29.5 38.5t10.5 46.5q0 17 -10.5 28.5t-24.5 11.5q-17 0 -28.5 -11.5t-11.5 -28.5q0 -11 4 -21t11 -19l-55 -30q-15 17 -22.5 35t-7.5 35q0 43 32 74
t78 31q26 0 48.5 -9t36.5 -26q49 -34 93.5 -52t81.5 -18q23 0 42 9.5t28 25.5l-20 -5q-41 0 -70.5 29.5t-29.5 70.5t29.5 70.5t70.5 29.5t70.5 -35t29.5 -85q0 -77 -41 -123.5t-109 -46.5q-36 0 -76.5 12.5t-83.5 37.5v0zM434 490q0 -21 14.5 -35.5t35.5 -14.5t35.5 14.5
t14.5 35.5t-14.5 35.5t-35.5 14.5t-35.5 -14.5t-14.5 -35.5v0z" />
    <glyph glyph-name="j" unicode="j" horiz-adv-x="25" 
d="M-170 -310q0 19 13 40.5t37 42.5t37 39.5t13 32.5q0 12 -9 21t-21 9t-21 -6t-9 -14q0 -6 2.5 -11t7.5 -9l-30 -30q-14 8 -22 21.5t-8 28.5q0 29 23.5 49.5t56.5 20.5q29 0 51.5 -14t28.5 -36q28 -20 58.5 -30t61.5 -10q25 0 42.5 10.5t17.5 24.5q0 7 -6.5 16t-18.5 19
l35 35q21 -12 33 -31t12 -39q0 -35 -33.5 -60t-81.5 -25q-34 0 -65 9t-55 26q-6 -21 -19 -40.5t-33 -34.5q-18 -14 -28 -28.5t-10 -26.5q0 -19 14.5 -32t35.5 -13q25 0 42.5 23.5t17.5 56.5h60q0 -33 19 -56.5t46 -23.5q19 0 32 14.5t13 35.5q0 9 -2.5 17.5t-7.5 17.5l50 30
q10 -17 15 -33.5t5 -31.5q0 -41 -31 -70.5t-74 -29.5q-32 0 -57.5 15t-37.5 40q-12 -25 -36.5 -40t-53.5 -15q-46 0 -78 28t-32 67v0z" />
    <glyph glyph-name="k" unicode="k" horiz-adv-x="345" 
d="M155 390l5 60q85 0 145 -66t60 -159t-61.5 -159t-148.5 -66q-61 0 -107.5 39.5t-57.5 100.5v110q14 -78 60.5 -129t104.5 -51t99 45.5t41 109.5q0 68 -41 116.5t-99 48.5v0zM295 -140v30l20 140h40l20 -140v-30h-80v0z" />
    <glyph glyph-name="l" unicode="l" horiz-adv-x="125" 
d="M-130 -195q0 -29 20.5 -49.5t49.5 -20.5t49.5 20.5t20.5 49.5t-20.5 49.5t-49.5 20.5t-49.5 -20.5t-20.5 -49.5v0zM-180 -195q0 50 35 85t85 35t85 -35t35 -85q0 -29 17.5 -49.5t42.5 -20.5q29 0 49.5 20.5t20.5 49.5q0 31 -20.5 53t-49.5 22l15 45q46 -8 75.5 -42
t29.5 -78q0 -29 20.5 -49.5t49.5 -20.5t49.5 20.5t20.5 49.5q0 31 -20.5 53t-49.5 22l15 45q45 -4 75 -38.5t30 -81.5q0 -50 -35 -85t-85 -35q-23 0 -44 12t-36 33l20 -75v-30h-60v30l20 75q-15 -21 -39 -33t-51 -12q-20 0 -42.5 13t-42.5 37q-13 -23 -38.5 -36.5
t-56.5 -13.5q-50 0 -85 35t-35 85v0z" />
    <glyph glyph-name="m" unicode="m" horiz-adv-x="750" 
d="M210 100q0 -12 23.5 -21t56.5 -9t61 7.5t49 22.5q-34 20 -62 30t-48 10q-33 0 -56.5 -11.5t-23.5 -28.5v0zM40 330q0 54 38 92t92 38q45 0 78.5 -19.5t41.5 -50.5q8 31 41.5 50.5t78.5 19.5q39 0 70 -22.5t40 -57.5q9 35 42.5 57.5t77.5 22.5q54 0 92 -38t38 -92
q0 -28 -13 -54t-37 -46l-50 40q15 17 22.5 32.5t7.5 27.5q0 29 -17.5 49.5t-42.5 20.5q-37 0 -63.5 -35t-26.5 -85q0 -58 -15.5 -104.5t-44.5 -75.5q24 -20 37 -59.5t13 -90.5h-70q0 36 -7.5 64.5t-22.5 45.5q-29 -29 -68 -44.5t-82 -15.5q-62 0 -106 29.5t-44 70.5t44 70.5
t106 29.5q44 0 82.5 -13t67.5 -37q20 34 30 67t10 63q0 50 -20.5 85t-49.5 35q-37 0 -63.5 -32t-26.5 -78v-20h-60v20q0 46 -26.5 78t-63.5 32q-25 0 -42.5 -20.5t-17.5 -49.5q0 -12 7.5 -27.5t22.5 -32.5l-50 -40q-24 24 -37 50t-13 50v0z" />
    <glyph glyph-name="n" unicode="n" horiz-adv-x="75" 
d="M-180 -170q0 39 29.5 67t70.5 28q25 0 46.5 -12t33.5 -33q12 21 33.5 33t46.5 12q28 0 49.5 -9.5t30.5 -25.5q9 16 28 25.5t42 9.5q41 0 70.5 -29.5t29.5 -70.5q0 -12 -7.5 -27.5t-22.5 -32.5l-40 30q5 9 7.5 16.5t2.5 13.5q0 21 -11.5 35.5t-28.5 14.5q-16 0 -30 -14
t-20 -36q-3 -40 -12.5 -68.5t-22.5 -41.5q28 -23 44.5 -46.5t20.5 -43.5h-60q-2 14 -10 27t-20 23q-20 -24 -51.5 -37t-68.5 -13q-41 0 -70.5 20.5t-29.5 49.5t29.5 49.5t70.5 20.5q30 0 54 -5t41 -15q12 14 18.5 35t6.5 45q0 21 -11.5 35.5t-28.5 14.5q-18 0 -32 -14
t-18 -36h-60q-4 22 -18 36t-32 14q-17 0 -28.5 -13t-11.5 -32q0 -9 2.5 -17.5t7.5 -17.5l-45 -30q-12 14 -18.5 31t-6.5 34v0zM-40 -305q0 -8 11.5 -14t28.5 -6q19 0 37.5 6.5t32.5 18.5q-13 7 -30.5 11t-39.5 4q-17 0 -28.5 -6t-11.5 -14v0z" />
    <glyph glyph-name="o" unicode="o" horiz-adv-x="624" 
d="M179 300q0 -17 10.5 -28.5t24.5 -11.5q17 0 28.5 11.5t11.5 28.5t-11.5 28.5t-28.5 11.5q-14 0 -24.5 -11.5t-10.5 -28.5v0zM84 190q0 70 21.5 121.5t58.5 68.5q-21 12 -33 36t-12 54q0 23 10.5 47.5t29.5 47.5l55 -35q-14 -10 -22 -26t-8 -34q0 -23 11 -42t29 -28
q37 0 63.5 -29.5t26.5 -70.5t-29.5 -70.5t-70.5 -29.5q-16 0 -30.5 6.5t-24.5 18.5l-5 -35q0 -50 23.5 -85t56.5 -35q37 0 63.5 32t26.5 78h60q0 -46 29.5 -78t70.5 -32q37 0 63.5 26.5t26.5 63.5q0 41 -25 70.5t-60 29.5h-35v60h40q33 0 56.5 20.5t23.5 49.5q0 19 -16.5 36
t-43.5 24l20 60q48 -8 79 -42t31 -78q0 -37 -16.5 -66t-43.5 -39q28 -16 44 -49.5t16 -75.5q0 -66 -47 -113t-113 -47q-47 0 -83 25t-47 65q-11 -40 -44.5 -65t-75.5 -25q-62 0 -106 55.5t-44 134.5v0z" />
    <glyph glyph-name="p" unicode="p" horiz-adv-x="632" 
d="M187 300q0 -14 10.5 -24.5t24.5 -10.5t24.5 10.5t10.5 24.5q0 17 -10.5 28.5t-24.5 11.5t-24.5 -11.5t-10.5 -28.5v0zM82 190q0 68 24.5 119.5t65.5 70.5q-21 18 -33 41.5t-12 48.5q0 23 10.5 47.5t29.5 47.5l55 -35q-14 -12 -22 -27.5t-8 -32.5q0 -22 10.5 -40.5
t29.5 -29.5q37 0 63.5 -29.5t26.5 -70.5t-28 -70.5t-67 -29.5q-19 0 -37.5 8t-32.5 22q-5 -4 -7.5 -14.5t-2.5 -25.5q0 -50 28 -85t67 -35q37 0 63.5 32t26.5 78h60q0 -46 29.5 -78t70.5 -32q37 0 63.5 26.5t26.5 63.5q0 41 -26.5 70.5t-63.5 29.5h-35v60h35q12 0 21 9t9 21
q0 13 -11 24t-29 16h-65v60h145l10 -50q12 -12 18.5 -25t6.5 -25q0 -22 -5.5 -37.5t-14.5 -22.5q35 -20 55 -55t20 -75q0 -66 -47 -113t-113 -47q-45 0 -81 22t-49 58q-13 -36 -46 -58t-74 -22q-66 0 -113 55.5t-47 134.5v0z" />
    <glyph glyph-name="q" unicode="q" horiz-adv-x="625" 
d="M175 305q0 -19 13 -32t32 -13t32 13t13 32t-13 32t-32 13t-32 -13t-13 -32v0zM575 160q0 41 -26.5 70.5t-63.5 29.5h-40v60h30q31 3 55 26.5t30 58.5q-4 -2 -10.5 -3.5t-14.5 -1.5q-41 0 -70.5 29.5t-29.5 70.5t29.5 70.5t70.5 29.5t70.5 -32t29.5 -78q0 -65 -18.5 -116
t-51.5 -79q36 -13 58 -50t22 -85q0 -66 -47 -113t-113 -47q-49 0 -85 21t-45 54q-9 -33 -42.5 -54t-77.5 -21q-62 0 -106 58.5t-44 141.5q0 71 23 124t62 71q-19 23 -29.5 45t-10.5 40q0 23 10.5 47.5t29.5 47.5l55 -35q-14 -12 -22 -27.5t-8 -32.5q0 -19 9 -37.5t26 -32.5
q39 0 67 -29.5t28 -70.5q0 -43 -29.5 -74t-70.5 -31q-22 0 -40 6.5t-30 18.5l-5 -30q0 -54 25 -92t60 -38q37 0 63.5 32t26.5 78h60q0 -46 29.5 -78t70.5 -32q37 0 63.5 26.5t26.5 63.5v0zM490 500q0 -19 13 -32t32 -13t32 13t13 32t-13 32t-32 13t-32 -13t-13 -32v0z" />
    <glyph glyph-name="r" unicode="r" horiz-adv-x="15" 
d="M-100 -145q0 -8 6 -14t14 -6t14 6t6 14t-6 14t-14 6t-14 -6t-6 -14v0zM-180 -215q0 58 29.5 99t70.5 41q29 0 49.5 -20.5t20.5 -49.5t-20.5 -49.5t-49.5 -20.5q-16 0 -29.5 11t-20.5 29v-40q0 -37 17.5 -63.5t42.5 -26.5t42.5 20.5t17.5 49.5h60q0 -29 17.5 -49.5
t42.5 -20.5q21 0 35.5 19t14.5 46t-14.5 46t-35.5 19h-35v50h25q19 0 32 16t13 39q0 6 -5 14t-15 16l40 35q17 -14 26 -31t9 -34q0 -27 -9.5 -47.5t-25.5 -27.5q21 -12 33 -37.5t12 -57.5q0 -48 -29.5 -81.5t-70.5 -33.5q-28 0 -52.5 16.5t-37.5 43.5q-13 -27 -37.5 -43.5
t-52.5 -16.5q-46 0 -78 41t-32 99v0z" />
    <glyph glyph-name="s" unicode="s" horiz-adv-x="497" 
d="M147 220q0 -62 44 -106t106 -44t106 44t44 106q0 70 -44 120t-106 50t-106 -50t-44 -120v0zM152 390h-75v60h350l15 -60q36 -30 55.5 -74.5t19.5 -95.5q0 -91 -64.5 -155.5t-155.5 -64.5t-155.5 64.5t-64.5 155.5q0 51 19.5 95.5t55.5 74.5v0zM257 180v80h80v-80h-80v0z
" />
    <glyph glyph-name="t" unicode="t" horiz-adv-x="497" 
d="M147 220q0 -62 44 -106t106 -44t106 44t44 106q0 70 -44 120t-106 50t-106 -50t-44 -120v0zM147 490q0 -17 23.5 -28.5t56.5 -11.5h70q38 0 72 -13t58 -37q-32 69 -86 109.5t-114 40.5q-33 0 -56.5 -17.5t-23.5 -42.5v0zM77 220q0 55 24 102.5t66 77.5q-37 0 -63.5 26.5
t-26.5 63.5q0 46 44 78t106 32q120 0 205 -111.5t85 -268.5q0 -91 -64.5 -155.5t-155.5 -64.5t-155.5 64.5t-64.5 155.5v0zM257 180v80h80v-80h-80v0z" />
    <glyph glyph-name="u" unicode="u" 
d="M-30 -255v60h60v-60h-60v0zM-90 -225q0 -41 26.5 -70.5t63.5 -29.5t63.5 29.5t26.5 70.5t-26.5 70.5t-63.5 29.5t-63.5 -29.5t-26.5 -70.5v0zM-150 -225q0 62 44 106t106 44t106 -44t44 -106t-44 -106t-106 -44t-106 44t-44 106v0z" />
    <glyph glyph-name="v" unicode="v" horiz-adv-x="572" 
d="M392 260q0 -12 11.5 -21t28.5 -9q12 0 27.5 7.5t32.5 22.5q-17 15 -32.5 22.5t-27.5 7.5q-17 0 -28.5 -9t-11.5 -21v0zM152 180q0 -46 22 -78t53 -32t53 32t22 78h60q0 -46 26.5 -78t63.5 -32q29 0 49.5 23.5t20.5 56.5q0 38 -10 65q-14 -12 -35 -18.5t-45 -6.5
q-33 0 -56.5 20.5t-23.5 49.5t23.5 49.5t56.5 20.5q21 0 42 -7.5t38 -22.5q0 37 -48.5 63.5t-116.5 26.5q-81 0 -138 -61.5t-57 -148.5v0zM512 390q24 -20 37 -46t13 -54q0 -9 -2.5 -16.5t-7.5 -13.5q19 -23 29.5 -51.5t10.5 -58.5q0 -62 -41 -106t-99 -44q-36 0 -68.5 24.5
t-51.5 65.5q-19 -41 -47.5 -65.5t-57.5 -24.5q-60 0 -102.5 52.5t-42.5 127.5q0 66 26.5 121.5t73.5 88.5h-100v60h422v-60h8v0z" />
    <glyph glyph-name="w" unicode="w" horiz-adv-x="571" 
d="M391 260q0 -12 11.5 -21t28.5 -9q12 0 27.5 7.5t32.5 22.5q-17 15 -32.5 22.5t-27.5 7.5q-17 0 -28.5 -9t-11.5 -21v0zM151 185q0 -48 20.5 -81.5t49.5 -33.5q33 0 56.5 32t23.5 78h60q0 -46 26.5 -78t63.5 -32q29 0 49.5 23.5t20.5 56.5q0 38 -10 65q-14 -12 -35 -18.5
t-45 -6.5q-33 0 -56.5 20.5t-23.5 49.5t23.5 49.5t56.5 20.5q21 0 42 -7.5t38 -22.5q0 37 -52.5 63.5t-127.5 26.5t-127.5 -60t-52.5 -145v0zM81 180q0 64 28 119.5t77 90.5q-38 10 -61.5 39.5t-23.5 65.5q0 43 48.5 74t116.5 31q122 0 208.5 -91t86.5 -219q0 -9 -2.5 -17.5
t-7.5 -17.5q19 -19 29.5 -46.5t10.5 -58.5q0 -62 -41 -106t-99 -44q-36 0 -68.5 24.5t-51.5 65.5q-19 -41 -49 -65.5t-61 -24.5q-58 0 -99 52.5t-41 127.5v0zM161 495q0 -19 23.5 -32t56.5 -13h90q54 0 96 -14.5t64 -40.5q-25 70 -87 112.5t-138 42.5q-43 0 -74 -16t-31 -39
v0z" />
    <glyph glyph-name="x" unicode="x" horiz-adv-x="20" 
d="M-180 -260q0 75 58.5 127.5t141.5 52.5q70 0 123 -32t67 -83v-30q5 -9 7.5 -21.5t2.5 -28.5q0 -41 -29.5 -70.5t-70.5 -29.5q-33 0 -60 16.5t-40 43.5q-13 -27 -37.5 -43.5t-52.5 -16.5q-46 0 -78 33.5t-32 81.5v0zM-120 -260q0 -27 14.5 -46t35.5 -19q25 0 42.5 17.5
t17.5 42.5h60q0 -25 20.5 -42.5t49.5 -17.5q25 0 42.5 14.5t17.5 35.5q0 4 -2.5 9t-7.5 11q-9 -5 -19 -7.5t-21 -2.5q-25 0 -42.5 11.5t-17.5 28.5t17.5 28.5t42.5 11.5q12 0 23 -2.5t22 -7.5q-20 28 -61 44t-94 16q-58 0 -99 -36.5t-41 -88.5v0zM105 -225q0 -4 7.5 -7
t17.5 -3q9 0 16.5 2.5t13.5 7.5q-6 5 -13.5 7.5t-16.5 2.5q-10 0 -17.5 -3t-7.5 -7v0z" />
    <glyph glyph-name="y" unicode="y" horiz-adv-x="572" 
d="M392 260q0 -12 11.5 -21t28.5 -9q12 0 27.5 7.5t32.5 22.5q-17 15 -32.5 22.5t-27.5 7.5q-17 0 -28.5 -9t-11.5 -21v0zM152 180q0 -46 22 -78t53 -32t53 32t22 78h60q0 -46 26.5 -78t63.5 -32q29 0 49.5 23.5t20.5 56.5q0 38 -10 65q-14 -12 -35 -18.5t-45 -6.5
q-33 0 -56.5 20.5t-23.5 49.5t23.5 49.5t56.5 20.5q21 0 42 -7.5t38 -22.5q0 37 -51.5 63.5t-123.5 26.5q-77 0 -131 -61.5t-54 -148.5v0zM512 390q24 -20 37 -46t13 -54q0 -9 -2.5 -16.5t-7.5 -13.5q19 -23 29.5 -51.5t10.5 -58.5q0 -62 -41 -106t-99 -44q-36 0 -68.5 24.5
t-51.5 65.5q-19 -41 -47.5 -65.5t-57.5 -24.5q-60 0 -102.5 52.5t-42.5 127.5q0 66 26.5 121.5t73.5 88.5h-100v60h422v-60h8v0zM292 -140v30l20 130h40l20 -130v-30h-80v0z" />
    <glyph glyph-name="z" unicode="z" horiz-adv-x="20" 
d="M-10 -435v30l20 50h20l20 -50v-30h-60v0zM-180 -260q0 75 58.5 127.5t141.5 52.5q70 0 123 -32t67 -83v-30q5 -9 7.5 -21.5t2.5 -28.5q0 -41 -29.5 -70.5t-70.5 -29.5q-33 0 -60 16.5t-40 43.5q-13 -27 -37.5 -43.5t-52.5 -16.5q-46 0 -78 33.5t-32 81.5v0zM-120 -260
q0 -27 14.5 -46t35.5 -19q25 0 42.5 17.5t17.5 42.5h60q0 -25 20.5 -42.5t49.5 -17.5q25 0 42.5 14.5t17.5 35.5q0 4 -2.5 9t-7.5 11q-9 -5 -19 -7.5t-21 -2.5q-25 0 -42.5 11.5t-17.5 28.5t17.5 28.5t42.5 11.5q12 0 23 -2.5t22 -7.5q-20 28 -61 44t-94 16q-58 0 -99 -36.5
t-41 -88.5v0zM105 -225q0 -4 7.5 -7t17.5 -3q9 0 16.5 2.5t13.5 7.5q-6 5 -13.5 7.5t-16.5 2.5q-10 0 -17.5 -3t-7.5 -7v0z" />
    <glyph glyph-name="braceleft" unicode="{" horiz-adv-x="571" 
d="M391 260q0 -12 11.5 -21t28.5 -9q12 0 27.5 7.5t32.5 22.5q-17 15 -32.5 22.5t-27.5 7.5q-17 0 -28.5 -9t-11.5 -21v0zM151 180q0 -46 20.5 -78t49.5 -32q33 0 56.5 32t23.5 78h60q0 -46 26.5 -78t63.5 -32q29 0 49.5 23.5t20.5 56.5q0 38 -10 65q-14 -12 -35 -18.5
t-45 -6.5q-33 0 -56.5 20.5t-23.5 49.5t23.5 49.5t56.5 20.5q21 0 42 -7.5t38 -22.5q0 37 -52.5 63.5t-127.5 26.5t-127.5 -61.5t-52.5 -148.5v0zM81 180q0 64 28 119.5t77 90.5q-37 7 -61 38t-24 72q0 43 48.5 74t116.5 31q122 0 208.5 -92.5t86.5 -222.5q0 -9 -2.5 -17.5
t-7.5 -17.5q19 -19 29.5 -46.5t10.5 -58.5q0 -62 -41 -106t-99 -44q-36 0 -68.5 24.5t-51.5 65.5q-19 -41 -49 -65.5t-61 -24.5q-58 0 -99 52.5t-41 127.5v0zM161 500q0 -21 23.5 -35.5t56.5 -14.5h90q60 0 102.5 -14.5t57.5 -40.5q-25 70 -85.5 112.5t-134.5 42.5
q-46 0 -78 -14.5t-32 -35.5v0zM291 -140v30l20 130h40l20 -130v-30h-80v0z" />
    <glyph glyph-name="bar" unicode="|" horiz-adv-x="620" 
d="M475 460q68 0 116.5 -67.5t48.5 -162.5t-44 -162.5t-106 -67.5q-46 0 -78 35t-32 85q0 46 32 78t78 32q15 0 29 -5t26 -15l-25 -50q-7 5 -13.5 7.5t-11.5 2.5q-19 0 -32 -14.5t-13 -35.5t11.5 -35.5t28.5 -14.5q33 0 56.5 47t23.5 113q0 70 -28 120t-67 50t-67 -44
t-28 -106h-60q0 62 -26.5 106t-63.5 44q-29 0 -49.5 -17.5t-20.5 -42.5q0 -33 23.5 -56.5t56.5 -23.5v-60q-33 0 -56.5 -22t-23.5 -53q0 -23 20.5 -39t49.5 -16q17 0 33 10.5t27 29.5l40 -50q-16 -28 -43 -44t-57 -16q-58 0 -99 36.5t-41 88.5q0 36 17.5 66t47.5 44
q-30 14 -47.5 42.5t-17.5 62.5q0 50 39.5 85t95.5 35q46 0 81 -22.5t44 -57.5q9 35 44 57.5t81 22.5v0z" />
    <glyph glyph-name="braceright" unicode="}" horiz-adv-x="537" 
d="M97 365q0 35 32 60t78 25h330v-60h-330q-19 0 -33 -8t-14 -19q0 -14 14 -23.5t33 -9.5h220v-60h-220q-21 0 -35.5 -11.5t-14.5 -28.5t14.5 -28.5t35.5 -11.5h140v-60h-140q-21 0 -35.5 -11.5t-14.5 -28.5q0 -12 10.5 -21t24.5 -9h90v-60h-90q-39 0 -67 26.5t-28 63.5
q0 22 12 41t33 29q-20 5 -32.5 24.5t-12.5 45.5q0 27 12.5 47t32.5 23q-20 7 -32.5 25t-12.5 40v0z" />
    <glyph glyph-name="asciitilde" unicode="~" horiz-adv-x="621" 
d="M486 460q21 0 36 -2.5t24 -7.5l20 20q-31 0 -53 20.5t-22 49.5q0 33 23.5 56.5t56.5 23.5t56.5 -26.5t23.5 -63.5q0 -21 -21 -47.5t-59 -52.5q33 -28 51.5 -80.5t18.5 -119.5q0 -95 -44 -162.5t-106 -67.5q-41 0 -70.5 33.5t-29.5 81.5t29.5 81.5t70.5 33.5
q16 0 28.5 -2.5t21.5 -7.5l-20 -60q-17 10 -25 10q-19 0 -32 -16t-13 -39q0 -19 11.5 -32t28.5 -13q33 0 56.5 47t23.5 113q0 70 -26.5 120t-63.5 50q-41 0 -70.5 -44t-29.5 -106h-60q0 62 -26.5 106t-63.5 44q-29 0 -49.5 -19t-20.5 -46q0 -31 23.5 -53t56.5 -22v-60
q-33 0 -56.5 -19t-23.5 -46t20.5 -46t49.5 -19q19 0 36.5 10.5t28.5 29.5l45 -55q-15 -26 -44.5 -40.5t-65.5 -14.5q-58 0 -99 38t-41 92q0 35 16.5 63.5t43.5 41.5q-27 13 -43.5 40t-16.5 60q0 52 41 88.5t99 36.5q44 0 77.5 -22.5t42.5 -57.5q9 35 47 57.5t88 22.5v0z
M531 540q0 -17 11.5 -28.5t28.5 -11.5t28.5 11.5t11.5 28.5t-11.5 28.5t-28.5 11.5t-28.5 -11.5t-11.5 -28.5v0z" />
    <glyph glyph-name="uni008D" horiz-adv-x="494" 
d="M439 74l-51 -51l-142 141l-141 -141l-50 49l141 141l-141 141l53 52l141 -141l141 141l49 -49l-141 -141l141 -142v0z" />
    <glyph glyph-name="uni0090" horiz-adv-x="250" 
d="M0 0v1h1v-1h-1v0z" />
    <glyph glyph-name="nonbreakingspace" unicode="&#xa0;" horiz-adv-x="200" 
d="M0 0v1h1v-1h-1v0z" />
    <glyph glyph-name="exclamdown" unicode="&#xa1;" horiz-adv-x="18" 
d="M-180 -295q0 21 12 40.5t33 31.5q-20 7 -32.5 24.5t-12.5 38.5q0 37 29 63.5t70 26.5q30 0 54 -14.5t36 -39.5q12 25 36 39.5t54 14.5q48 0 82.5 -45t34.5 -108t-34.5 -108t-82.5 -45q-37 0 -63.5 24.5t-26.5 58.5q0 35 23.5 59.5t57.5 24.5q16 0 29.5 -7t20.5 -20
l-32 -32q-4 4 -8.5 6.5t-9.5 2.5q-15 0 -25.5 -10.5t-10.5 -25.5t13 -25.5t32 -10.5q28 0 48 31.5t20 76.5t-20 76.5t-48 31.5q-26 0 -44.5 -18.5t-18.5 -44.5h-54q0 26 -18.5 44.5t-44.5 18.5q-19 0 -32 -13t-13 -32t18.5 -32t44.5 -13v-54q-26 0 -44.5 -10.5t-18.5 -25.5
q0 -13 10.5 -22t25.5 -9q16 0 29.5 6t20.5 16l27 -45q-11 -13 -31 -20t-46 -7q-37 0 -63.5 23.5t-26.5 57.5v0z" />
    <glyph glyph-name="cent" unicode="&#xa2;" horiz-adv-x="327" 
d="M76 -250q0 -12 9 -21t21 -9t21 9t9 21t-9 21t-21 9t-21 -9t-9 -21v0zM-24 -150q0 -21 14.5 -35.5t35.5 -14.5t35.5 14.5t14.5 35.5t-14.5 35.5t-35.5 14.5t-35.5 -14.5t-14.5 -35.5v0zM-124 -100v50h120q24 24 37 52.5t13 57.5q0 9 -4 19.5t-11 20.5l45 20
q10 -14 15 -29.5t5 -30.5q0 -30 -10.5 -58.5t-29.5 -51.5h120v-50h-70q-3 -3 8.5 -19t11.5 -31v-20q26 -5 43 -27.5t17 -52.5q0 -31 -23.5 -53t-56.5 -22q13 -7 28 -11t32 -4q58 0 99 58.5t41 141.5q0 56 -20.5 110t-59.5 100l40 30q44 -52 67 -114t23 -126
q0 -99 -55.5 -169.5t-134.5 -70.5q-58 0 -99 32t-41 78v20q-41 0 -70.5 29.5t-29.5 70.5q0 15 20 50h-70v0z" />
    <glyph glyph-name="sterling" unicode="&#xa3;" horiz-adv-x="436" 
d="M231 250q0 -14 13 -24.5t32 -10.5q15 0 29 9.5t21 25.5q-10 12 -23 18.5t-27 6.5q-19 0 -32 -7.5t-13 -17.5v0zM336 310q6 16 9 34t3 37q0 26 -12 59q-12 -21 -33.5 -33t-46.5 -12q-43 0 -74 31t-31 74t31 74t74 31q62 0 106 -66t44 -159q0 -64 -15 -105q31 -26 48 -56
t17 -59q0 -66 -58.5 -113t-141.5 -47q-87 0 -148.5 47t-61.5 113q0 17 4 32t11 28l55 -20q-5 -9 -7.5 -19t-2.5 -21q0 -37 44 -63.5t106 -26.5q54 0 92 26.5t38 63.5q0 14 -4 26t-11 19q-13 -23 -38.5 -36.5t-56.5 -13.5q-46 0 -78 26.5t-32 63.5q0 35 31 60t74 25
q20 0 36.5 -5t28.5 -15v0zM206 500q0 -21 14.5 -35.5t35.5 -14.5t35.5 14.5t14.5 35.5t-14.5 35.5t-35.5 14.5t-35.5 -14.5t-14.5 -35.5v0z" />
    <glyph glyph-name="currency" unicode="&#xa4;" horiz-adv-x="20" 
d="M-400 -280v50h220q-10 12 -15 24.5t-5 25.5q0 41 29.5 70.5t70.5 29.5t70.5 -29.5t29.5 -70.5t-29.5 -70.5t-70.5 -29.5h-300v0zM-140 -180q0 -21 11.5 -35.5t28.5 -14.5t28.5 14.5t11.5 35.5t-11.5 35.5t-28.5 14.5t-28.5 -14.5t-11.5 -35.5v0z" />
    <glyph glyph-name="yen" unicode="&#xa5;" horiz-adv-x="563" 
d="M153 190q0 -50 20.5 -85t49.5 -35q33 0 56.5 32t23.5 78h60q0 -46 23.5 -78t56.5 -32q29 0 49.5 35t20.5 85q0 83 -52.5 141.5t-127.5 58.5t-127.5 -58.5t-52.5 -141.5v0zM173 390h-90v60h410v-60q43 -36 66.5 -88.5t23.5 -111.5q0 -79 -41 -134.5t-99 -55.5
q-38 0 -68.5 25t-41.5 65q-11 -40 -41.5 -65t-68.5 -25q-58 0 -99 55.5t-41 134.5q0 59 23.5 111.5t66.5 88.5v0zM293 230v80h80v-80h-80v0zM293 -140v30l20 130h40l20 -130v-30h-80v0z" />
    <glyph glyph-name="brokenbar" unicode="&#xa6;" horiz-adv-x="563" 
d="M153 490q0 -17 23.5 -28.5t56.5 -11.5h100q41 0 78.5 -13t66.5 -37q-18 66 -83.5 108t-151.5 42q-37 0 -63.5 -17.5t-26.5 -42.5v0zM153 180q0 -46 20.5 -78t49.5 -32q33 0 56.5 32t23.5 78h60q0 -46 23.5 -78t56.5 -32q29 0 49.5 32t20.5 78q0 87 -52.5 148.5
t-127.5 61.5t-127.5 -61.5t-52.5 -148.5v0zM83 180q0 64 23.5 119t66.5 91q-39 7 -64.5 35.5t-25.5 64.5q0 50 47 85t113 35q141 0 240.5 -126t99.5 -304q0 -75 -41 -127.5t-99 -52.5q-33 0 -63 21.5t-47 58.5q-17 -37 -47 -58.5t-63 -21.5q-58 0 -99 52.5t-41 127.5v0z
M293 230v80h80v-80h-80v0zM293 -140v30l20 130h40l20 -130v-30h-80v0z" />
    <glyph glyph-name="section" unicode="&#xa7;" horiz-adv-x="20" 
d="M-20 -220v40h80v-40h-80v0zM-10 -420v30l20 50h20l20 -50v-30h-60v0zM-180 -250q0 70 58.5 120t141.5 50t141.5 -50t58.5 -120q0 -46 -32 -78t-78 -32q-28 0 -52.5 16.5t-37.5 43.5q-13 -27 -37.5 -43.5t-52.5 -16.5q-46 0 -78 32t-32 78v0zM-120 -250q0 -25 14.5 -42.5
t35.5 -17.5q25 0 42.5 17.5t17.5 42.5h60q0 -25 17.5 -42.5t42.5 -17.5q21 0 35.5 17.5t14.5 42.5q0 50 -41 85t-99 35t-99 -35t-41 -85v0z" />
    <glyph glyph-name="dieresis" unicode="&#xa8;" horiz-adv-x="563" 
d="M153 180q0 -46 20.5 -78t49.5 -32q33 0 56.5 32t23.5 78h60q0 -46 23.5 -78t56.5 -32q29 0 49.5 35t20.5 85q0 83 -52.5 141.5t-127.5 58.5t-127.5 -61.5t-52.5 -148.5v0zM173 390h-90v60h410v-60q43 -36 66.5 -88.5t23.5 -111.5q0 -79 -41 -134.5t-99 -55.5
q-38 0 -68.5 25t-41.5 65q-11 -40 -41.5 -65t-68.5 -25q-58 0 -99 52.5t-41 127.5q0 64 23.5 119t66.5 91v0z" />
    <glyph glyph-name="copyright" unicode="&#xa9;" horiz-adv-x="563" 
d="M153 490q0 -17 23.5 -28.5t56.5 -11.5h100q41 0 78.5 -13t66.5 -37q-18 66 -83.5 108t-151.5 42q-37 0 -63.5 -17.5t-26.5 -42.5v0zM153 180q0 -46 20.5 -78t49.5 -32q33 0 56.5 32t23.5 78h60q0 -46 23.5 -78t56.5 -32q29 0 49.5 32t20.5 78q0 87 -52.5 148.5
t-127.5 61.5t-127.5 -61.5t-52.5 -148.5v0zM83 180q0 64 23.5 119t66.5 91q-39 7 -64.5 35.5t-25.5 64.5q0 50 47 85t113 35q141 0 240.5 -126t99.5 -304q0 -75 -41 -127.5t-99 -52.5q-33 0 -63 21.5t-47 58.5q-17 -37 -47 -58.5t-63 -21.5q-58 0 -99 52.5t-41 127.5v0z" />
    <glyph glyph-name="ordfeminine" unicode="&#xaa;" horiz-adv-x="20" 
d="M-180 -250q0 70 58.5 120t141.5 50t141.5 -50t58.5 -120q0 -46 -32 -78t-78 -32q-28 0 -52.5 16.5t-37.5 43.5q-13 -27 -37.5 -43.5t-52.5 -16.5q-46 0 -78 32t-32 78v0zM-120 -250q0 -25 14.5 -42.5t35.5 -17.5q25 0 42.5 17.5t17.5 42.5h60q0 -25 17.5 -42.5
t42.5 -17.5q21 0 35.5 17.5t14.5 42.5q0 50 -41 85t-99 35t-99 -35t-41 -85v0z" />
    <glyph glyph-name="guillemotleft" unicode="&#xab;" horiz-adv-x="563" 
d="M153 180q0 -46 20.5 -78t49.5 -32q33 0 56.5 32t23.5 78h60q0 -46 22 -78t53 -32t53 35t22 85q0 83 -52.5 141.5t-127.5 58.5t-127.5 -61.5t-52.5 -148.5v0zM173 390h-90v60h410v-60q43 -36 66.5 -88.5t23.5 -111.5q0 -79 -42.5 -134.5t-102.5 -55.5q-37 0 -66.5 22.5
t-38.5 57.5q-9 -35 -40 -57.5t-70 -22.5q-58 0 -99 52.5t-41 127.5q0 64 23.5 119t66.5 91v0zM293 -140v30l20 130h40l20 -130v-30h-80v0z" />
    <glyph glyph-name="logicalnot" unicode="&#xac;" horiz-adv-x="1000" 
d="M0 250h1000v-60h-1000v60v0z" />
    <glyph glyph-name="registered" unicode="&#xae;" horiz-adv-x="520" 
d="M470 200q0 79 -55.5 134.5t-134.5 55.5h-205v60h363v-50q48 -41 75 -93.5t27 -106.5q0 -83 -42.5 -141.5t-102.5 -58.5q-43 0 -78.5 42.5t-46.5 107.5q-8 43 -29 71.5t-46 28.5q-21 0 -35.5 -23.5t-14.5 -56.5q0 -58 21 -106t59 -74l-55 -40q-45 38 -70 95.5t-25 124.5
q0 62 35 106t85 44t91 -48t54 -122q6 -35 21.5 -57.5t33.5 -22.5q31 0 53 38t22 92v0z" />
    <glyph glyph-name="macron" unicode="&#xaf;" horiz-adv-x="530" 
d="M480 260q0 95 -33 165t-87 90q12 -45 -23.5 -82.5t-91.5 -37.5q-43 0 -74 31t-31 74q0 41 38 70.5t92 29.5q127 0 203.5 -93t76.5 -247q0 -108 -45.5 -184t-109.5 -76q-43 0 -78.5 42.5t-46.5 107.5q-8 43 -29 71.5t-46 28.5q-21 0 -35.5 -23.5t-14.5 -56.5
q0 -58 21 -106t59 -74l-55 -40q-45 38 -70 95.5t-25 124.5q0 62 35 106t85 44t91 -48t54 -122q6 -35 21.5 -57.5t33.5 -22.5q35 0 60 55.5t25 134.5v0zM205 495q0 -14 12.5 -24.5t29.5 -10.5q18 0 30.5 10.5t12.5 24.5t-12.5 24.5t-30.5 10.5q-17 0 -29.5 -10.5t-12.5 -24.5
v0z" />
    <glyph glyph-name="degree" unicode="&#xb0;" horiz-adv-x="15" 
d="M-120 -220q0 -17 17.5 -28.5t42.5 -11.5q21 0 42 7.5t38 22.5q-20 24 -41 37t-39 13q-25 0 -42.5 -11.5t-17.5 -28.5v0zM-180 -220q0 37 35 63.5t85 26.5q28 0 57 -15.5t53 -44.5q10 27 10 30q0 29 -7.5 56.5t-22.5 53.5l45 25q22 -26 33.5 -61t11.5 -74q0 -21 -9 -43
t-26 -42q3 -4 10 -22.5t15 -32.5q11 -19 21.5 -29.5t18.5 -10.5t16 4t14 11l30 -45q-12 -10 -30 -15t-40 -5q-27 0 -54.5 30t-45.5 80q-21 -15 -46.5 -22.5t-53.5 -7.5q-50 0 -85 26.5t-35 63.5v0z" />
    <glyph glyph-name="plusminus" unicode="&#xb1;" horiz-adv-x="534" 
d="M264 250v80h80v-80h-80v0zM54 125q0 48 29.5 81.5t70.5 33.5q33 0 56.5 -26.5t23.5 -63.5h-50q0 12 -9 21t-21 9t-21 -14.5t-9 -35.5q0 -25 17.5 -42.5t42.5 -17.5q37 0 63.5 32t26.5 78h60q0 -46 26.5 -78t63.5 -32q29 0 49.5 32t20.5 78q0 34 -18 70t-52 70l60 35
q34 -40 52 -85.5t18 -89.5q0 -75 -39.5 -127.5t-95.5 -52.5q-36 0 -67 21.5t-48 58.5q-17 -37 -49.5 -58.5t-70.5 -21.5q-54 0 -92 36.5t-38 88.5v0zM54 450h410v-60h-410v60v0z" />
    <glyph glyph-name="twosuperior" unicode="&#xb2;" horiz-adv-x="534" 
d="M54 125q0 48 29.5 81.5t70.5 33.5q33 0 56.5 -26.5t23.5 -63.5h-50q0 12 -9 21t-21 9t-21 -16t-9 -39t17.5 -39t42.5 -16q37 0 63.5 32t26.5 78h60q0 -46 26.5 -78t63.5 -32q29 0 49.5 32t20.5 78q0 34 -18 70t-52 70l55 40q36 -36 55.5 -81.5t19.5 -93.5q0 -77 -38 -131
t-92 -54q-42 0 -75.5 25t-44.5 65q-11 -40 -44.5 -65t-75.5 -25q-54 0 -92 36.5t-38 88.5v0zM244 470q0 -17 11.5 -28.5t28.5 -11.5t28.5 11.5t11.5 28.5t-11.5 28.5t-28.5 11.5t-28.5 -11.5t-11.5 -28.5v0zM194 470q0 37 26.5 63.5t63.5 26.5q54 0 92 -41t38 -99
q0 -62 -35 -106t-85 -44q-17 0 -35 5t-35 15l15 50q14 -5 27.5 -7.5t27.5 -2.5q25 0 42.5 26.5t17.5 63.5q-11 -19 -29.5 -29.5t-40.5 -10.5q-37 0 -63.5 26.5t-26.5 63.5v0z" />
    <glyph glyph-name="threesuperior" unicode="&#xb3;" horiz-adv-x="20" 
d="M-180 -250q0 41 29.5 70.5t70.5 29.5q13 0 25.5 -5t24.5 -15l-20 -40q-6 5 -13.5 7.5t-16.5 2.5q-17 0 -28.5 -14.5t-11.5 -35.5t14.5 -35.5t34.5 -14.5q25 0 43 29.5t18 70.5h60q0 -41 16.5 -70.5t40.5 -29.5t41 28t17 67q0 56 -36.5 95.5t-88.5 39.5l5 50
q72 0 123.5 -52.5t51.5 -127.5q0 -62 -33.5 -106t-80.5 -44q-27 0 -50.5 15.5t-35.5 41.5q-12 -26 -37 -41.5t-54 -15.5q-45 0 -77 29.5t-32 70.5v0z" />
    <glyph glyph-name="acute" unicode="&#xb4;" horiz-adv-x="534" 
d="M264 250v80h80v-80h-80v0zM54 120q0 50 29.5 85t70.5 35q33 0 56.5 -26.5t23.5 -63.5h-50q0 12 -9 21t-21 9t-21 -14.5t-9 -35.5q0 -25 17.5 -42.5t42.5 -17.5q37 0 63.5 32t26.5 78h60q0 -46 26.5 -78t63.5 -32q29 0 49.5 33.5t20.5 81.5q0 31 -18 66t-52 69l55 35
q36 -30 55.5 -74.5t19.5 -95.5q0 -77 -39.5 -131t-95.5 -54q-41 0 -73.5 22.5t-41.5 57.5q-9 -35 -42.5 -57.5t-77.5 -22.5q-54 0 -92 35t-38 85v0zM54 450h410v-60h-410v60v0zM264 -140v30l20 130h40l20 -130v-30h-80v0z" />
    <glyph glyph-name="mu" unicode="&#xb5;" horiz-adv-x="539" 
d="M54 130q0 46 29.5 78t70.5 32q33 0 56.5 -26.5t23.5 -63.5h-50q0 12 -9 21t-21 9t-21 -16t-9 -39t17.5 -39t42.5 -16q37 0 63.5 32t26.5 78h60q0 -46 26.5 -78t63.5 -32q29 0 47 30t18 80q0 36 -17 72.5t-48 67.5l60 35q36 -43 55.5 -88.5t19.5 -86.5q0 -82 -37 -131
t-98 -49q-39 0 -72 24.5t-48 65.5q-11 -40 -44.5 -65t-75.5 -25q-54 0 -92 38t-38 92v0zM244 470q0 -17 11.5 -28.5t28.5 -11.5t28.5 11.5t11.5 28.5t-11.5 28.5t-28.5 11.5t-28.5 -11.5t-11.5 -28.5v0zM194 470q0 37 26.5 63.5t63.5 26.5q54 0 92 -41t38 -99
q0 -62 -35 -106t-85 -44q-17 0 -35 5t-35 15l15 50q14 -5 27.5 -7.5t27.5 -2.5q25 0 42.5 29.5t17.5 70.5q-13 -23 -32 -36.5t-38 -13.5q-37 0 -63.5 26.5t-26.5 63.5v0zM264 -140v30l20 130h40l20 -130v-30h-80v0z" />
    <glyph glyph-name="paragraph" unicode="&#xb6;" horiz-adv-x="500" 
d="M0 250h500v-60h-500v60v0z" />
    <glyph glyph-name="paragraph" unicode="&#xf000;" horiz-adv-x="500" 
d="M0 250h500v-60h-500v60v0z" />
    <glyph glyph-name="cedilla" unicode="&#xb8;" horiz-adv-x="601" 
d="M546 225q0 68 -36.5 116.5t-88.5 48.5h-35v60h147v-45q41 -29 64.5 -76.5t23.5 -103.5q0 -102 -43.5 -163.5t-116.5 -61.5q-43 0 -76.5 23.5t-43.5 61.5q-10 -38 -43.5 -61.5t-76.5 -23.5q-54 0 -92 38t-38 92q0 35 15.5 68t44.5 57t44.5 53t15.5 57q0 14 -11.5 24.5
t-28.5 10.5t-28.5 -11.5t-11.5 -28.5q0 -11 2.5 -21t7.5 -19l-60 -20q-10 12 -15 27t-5 33q0 43 32 74t78 31t78 -31t32 -74q0 -29 -18 -62.5t-52 -67.5q-24 -24 -37 -50t-13 -50q0 -25 17.5 -42.5t42.5 -17.5q37 0 63.5 32t26.5 78h60q0 -46 26.5 -78t63.5 -32
q35 0 60 45.5t25 109.5v0z" />
    <glyph glyph-name="onesuperior" unicode="&#xb9;" horiz-adv-x="602" 
d="M547 265q0 72 -14.5 125.5t-40.5 79.5q-10 -38 -40.5 -61.5t-69.5 -23.5q-48 0 -81.5 33.5t-33.5 81.5q0 46 33.5 78t81.5 32q109 0 174.5 -94t65.5 -251q0 -120 -43.5 -192.5t-116.5 -72.5q-44 0 -77.5 22.5t-42.5 57.5q-9 -35 -42.5 -57.5t-77.5 -22.5q-54 0 -92 36.5
t-38 88.5q0 38 15.5 72t44.5 58t44.5 51.5t15.5 53.5q0 17 -11.5 28.5t-28.5 11.5t-28.5 -11.5t-11.5 -28.5q0 -11 2.5 -21t7.5 -19l-60 -20q-10 12 -15 27t-5 33q0 43 32 74t78 31t78 -31t32 -74q0 -34 -17 -69t-48 -66q-26 -26 -40.5 -51t-14.5 -44q0 -25 17.5 -42.5
t42.5 -17.5q37 0 63.5 32t26.5 78h60q0 -46 25 -78t60 -32q41 0 65.5 53.5t24.5 141.5v0zM332 500q0 -21 14.5 -35.5t35.5 -14.5t35.5 14.5t14.5 35.5t-14.5 35.5t-35.5 14.5t-35.5 -14.5t-14.5 -35.5v0z" />
    <glyph glyph-name="ordmasculine" unicode="&#xba;" horiz-adv-x="32" 
d="M-165 -285q0 25 12.5 47.5t34.5 35.5t35 30t13 32q0 12 -9 21t-21 9t-21 -6t-9 -14q0 -10 2.5 -18t7.5 -12l-40 -20q-10 12 -15 24.5t-5 25.5q0 29 23.5 49.5t56.5 20.5q35 0 60 -23.5t25 -56.5q0 -25 -12.5 -47t-34.5 -35t-35 -30t-13 -33q0 -17 11.5 -28.5t28.5 -11.5
q29 0 49.5 23.5t20.5 56.5h60q0 -33 17.5 -56.5t42.5 -23.5q27 0 46 34.5t19 82.5q0 41 -17.5 69.5t-42.5 28.5l25 50q42 -11 68.5 -55.5t26.5 -104.5q0 -66 -36.5 -113t-88.5 -47q-30 0 -54.5 18t-35.5 47q-11 -29 -38.5 -47t-61.5 -18q-39 0 -67 28t-28 67v0z" />
    <glyph glyph-name="guillemotright" unicode="&#xbb;" horiz-adv-x="602" 
d="M552 225q0 68 -31 116.5t-74 48.5h-95v60h182v-40q41 -29 64.5 -78t23.5 -107q0 -93 -47 -159t-113 -66q-43 0 -76.5 23.5t-43.5 61.5q-10 -38 -43.5 -61.5t-76.5 -23.5q-54 0 -92 38t-38 92q0 37 14.5 70t40.5 55q31 26 48 53.5t17 51.5q0 17 -11.5 28.5t-28.5 11.5
t-28.5 -11.5t-11.5 -28.5q0 -11 2.5 -21t7.5 -19l-60 -20q-10 12 -15 27t-5 33q0 43 32 74t78 31t78 -31t32 -74q0 -29 -18 -62.5t-52 -67.5q-24 -24 -37 -50t-13 -50q0 -25 17.5 -42.5t42.5 -17.5q37 0 63.5 32t26.5 78h60q0 -46 26.5 -78t63.5 -32t63.5 45.5t26.5 109.5v0
zM302 -140v30l20 130h40l20 -130v-30h-80v0z" />
    <glyph glyph-name="onequarter" unicode="&#xbc;" horiz-adv-x="602" 
d="M302 -140v30l20 130h40l20 -130v-30h-80v0zM547 265q0 72 -14.5 125.5t-40.5 79.5q-10 -38 -40.5 -61.5t-69.5 -23.5q-48 0 -81.5 33.5t-33.5 81.5q0 46 33.5 78t81.5 32q109 0 174.5 -94t65.5 -251q0 -120 -43.5 -192.5t-116.5 -72.5q-44 0 -77.5 22.5t-42.5 57.5
q-9 -35 -42.5 -57.5t-77.5 -22.5q-54 0 -92 36.5t-38 88.5q0 38 15.5 72t44.5 58t44.5 51.5t15.5 53.5q0 17 -11.5 28.5t-28.5 11.5t-28.5 -11.5t-11.5 -28.5q0 -11 2.5 -21t7.5 -19l-60 -20q-10 12 -15 27t-5 33q0 43 32 74t78 31t78 -31t32 -74q0 -34 -17 -69t-48 -66
q-26 -26 -40.5 -51t-14.5 -44q0 -25 17.5 -42.5t42.5 -17.5q37 0 63.5 32t26.5 78h60q0 -46 25 -78t60 -32q41 0 65.5 53.5t24.5 141.5v0zM332 500q0 -21 14.5 -35.5t35.5 -14.5t35.5 14.5t14.5 35.5t-14.5 35.5t-35.5 14.5t-35.5 -14.5t-14.5 -35.5v0z" />
    <glyph glyph-name="onehalf" unicode="&#xbd;" horiz-adv-x="32" 
d="M0 -440v55l20 40h20l20 -40v-55h-60v0zM-165 -280q0 25 12.5 47.5t34.5 35.5t35 30t13 32q0 12 -9 21t-21 9t-21 -6t-9 -14q0 -10 2.5 -18t7.5 -12l-40 -20q-10 12 -15 24.5t-5 25.5q0 29 23.5 49.5t56.5 20.5q35 0 60 -23.5t25 -56.5q0 -25 -12.5 -47t-34.5 -35t-35 -30
t-13 -33q0 -17 11.5 -28.5t28.5 -11.5q29 0 49.5 23.5t20.5 56.5h60q0 -33 17.5 -56.5t42.5 -23.5q27 0 46 34.5t19 82.5q0 41 -17.5 69.5t-42.5 28.5l25 50q42 -11 68.5 -55.5t26.5 -104.5q0 -66 -36.5 -113t-88.5 -47q-30 0 -54.5 18t-35.5 47q-11 -29 -38.5 -47
t-61.5 -18q-39 0 -67 28t-28 67v0z" />
    <glyph glyph-name="threequarters" unicode="&#xbe;" horiz-adv-x="35" 
d="M-30 -165q0 -14 14.5 -24.5t35.5 -10.5q17 0 28.5 7.5t11.5 17.5q0 21 -17.5 35.5t-42.5 14.5q-10 0 -18 -1.5t-12 -3.5v-35v0zM-180 -215q0 48 31 85t79 45q10 17 10 70l60 5q0 -48 -10 -65q54 0 92 -29.5t38 -70.5q0 -33 -29.5 -56.5t-70.5 -23.5q-46 0 -78 29.5
t-32 70.5q-14 -6 -22 -22.5t-8 -37.5q0 -46 44 -78t106 -32q61 0 107 52t53 128h60q-9 -98 -72 -164t-148 -66q-87 0 -148.5 47t-61.5 113v0z" />
    <glyph glyph-name="questiondown" unicode="&#xbf;" horiz-adv-x="789" 
d="M149 230q0 -66 41 -113t99 -47t99 47t41 113t-41 113t-99 47t-99 -47t-41 -113v0zM739 230q0 66 -32 113t-78 47h-55v60h105q21 0 35.5 14.5t14.5 35.5q0 17 -10.5 35.5t-29.5 34.5l40 40q29 -24 44.5 -53t15.5 -57q0 -37 -16.5 -65t-43.5 -35q38 -26 59 -71t21 -99
q0 -95 -52.5 -162.5t-127.5 -67.5q-56 0 -102.5 27t-67.5 73q-27 -46 -72.5 -73t-97.5 -27q-87 0 -148.5 67.5t-61.5 162.5t61.5 162.5t148.5 67.5t148.5 -67.5t61.5 -162.5q0 7 -5 -50q18 -50 55 -80t80 -30q46 0 78 47t32 113v0z" />
    <glyph glyph-name="Agrave" unicode="&#xc0;" horiz-adv-x="779" 
d="M149 230q0 -66 41 -113t99 -47t99 47t41 113t-41 113t-99 47t-99 -47t-41 -113v0zM729 230q0 30 -5 54t-15 41q-13 -18 -34.5 -27.5t-45.5 -7.5q-48 0 -81.5 32t-33.5 78q0 48 35 81.5t85 33.5q75 0 120 -78t45 -207q0 -95 -52.5 -162.5t-127.5 -67.5q-47 0 -88 27
t-62 73q-27 -46 -75 -73t-105 -27q-87 0 -148.5 67.5t-61.5 162.5t61.5 162.5t148.5 67.5t148.5 -67.5t61.5 -162.5q0 -22 -5 -50q18 -50 55 -80t80 -30q41 0 70.5 47t29.5 113v0zM579 400q0 -21 14.5 -35.5t35.5 -14.5t35.5 14.5t14.5 35.5t-14.5 35.5t-35.5 14.5
t-35.5 -14.5t-14.5 -35.5v0z" />
    <glyph glyph-name="Aacute" unicode="&#xc1;" horiz-adv-x="789" 
d="M149 230q0 -70 41 -120t99 -50t99 50t41 120t-41 120t-99 50t-99 -50t-41 -120v0zM739 230q0 66 -33.5 113t-81.5 47h-40v60h85q25 0 42.5 19t17.5 46q0 19 -14.5 32t-35.5 13q-11 0 -19 -2.5t-11 -7.5q13 -4 21.5 -15t8.5 -25t-13 -24.5t-32 -10.5q-23 0 -39 16t-16 39
q0 39 29.5 67t70.5 28q50 0 85 -32t35 -78q0 -38 -19.5 -67.5t-50.5 -37.5q38 -26 59 -74t21 -106q0 -95 -54 -162.5t-131 -67.5q-54 0 -99 27t-66 73q-16 -45 -63 -72.5t-107 -27.5q-87 0 -148.5 67.5t-61.5 162.5t61.5 162.5t148.5 67.5t148.5 -67.5t61.5 -162.5
q0 -22 -5 -50q13 -49 49.5 -79.5t80.5 -30.5q48 0 81.5 47t33.5 113v0z" />
    <glyph glyph-name="Acircumflex" unicode="&#xc2;" horiz-adv-x="175" 
d="M-159 -300q0 26 16 50t44 40q23 11 36.5 26t13.5 29q0 12 -9 21t-21 9t-21 -6t-9 -14q0 -10 2.5 -18t7.5 -12l-40 -25q-12 10 -18.5 24.5t-6.5 30.5q0 29 25 49.5t60 20.5t60 -23.5t25 -56.5q0 -22 -14.5 -43.5t-40.5 -36.5t-40.5 -32.5t-14.5 -32.5q0 -19 25 -32t60 -13
q50 0 85 29.5t35 70.5q0 42 -42.5 115t-42.5 115q0 35 23.5 60t56.5 25q29 0 51.5 -21t28.5 -54l-55 -5q-2 11 -9 18t-16 7q-10 0 -17.5 -9t-7.5 -21q0 -42 42.5 -115t42.5 -115q0 -62 -51.5 -106t-123.5 -44q-58 0 -99 28t-41 67v0z" />
    <glyph glyph-name="Atilde" unicode="&#xc3;" horiz-adv-x="496" 
d="M146 230q0 -66 44 -113t106 -47t106 47t44 113t-44 113t-106 47t-106 -47t-44 -113v0zM151 390h-75v60h350l15 -60q36 -30 55.5 -72t19.5 -88q0 -95 -64.5 -162.5t-155.5 -67.5t-155.5 67.5t-64.5 162.5q0 46 19.5 88t55.5 72v0z" />
    <glyph glyph-name="Adieresis" unicode="&#xc4;" horiz-adv-x="496" 
d="M146 230q0 -66 44 -113t106 -47t106 47t44 113t-44 113t-106 47t-106 -47t-44 -113v0zM146 495q0 -19 23.5 -32t56.5 -13h70q38 0 72 -13t58 -37q-32 69 -86 109.5t-114 40.5q-33 0 -56.5 -16t-23.5 -39v0zM76 230q0 50 24 95t66 75q-37 0 -63.5 26.5t-26.5 63.5
q0 46 44 78t106 32q120 0 205 -108.5t85 -261.5q0 -95 -64.5 -162.5t-155.5 -67.5t-155.5 67.5t-64.5 162.5v0z" />
    <glyph glyph-name="Aring" unicode="&#xc5;" horiz-adv-x="101" 
d="M41 120h60q0 -102 -19 -177.5t-54 -114.5q-40 -44 -112.5 -68.5t-164.5 -24.5v55q78 0 139.5 21.5t95.5 60.5q27 31 41 95t14 153v0z" />
    <glyph glyph-name="AE" unicode="&#xc6;" horiz-adv-x="587" 
d="M217 360q0 -17 11.5 -28.5t28.5 -11.5t28.5 11.5t11.5 28.5t-11.5 28.5t-28.5 11.5t-28.5 -11.5t-11.5 -28.5v0zM342 70q88 0 141.5 52t53.5 138q0 43 -27 81t-73 59l40 60q59 -28 94.5 -82t35.5 -118q0 -118 -72.5 -189t-192.5 -71t-192.5 71t-72.5 189q0 83 52.5 141.5
t127.5 58.5q46 0 78 -29.5t32 -70.5q0 -43 -32 -74t-78 -31q-36 0 -63 18.5t-32 46.5q-7 -9 -11 -24.5t-4 -35.5q0 -86 53.5 -138t141.5 -52v0z" />
    <glyph glyph-name="Ccedilla" unicode="&#xc7;" horiz-adv-x="587" 
d="M217 360q0 -17 11.5 -28.5t28.5 -11.5t28.5 11.5t11.5 28.5t-11.5 28.5t-28.5 11.5t-28.5 -11.5t-11.5 -28.5v0zM342 70q88 0 141.5 50.5t53.5 134.5q0 56 -32 95.5t-78 39.5v60h68v-10q53 -37 82.5 -84.5t29.5 -95.5q0 -118 -72.5 -189t-192.5 -71t-192.5 71t-72.5 189
q0 83 52.5 141.5t127.5 58.5q46 0 78 -29.5t32 -70.5q0 -43 -32 -74t-78 -31q-36 0 -63 18.5t-32 46.5q-7 -13 -11 -28t-4 -32q0 -79 57 -134.5t138 -55.5v0z" />
    <glyph glyph-name="Egrave" unicode="&#xc8;" horiz-adv-x="602" 
d="M217 360q0 -17 11.5 -28.5t28.5 -11.5t28.5 11.5t11.5 28.5t-11.5 28.5t-28.5 11.5t-28.5 -11.5t-11.5 -28.5v0zM337 70q95 0 152.5 65.5t57.5 174.5q0 45 -7.5 79.5t-22.5 55.5q-13 -19 -37 -29.5t-53 -10.5q-46 0 -78 33.5t-32 81.5q0 43 32 74t78 31q88 0 141.5 -86
t53.5 -229q0 -141 -76.5 -225.5t-203.5 -84.5q-120 0 -192.5 71t-72.5 189q0 83 51.5 141.5t123.5 58.5q48 0 81.5 -29.5t33.5 -70.5q0 -43 -32 -74t-78 -31q-36 0 -63 20t-32 50q-7 -13 -11 -29.5t-4 -35.5q0 -86 52 -138t138 -52v0zM377 520q0 -21 14.5 -35.5t35.5 -14.5
t35.5 14.5t14.5 35.5t-14.5 35.5t-35.5 14.5t-35.5 -14.5t-14.5 -35.5v0z" />
    <glyph glyph-name="Eacute" unicode="&#xc9;" horiz-adv-x="30" 
d="M-180 -200q0 52 32 88.5t78 36.5q35 0 62.5 -16.5t37.5 -43.5q10 27 37.5 43.5t62.5 16.5q46 0 78 -36.5t32 -88.5q0 -21 -10.5 -44t-29.5 -46l-50 30q15 17 22.5 32.5t7.5 27.5q0 29 -14.5 49.5t-35.5 20.5q-29 0 -49.5 -26.5t-20.5 -63.5h-60q0 37 -20.5 63.5
t-49.5 26.5q-21 0 -35.5 -20.5t-14.5 -49.5q0 -12 7.5 -27.5t22.5 -32.5l-50 -30q-19 23 -29.5 46t-10.5 44v0z" />
    <glyph glyph-name="Ecircumflex" unicode="&#xca;" horiz-adv-x="534" 
d="M424 70q29 0 49.5 32t20.5 78q0 87 -85 148.5t-205 61.5h-150v60h410v-60h-55q66 -31 105.5 -86.5t39.5 -118.5q0 -77 -38 -131t-92 -54q-42 0 -75.5 25t-44.5 65q-11 -40 -44.5 -65t-75.5 -25q-54 0 -92 36.5t-38 88.5q0 48 29.5 81.5t70.5 33.5q33 0 56.5 -26.5
t23.5 -63.5h-50q0 12 -9 21t-21 9t-21 -14.5t-9 -35.5q0 -25 17.5 -42.5t42.5 -17.5q37 0 63.5 32t26.5 78h60q0 -46 26.5 -78t63.5 -32v0z" />
    <glyph glyph-name="Edieresis" unicode="&#xcb;" horiz-adv-x="554" 
d="M424 70q36 0 58 45t22 120q0 72 -36.5 131.5t-98.5 88.5q0 -46 -33.5 -78t-81.5 -32q-43 0 -74 31t-31 74t36.5 74t88.5 31q62 0 118.5 -26t96.5 -74q41 -49 63 -105.5t22 -114.5q0 -107 -41 -171t-109 -64q-42 0 -75.5 25t-44.5 65q-11 -40 -44.5 -65t-75.5 -25
q-54 0 -92 38t-38 92q0 46 29.5 78t70.5 32q33 0 56.5 -26.5t23.5 -63.5h-50q0 12 -9 21t-21 9t-21 -14.5t-9 -35.5q0 -25 17.5 -42.5t42.5 -17.5q37 0 63.5 32t26.5 78h60q0 -46 26.5 -78t63.5 -32v0zM204 450q0 -21 14.5 -35.5t35.5 -14.5t35.5 14.5t14.5 35.5t-14.5 35.5
t-35.5 14.5t-35.5 -14.5t-14.5 -35.5v0z" />
    <glyph glyph-name="Igrave" unicode="&#xcc;" horiz-adv-x="20" 
d="M-180 -315q0 41 29.5 70.5t70.5 29.5q18 0 33 -5t27 -15l-30 -40q-9 5 -16.5 7.5t-13.5 2.5q-17 0 -28.5 -14.5t-11.5 -35.5t11.5 -35.5t28.5 -14.5q29 0 49.5 29.5t20.5 70.5h60q0 -41 17.5 -70.5t42.5 -29.5t42.5 28t17.5 67q0 52 -42.5 88.5t-102.5 36.5h-65v50h160
q21 0 35.5 17.5t14.5 42.5h50q0 -43 -22 -74t-53 -31q35 -20 55 -55t20 -75q0 -60 -32 -102.5t-78 -42.5q-26 0 -50.5 19t-39.5 51q-15 -32 -42 -51t-58 -19q-41 0 -70.5 29.5t-29.5 70.5v0z" />
    <glyph glyph-name="Iacute" unicode="&#xcd;" horiz-adv-x="480" 
d="M130 140q0 -29 38 -49.5t92 -20.5q70 0 120 41t50 99q0 23 -10 50q-19 -32 -56.5 -51t-83.5 -19h-80q-29 0 -49.5 -14.5t-20.5 -35.5v0zM160 390h-100v60h350v-60h-10q46 -27 73 -75t27 -105q0 -87 -70.5 -148.5t-169.5 -61.5q-83 0 -141.5 41t-58.5 99q0 46 41 78t99 32
h80q41 0 70.5 17.5t29.5 42.5q0 33 -29.5 56.5t-70.5 23.5q-24 0 -45.5 -10.5t-34.5 -29.5q6 0 10.5 -10.5t4.5 -24.5t-13 -24.5t-32 -10.5q-21 0 -35.5 11.5t-14.5 28.5t10.5 35.5t29.5 34.5v0z" />
    <glyph glyph-name="Icircumflex" unicode="&#xce;" horiz-adv-x="480" 
d="M190 530q0 -21 14.5 -35.5t35.5 -14.5t35.5 14.5t14.5 35.5t-14.5 35.5t-35.5 14.5t-35.5 -14.5t-14.5 -35.5v0zM130 125q0 -25 38 -42.5t92 -17.5q70 0 120 38t50 92q0 23 -10 50q-19 -32 -56.5 -51t-83.5 -19h-80q-29 0 -49.5 -14.5t-20.5 -35.5v0zM60 125q0 46 41 78
t99 32h80q41 0 70.5 20.5t29.5 49.5t-29.5 49.5t-70.5 20.5q-32 0 -58 -10.5t-42 -29.5q12 0 21 -11.5t9 -28.5q0 -14 -11.5 -24.5t-28.5 -10.5q-21 0 -35.5 16t-14.5 39q0 50 47 85t113 35q40 0 73.5 -10.5t56.5 -29.5q10 27 10 30q0 47 -25.5 82.5t-64.5 42.5v-20
q0 -37 -26.5 -63.5t-63.5 -26.5t-63.5 26.5t-26.5 63.5t32 63.5t78 26.5q91 0 155.5 -57t64.5 -138q0 -35 -5 -61.5t-15 -43.5q19 -23 29.5 -55.5t10.5 -69.5q0 -83 -70.5 -141.5t-169.5 -58.5q-83 0 -141.5 38t-58.5 92v0z" />
    <glyph glyph-name="Idieresis" unicode="&#xcf;" horiz-adv-x="109" 
d="M-120 -285q0 -12 20.5 -21t49.5 -9q37 0 63.5 26.5t26.5 63.5q0 11 -2.5 21t-7.5 19q-14 -16 -37 -29t-53 -21q-27 -7 -43.5 -21t-16.5 -29v0zM-180 -285q0 28 28 53t72 37q27 7 47.5 18.5t32.5 26.5q-14 12 -35 18.5t-45 6.5q0 -17 -9 -28.5t-21 -11.5q-17 0 -28.5 14.5
t-11.5 35.5q0 17 17.5 28.5t42.5 11.5q39 0 72.5 -9t57.5 -26q10 17 15 38.5t5 46.5q0 45 -20 100l40 20q15 -26 22.5 -56.5t7.5 -63.5q0 -36 -9 -65.5t-26 -49.5q12 -17 18.5 -39t6.5 -46q0 -58 -44 -99t-106 -41q-54 0 -92 23.5t-38 56.5v0z" />
    <glyph glyph-name="Eth" unicode="&#xd0;" horiz-adv-x="534" 
d="M264 250v80h80v-80h-80v0zM54 130q0 46 29.5 78t70.5 32q33 0 56.5 -26.5t23.5 -63.5h-50q0 12 -9 21t-21 9t-21 -14.5t-9 -35.5q0 -25 17.5 -42.5t42.5 -17.5q37 0 63.5 32t26.5 78h60q0 -46 26.5 -78t63.5 -32q15 0 26 3.5t16 9.5l-102 107v50h50l79 -82q2 50 -18 93.5
t-56 68.5l45 40q42 -30 66 -77.5t24 -102.5q0 -47 -13 -87l113 -108v-40h-50l-94 91q-18 -17 -40.5 -26.5t-45.5 -9.5q-38 0 -70.5 21.5t-49.5 58.5q-17 -37 -49.5 -58.5t-70.5 -21.5q-54 0 -92 38t-38 92v0zM54 450h410v-60h-410v60v0z" />
    <glyph glyph-name="Ntilde" unicode="&#xd1;" horiz-adv-x="534" 
d="M54 130q0 46 29.5 78t70.5 32q33 0 56.5 -26.5t23.5 -63.5h-50q0 12 -9 21t-21 9t-21 -13t-9 -32q0 -27 17.5 -46t42.5 -19q37 0 63.5 32t26.5 78h60q0 -46 26.5 -78t63.5 -32q15 0 26 3.5t16 9.5l-102 107v50h50l79 -82q5 42 -14.5 85.5t-59.5 76.5l45 40q42 -30 66 -79
t24 -106q0 -42 -13 -82l108 -108v-40h-50l-89 91q-18 -17 -40.5 -26.5t-45.5 -9.5q-38 0 -70.5 21.5t-49.5 58.5q-17 -37 -49.5 -58.5t-70.5 -21.5q-54 0 -92 38t-38 92v0zM244 470q0 -17 11.5 -28.5t28.5 -11.5t28.5 11.5t11.5 28.5t-11.5 28.5t-28.5 11.5t-28.5 -11.5
t-11.5 -28.5v0zM189 470q0 39 28 67t67 28q54 0 92 -42.5t38 -102.5q0 -62 -35 -106t-85 -44q-17 0 -35 5t-35 15l15 50q14 -5 27.5 -7.5t27.5 -2.5q25 0 42.5 26.5t17.5 63.5q-11 -19 -29.5 -29.5t-40.5 -10.5q-39 0 -67 26.5t-28 63.5v0z" />
    <glyph glyph-name="Ograve" unicode="&#xd2;" horiz-adv-x="65" 
d="M-180 -260q0 41 29.5 70.5t70.5 29.5q12 0 26.5 -6.5t28.5 -18.5l-25 -35q-6 5 -13.5 7.5t-16.5 2.5q-17 0 -28.5 -14.5t-11.5 -35.5t11.5 -35.5t28.5 -14.5q29 0 49.5 29.5t20.5 70.5h60q0 -41 20.5 -70.5t49.5 -29.5q17 0 28.5 14.5t11.5 35.5q0 32 -15 95t-15 95h50
q0 -38 13 -72t37 -58q38 -38 59 -85t21 -95h-50q0 31 -10 61.5t-30 58.5q-8 -43 -36 -71.5t-64 -28.5q-34 0 -61.5 18t-38.5 47q-11 -29 -38.5 -47t-61.5 -18q-41 0 -70.5 29.5t-29.5 70.5v0z" />
    <glyph glyph-name="Oacute" unicode="&#xd3;" horiz-adv-x="419" 
d="M149 250v80h80v-80h-80v0zM39 0q0 75 39.5 127.5t95.5 52.5q33 0 61 -16t44 -44q13 -23 29.5 -36.5t30.5 -13.5q12 0 21 23.5t9 56.5q0 34 -9 67t-26 63l50 35q27 -32 41 -74.5t14 -90.5q0 -62 -29.5 -106t-70.5 -44q-27 0 -52.5 17.5t-42.5 47.5q-15 26 -33.5 40.5
t-36.5 14.5q-27 0 -46 -35t-19 -85h-70v0zM39 450h310v-60h-310v60v0z" />
    <glyph glyph-name="Ocircumflex" unicode="&#xd4;" horiz-adv-x="424" 
d="M44 0q0 75 41 127.5t99 52.5q32 0 57.5 -15t37.5 -40t29.5 -40t35.5 -15q12 0 21 23.5t9 56.5q0 34 -9 67t-26 63l50 35q27 -32 41 -74.5t14 -90.5q0 -64 -29.5 -109.5t-70.5 -45.5q-28 0 -54.5 19t-45.5 51q-15 26 -31 40.5t-29 14.5q-29 0 -49.5 -35t-20.5 -85h-70v0z
M84 475q0 35 26.5 60t63.5 25q54 0 92 -41t38 -99q0 -62 -35 -106t-85 -44q-17 0 -35 5t-35 15l10 50q27 -10 60 -10q25 0 42.5 29.5t17.5 70.5q-11 -19 -29.5 -29.5t-40.5 -10.5q-37 0 -63.5 25t-26.5 60v0zM134 470q0 -12 11.5 -21t28.5 -9t28.5 9t11.5 21
q0 17 -11.5 28.5t-28.5 11.5t-28.5 -11.5t-11.5 -28.5v0z" />
    <glyph glyph-name="Otilde" unicode="&#xd5;" horiz-adv-x="20" 
d="M-180 -365q0 87 41 148.5t99 61.5q22 0 44 -10.5t41 -29.5q28 -28 51 -66.5t34 -38.5q12 0 21 25t9 60q0 30 -6.5 59.5t-18.5 55.5l55 25q30 -82 30 -140q0 -62 -26.5 -106t-63.5 -44q-22 0 -46.5 24.5t-43.5 65.5q-17 30 -38.5 47.5t-41.5 17.5q-33 0 -56.5 -45.5
t-23.5 -109.5h-60v0z" />
    <glyph glyph-name="Odieresis" unicode="&#xd6;" horiz-adv-x="572" 
d="M132 150q0 -33 23.5 -56.5t56.5 -23.5t56.5 23.5t23.5 56.5t-23.5 56.5t-56.5 23.5t-56.5 -23.5t-23.5 -56.5v0zM362 150q0 -33 23.5 -56.5t56.5 -23.5t56.5 23.5t23.5 56.5t-23.5 56.5t-56.5 23.5t-56.5 -23.5t-23.5 -56.5v0zM222 390h-160v60h443v-60h-203
q24 -20 37 -54t13 -76q23 19 46 29.5t44 10.5q62 0 106 -44t44 -106t-44 -106t-106 -44q-35 0 -65.5 19t-49.5 51q-19 -32 -49.5 -51t-65.5 -19q-62 0 -106 44t-44 106t44 106t106 44q21 0 44 -10.5t46 -29.5q0 45 -22 81t-58 49v0z" />
    <glyph glyph-name="multiply" unicode="&#xd7;" horiz-adv-x="572" 
d="M112 520q0 41 29.5 70.5t70.5 29.5t70.5 -32t29.5 -78q0 -56 -32 -107t-88 -83l-40 40q23 14 38.5 29t21.5 31q-41 0 -70.5 29.5t-29.5 70.5v0zM162 520q0 -21 14.5 -35.5t35.5 -14.5t35.5 14.5t14.5 35.5t-14.5 35.5t-35.5 14.5t-35.5 -14.5t-14.5 -35.5v0zM132 150
q0 -33 23.5 -56.5t56.5 -23.5t56.5 23.5t23.5 56.5t-23.5 56.5t-56.5 23.5t-56.5 -23.5t-23.5 -56.5v0zM362 150q0 -33 23.5 -56.5t56.5 -23.5t56.5 23.5t23.5 56.5t-23.5 56.5t-56.5 23.5t-56.5 -23.5t-23.5 -56.5v0zM327 230q19 32 49.5 51t65.5 19q62 0 106 -44t44 -106
t-44 -106t-106 -44q-35 0 -65.5 19t-49.5 51q-19 -32 -49.5 -51t-65.5 -19q-62 0 -106 44t-44 106t44 106t106 44q35 0 65.5 -19t49.5 -51v0z" />
    <glyph glyph-name="Oslash" unicode="&#xd8;" horiz-adv-x="50" 
d="M-180 -205q0 54 38 92t92 38q27 0 53.5 -16t46.5 -44q20 28 46.5 44t53.5 16q54 0 92 -38t38 -92t-38 -92t-92 -38q-27 0 -53.5 16t-46.5 44q-20 -28 -46.5 -44t-53.5 -16q-54 0 -92 38t-38 92v0zM-120 -205q0 -33 20.5 -56.5t49.5 -23.5t49.5 23.5t20.5 56.5t-20.5 56.5
t-49.5 23.5t-49.5 -23.5t-20.5 -56.5v0zM80 -205q0 -33 20.5 -56.5t49.5 -23.5t49.5 23.5t20.5 56.5t-20.5 56.5t-49.5 23.5t-49.5 -23.5t-20.5 -56.5v0z" />
    <glyph glyph-name="Ugrave" unicode="&#xd9;" horiz-adv-x="472" 
d="M162 360q0 -17 11.5 -28.5t28.5 -11.5t28.5 11.5t11.5 28.5t-11.5 28.5t-28.5 11.5t-28.5 -11.5t-11.5 -28.5v0zM262 100q0 -17 11.5 -28.5t28.5 -11.5t28.5 11.5t11.5 28.5t-11.5 28.5t-28.5 11.5t-28.5 -11.5t-11.5 -28.5v0zM302 200q54 10 89.5 36.5t35.5 58.5
q0 39 -22 67t-53 28v60h55v-15q39 -18 62 -57.5t23 -87.5q0 -41 -30 -76.5t-80 -53.5q10 -10 15 -25.5t5 -34.5q0 -41 -29.5 -70.5t-70.5 -29.5t-70.5 29.5t-29.5 70.5q0 13 10 40q-68 6 -114 58t-46 122q0 58 44 99t106 41q41 0 70.5 -29.5t29.5 -70.5t-29.5 -70.5
t-70.5 -29.5q-36 0 -64 28.5t-36 71.5v-40q0 -61 61 -97.5t139 -22.5v0z" />
    <glyph glyph-name="Uacute" unicode="&#xda;" horiz-adv-x="518" 
d="M162 360q0 -17 11.5 -28.5t28.5 -11.5t28.5 11.5t11.5 28.5t-11.5 28.5t-28.5 11.5t-28.5 -11.5t-11.5 -28.5v0zM262 100q0 -17 11.5 -28.5t28.5 -11.5t28.5 11.5t11.5 28.5t-11.5 28.5t-28.5 11.5t-28.5 -11.5t-11.5 -28.5v0zM302 200q78 14 129 79t51 151q0 -8 -5 20
q-12 -14 -31.5 -22t-43.5 -8q-41 0 -70.5 29.5t-29.5 70.5t29.5 70.5t70.5 29.5q58 0 99 -55.5t41 -134.5q0 -89 -43.5 -162.5t-116.5 -107.5q10 -14 15 -29.5t5 -30.5q0 -41 -29.5 -70.5t-70.5 -29.5t-70.5 29.5t-29.5 70.5q0 13 10 40q-68 6 -114 58t-46 122q0 58 44 99
t106 41q41 0 70.5 -29.5t29.5 -70.5t-29.5 -70.5t-70.5 -29.5q-36 0 -64 28.5t-36 71.5v-40q0 -61 61 -97.5t139 -22.5v0zM352 520q0 -21 14.5 -35.5t35.5 -14.5t35.5 14.5t14.5 35.5t-14.5 35.5t-35.5 14.5t-35.5 -14.5t-14.5 -35.5v0z" />
    <glyph glyph-name="Ucircumflex" unicode="&#xdb;" horiz-adv-x="148" 
d="M-130 -130q0 -8 6 -14t14 -6t14 6t6 14t-6 14t-14 6t-14 -6t-6 -14v0zM-30 -320q0 -8 6 -14t14 -6t14 6t6 14t-6 14t-14 6t-14 -6t-6 -14v0zM-180 -140q0 33 20.5 56.5t49.5 23.5t49.5 -20.5t20.5 -49.5t-23.5 -49.5t-56.5 -20.5q20 -24 49 -37t61 -13q10 0 18 -1.5
t12 -3.5q43 36 66.5 87t23.5 108q0 35 -20 90l40 10q15 -26 22.5 -51t7.5 -49q0 -65 -27.5 -124t-77.5 -101q5 -9 5 -35q0 -29 -20.5 -49.5t-49.5 -20.5t-49.5 20.5t-20.5 49.5q0 3 10 30q-48 8 -79 50.5t-31 99.5v0z" />
    <glyph glyph-name="Udieresis" unicode="&#xdc;" 
d="M-20 505q0 18 -12 34t-33 26l20 55q38 -10 61.5 -42t23.5 -73q0 -48 -32 -81.5t-78 -33.5h-45v60h45q21 0 35.5 16t14.5 39v0z" />
    <glyph glyph-name="Yacute" unicode="&#xdd;" horiz-adv-x="402" 
d="M-113 450h245q112 0 191 -70.5t79 -169.5q0 -87 -54 -148.5t-131 -61.5q-60 0 -102.5 38t-42.5 92t38 92t92 38q29 0 49.5 -19t20.5 -46q0 -23 -14.5 -39t-35.5 -16t-35.5 14.5t-14.5 35.5q-21 -8 -32 -24.5t-8 -35.5q0 -29 25 -49.5t60 -20.5q48 0 81.5 44t33.5 106
q0 75 -58.5 127.5t-141.5 52.5h-245v60v0z" />
    <glyph glyph-name="Thorn" unicode="&#xde;" horiz-adv-x="690" 
d="M130 450h315q101 0 173 -70.5t72 -169.5q0 -87 -48.5 -148.5t-116.5 -61.5q-60 0 -102.5 41t-42.5 99q0 46 29.5 78t70.5 32q25 0 42.5 -17.5t17.5 -42.5q0 -21 -14.5 -35.5t-35.5 -14.5q-14 0 -26 4t-19 11q-2 -4 -3.5 -8t-1.5 -7q0 -33 25 -56.5t60 -23.5q39 0 67 44
t28 106q0 75 -51.5 127.5t-123.5 52.5h-170q33 -28 51.5 -71t18.5 -94q0 -93 -58.5 -159t-141.5 -66q-61 0 -105.5 40.5t-49.5 99.5l5 90q13 -74 55.5 -122t94.5 -48q56 0 95.5 48.5t39.5 116.5t-44 116.5t-106 48.5v60v0z" />
    <glyph glyph-name="germandbls" unicode="&#xdf;" horiz-adv-x="232" 
d="M7 525q0 37 31 63.5t74 26.5q50 0 85 -39.5t35 -95.5q0 -60 -39.5 -102.5t-95.5 -42.5q-31 0 -56 9t-39 26l20 45q12 -14 31.5 -22t43.5 -8q34 0 56.5 30t18.5 70q-11 -23 -30 -36.5t-40 -13.5q-39 0 -67 26.5t-28 63.5v0zM62 525q0 -12 11.5 -21t28.5 -9t28.5 10.5
t11.5 24.5t-11.5 24.5t-28.5 10.5t-28.5 -11.5t-11.5 -28.5v0z" />
    <glyph glyph-name="agrave" unicode="&#xe0;" horiz-adv-x="356" 
d="M236 360q0 -17 11.5 -28.5t28.5 -11.5t28.5 11.5t11.5 28.5t-11.5 28.5t-28.5 11.5t-28.5 -11.5t-11.5 -28.5v0zM76 260q0 83 55.5 141.5t134.5 58.5q46 0 78 -29.5t32 -70.5t-29.5 -70.5t-70.5 -29.5t-70.5 29.5t-29.5 70.5q-15 -17 -22.5 -43t-7.5 -57q0 -76 54 -146.5
t146 -113.5h-110q-74 43 -117 112.5t-43 147.5v0z" />
    <glyph glyph-name="aacute" unicode="&#xe1;" horiz-adv-x="345" 
d="M155 390l5 60q85 0 145 -66t60 -159t-61.5 -159t-148.5 -66q-61 0 -107.5 39.5t-57.5 100.5v110q15 -82 61.5 -136t103.5 -54q58 0 99 48.5t41 116.5t-41 116.5t-99 48.5v0z" />
    <glyph glyph-name="acircumflex" unicode="&#xe2;" horiz-adv-x="215" 
d="M-245 20h20q13 -49 64.5 -79.5t120.5 -30.5q77 0 131 55.5t54 134.5q0 73 -18 141.5t-52 128.5l60 30q39 -68 59.5 -144.5t20.5 -155.5q0 -104 -72 -177t-173 -73q-80 0 -141 48t-74 122v0z" />
    <glyph glyph-name="atilde" unicode="&#xe3;" horiz-adv-x="635" 
d="M565 232q0 75 -39.5 124t-100.5 49q-58 0 -99 -60t-41 -145q0 -83 -48.5 -141.5t-116.5 -58.5q-48 0 -84.5 32.5t-45.5 82.5l5 85q10 -56 45.5 -93t79.5 -37q39 0 67 38t28 92q0 108 61.5 184t148.5 76q95 0 152.5 -63t57.5 -167q0 -100 -45.5 -165t-114.5 -65
q-54 0 -92 39.5t-38 95.5q0 48 29.5 81.5t70.5 33.5q25 0 42.5 -17.5t17.5 -42.5t-14.5 -42.5t-35.5 -17.5q-14 0 -26 6.5t-19 18.5q-2 -5 -3.5 -8.5t-1.5 -6.5q0 -33 20.5 -56.5t49.5 -23.5q41 0 65.5 47t24.5 125v0z" />
    <glyph glyph-name="adieresis" unicode="&#xe4;" horiz-adv-x="580" 
d="M-240 30h20q0 -50 50 -85t120 -35q75 0 127.5 55.5t52.5 134.5q0 25 -10 75t-10 75q0 89 61.5 152t148.5 63q108 0 184 -77.5t76 -187.5q0 -83 -50 -141.5t-120 -58.5q-58 0 -99 38t-41 92q0 48 32 81.5t78 33.5q25 0 42.5 -16t17.5 -39q0 -21 -14.5 -35.5t-35.5 -14.5
q-13 0 -24 8t-16 22q-7 -6 -11 -18t-4 -27q0 -27 22 -46t53 -19q41 0 70.5 41t29.5 99q0 83 -55.5 141.5t-134.5 58.5q-58 0 -99 -44t-41 -106q0 -25 10 -75t10 -75q0 -104 -72 -177t-173 -73q-81 0 -138 52.5t-57 127.5v0z" />
    <glyph glyph-name="aring" unicode="&#xe5;" horiz-adv-x="360" 
d="M100 390v60h180v-60h-10q42 -30 66 -73.5t24 -91.5q0 -93 -60 -159t-145 -66q-65 0 -112.5 40.5t-52.5 99.5v120q15 -82 61.5 -136t103.5 -54q56 0 95.5 45.5t39.5 109.5q0 68 -41 116.5t-99 48.5h-50v0z" />
    <glyph glyph-name="ae" unicode="&#xe6;" 
d="M-126 390v60h36q29 0 49.5 17.5t20.5 42.5q0 21 -14.5 35.5t-35.5 14.5q-10 0 -16.5 -2.5t-8.5 -7.5q13 -2 21.5 -13.5t8.5 -26.5q0 -17 -13 -28.5t-32 -11.5q-21 0 -35.5 17.5t-14.5 42.5q0 37 26.5 63.5t63.5 26.5q46 0 78 -32t32 -78q0 -50 -38 -85t-92 -35h-36v0z
" />
    <glyph glyph-name="ccedilla" unicode="&#xe7;" horiz-adv-x="135" 
d="M-95 -155q0 -8 6 -14t14 -6t14 6t6 14t-6 14t-14 6t-14 -6t-6 -14v0zM-180 -190q0 43 28 74t67 31q33 0 56.5 -20.5t23.5 -49.5t-20.5 -49.5t-49.5 -20.5q-16 0 -29.5 11t-20.5 29q0 -46 29.5 -78t70.5 -32t70.5 28t29.5 67q0 34 -11.5 63.5t-33.5 51.5q24 20 37 43.5
t13 46.5q0 24 -8 45t-22 35l50 25q17 -20 26 -47t9 -58q0 -29 -9 -53.5t-26 -41.5q17 -20 26 -49.5t9 -65.5q0 -62 -47 -106t-113 -44q-64 0 -109.5 48.5t-45.5 116.5v0z" />
    <glyph glyph-name="egrave" unicode="&#xe8;" horiz-adv-x="407" 
d="M-113 450h140q17 0 28.5 11.5t11.5 28.5t-10.5 33t-29.5 27h-140v60h270q104 0 177 -82t73 -198q0 -79 -50 -134.5t-120 -55.5q-62 0 -106 41t-44 99q0 46 29.5 78t70.5 32q29 0 49.5 -17.5t20.5 -42.5t-14.5 -42.5t-35.5 -17.5q-14 0 -27.5 11t-22.5 29
q-5 -7 -7.5 -14.5t-2.5 -15.5q0 -33 26.5 -56.5t63.5 -23.5q46 0 78 38t32 92q0 91 -55.5 155.5t-134.5 64.5h-55q12 -14 18.5 -29.5t6.5 -30.5q0 -41 -29.5 -70.5t-70.5 -29.5h-140v60v0z" />
    <glyph glyph-name="eacute" unicode="&#xe9;" horiz-adv-x="340" 
d="M5 -300q0 26 16 50t44 40q23 11 36.5 26t13.5 29q0 12 -9 21t-21 9t-21 -6t-9 -14q0 -10 2.5 -18t7.5 -12l-40 -25q-12 10 -18.5 24.5t-6.5 30.5q0 29 25 49.5t60 20.5t60 -23.5t25 -56.5q0 -22 -14.5 -43.5t-40.5 -36.5t-40.5 -32.5t-14.5 -32.5q0 -19 25 -32t60 -13
q50 0 85 29.5t35 70.5q0 42 -42.5 115t-42.5 115q0 35 23.5 60t56.5 25q29 0 51.5 -21t28.5 -54l-55 -5q-2 11 -9 18t-16 7q-10 0 -17.5 -9t-7.5 -21q0 -42 42.5 -115t42.5 -115q0 -62 -51.5 -106t-123.5 -44q-58 0 -99 28t-41 67v0z" />
    <glyph glyph-name="ecircumflex" unicode="&#xea;" horiz-adv-x="97" 
d="M-86 -150q0 -8 6 -14t14 -6t14 6t6 14t-6 14t-14 6t-14 -6t-6 -14v0zM-176 -205q0 52 32 88.5t78 36.5q29 0 49.5 -20.5t20.5 -49.5t-20.5 -49.5t-49.5 -20.5q-16 0 -29.5 11t-20.5 29q-3 -6 -4.5 -13t-1.5 -13q0 -35 28 -59.5t68 -24.5q41 0 70.5 35t29.5 85
q0 56 -15.5 107t-44.5 93l55 25q32 -55 48.5 -112.5t16.5 -112.5q0 -72 -47 -123.5t-113 -51.5q-62 0 -106 41t-44 99v0z" />
    <glyph glyph-name="edieresis" unicode="&#xeb;" horiz-adv-x="105" 
d="M-95 -155q0 -8 6 -14t14 -6t14 6t6 14t-6 14t-14 6t-14 -6t-6 -14v0zM-180 -190q0 48 31 81.5t74 33.5q29 0 49.5 -23.5t20.5 -56.5q0 -29 -20.5 -49.5t-49.5 -20.5q-16 0 -29.5 11t-20.5 29q0 -46 26.5 -78t63.5 -32q41 0 70.5 44t29.5 106q0 50 -14 92.5t-41 71.5h183
q82 0 139.5 -51.5t57.5 -124.5q0 -63 -43 -108t-103 -45q-39 0 -66.5 28t-27.5 67t23.5 67t56.5 28q27 0 46.5 -14t19.5 -34q0 -17 -11 -28.5t-26 -11.5t-25.5 11t-10.5 26q-14 -5 -22 -17t-8 -27q0 -21 15 -36t36 -15q39 0 67 32t28 77q0 54 -43 92.5t-103 38.5h-92
q12 -28 18 -58t6 -61q0 -83 -47 -141.5t-113 -58.5q-60 0 -102.5 45.5t-42.5 109.5v0z" />
    <glyph glyph-name="igrave" unicode="&#xec;" horiz-adv-x="492" 
d="M92 120q0 25 13 50t37 45q-24 20 -37 47.5t-13 57.5q0 54 41 92t99 38h260v-60h-260q-29 0 -49.5 -20.5t-20.5 -49.5t20.5 -49.5t49.5 -20.5h100v-60h-100q-29 0 -49.5 -20.5t-20.5 -49.5q0 -20 19 -39.5t51 -30.5l-40 -50q-45 16 -72.5 49t-27.5 71v0z" />
    <glyph glyph-name="iacute" unicode="&#xed;" horiz-adv-x="417" 
d="M77 230q0 87 52.5 148.5t127.5 61.5t127.5 -61.5t52.5 -148.5t-52.5 -148.5t-127.5 -61.5t-127.5 61.5t-52.5 148.5v0zM147 230q0 -62 32 -106t78 -44t78 44t32 106t-32 106t-78 44t-78 -44t-32 -106v0z" />
    <glyph glyph-name="icircumflex" unicode="&#xee;" horiz-adv-x="252" 
d="M2 450h170q37 -17 58.5 -51t21.5 -74q0 -52 -41 -88.5t-99 -36.5q-27 0 -55.5 11.5t-54.5 33.5l30 55q19 -19 40 -29.5t40 -10.5q29 0 49.5 19t20.5 46q0 19 -10.5 36.5t-29.5 28.5h-140v60v0z" />
    <glyph glyph-name="idieresis" unicode="&#xef;" horiz-adv-x="282" 
d="M2 390v60h140q33 0 56.5 19t23.5 46q0 19 -14.5 32t-35.5 13q-10 0 -18 -4t-12 -11q13 -2 21.5 -12t8.5 -23q0 -14 -11.5 -24.5t-28.5 -10.5q-21 0 -35.5 14.5t-14.5 35.5q0 39 26.5 67t63.5 28q46 0 78 -31t32 -74q0 -33 -16.5 -59t-43.5 -36q23 -13 36.5 -37.5
t13.5 -52.5q0 -50 -41 -85t-99 -35q-23 0 -46 6.5t-44 18.5l20 55q14 -10 32 -15t38 -5q29 0 49.5 17.5t20.5 42.5t-17.5 42.5t-42.5 17.5h-140v0z" />
    <glyph glyph-name="eth" unicode="&#xf0;" horiz-adv-x="140" 
d="M-180 -220l43 35q34 -67 86.5 -106t108.5 -39q52 0 104 39t91 106l38 -35q-34 -73 -98 -116.5t-138 -43.5q-71 0 -134 43t-101 117v0zM0 -160q0 -29 17.5 -49.5t42.5 -20.5t42.5 20.5t17.5 49.5t-17.5 49.5t-42.5 20.5t-42.5 -20.5t-17.5 -49.5v0zM-90 -40h130
q24 35 37 65.5t13 54.5q0 22 -4 39.5t-11 30.5l45 20q10 -17 15 -40t5 -50q0 -29 -9 -59.5t-26 -60.5h105v-50h-60q15 -17 22.5 -35t7.5 -35q0 -50 -35 -85t-85 -35t-85 35t-35 85q0 17 7.5 35t22.5 35h-60v50v0z" />
    <glyph glyph-name="ntilde" unicode="&#xf1;" horiz-adv-x="436" 
d="M231 250q0 -14 13 -24.5t32 -10.5q14 0 28.5 9.5t26.5 25.5q-12 12 -26.5 18.5t-28.5 6.5q-19 0 -32 -7.5t-13 -17.5v0zM336 310q0 24 -13.5 45.5t-36.5 34.5h-230v60h310v-60h-10q17 -14 26 -43t9 -67q31 -26 48 -57.5t17 -62.5q0 -66 -58.5 -113t-141.5 -47
q-87 0 -148.5 47t-61.5 113q0 17 4 32t11 28l55 -20q-5 -9 -7.5 -19t-2.5 -21q0 -37 44 -63.5t106 -26.5q54 0 92 26.5t38 63.5q0 12 -4 23.5t-11 21.5q-13 -23 -38.5 -36.5t-56.5 -13.5q-46 0 -78 26.5t-32 63.5q0 35 32 60t78 25q12 0 27.5 -5t32.5 -15v0z" />
    <glyph glyph-name="ograve" unicode="&#xf2;" horiz-adv-x="428" 
d="M215 -255q14 -5 20 -5q17 0 28.5 10.5t11.5 24.5q0 8 -6 14t-14 6q-17 0 -28.5 -14.5t-11.5 -35.5v0zM-170 -310q0 26 16.5 49t43.5 36q23 11 36.5 30t13.5 40q0 12 -9 21t-21 9t-21 -6t-9 -14q0 -10 2.5 -18t7.5 -12l-45 -25q-12 12 -18.5 26.5t-6.5 28.5
q0 29 26.5 49.5t63.5 20.5q35 0 60 -23.5t25 -56.5q0 -29 -14.5 -54.5t-40.5 -40.5t-40.5 -32.5t-14.5 -32.5q0 -17 11.5 -28.5t28.5 -11.5q29 0 49.5 23.5t20.5 56.5h60q0 -33 20.5 -56.5t49.5 -23.5q17 0 28.5 16t11.5 39q0 17 -16.5 34.5t-43.5 30.5l30 40q29 -17 40 -30
q0 29 23.5 49.5t56.5 20.5q29 0 49.5 -20.5t20.5 -49.5q0 -33 -20.5 -56.5t-49.5 -23.5h-30q8 -23 33 -36.5t57 -13.5q37 0 63.5 29.5t26.5 70.5q0 34 -18.5 68t-51.5 62q24 16 37 40t13 50q0 12 -7.5 27.5t-22.5 32.5l40 30q19 -23 29.5 -46t10.5 -44q0 -27 -10.5 -50.5
t-29.5 -39.5q29 -24 44.5 -58t15.5 -72q0 -62 -41 -106t-99 -44q-37 0 -68.5 13t-51.5 37q-6 -22 -25.5 -36t-44.5 -14q-31 0 -58 19t-42 51q-15 -32 -42 -51t-58 -19q-39 0 -67 28t-28 67v0z" />
    <glyph glyph-name="oacute" unicode="&#xf3;" horiz-adv-x="105" 
d="M-30 -135q0 -8 6 -14t14 -6t14 6t6 14t-6 14t-14 6t-14 -6t-6 -14v0zM-100 -195q0 50 26.5 85t63.5 35q25 0 42.5 -17.5t17.5 -42.5t-17.5 -42.5t-42.5 -17.5q-11 0 -21 2.5t-19 7.5q0 -33 17.5 -56.5t42.5 -23.5t42.5 20.5t17.5 49.5h60q0 -29 17.5 -49.5t42.5 -20.5
q21 0 35.5 16t14.5 39t-14.5 39t-35.5 16v50q22 0 37.5 13t15.5 31q0 14 -3.5 27t-9.5 24h50q4 -12 6.5 -25.5t2.5 -27.5q0 -22 -12 -41t-32 -31q20 -7 32.5 -28t12.5 -47q0 -43 -29.5 -74t-70.5 -31q-28 0 -52.5 16.5t-37.5 43.5q-13 -27 -37.5 -43.5t-52.5 -16.5
q-46 0 -78 35t-32 85v0zM-180 -285l40 30q31 -53 96.5 -84t148.5 -31t148.5 31t96.5 84l40 -30q-36 -63 -112.5 -99t-172.5 -36t-172.5 36t-112.5 99v0z" />
    <glyph glyph-name="ocircumflex" unicode="&#xf4;" horiz-adv-x="360" 
d="M70 -215h40q21 0 35.5 14.5t14.5 35.5q0 17 -11.5 28.5t-28.5 11.5q-21 0 -35.5 -17.5t-14.5 -42.5v-30v0zM-180 -265v50h200v30q0 46 29.5 78t70.5 32q37 0 63.5 -26.5t26.5 -63.5q0 -41 -29.5 -70.5t-70.5 -29.5h-30q20 -24 49 -37t61 -13q50 0 85 32t35 78
q0 37 -21.5 70.5t-58.5 54.5q37 21 58.5 49.5t21.5 55.5q0 17 -7.5 35t-22.5 35l35 30q21 -18 33 -44t12 -56q0 -28 -14.5 -55.5t-40.5 -49.5q26 -22 40.5 -55t14.5 -70q0 -66 -50 -113t-120 -47q-52 0 -95.5 27t-64.5 73h-210v0z" />
    <glyph glyph-name="otilde" unicode="&#xf5;" horiz-adv-x="266" 
d="M70 -215h40q21 0 35.5 14.5t14.5 35.5q0 17 -11.5 28.5t-28.5 11.5q-21 0 -35.5 -17.5t-14.5 -42.5v-30v0zM-180 -265v50h200v30q0 46 29.5 78t70.5 32q37 0 63.5 -26.5t26.5 -63.5q0 -41 -29.5 -70.5t-70.5 -29.5h-30q11 -23 35 -36.5t55 -13.5q46 0 78 35t32 85
q0 51 -20.5 102.5t-59.5 97.5l40 30q44 -52 67 -114t23 -126q0 -66 -47 -113t-113 -47q-52 0 -92.5 28t-52.5 72h-205v0z" />
    <glyph glyph-name="odieresis" unicode="&#xf6;" horiz-adv-x="125" 
d="M120 -215q21 0 35.5 14.5t14.5 35.5q0 17 -11.5 28.5t-28.5 11.5t-28.5 -9t-11.5 -21t7.5 -27.5t22.5 -32.5v0zM-180 -265v50h240q-10 17 -15 32.5t-5 27.5q0 33 26.5 56.5t63.5 23.5t63.5 -26.5t26.5 -63.5q0 -41 -29.5 -70.5t-70.5 -29.5q-10 -12 -15 -24.5t-5 -25.5
q0 -21 35 -35.5t85 -14.5q46 0 78 23.5t32 56.5q0 37 -37.5 100t-37.5 100t25 63.5t60 26.5q29 0 54 -19t36 -51l-40 -20q-7 18 -20.5 29t-29.5 11q-12 0 -21 -11.5t-9 -28.5q0 -37 40 -100t40 -100q0 -54 -50 -92t-120 -38t-120 29.5t-50 70.5q0 15 20 50h-250v0z" />
    <glyph glyph-name="divide" unicode="&#xf7;" horiz-adv-x="105" 
d="M-70 -255v50h210q-10 8 -15 18.5t-5 21.5q0 37 26.5 63.5t63.5 26.5t63.5 -26.5t26.5 -63.5t-26.5 -63.5t-63.5 -26.5h-280v0zM170 -165q0 -17 11.5 -28.5t28.5 -11.5t28.5 11.5t11.5 28.5t-11.5 28.5t-28.5 11.5t-28.5 -11.5t-11.5 -28.5v0zM-180 -275l40 30
q31 -53 96.5 -84t148.5 -31t148.5 31t96.5 84l40 -30q-36 -63 -112.5 -99t-172.5 -36t-172.5 36t-112.5 99v0z" />
    <glyph glyph-name="oslash" unicode="&#xf8;" horiz-adv-x="105" 
d="M-180 -305l40 30q31 -53 96.5 -84t148.5 -31t148.5 31t96.5 84l40 -30q-36 -63 -112.5 -99t-172.5 -36t-172.5 36t-112.5 99v0zM-100 -215q0 41 26.5 70.5t63.5 29.5q17 0 32.5 -8t27.5 -22l-20 -30q-6 5 -16 7.5t-24 2.5q-17 0 -28.5 -14.5t-11.5 -35.5t14.5 -35.5
t35.5 -14.5q29 0 49.5 23.5t20.5 56.5h60q0 -33 20.5 -56.5t49.5 -23.5q23 0 39 29.5t16 70.5t-19 70.5t-46 29.5l25 45q39 -18 62 -57.5t23 -87.5q0 -62 -29.5 -106t-70.5 -44q-31 0 -58 19t-42 51q-15 -32 -42 -51t-58 -19q-41 0 -70.5 29.5t-29.5 70.5v0z" />
    <glyph glyph-name="ugrave" unicode="&#xf9;" horiz-adv-x="270" 
d="M10 -210q0 -12 9 -21t21 -9t21 9t9 21t-9 21t-21 9t-21 -9t-9 -21v0zM-180 -135l25 45q38 -22 82.5 -33.5t92.5 -11.5q28 0 55 10.5t50 29.5l25 -45q-25 -21 -50 -30q5 -7 7.5 -17t2.5 -23q0 -29 -20.5 -49.5t-49.5 -20.5h-10q11 -23 35 -36.5t55 -13.5q46 0 78 29.5
t32 70.5q0 43 -20 81.5t-55 63.5q29 24 44.5 51.5t15.5 53.5q0 12 -9 26.5t-26 28.5l40 35q24 -20 37 -43.5t13 -46.5q0 -29 -11.5 -56t-33.5 -49q26 -22 40.5 -58.5t14.5 -81.5q0 -64 -47 -109.5t-113 -45.5q-64 0 -109.5 45.5t-45.5 109.5q0 13 2.5 23t7.5 17
q-34 0 -73 12.5t-82 37.5v0z" />
    <glyph glyph-name="uacute" unicode="&#xfa;" horiz-adv-x="105" 
d="M-60 -295q0 66 41 113t99 47q22 0 40 -5t30 -15q24 -20 42.5 -52.5t27.5 -32.5q12 0 21 28t9 67q0 30 -10.5 58.5t-29.5 51.5l50 20q20 -34 30 -67t10 -63q0 -62 -23.5 -106t-56.5 -44q-16 0 -37.5 21.5t-42.5 58.5q-8 14 -24 22t-36 8q-31 0 -56.5 -31t-33.5 -79h-50v0z
M-180 -305l40 30q31 -53 96.5 -84t148.5 -31t148.5 31t96.5 84l40 -30q-36 -63 -112.5 -99t-172.5 -36t-172.5 36t-112.5 99v0z" />
    <glyph glyph-name="ucircumflex" unicode="&#xfb;" horiz-adv-x="429" 
d="M159 170q0 -41 26.5 -70.5t63.5 -29.5t63.5 29.5t26.5 70.5t-26.5 70.5t-63.5 29.5t-63.5 -29.5t-26.5 -70.5v0zM49 325h170v65h-170v60h310v-60h-80v-65h170v-55h-85q21 -18 33 -44t12 -56q0 -70 -47 -120t-113 -50t-113 50t-47 120q0 26 11.5 52t33.5 48h-85v55v0z
M49 -180q0 41 29.5 70.5t70.5 29.5q12 0 26.5 -6.5t28.5 -18.5l-25 -35q-6 5 -13.5 7.5t-16.5 2.5q-17 0 -28.5 -14.5t-11.5 -35.5t11.5 -35.5t28.5 -14.5q29 0 49.5 29.5t20.5 70.5h60q0 -41 20.5 -70.5t49.5 -29.5q17 0 28.5 14.5t11.5 35.5q0 32 -15 95t-15 95h50
q0 -38 13 -72t37 -58q38 -38 59 -85t21 -95h-50q0 31 -10 61.5t-30 58.5q-8 -43 -36 -71.5t-64 -28.5q-32 0 -59.5 22t-40.5 58q-13 -36 -40.5 -58t-59.5 -22q-41 0 -70.5 29.5t-29.5 70.5v0z" />
    <glyph glyph-name="udieresis" unicode="&#xfc;" horiz-adv-x="429" 
d="M159 170q0 -41 26.5 -70.5t63.5 -29.5t63.5 29.5t26.5 70.5t-26.5 70.5t-63.5 29.5t-63.5 -29.5t-26.5 -70.5v0zM49 325h155q43 43 60 80q-28 -5 -25 -5q-37 0 -63.5 29.5t-26.5 70.5t29.5 70.5t70.5 29.5t70.5 -29.5t29.5 -70.5t-19.5 -86.5t-55.5 -88.5h175v-55h-85
q22 -26 33.5 -52t11.5 -48q0 -70 -47 -120t-113 -50t-113 50t-47 120q0 22 11.5 48t33.5 52h-85v55v0zM199 500q0 -21 14.5 -35.5t35.5 -14.5t35.5 14.5t14.5 35.5t-14.5 35.5t-35.5 14.5t-35.5 -14.5t-14.5 -35.5v0zM49 -180q0 41 29.5 70.5t70.5 29.5q12 0 26.5 -6.5
t28.5 -18.5l-25 -35q-6 5 -13.5 7.5t-16.5 2.5q-17 0 -28.5 -14.5t-11.5 -35.5t11.5 -35.5t28.5 -14.5q29 0 49.5 29.5t20.5 70.5h60q0 -41 20.5 -70.5t49.5 -29.5q17 0 28.5 14.5t11.5 35.5q0 32 -15 95t-15 95h50q0 -38 13 -72t37 -58q38 -38 59 -85t21 -95h-50
q0 31 -10 61.5t-30 58.5q-8 -43 -36 -71.5t-64 -28.5q-32 0 -59.5 22t-40.5 58q-13 -36 -40.5 -58t-59.5 -22q-41 0 -70.5 29.5t-29.5 70.5v0z" />
    <glyph glyph-name="yacute" unicode="&#xfd;" horiz-adv-x="578" 
d="M73 -160q0 41 29.5 70.5t70.5 29.5q24 0 45.5 -13.5t34.5 -36.5q13 23 34.5 36.5t45.5 13.5q28 0 49.5 -9.5t30.5 -25.5q9 16 28 25.5t42 9.5q41 0 70.5 -28t29.5 -67q0 -14 -7.5 -31t-22.5 -34l-40 30q5 9 7.5 17.5t2.5 17.5q0 19 -11.5 32t-28.5 13q-16 0 -30 -14
t-20 -36q0 -36 -9 -65.5t-26 -49.5q28 -24 45 -46t20 -39h-60q-1 8 -9 18.5t-21 21.5q-16 -19 -47.5 -29.5t-72.5 -10.5t-70.5 20.5t-29.5 49.5t29.5 49.5t70.5 20.5q24 0 49 -7.5t51 -22.5q10 21 15 44t5 46q0 21 -11.5 35.5t-28.5 14.5q-18 0 -32 -14t-18 -36v-20h-60v20
q-4 22 -18 36t-32 14q-17 0 -28.5 -14.5t-11.5 -35.5q0 -6 2.5 -13.5t7.5 -16.5l-40 -30q-14 10 -22 26t-8 34v0zM213 -290q0 -8 11.5 -14t28.5 -6q19 0 37.5 6.5t32.5 18.5q-13 7 -30.5 11t-39.5 4q-17 0 -28.5 -6t-11.5 -14v0zM273 350q0 -35 -14.5 -66.5t-40.5 -53.5
t-40.5 -45.5t-14.5 -44.5q0 -29 17.5 -49.5t42.5 -20.5q37 0 63.5 32t26.5 78h60q0 -46 28 -78t67 -32q27 0 46 22t19 53q0 25 -12 45t-33 30l40 45q32 -19 51 -51t19 -69q0 -60 -39.5 -102.5t-95.5 -42.5q-40 0 -73 23.5t-47 61.5q-14 -38 -47 -61.5t-73 -23.5
q-54 0 -92 41t-38 99q0 31 17 62.5t48 57.5q24 20 37 46t13 54q0 17 -10.5 28.5t-24.5 11.5q-17 0 -28.5 -11.5t-11.5 -28.5q0 -11 4 -21t11 -19l-55 -30q-15 17 -22.5 35t-7.5 35q0 43 32 74t78 31q26 0 47 -9.5t33 -25.5q46 -39 90 -59.5t80 -20.5q38 0 71 27.5t49 72.5
l50 -35q-21 -59 -68 -94.5t-102 -35.5q-35 0 -73.5 17t-76.5 48v0z" />
    <glyph glyph-name="thorn" unicode="&#xfe;" horiz-adv-x="578" 
d="M73 -160q0 41 29.5 70.5t70.5 29.5q24 0 45.5 -13.5t34.5 -36.5q13 23 34.5 36.5t45.5 13.5q29 0 50.5 -8t29.5 -22q8 14 27 22t43 8q41 0 70.5 -29.5t29.5 -70.5q0 -12 -7.5 -27.5t-22.5 -32.5l-40 30q5 9 7.5 16.5t2.5 13.5q0 21 -11.5 35.5t-28.5 14.5q-16 0 -30 -14
t-20 -36q-27 -101 -35 -115q28 -24 45 -46t20 -39h-60q-2 14 -10 27t-20 23q-35 -24 -68 -37t-62 -13q-37 0 -63.5 20.5t-26.5 49.5t29.5 49.5t70.5 20.5q24 0 49 -7.5t51 -22.5q10 21 15 44t5 46q0 21 -11.5 35.5t-28.5 14.5q-18 0 -32 -14t-18 -36h-60q-4 22 -18 36
t-32 14q-17 0 -28.5 -14.5t-11.5 -35.5q0 -6 2.5 -13.5t7.5 -16.5l-40 -30q-15 17 -22.5 32.5t-7.5 27.5v0zM213 -290q0 -8 11.5 -14t28.5 -6q19 0 37.5 6.5t32.5 18.5q-13 7 -30.5 11t-39.5 4q-17 0 -28.5 -6t-11.5 -14v0zM93 130q0 31 15.5 63.5t44.5 61.5
q26 26 40.5 53.5t14.5 51.5q0 17 -10.5 28.5t-24.5 11.5q-17 0 -28.5 -11.5t-11.5 -28.5q0 -14 2.5 -24t7.5 -16l-50 -30q-15 17 -22.5 35t-7.5 35q0 43 32 74t78 31q26 0 47 -9.5t33 -25.5q70 -49 123.5 -74.5t86.5 -25.5q8 0 14 9t6 21t-9 21t-21 9h-40v60h93v-30
q17 -12 27 -28t10 -32q0 -37 -25 -63.5t-60 -26.5q-38 0 -85.5 23t-99.5 67q0 -40 -14.5 -74t-40.5 -56t-40.5 -45.5t-14.5 -44.5q0 -29 17.5 -49.5t42.5 -20.5q37 0 63.5 32t26.5 78h60q0 -46 28 -78t67 -32q27 0 46 22t19 53q0 18 -12 37.5t-33 37.5l40 45
q33 -23 51.5 -53.5t18.5 -61.5q0 -62 -39.5 -106t-95.5 -44q-40 0 -73 23.5t-47 61.5q-14 -38 -47 -61.5t-73 -23.5q-54 0 -92 38t-38 92v0z" />
    <glyph glyph-name="ydieresis" unicode="&#xff;" horiz-adv-x="579" 
d="M74 -160q0 41 29.5 70.5t70.5 29.5q24 0 45.5 -13.5t34.5 -36.5q13 23 34.5 36.5t45.5 13.5q29 0 50.5 -8t29.5 -22q8 14 27 22t43 8q41 0 70.5 -29.5t29.5 -70.5q0 -12 -7.5 -27.5t-22.5 -32.5l-40 30q5 9 7.5 16.5t2.5 13.5q0 21 -11.5 35.5t-28.5 14.5q-16 0 -30 -14
t-20 -36q-27 -101 -35 -115q28 -24 45 -46t20 -39h-60q-2 14 -10 27t-20 23q-35 -24 -68 -37t-62 -13q-37 0 -63.5 20.5t-26.5 49.5t29.5 49.5t70.5 20.5q24 0 49 -7.5t51 -22.5q10 21 15 44t5 46q0 21 -11.5 35.5t-28.5 14.5q-18 0 -32 -14t-18 -36h-60q-4 22 -18 36
t-32 14q-17 0 -28.5 -14.5t-11.5 -35.5q0 -6 2.5 -13.5t7.5 -16.5l-40 -30q-15 17 -22.5 32.5t-7.5 27.5v0zM214 -290q0 -8 11.5 -14t28.5 -6q19 0 37.5 6.5t32.5 18.5q-13 7 -30.5 11t-39.5 4q-17 0 -28.5 -6t-11.5 -14v0zM274 350q0 -35 -14.5 -66.5t-40.5 -53.5
t-40.5 -45.5t-14.5 -44.5q0 -29 17.5 -49.5t42.5 -20.5q37 0 63.5 32t26.5 78h60q0 -46 29.5 -78t70.5 -32q25 0 42.5 22t17.5 53q0 25 -12 46.5t-33 33.5l45 45q31 -26 48 -59t17 -66q0 -60 -36.5 -102.5t-88.5 -42.5q-45 0 -80.5 23.5t-49.5 61.5q-14 -38 -48.5 -61.5
t-76.5 -23.5q-52 0 -88.5 41t-36.5 99q0 34 19.5 69.5t55.5 65.5q19 16 29.5 38.5t10.5 46.5q0 17 -10.5 28.5t-24.5 11.5q-17 0 -28.5 -11.5t-11.5 -28.5q0 -11 4 -21t11 -19l-55 -30q-15 17 -22.5 35t-7.5 35q0 43 32 74t78 31q26 0 48.5 -9t36.5 -26q49 -34 93.5 -52
t81.5 -18q26 0 47.5 10.5t32.5 29.5q-9 -5 -16.5 -7.5t-13.5 -2.5q-41 0 -70.5 29.5t-29.5 70.5t29.5 70.5t70.5 29.5t70.5 -35t29.5 -85q0 -77 -41 -123.5t-109 -46.5q-36 0 -76.5 12.5t-83.5 37.5v0zM434 490q0 -21 14.5 -35.5t35.5 -14.5t35.5 14.5t14.5 35.5t-14.5 35.5
t-35.5 14.5t-35.5 -14.5t-14.5 -35.5v0z" />
    <glyph glyph-name="OE" unicode="&#x152;" horiz-adv-x="135" 
d="M0 0v1h1v-1h-1v0z" />
    <glyph glyph-name="oe" unicode="&#x153;" horiz-adv-x="20" 
d="M-10 -420v30l20 50h20l20 -50v-30h-60v0zM-180 -250q0 70 58.5 120t141.5 50t141.5 -50t58.5 -120q0 -46 -32 -78t-78 -32q-28 0 -52.5 16.5t-37.5 43.5q-13 -27 -37.5 -43.5t-52.5 -16.5q-46 0 -78 32t-32 78v0zM-120 -250q0 -25 14.5 -42.5t35.5 -17.5q25 0 42.5 17.5
t17.5 42.5h60q0 -25 17.5 -42.5t42.5 -17.5q21 0 35.5 17.5t14.5 42.5q0 50 -41 85t-99 35t-99 -35t-41 -85v0z" />
    <glyph glyph-name="Scaron" unicode="&#x160;" horiz-adv-x="570" 
d="M235 80q0 21 14.5 35.5t35.5 14.5t35.5 -14.5t14.5 -35.5t-14.5 -35.5t-35.5 -14.5t-35.5 14.5t-14.5 35.5v0zM55 190v60h460v-60h-460v0zM235 370q0 21 14.5 35.5t35.5 14.5t35.5 -14.5t14.5 -35.5t-14.5 -35.5t-35.5 -14.5t-35.5 14.5t-14.5 35.5v0z" />
    <glyph glyph-name="scaron" unicode="&#x161;" horiz-adv-x="25" 
d="M0 0v1h1v-1h-1v0z" />
    <glyph glyph-name="Ydieresis" unicode="&#x178;" horiz-adv-x="601" 
d="M551 225q0 50 -26 100t-74 90l50 45q57 -48 88.5 -109.5t31.5 -125.5q0 -102 -43.5 -163.5t-116.5 -61.5q-43 0 -76.5 23.5t-43.5 61.5q-10 -38 -43.5 -61.5t-76.5 -23.5q-54 0 -92 38t-38 92q0 35 15.5 68t44.5 57t44.5 51.5t15.5 53.5q0 17 -11.5 28.5t-28.5 11.5
t-28.5 -11.5t-11.5 -28.5q0 -11 2.5 -21t7.5 -19l-60 -20q-10 12 -15 27t-5 33q0 43 32 74t78 31t78 -31t32 -74q0 -29 -18 -62.5t-52 -67.5q-24 -24 -37 -50t-13 -50q0 -25 17.5 -42.5t42.5 -17.5q37 0 63.5 32t26.5 78h60q0 -46 26.5 -78t63.5 -32q41 0 65.5 42.5
t24.5 112.5v0z" />
    <glyph glyph-name="florin" unicode="&#x192;" horiz-adv-x="310" 
d="M90 -150q0 -8 6 -14t14 -6t14 6t6 14t-6 14t-14 6t-14 -6t-6 -14v0zM0 -205q0 52 32 88.5t78 36.5q29 0 49.5 -20.5t20.5 -49.5t-20.5 -49.5t-49.5 -20.5q-16 0 -29.5 11t-20.5 29q-3 -6 -4.5 -13t-1.5 -13q0 -35 28 -59.5t68 -24.5q41 0 70.5 35t29.5 85q0 56 -15.5 107
t-44.5 93l55 25q32 -55 48.5 -112.5t16.5 -112.5q0 -72 -47 -123.5t-113 -51.5q-62 0 -106 41t-44 99v0z" />
    <glyph glyph-name="circumflex" unicode="&#x2c6;" 
d="M269 670h-60v210h60v-210v0zM399 670h-60v210h60v-210v0z" />
    <glyph glyph-name="lozenge" unicode="&#x2dc;" horiz-adv-x="490" 
d="M55 125l50 35q33 -47 75.5 -73.5t84.5 -26.5q41 0 70.5 20.5t29.5 49.5q0 26 -27.5 46t-67.5 24q-79 7 -132 47t-53 93q0 46 41 78t99 32h180v-60h-180q-29 0 -49.5 -14.5t-20.5 -35.5q0 -29 36 -52t89 -28q66 -6 110.5 -43.5t44.5 -86.5q0 -54 -50 -92t-120 -38
q-58 0 -113.5 33t-96.5 92v0z" />
    <glyph glyph-name="endash" unicode="&#x2013;" horiz-adv-x="20" 
d="M-10 -415v30l20 50h20l20 -50v-30h-60v0zM-180 -250q0 41 29.5 70.5t70.5 29.5q13 0 25.5 -5t24.5 -15l-20 -40q-6 5 -13.5 7.5t-16.5 2.5q-17 0 -28.5 -14.5t-11.5 -35.5t14.5 -35.5t34.5 -14.5q25 0 43 29.5t18 70.5h60q0 -41 16.5 -70.5t40.5 -29.5t41 28t17 67
q0 56 -36.5 95.5t-88.5 39.5l5 50q72 0 123.5 -52.5t51.5 -127.5q0 -62 -33.5 -106t-80.5 -44q-27 0 -50.5 15.5t-35.5 41.5q-12 -26 -37 -41.5t-54 -15.5q-45 0 -77 29.5t-32 70.5v0z" />
    <glyph glyph-name="emdash" unicode="&#x2014;" horiz-adv-x="563" 
d="M153 490q0 -17 23.5 -28.5t56.5 -11.5h100q41 0 78.5 -13t66.5 -37q-18 66 -83.5 108t-151.5 42q-37 0 -63.5 -17.5t-26.5 -42.5v0zM153 180q0 -46 20.5 -78t49.5 -32q33 0 56.5 32t23.5 78h60q0 -46 23.5 -78t56.5 -32q29 0 49.5 32t20.5 78q0 87 -52.5 148.5
t-127.5 61.5t-127.5 -61.5t-52.5 -148.5v0zM83 180q0 64 23.5 119t66.5 91q-39 7 -64.5 35.5t-25.5 64.5q0 50 47 85t113 35q154 0 247 -117.5t93 -312.5q0 -75 -41 -127.5t-99 -52.5q-33 0 -63 21.5t-47 58.5q-17 -37 -47 -58.5t-63 -21.5q-58 0 -99 52.5t-41 127.5v0z
M293 -140v30l20 130h40l20 -130v-30h-80v0z" />
    <glyph glyph-name="quoteleft" unicode="&#x2018;" horiz-adv-x="573" 
d="M173 350q0 -17 9 -28.5t21 -11.5t21 11.5t9 28.5t-9 28.5t-21 11.5t-21 -11.5t-9 -28.5v0zM443 350q0 -17 9 -28.5t21 -11.5t21 9t9 21q0 21 -9 35.5t-21 14.5t-21 -11.5t-9 -28.5v0zM88 225q0 107 33 171t87 64q41 0 70.5 -32t29.5 -78t-31 -78t-74 -32q-13 0 -40 10
l-2 -25q0 -64 24 -109.5t58 -45.5q29 0 49.5 26.5t20.5 63.5h60q0 -37 20.5 -63.5t49.5 -26.5q34 0 58 46t24 111l-2 23q-9 -5 -21.5 -7.5t-28.5 -2.5q-41 0 -70.5 32t-29.5 78t29.5 78t70.5 32q54 0 87 -64t33 -171q0 -93 -44 -159t-106 -66q-37 0 -65.5 16.5t-39.5 43.5
q-11 -27 -37 -43.5t-58 -16.5q-64 0 -109.5 66t-45.5 159v0z" />
    <glyph glyph-name="quoteright" unicode="&#x2019;" horiz-adv-x="573" 
d="M173 350q0 -17 9 -28.5t21 -11.5t21 11.5t9 28.5t-9 28.5t-21 11.5t-21 -11.5t-9 -28.5v0zM443 350q0 -17 9 -28.5t21 -11.5t21 9t9 21q0 21 -9 35.5t-21 14.5t-21 -11.5t-9 -28.5v0zM88 225q0 107 33 171t87 64q41 0 70.5 -32t29.5 -78t-31 -78t-74 -32q-13 0 -40 10
l-2 -25q0 -64 24 -109.5t58 -45.5q29 0 49.5 26.5t20.5 63.5h60q0 -37 20.5 -63.5t49.5 -26.5q34 0 58 46t24 111l-2 23q-9 -5 -21.5 -7.5t-28.5 -2.5q-41 0 -70.5 32t-29.5 78t29.5 78t70.5 32q54 0 87 -64t33 -171q0 -93 -44 -159t-106 -66q-37 0 -65.5 16.5t-39.5 43.5
q-11 -27 -37 -43.5t-58 -16.5q-64 0 -109.5 66t-45.5 159v0z" />
    <glyph glyph-name="quotesinglbase" unicode="&#x201a;" 
d="M-405 -130q0 21 14.5 35.5t35.5 14.5t35.5 -14.5t14.5 -35.5t-14.5 -35.5t-35.5 -14.5t-35.5 14.5t-14.5 35.5v0zM-155 -130q0 21 14.5 35.5t35.5 14.5t35.5 -14.5t14.5 -35.5t-14.5 -35.5t-35.5 -14.5t-35.5 14.5t-14.5 35.5v0z" />
    <glyph glyph-name="quotedblleft" unicode="&#x201c;" horiz-adv-x="573" 
d="M173 350q0 -17 9 -28.5t21 -11.5t21 11.5t9 28.5t-9 28.5t-21 11.5t-21 -11.5t-9 -28.5v0zM443 350q0 -17 9 -28.5t21 -11.5t21 9t9 21q0 21 -9 35.5t-21 14.5t-21 -11.5t-9 -28.5v0zM88 225q0 107 33 171t87 64q41 0 70.5 -32t29.5 -78q0 -19 -6 -37t-18 -33h112
q-11 15 -17 33t-6 37q0 46 29.5 78t70.5 32q54 0 87 -64t33 -171q0 -93 -44 -159t-106 -66q-37 0 -65.5 16.5t-39.5 43.5q-11 -27 -37 -43.5t-58 -16.5q-64 0 -109.5 66t-45.5 159v0zM203 240q-13 0 -40 10l-2 -25q0 -64 24 -109.5t58 -45.5q29 0 49.5 26.5t20.5 63.5h60
q0 -37 20.5 -63.5t49.5 -26.5q34 0 58 46t24 111l-2 23q-8 -5 -20 -7.5t-28 -2.5v-25h-272v25v0z" />
    <glyph glyph-name="quotedblright" unicode="&#x201d;" horiz-adv-x="573" 
d="M173 350q0 -17 9 -28.5t21 -11.5t21 11.5t9 28.5t-9 28.5t-21 11.5t-21 -11.5t-9 -28.5v0zM443 350q0 -17 9 -28.5t21 -11.5t21 9t9 21q0 21 -9 35.5t-21 14.5t-21 -11.5t-9 -28.5v0zM88 225q0 107 33 171t87 64q41 0 70.5 -32t29.5 -78q0 -19 -6 -37t-18 -33h112
q-11 15 -17 33t-6 37q0 46 29.5 78t70.5 32q54 0 87 -64t33 -171q0 -93 -44 -159t-106 -66q-37 0 -65.5 16.5t-39.5 43.5q-11 -27 -37 -43.5t-58 -16.5q-64 0 -109.5 66t-45.5 159v0zM203 240q-13 0 -40 10l-2 -25q0 -64 24 -109.5t58 -45.5q29 0 49.5 26.5t20.5 63.5h60
q0 -37 20.5 -63.5t49.5 -26.5q34 0 58 46t24 111l-2 23q-8 -5 -20 -7.5t-28 -2.5v-25h-272v25v0z" />
    <glyph glyph-name="quotedblbase" unicode="&#x201e;" horiz-adv-x="315" 
d="M85 -155q0 -8 6 -14t14 -6t14 6t6 14t-6 14t-14 6t-14 -6t-6 -14v0zM0 -190q0 43 28 74t67 31q33 0 56.5 -20.5t23.5 -49.5t-20.5 -49.5t-49.5 -20.5q-16 0 -29.5 11t-20.5 29q0 -46 29.5 -78t70.5 -32t70.5 28t29.5 67q0 34 -11.5 63.5t-33.5 51.5q24 20 37 43.5
t13 46.5q0 24 -8 45t-22 35l50 25q17 -20 26 -47t9 -58q0 -29 -9 -53.5t-26 -41.5q17 -20 26 -49.5t9 -65.5q0 -62 -47 -106t-113 -44q-64 0 -109.5 48.5t-45.5 116.5v0z" />
    <glyph glyph-name="dagger" unicode="&#x2020;" horiz-adv-x="101" 
d="M221 -155h60q0 -102 -19 -177.5t-54 -114.5q-40 -44 -112.5 -68.5t-164.5 -24.5v55q78 0 139.5 21.5t95.5 60.5q27 31 41 95t14 153v0z" />
    <glyph glyph-name="daggerdbl" unicode="&#x2021;" 
d="M334 670h-60v210h60v-210v0z" />
    <glyph glyph-name="bullet" unicode="&#x2022;" 
d="M-119 -160q0 -14 6 -24.5t15 -10.5t15 10.5t6 24.5t-6 24.5t-15 10.5t-15 -10.5t-6 -24.5v0zM77 -160q0 -14 6 -24.5t15 -10.5t15 8t6 20q0 17 -6 29.5t-15 12.5t-15 -10.5t-6 -24.5v0zM-175 -216q0 55 24.5 94t59.5 39q26 0 44.5 -22.5t18.5 -54.5q0 -13 -5 -27.5
t-15 -28.5h97q-10 12 -15.5 26.5t-5.5 29.5q0 32 18.5 54.5t44.5 22.5q35 0 59.5 -39t24.5 -94q0 -78 -31 -133.5t-74 -55.5q-23 0 -42.5 12.5t-27.5 32.5q-8 -20 -27.5 -32.5t-42.5 -12.5q-43 0 -74 55.5t-31 133.5v0zM-91 -237q-16 0 -35 7q0 -51 16.5 -87t39.5 -36
t40.5 17t22.5 43h14q5 -26 22.5 -43t40.5 -17t39.5 36t16.5 87q-6 -3 -15 -5t-20 -2v-28h-182v28v0z" />
    <glyph glyph-name="ellipsis" unicode="&#x2026;" horiz-adv-x="272" 
d="M107 365q0 -23 11.5 -39t28.5 -16t28.5 14.5t11.5 35.5q0 12 -11.5 21t-28.5 9h-40v-25v0zM-113 450h170q5 55 39.5 92.5t80.5 37.5q31 0 57.5 -19t37.5 -51l-50 -30q-11 19 -23 29.5t-22 10.5q-25 0 -42.5 -20.5t-17.5 -49.5h30q41 0 70.5 -29.5t29.5 -70.5t-29.5 -70.5
t-70.5 -29.5t-70.5 33.5t-29.5 81.5v25h-160v60v0z" />
    <glyph glyph-name="perthousand" unicode="&#x2030;" 
d="M-26 -475v45h385v-45h-385v0z" />
    <glyph glyph-name="guilsinglleft" unicode="&#x2039;" 
d="M-525 -130l40 30q38 -65 106 -102.5t149 -37.5q93 0 163 37t92 98l40 -25q-26 -72 -107 -116t-188 -44q-94 0 -173 43t-122 117v0z" />
    <glyph glyph-name="guilsinglright" unicode="&#x203a;" 
d="M-475 -130l40 30q38 -65 106 -102.5t149 -37.5q93 0 163 37t92 98l40 -25q-26 -72 -107 -116t-188 -44q-94 0 -173 43t-122 117v0z" />
    <glyph glyph-name="trademark" unicode="&#x2122;" horiz-adv-x="125" 
d="M0 0v1h1v-1h-1v0z" />
    <glyph glyph-name="c144" horiz-adv-x="800" 
d="M100 0v700h600v-700h-600v0zM150 50h500v600h-500v-600v0z" />
  </font>
</defs>
</svg>
