<?xml version="1.0" standalone="no"?>
<!DOCTYPE svg PUBLIC "-//W3C//DTD SVG 1.1//EN" "http://www.w3.org/Graphics/SVG/1.1/DTD/svg11.dtd" >
<svg xmlns="http://www.w3.org/2000/svg" xmlns:xlink="http://www.w3.org/1999/xlink" version="1.1">
<metadata>
Created by FontForge 20170731 at Wed Feb 17 03:00:00 2016
 By Aleksey,,,
SHREE-BAN-0562E Copyright(c) 1992, Modular Infotech, Pune, INDIA. - Licenced to User with Reg. No. 400832
</metadata>
<defs>
<font id="SHREE-BAN-0562E" horiz-adv-x="5" >
  <font-face 
    font-family="SHREE-BAN-0562E"
    font-weight="400"
    font-stretch="normal"
    units-per-em="1000"
    panose-1="0 0 0 0 0 0 0 0 0 0"
    ascent="750"
    descent="-250"
    x-height="300"
    cap-height="500"
    bbox="-525 -300 928 795"
    underline-thickness="20"
    underline-position="-130"
    unicode-range="U+0020-2122"
  />
<missing-glyph horiz-adv-x="364" 
d="M33 0v666h265v-666h-265zM66 33h199v600h-199v-600z" />
    <glyph glyph-name=".notdef" horiz-adv-x="364" 
d="M33 0v666h265v-666h-265zM66 33h199v600h-199v-600z" />
    <glyph glyph-name=".null" horiz-adv-x="0" 
 />
    <glyph glyph-name="nonmarkingreturn" horiz-adv-x="0" 
 />
    <glyph glyph-name="space" unicode=" " horiz-adv-x="249" 
 />
    <glyph glyph-name="exclam" unicode="!" horiz-adv-x="410" 
d="M280 -50q-21 0 -35.5 14.5t-14.5 35.5q0 19 14.5 32t35.5 13t35.5 -14.5t14.5 -35.5q0 -19 -14.5 -32t-35.5 -13v0zM250 100v450h60v-450h-60v0z" />
    <glyph glyph-name="quotedbl" unicode="&#x22;" horiz-adv-x="665" 
d="M525 0v80q-13 37 -37 62t-53 33q-21 -46 -63 -73t-92 -27q-98 0 -171 82t-84 203l60 10q9 -100 65 -167.5t130 -67.5q46 0 78 35t32 85q0 39 -22 67t-53 28q11 -23 -5.5 -44t-44.5 -21q-25 0 -42.5 16t-17.5 39q0 16 8 30.5t22 24.5l-40 55h-205v50h685v-50h-90v-450h-60
v0zM525 170v280h-260l25 -40q75 0 123.5 -55t36.5 -125q22 -8 41 -23.5t34 -36.5v0z" />
    <glyph glyph-name="numbersign" unicode="#" horiz-adv-x="491" 
d="M393 -25q-29 29 -44.5 78.5t-15.5 111.5q0 39 9 74.5t26 65.5q-25 -9 -47 -32.5t-38 -57.5q-25 -53 -65.5 -84t-84.5 -31q-39 0 -67 23.5t-28 56.5q6 34 15 45l50 -15q-5 -14 -5 -25q0 -10 10.5 -17.5t24.5 -7.5q27 0 55.5 27t49.5 73q-14 38 -35.5 62t-44.5 28
q-2 -23 -19.5 -39t-40.5 -16q-25 0 -42.5 17.5t-17.5 42.5q0 21 17 38t43 22q-8 29 -15 35h-93v50h378q-5 30 -32 50t-63 20q-22 0 -65 -5t-65 -5q-43 0 -74 26.5t-31 63.5q0 23 12 43t33 32l40 -30q-12 -10 -18.5 -22t-6.5 -23q0 -17 16 -28.5t39 -11.5q20 0 60 5t60 5
q61 0 106 -34.5t49 -85.5h73v-50h-358q4 -6 6.5 -14.5t3.5 -20.5q45 -12 78 -40t47 -65q34 34 74 52t81 18l25 -45q-31 -31 -48 -74t-17 -91q0 -55 16 -97.5t44 -62.5l-60 -35v0z" />
    <glyph glyph-name="dollar" unicode="$" horiz-adv-x="636" 
d="M357 -10q-137 0 -233.5 95t-96.5 230l55 5q0 -94 49 -166.5t126 -93.5q-67 56 -100 139.5t-25 175.5l50 5q0 -137 61.5 -233.5t148.5 -96.5q60 0 102.5 42.5t42.5 102.5q0 24 -8 43.5t-22 31.5q-26 -38 -58 -59t-62 -21q-37 0 -63.5 31t-26.5 74v155h-307v50h487
q0 29 -20.5 49.5t-49.5 20.5t-87.5 -5t-87.5 -5q-50 0 -85 31t-35 74q0 23 16 46t44 39l45 -40q-19 -11 -29.5 -21.5t-10.5 -18.5q0 -23 16 -39t39 -16q29 0 87.5 5t87.5 5q54 0 92 -36.5t38 -88.5h109v-50h-289v-165q0 -14 9 -24.5t21 -10.5q27 0 57 30t53 80
q46 -27 73 -72.5t27 -97.5q0 -83 -70.5 -141.5t-169.5 -58.5v0z" />
    <glyph glyph-name="percent" unicode="%" horiz-adv-x="691" 
d="M135 -5l-35 30l465 480l30 -35l-460 -475v0zM496 -10q-48 0 -81.5 41.5t-33.5 100.5t33.5 101t81.5 42t81.5 -42t33.5 -101t-33.5 -100.5t-81.5 -41.5v0zM496 50q23 0 39 25t16 60t-16 60t-39 25t-39 -25t-16 -60t16 -60t39 -25v0zM200 230q-50 0 -85 41t-35 99
q0 62 35 106t85 44t85 -44t35 -106q0 -58 -35 -99t-85 -41v0zM202 290q22 0 37.5 25t15.5 60t-16 60t-39 25q-25 0 -42.5 -25t-17.5 -60t18 -60t44 -25v0z" />
    <glyph glyph-name="ampersand" unicode="&#x26;" horiz-adv-x="568" 
d="M428 0q-5 53 -39.5 89t-80.5 36q-22 0 -65 -7.5t-65 -7.5q-58 0 -99 50t-41 120q0 31 7.5 60t22.5 55l55 -20q-12 -21 -18.5 -45.5t-6.5 -49.5q0 -46 23.5 -78t56.5 -32q22 0 65 7.5t65 7.5q38 0 70.5 -17.5t49.5 -47.5v310q0 12 -9 21t-21 9q-46 0 -88 -45.5t-42 -94.5
q24 11 47 0t23 -35q0 -23 -14.5 -39t-35.5 -16q-33 0 -56.5 25t-23.5 60q0 70 61.5 135t128.5 65q37 0 63.5 -28t26.5 -67v-420h-60v0z" />
    <glyph glyph-name="quotesingle" unicode="'" horiz-adv-x="607" 
d="M427 0q-10 54 -51 89.5t-94 35.5q-17 0 -50 -5t-50 -5q-60 0 -102.5 48.5t-42.5 116.5q0 32 9 61.5t26 53.5l50 -20q-12 -21 -18.5 -45.5t-6.5 -49.5q0 -43 25 -74t60 -31q18 0 52.5 5t52.5 5q41 0 78 -20t62 -55v320q0 12 -7.5 21t-17.5 9q-47 0 -91 -48.5t-44 -101.5
q21 21 48 8t27 -43q0 -21 -16 -35.5t-39 -14.5q-35 0 -60 26.5t-25 63.5q0 72 66.5 138.5t138.5 66.5q33 0 56.5 -22t23.5 -53v-40q26 5 43 31.5t17 63.5q0 41 -44 70.5t-106 29.5q-77 0 -131 32t-54 78q0 11 5 21.5t15 18.5l60 -10q-9 -5 -14.5 -13t-5.5 -17
q0 -27 42.5 -46t102.5 -19q79 0 134.5 -45.5t55.5 -109.5q0 -50 -33.5 -90.5t-86.5 -54.5v-345h-60v0z" />
    <glyph glyph-name="parenleft" unicode="(" horiz-adv-x="430" 
d="M320 -210q-111 64 -175.5 187.5t-64.5 272.5t64.5 272.5t175.5 187.5l30 -40q-97 -56 -153.5 -168.5t-56.5 -251.5t56.5 -251.5t153.5 -168.5l-30 -40v0z" />
    <glyph glyph-name="parenright" unicode=")" horiz-adv-x="430" 
d="M110 -210l-30 40q97 56 153.5 168.5t56.5 251.5t-56.5 251.5t-153.5 168.5l30 40q111 -64 175.5 -187.5t64.5 -272.5t-64.5 -272.5t-175.5 -187.5v0z" />
    <glyph glyph-name="asterisk" unicode="*" horiz-adv-x="578" 
d="M343 -10q-120 0 -210.5 108t-104.5 267l60 10q12 -138 87 -231.5t173 -93.5q52 0 88.5 28t36.5 67q0 35 -16.5 61.5t-43.5 33.5q-14 -12 -31 -18.5t-34 -6.5q-23 0 -39 13t-16 32q0 23 19 39t46 16q12 0 40 -5q16 12 25.5 31.5t9.5 43.5q0 29 -26.5 49.5t-63.5 20.5
q-30 0 -50.5 -8.5t-24.5 -21.5q14 2 24.5 -10t10.5 -30q0 -21 -14.5 -35.5t-35.5 -14.5q-27 0 -46 19t-19 46q0 46 45.5 78t109.5 32q62 0 106 -36.5t44 -88.5q0 -28 -10.5 -55t-29.5 -50q37 -17 58.5 -53.5t21.5 -81.5q0 -64 -55.5 -109.5t-134.5 -45.5v0z" />
    <glyph glyph-name="plus" unicode="+" horiz-adv-x="644" 
d="M349 -10q-122 0 -214 109.5t-106 270.5l60 10q12 -140 88.5 -235t176.5 -95q52 0 88.5 26.5t36.5 63.5q0 38 -17.5 65.5t-42.5 29.5q-10 -7 -24.5 -11t-30.5 -4q-27 0 -46 13t-19 32q0 21 19 35.5t46 14.5q12 0 40 -5q14 10 22 27t8 38q0 33 -28 56.5t-67 23.5
q-33 0 -56 -9.5t-29 -25.5q19 0 32 -13t13 -32t-16 -32t-39 -13q-25 0 -42.5 19t-17.5 46q0 48 44 81.5t106 33.5q66 0 113 -36.5t47 -88.5q31 0 53 20.5t22 49.5q0 46 -40.5 80.5t-99.5 39.5q-93 8 -156.5 49t-63.5 93q0 8 1.5 14t3.5 9h60v-20q0 -34 50.5 -61.5
t124.5 -33.5q79 -7 132 -54.5t53 -110.5q0 -56 -43 -95.5t-104 -39.5q-1 -13 -28 -45q37 -17 58.5 -55t21.5 -85q0 -62 -55.5 -106t-134.5 -44v0z" />
    <glyph glyph-name="comma" unicode="," horiz-adv-x="305" 
d="M110 -135l-20 45q35 6 57.5 30t22.5 55q-6 -5 -16 -7.5t-24 -2.5q-21 0 -35.5 14.5t-14.5 35.5q0 25 20.5 42.5t49.5 17.5q31 0 53 -25t22 -60q0 -42 -31 -81t-84 -64v0z" />
    <glyph glyph-name="hyphen" unicode="-" horiz-adv-x="490" 
d="M80 220v55h330v-55h-330v0z" />
    <glyph glyph-name="period" unicode="." horiz-adv-x="270" 
d="M135 -10q-23 0 -39 16t-16 39q0 25 16 42.5t39 17.5t39 -17.5t16 -42.5q0 -23 -16 -39t-39 -16v0z" />
    <glyph glyph-name="slash" unicode="/" horiz-adv-x="414" 
d="M-10 450v50h434v-50h-102v-210h-55q-30 36 -77 55.5t-103 19.5l-20 50q34 24 83 41.5t112 28.5v15h-272v0zM262 310v65q-96 -26 -100 -30q79 -14 100 -35v0z" />
    <glyph glyph-name="zero" unicode="0" horiz-adv-x="479" 
d="M40 266q0 109 53.5 190.5t145.5 81.5t146 -81.5t54 -190.5t-54 -190.5t-146 -81.5t-145.5 81.5t-53.5 190.5v0zM99 266q0 -88 35.5 -152t104.5 -64t104.5 64t35.5 152t-35.5 152t-104.5 64t-104.5 -64t-35.5 -152v0z" />
    <glyph glyph-name="one" unicode="1" horiz-adv-x="478" 
d="M143 379v47q59 0 104 28t49 78h39v-532h-59v379h-133v0z" />
    <glyph glyph-name="two" unicode="2" horiz-adv-x="479" 
d="M57 0q0 76 51.5 137t134.5 109q56 32 88 64t32 76q0 41 -34.5 67t-81.5 26q-48 0 -82.5 -33t-34.5 -81v-33h-60v33q0 72 52 122.5t125 50.5q71 0 123 -43t52 -109q0 -57 -38.5 -104t-100.5 -83q-135 -78 -146 -140h285v-59h-365v0z" />
    <glyph glyph-name="three" unicode="3" horiz-adv-x="479" 
d="M50 166h59q0 -49 39.5 -81t93.5 -32q51 0 89 30t38 77q0 43 -38 68t-89 25h-46v59h46q41 0 71 24.5t30 62.5q0 36 -30 58t-71 22q-48 0 -83.5 -28t-35.5 -72h-60q0 67 51.5 113t121.5 46q67 0 116.5 -39t49.5 -100q0 -36 -15 -66t-44 -47q40 -11 63 -46.5t23 -79.5
q0 -71 -55.5 -118.5t-131.5 -47.5q-78 0 -135 49.5t-57 122.5v0z" />
    <glyph glyph-name="four" unicode="4" horiz-adv-x="478" 
d="M53 133v59l239 340h60v-340h73v-59h-73v-133h-60v133h-239v0zM126 192h166v234l-166 -234v0z" />
    <glyph glyph-name="five" unicode="5" horiz-adv-x="479" 
d="M50 160h59q0 -45 38 -73t89 -28q54 0 93.5 34.5t39.5 85.5q0 53 -39 90t-94 37q-35 0 -66.5 -13.5t-53.5 -39.5h-60l53 275h280v-59h-226l-27 -137q16 19 41.5 26t58.5 7q79 0 136 -54t57 -132q0 -76 -57 -127.5t-136 -51.5q-75 0 -130.5 45.5t-55.5 114.5v0z" />
    <glyph glyph-name="six" unicode="6" horiz-adv-x="479" 
d="M53 199v67q0 109 54 190.5t146 81.5q67 0 115 -44t48 -108h-60q0 40 -30.5 66.5t-72.5 26.5q-67 0 -103.5 -62t-36.5 -145q16 35 50.5 54.5t75.5 19.5q76 0 131.5 -50t55.5 -123q0 -75 -55 -127t-132 -52q-79 0 -132.5 61t-53.5 144v0zM120 166q0 -48 35 -82t84 -34
q52 0 89 36t37 87q0 49 -37.5 82.5t-88.5 33.5q-50 0 -84.5 -36t-34.5 -87v0z" />
    <glyph glyph-name="seven" unicode="7" horiz-adv-x="479" 
d="M40 469v59h399v-59q-104 -73 -152 -197t-48 -272h-73q0 141 48 264t145 205h-319v0z" />
    <glyph glyph-name="eight" unicode="8" horiz-adv-x="479" 
d="M40 160q0 45 25.5 81.5t67.5 51.5q-30 17 -48 45t-18 61q0 62 51.5 100.5t120.5 38.5t121 -38.5t52 -100.5q0 -33 -18 -61t-48 -45q42 -15 67.5 -51.5t25.5 -81.5q0 -73 -60 -119.5t-140 -46.5t-139.5 46.5t-59.5 119.5v0zM99 160q0 -49 42 -78t98 -29t98 29t42 78
q0 47 -42 73t-98 26t-98 -26t-42 -73v0zM126 399q0 -38 34 -59t79 -21t79 21t34 59t-34 59t-79 21t-79 -21t-34 -59v0z" />
    <glyph glyph-name="nine" unicode="9" horiz-adv-x="478" 
d="M56 359q0 74 52.5 126.5t126.5 52.5q80 0 133.5 -61t53.5 -145v-66q0 -109 -51.5 -190.5t-142.5 -81.5q-63 0 -107.5 44.5t-44.5 107.5h59q0 -39 27 -66t66 -27q63 0 95 59.5t32 140.5q-25 -25 -56 -39.5t-64 -14.5q-73 0 -126 46t-53 114v0zM116 365q0 -47 35 -79.5
t84 -32.5t84.5 32.5t35.5 79.5q0 48 -35.5 81t-84.5 33t-84 -33t-35 -81v0z" />
    <glyph glyph-name="colon" unicode=":" horiz-adv-x="270" 
d="M135 275q-23 0 -39 16.5t-16 40.5t16 41t39 17t39 -17t16 -41t-16 -40.5t-39 -16.5v0zM135 -10q-23 0 -39 17.5t-16 42.5q0 23 16 39t39 16t39 -16t16 -39q0 -25 -16 -42.5t-39 -17.5v0z" />
    <glyph glyph-name="semicolon" unicode=";" horiz-adv-x="403" 
d="M314 0q-5 52 -41.5 95.5t-93.5 64.5q-65 24 -105 76t-40 114q0 66 51.5 113t123.5 47q50 0 85 -35t35 -85q0 -41 -29.5 -70.5t-70.5 -29.5q-43 0 -74 26.5t-31 63.5v20q-12 -8 -18.5 -21.5t-6.5 -28.5q0 -41 23 -76.5t62 -53.5q83 -30 136 -90t59 -130h-65v0zM224 345
q17 0 28.5 14.5t11.5 35.5q0 25 -11.5 42.5t-28.5 17.5q-19 0 -32 -14.5t-13 -35.5q0 -25 13 -42.5t32 -17.5v0z" />
    <glyph glyph-name="equal" unicode="=" horiz-adv-x="500" 
d="M360 0q-39 85 -115.5 138.5t-169.5 61.5l-10 65q6 -3 17.5 -4t37.5 -1q54 0 92 32t38 78q0 35 -28 60t-67 25q-12 0 -25 -6.5t-25 -18.5q12 -7 18.5 -17.5t6.5 -22.5q0 -19 -16 -32t-39 -13t-39 17.5t-16 42.5q0 43 39.5 74t95.5 31q64 0 109.5 -39.5t45.5 -95.5
q0 -53 -30.5 -95t-79.5 -55q43 -12 84.5 -44t75.5 -81v460h60v-60h90v-50h-90v-450h-60v0z" />
    <glyph glyph-name="greater" unicode="&#x3e;" horiz-adv-x="461" 
d="M321 0v125q-13 72 -55.5 118.5t-94.5 46.5q-16 0 -30.5 -4t-24.5 -11q23 0 39 -17.5t16 -42.5q0 -27 -20.5 -46t-49.5 -19q-31 0 -53 25t-22 60q0 48 41 81.5t99 33.5q46 0 88 -25.5t67 -69.5v195h-331v50h481v-50h-90v-450h-60v0z" />
    <glyph glyph-name="question" unicode="?" horiz-adv-x="600" 
d="M370 -50q-21 0 -35.5 13t-14.5 32t14.5 32t35.5 13q19 0 32 -13t13 -32t-13 -32t-32 -13v0zM340 80v105q0 36 17 70t48 60q24 20 37 43.5t13 46.5q0 31 -23.5 53t-56.5 22q-35 0 -60 -22t-25 -53v-45h-60v45q0 56 42.5 95.5t102.5 39.5t102.5 -39.5t42.5 -95.5
q0 -24 -17 -54t-48 -61q-26 -22 -40.5 -48t-14.5 -52v-110h-60v0z" />
    <glyph glyph-name="at" unicode="@" horiz-adv-x="390" 
d="M195 -10q-48 0 -81.5 31t-33.5 74q0 48 33.5 81.5t81.5 33.5t81.5 -32t33.5 -78t-33.5 -78t-81.5 -32v0zM195 40q23 0 39 17.5t16 42.5t-16 42.5t-39 17.5t-39 -17.5t-16 -42.5t16 -42.5t39 -17.5v0zM200 290q-50 0 -85 31t-35 74q0 48 33.5 81.5t81.5 33.5t81.5 -32
t33.5 -78t-32 -78t-78 -32v0zM195 340q23 0 39 17.5t16 42.5t-14.5 42.5t-35.5 17.5q-25 0 -42.5 -17.5t-17.5 -42.5t16 -42.5t39 -17.5v0z" />
    <glyph glyph-name="A" unicode="A" horiz-adv-x="402" 
d="M262 0q-28 77 -83 128t-122 62l-40 55q51 73 115 116t130 49v40h-272v50h563v-50h-231v-40q81 -7 135.5 -56t54.5 -114q0 -41 -22 -70.5t-53 -29.5q-25 0 -42.5 13t-17.5 32q0 25 23 38t47 2q5 11 5 35q0 33 -39.5 62t-90.5 33v-355h-60v0zM262 110v240q-47 -4 -91.5 -33
t-78.5 -77q54 -14 98 -48t72 -82v0z" />
    <glyph glyph-name="B" unicode="B" horiz-adv-x="435" 
d="M292 0q-46 46 -100.5 70.5t-109.5 24.5l-35 45q42 50 85 80q-10 7 -29.5 11t-45.5 4l-35 45q41 59 112 95.5t158 44.5v30h-302v50h596v-50h-234v-30q81 -7 135.5 -40t54.5 -75q0 -19 -13 -32t-32 -13q-17 0 -28.5 10.5t-11.5 24.5q0 12 6 20.5t14 9.5q-19 19 -51.5 29.5
t-73.5 10.5v-85q72 -6 121 -43.5t49 -86.5q0 -27 -14.5 -46t-35.5 -19q-19 0 -32 11.5t-13 28.5t10.5 28.5t24.5 11.5q0 25 -32 42.5t-78 17.5v-225h-60v0zM292 60v170q-49 -4 -94.5 -29t-80.5 -66q41 0 86.5 -19.5t88.5 -55.5v0zM172 245q75 35 120 35v90q-52 0 -102 -25
t-88 -70q19 -2 36.5 -9.5t33.5 -20.5v0z" />
    <glyph glyph-name="C" unicode="C" horiz-adv-x="310" 
d="M226 -10q-56 0 -95.5 31t-39.5 74q0 27 22 52t58 38q-21 37 -56 58.5t-74 21.5l-25 60q43 43 96.5 66.5t108.5 23.5v35h-231v50h321q0 27 -16 46t-39 19q-25 0 -75 -5t-75 -5q-41 0 -70.5 22t-29.5 53q0 21 6.5 37t18.5 23l55 -15q-10 -12 -15 -22t-5 -18q0 -10 13 -17.5
t32 -7.5q24 0 72.5 5t72.5 5q48 0 81.5 -35t33.5 -85h90v-50h-180v-35q59 -10 97 -47t38 -83q0 -29 -16 -49.5t-39 -20.5q-21 0 -35.5 11.5t-14.5 28.5q0 19 14.5 32t35.5 13q0 25 -23.5 42.5t-56.5 17.5v-135q0 -23 -22 -45t-58 -35q-23 -8 -36.5 -22t-13.5 -28
q0 -23 22 -39t53 -16q24 0 43.5 8t31.5 22q-12 7 -18.5 17.5t-6.5 22.5q0 19 16 32t39 13q21 0 35.5 -14.5t14.5 -35.5q0 -48 -45.5 -81.5t-109.5 -33.5v0zM211 210q10 14 10 60v95q-39 0 -75 -13t-65 -37q51 -14 86 -42t44 -63v0z" />
    <glyph glyph-name="D" unicode="D" horiz-adv-x="544" 
d="M341 -195q-19 32 -53.5 51t-76.5 19l-30 45q71 71 110 85q-106 19 -180 112t-85 223l60 10q0 -124 74.5 -212t180.5 -88q39 0 67 22t28 53q0 25 -14.5 42.5t-35.5 17.5q-13 -7 -24.5 -11t-20.5 -4q-23 0 -39 14.5t-16 35.5q0 19 16 32t39 13q10 0 17.5 -1.5t12.5 -3.5
q19 16 29.5 30.5t10.5 24.5q0 25 -20.5 42.5t-49.5 17.5q-34 0 -58 -10t-27 -25q17 0 28.5 -11.5t11.5 -28.5q0 -19 -14.5 -32t-35.5 -13q-25 0 -42.5 17.5t-17.5 42.5q0 48 45.5 81.5t109.5 33.5q38 0 67.5 -13.5t42.5 -36.5q17 17 40.5 26t49.5 9q48 0 81.5 -32t33.5 -78
t-29.5 -78t-70.5 -32q-25 0 -42.5 14.5t-17.5 35.5q0 19 14.5 32t35.5 13q15 0 26 -5.5t14 -14.5q7 3 11 12.5t4 22.5q0 23 -17.5 39t-42.5 16q-21 0 -41.5 -13.5t-33.5 -36.5q-2 -25 -15.5 -46.5t-34.5 -33.5q35 -9 57.5 -40t22.5 -70q0 -35 -24.5 -65t-65.5 -45v-205h-65
v0zM346 -130v110l-90 -60q34 -6 58 -19.5t32 -30.5v0zM-10 450v50h705v-50h-705v0z" />
    <glyph glyph-name="E" unicode="E" horiz-adv-x="403" 
d="M292 0q-24 34 -75 56.5t-120 28.5l-50 55q56 67 70 75q-11 11 -25 17.5t-30 7.5l-40 50q46 55 116.5 89t153.5 41v30h-302v50h564v-50h-202v-30q68 0 116.5 -42.5t48.5 -102.5q0 -29 -16 -49.5t-39 -20.5q-19 0 -32 13t-13 32q0 17 11.5 28.5t28.5 11.5q-6 33 -30 54
t-55 21h-20v-365h-60v0zM292 65v160q-52 -5 -97.5 -28t-77.5 -62q60 -5 105.5 -23.5t69.5 -46.5v0zM162 245q31 14 63.5 23t66.5 12v85q-53 0 -102.5 -21t-87.5 -59q19 -7 34 -17t26 -23v0z" />
    <glyph glyph-name="F" unicode="F" horiz-adv-x="605" 
d="M465 -50q-20 54 -72 87t-118 33q0 -17 -16 -28.5t-39 -11.5t-39 14.5t-16 35.5q0 20 14 35.5t36 19.5q-12 44 -54.5 74.5t-100.5 35.5l-45 55q36 52 88.5 83.5t111.5 36.5v30h-225v50h625v-50h-90v-500h-60v0zM465 40v410h-190v-30q66 -6 110.5 -43.5t44.5 -86.5
q0 -35 -20.5 -60t-49.5 -25q-23 0 -39 14.5t-16 35.5t20.5 32.5t44.5 2.5q0 29 -28 49.5t-67 20.5v-230q64 -6 114 -29.5t76 -60.5v0zM215 230v130q-40 -4 -73 -21t-52 -44q44 -8 76.5 -24.5t48.5 -40.5v0z" />
    <glyph glyph-name="G" unicode="G" horiz-adv-x="559" 
d="M419 0q-14 51 -41.5 83t-58.5 32q-17 0 -34 -8t-31 -22q-17 -30 -40 -47.5t-45 -17.5q-37 0 -63.5 31t-26.5 74l5 25l55 5q-5 -9 -5 -30t9 -35.5t21 -14.5q10 0 20.5 11t19.5 29q-16 60 -60 100t-100 45l-25 60q42 42 88.5 66.5t91.5 28.5v35h-209v50h579v-50h-90v-450
h-60v0zM419 100v350h-160v-40q57 -5 96 -38t39 -77q0 -31 -17.5 -53t-42.5 -22q-21 0 -35.5 11.5t-14.5 28.5q0 20 17.5 31t37.5 4q0 27 -23 47t-57 23v-210q13 7 28 11t32 4q28 0 54.5 -19t45.5 -51v0zM199 225v130q-35 -3 -63 -14.5t-47 -30.5q35 -9 63.5 -31t46.5 -54v0z
" />
    <glyph glyph-name="H" unicode="H" 
d="M-210 -15q-23 42 -63 68.5t-88 31.5l-39 65q34 51 83.5 83.5t106.5 41.5v35h60v-35q50 0 85 -36.5t35 -88.5q0 -31 -14.5 -53t-35.5 -22q-19 0 -32.5 11.5t-13.5 28.5q0 19 10.5 32t25.5 13q0 23 -17.5 39t-42.5 16v-230h-60v0zM-210 70v135q-33 -3 -64 -21.5t-55 -48.5
q42 -8 72.5 -25t46.5 -40v0z" />
    <glyph glyph-name="I" unicode="I" horiz-adv-x="72" 
d="M-60 -85q-12 25 -25.5 40t-24.5 15q-27 0 -77.5 -20t-77.5 -20q-48 0 -81.5 36.5t-33.5 88.5h60q0 -27 16 -46t39 -19q27 0 77.5 20t77.5 20q12 0 25 -8t25 -22v215q0 10 -7.5 17.5t-17.5 7.5q-28 0 -54.5 -19t-45.5 -51q18 3 31.5 -13.5t13.5 -41.5q0 -19 -17.5 -32
t-42.5 -13t-42.5 17.5t-17.5 42.5q0 58 58.5 116.5t116.5 58.5q35 0 60 -25t25 -60q8 14 28 22t47 8q46 0 78 -29.5t32 -70.5q0 -43 -25 -74t-60 -31q-27 0 -46 16t-19 39q0 19 11.5 32t28.5 13q14 0 24.5 -10.5t10.5 -24.5q7 6 11 16.5t4 23.5q0 17 -14.5 28.5t-35.5 11.5
q-29 0 -50.5 -21.5t-24.5 -53.5v-200h-60v0zM-400 450v50h623v-50h-623v0z" />
    <glyph glyph-name="J" unicode="J" horiz-adv-x="516" 
d="M376 0q-25 95 -97.5 155t-162.5 60l-20 65q72 13 118.5 49.5t46.5 80.5q0 11 -6.5 21.5t-18.5 18.5q-23 -33 -57.5 -51.5t-72.5 -18.5q-41 0 -70.5 22t-29.5 53q0 26 16 40.5t44 14.5q22 0 33.5 -10t11.5 -30q0 -12 -4 -21.5t-11 -13.5q28 0 50.5 9.5t34.5 25.5
q13 19 27.5 29.5t27.5 10.5q35 0 60 -29.5t25 -70.5q0 -49 -34.5 -92t-90.5 -63q60 -11 107.5 -46.5t72.5 -88.5v440h60v-60h90v-50h-90v-450h-60v0z" />
    <glyph glyph-name="K" unicode="K" horiz-adv-x="503" 
d="M363 0v310q-16 60 -59 97.5t-96 37.5q-46 0 -81.5 -29.5t-43.5 -75.5q14 12 32.5 18.5t37.5 6.5q50 0 85 -31t35 -74q0 -51 -46 -95.5t-119 -64.5l-15 60q53 14 86.5 42t33.5 58q0 19 -16 32t-39 13q-26 0 -48.5 -8t-36.5 -22l-50 40q7 81 60.5 135.5t124.5 54.5
q49 0 90.5 -23t64.5 -62v140h60v-60h90v-50h-90v-450h-60v0z" />
    <glyph glyph-name="L" unicode="L" horiz-adv-x="428" 
d="M288 560h60v-60h90v-50h-90v-450h-60v105q-16 28 -40 44t-50 16q-29 0 -52.5 -9t-37.5 -26q53 14 96.5 -6t43.5 -59q0 -46 -51.5 -78t-123.5 -32l-20 50q56 0 95.5 17.5t39.5 42.5q0 8 -11.5 14t-28.5 6q-25 0 -43.5 -5t-26.5 -15l-40 45q18 50 62 80t98 30
q25 2 48.5 -8.5t41.5 -31.5v205q-16 28 -40 44t-50 16q-29 0 -52.5 -9t-37.5 -26q53 14 96.5 -6t43.5 -59q0 -46 -51.5 -78t-123.5 -32l-20 50q56 0 95.5 17.5t39.5 42.5q0 8 -11.5 14t-28.5 6q-27 0 -45.5 -4t-24.5 -11l-40 40q18 50 62 80t98 30q27 2 50.5 -7t39.5 -28v95
v0z" />
    <glyph glyph-name="M" unicode="M" horiz-adv-x="425" 
d="M280 0q-19 32 -56.5 51t-83.5 19l-35 45q33 39 79 64.5t101 35.5v200q-7 27 -32 43.5t-58 16.5q-31 0 -57.5 -13t-42.5 -37q57 15 103.5 -14.5t46.5 -80.5q0 -54 -57 -92t-138 -38l-10 55q60 0 102.5 20.5t42.5 49.5q0 21 -14.5 35.5t-35.5 14.5q-25 0 -43.5 -5
t-26.5 -15l-45 45q21 59 69.5 94.5t105.5 35.5q24 2 47.5 -7t42.5 -28v70h60v-65h90v-50h-90v-450h-65v0zM285 65v95q-25 -2 -51.5 -15t-53.5 -35q35 -3 62 -14.5t43 -30.5v0z" />
    <glyph glyph-name="N" unicode="N" horiz-adv-x="453" 
d="M313 375q-16 45 -49 72.5t-71 27.5q-37 0 -64 -15.5t-31 -39.5q10 7 24.5 11t30.5 4q41 0 70.5 -28t29.5 -67q0 -56 -59 -99t-146 -51l-15 60q66 0 113 26.5t47 63.5q0 14 -11.5 24.5t-28.5 10.5q-22 0 -41.5 -9t-33.5 -26l-55 60q5 55 55.5 92.5t119.5 37.5
q34 0 64.5 -16t50.5 -44v90h60v-60h90v-50h-90v-490h-60v415v0z" />
    <glyph glyph-name="O" unicode="O" horiz-adv-x="246" 
d="M26 325q13 76 67 125.5t123 49.5q44 0 79 -16t51 -44v-105q-8 46 -45 75.5t-85 29.5q-39 0 -71 -20.5t-44 -54.5q17 10 32.5 15t27.5 5q37 0 63.5 -28t26.5 -67q0 -58 -49.5 -105t-125.5 -60l-10 60q54 10 89.5 39.5t35.5 65.5q0 17 -9 28.5t-21 11.5q-18 0 -41 -11.5
t-49 -33.5l-45 40v0z" />
    <glyph glyph-name="P" unicode="P" horiz-adv-x="525" 
d="M407 -10q-141 0 -250 97.5t-135 247.5l55 15q23 -132 115 -218.5t210 -86.5q58 0 99 31t41 74q0 16 -9.5 31t-25.5 24q-9 -7 -23 -11t-32 -4q-23 0 -39 14.5t-16 35.5t17.5 35.5t42.5 14.5q18 0 50 -15q22 22 33.5 48t11.5 52q0 33 -17.5 56.5t-42.5 23.5
q-29 0 -49.5 -23.5t-20.5 -56.5h-60q-6 35 -27.5 57.5t-47.5 22.5q-30 0 -53 -15.5t-27 -39.5q28 5 45 5q37 0 63.5 -28t26.5 -67q0 -46 -39.5 -82.5t-100.5 -47.5l-15 50q41 7 68 28.5t27 46.5q0 21 -13 35.5t-32 14.5q-21 0 -37 -6.5t-23 -18.5l-40 35q5 62 48.5 103.5
t101.5 41.5q32 0 59 -17.5t41 -47.5q14 30 42.5 47.5t62.5 17.5q50 0 85 -38t35 -92q0 -41 -17 -77.5t-48 -62.5q26 -15 40.5 -40.5t14.5 -54.5q0 -64 -57 -109.5t-138 -45.5v0z" />
    <glyph glyph-name="Q" unicode="Q" horiz-adv-x="463" 
d="M323 0q-33 70 -96 114t-139 51l-40 50l70 70q-37 7 -61 35t-24 65q0 21 6.5 38t18.5 27h-68v50h483v-50h-90v-450h-60v0zM323 95v355h-195q-17 -14 -26 -31t-9 -34q0 -23 16 -39t39 -16q9 0 20.5 4t24.5 11l30 25l40 -40l-130 -115q64 -11 114 -42.5t76 -77.5v0z" />
    <glyph glyph-name="R" unicode="R" horiz-adv-x="409" 
d="M312 -10q-116 0 -198 105.5t-82 254.5l60 5q0 -128 64.5 -219t155.5 -91q58 0 99 35t41 85q0 27 -9 46t-21 19q-5 0 -11.5 -4t-13.5 -11q-18 -26 -42 -40.5t-48 -14.5q-50 0 -85 33.5t-35 81.5q0 22 4 43.5t11 41.5q-28 10 -61 42t-69 83l55 25q27 -39 52.5 -64.5
t47.5 -35.5q28 49 65.5 77t74.5 28q35 0 60 -25t25 -60q0 -39 -36.5 -69.5t-83.5 -30.5q-43 0 -70 10q-7 -13 -11 -29.5t-4 -35.5q0 -25 16 -42.5t39 -17.5q16 0 31 9.5t24 25.5q13 19 30.5 29.5t34.5 10.5q37 0 63.5 -39.5t26.5 -95.5q0 -68 -58.5 -116.5t-141.5 -48.5v0z
M332 380q27 0 46 13t19 32q0 14 -9 24.5t-21 10.5q-27 0 -50.5 -19t-34.5 -51q9 -5 21.5 -7.5t28.5 -2.5v0z" />
    <glyph glyph-name="S" unicode="S" horiz-adv-x="344" 
d="M242 0q-23 49 -67 79.5t-98 35.5l-40 65q38 45 89.5 75t110.5 40q0 21 -20 36.5t-50 18.5q-10 -27 -30.5 -43.5t-44.5 -16.5q-25 0 -42.5 14.5t-17.5 35.5q0 27 23.5 46t56.5 19q-4 16 -10.5 28t-14.5 17h-97v50h505v-50h-63q-6 -35 -33 -57.5t-62 -22.5
q-37 0 -70.5 21.5t-54.5 58.5h-55q20 -42 20 -45q52 -9 87 -39.5t38 -70.5q64 -6 107 -46t43 -94q0 -35 -20.5 -60t-49.5 -25q-19 0 -32 13t-13 32q0 17 11.5 28.5t28.5 11.5q8 0 14.5 -1.5t10.5 -3.5q0 35 -29.5 60t-70.5 25v-235h-60v0zM242 80v155q-43 -8 -76.5 -24.5
t-53.5 -40.5q51 -19 84.5 -42t45.5 -48v0zM337 420q17 0 28.5 9t11.5 21h-95q6 -14 21 -22t34 -8v0z" />
    <glyph glyph-name="T" unicode="T" horiz-adv-x="717" 
d="M577 -110q-29 50 -84.5 82t-125.5 38l-35 80q54 0 92 26.5t38 63.5q0 12 -19 21t-46 9q-12 -44 -53.5 -72t-96.5 -28q-87 0 -148.5 67.5t-61.5 162.5q0 24 4 44t11 36l55 5q-15 -41 -15 -80q0 -75 45.5 -127.5t109.5 -52.5q43 0 74 25t31 60q0 8 -6 14t-14 6
q-11 0 -30 -10t-30 -10q-43 0 -74 31t-31 74q0 29 18.5 60.5t51.5 59.5l-60 70l45 25l65 -75q10 7 29.5 11t45.5 4q48 0 81.5 -22t33.5 -53q0 -29 -28 -49.5t-67 -20.5q-29 0 -59 17t-56 48q-21 -10 -33 -30t-12 -45q0 -21 14.5 -35.5t35.5 -14.5q11 0 30 10t30 10
q24 0 42.5 -15.5t22.5 -39.5q54 0 92 -26.5t38 -63.5q0 -39 -29 -73.5t-76 -51.5q41 -7 81 -29t74 -56v590h60v-60h90v-50h-90v-560h-60v0zM382 410q14 0 24.5 7.5t10.5 17.5q0 12 -13 21t-32 9q-24 0 -41.5 -2.5t-28.5 -7.5q22 -22 42.5 -33.5t37.5 -11.5v0z" />
    <glyph glyph-name="U" unicode="U" horiz-adv-x="500" 
d="M363 -25q-15 21 -22.5 51.5t-7.5 68.5q0 36 12.5 76.5t37.5 83.5q-39 -10 -83.5 -45t-91.5 -90q-15 -21 -36 -33t-44 -12q-37 0 -63.5 28t-26.5 67q0 17 6.5 32.5t18.5 27.5l50 -20q-15 -26 -15 -40q0 -17 9 -28.5t21 -11.5q9 0 18 5t17 15q50 72 105 110
q-11 40 -37.5 65t-57.5 25q4 -25 -12.5 -45t-42.5 -20q-25 0 -42.5 16t-17.5 39q0 24 14 42.5t36 22.5l-35 45h-83v50h520v-50h-47q-11 -40 -41.5 -65t-68.5 -25t-68.5 25t-41.5 65h-110l30 -40q58 -10 100 -44t55 -81q31 22 105 35l50 -50q-36 -36 -55.5 -83t-19.5 -97
q0 -79 15 -105l-50 -10v0zM348 405q20 0 36.5 12.5t23.5 32.5h-110q2 -19 16 -32t34 -13v0z" />
    <glyph glyph-name="V" unicode="V" horiz-adv-x="457" 
d="M37 340q0 24 4 44t11 36l55 5q-15 -41 -15 -80q0 -75 45.5 -127.5t109.5 -52.5q43 0 74 25t31 60q0 8 -6 14t-14 6q-11 0 -30 -10t-30 -10q-43 0 -74 31t-31 74q0 29 18.5 60.5t51.5 59.5l-60 70l45 25l65 -75q10 7 29.5 11t45.5 4q48 0 81.5 -22t33.5 -53
q0 -29 -28 -49.5t-67 -20.5q-29 0 -59 17t-56 48q-21 -10 -33 -30t-12 -45q0 -21 14.5 -35.5t35.5 -14.5q11 0 30 10t30 10q31 0 53 -22t22 -53q0 -58 -47 -99t-113 -41q-87 0 -148.5 67.5t-61.5 162.5v0zM382 410q14 0 24.5 7.5t10.5 17.5q0 12 -13 21t-32 9
q-24 0 -41.5 -2.5t-28.5 -7.5q22 -22 42.5 -33.5t37.5 -11.5v0z" />
    <glyph glyph-name="W" unicode="W" horiz-adv-x="269" 
d="M167 -10q-37 0 -63.5 29.5t-26.5 70.5v360h-87v50h430v-50h-283v-45q31 -37 82 -69t118 -56q21 -10 33 -24.5t12 -30.5q0 -73 -74 -154t-141 -81v0zM137 90q0 -17 9 -28.5t21 -11.5q48 0 101.5 55.5t53.5 104.5q0 6 -5.5 13t-14.5 12q-49 16 -90.5 38.5t-74.5 51.5v-235
v0z" />
    <glyph glyph-name="X" unicode="X" horiz-adv-x="616" 
d="M476 0v270q-13 11 -28 17t-29 6q-20 0 -42 -15.5t-41 -42.5q-21 -37 -50.5 -58.5t-59.5 -21.5q-27 0 -52 22t-38 58l50 25q5 -20 17.5 -32.5t27.5 -12.5q12 0 24 9.5t21 25.5q-38 54 -81 83.5t-79 26.5q10 -9 16 -19.5t6 -20.5q0 -23 -16.5 -39t-40.5 -16q-25 0 -42.5 19
t-17.5 46q0 35 28 60t67 25q45 0 96 -31.5t99 -88.5l15 15q-12 46 -35.5 82t-54.5 58h-246v50h636v-50h-90v-450h-60v0zM476 330v120h-170q22 -19 39 -47t26 -63q7 5 16 7.5t19 2.5q20 0 38 -5t32 -15v0z" />
    <glyph glyph-name="Y" unicode="Y" horiz-adv-x="735" 
d="M514 -160q-12 26 -43.5 47t-76.5 33l-25 50q69 69 125 95q-27 10 -50 10l-10 55q69 0 122 50t53 115q0 14 -9 24.5t-21 10.5q-19 0 -39 -16t-36 -44q-25 -35 -51.5 -55t-48.5 -20q-7 0 -16 4t-19 11q-51 -88 -108.5 -139t-106.5 -51q-33 0 -56.5 20.5t-23.5 49.5v20v340
h-84v50h755v-50h-356q16 -28 47 -51.5t73 -38.5q14 14 31 22t34 8q39 0 67 -31t28 -74q0 -57 -33 -103.5t-87 -66.5q57 -15 112.5 -59t102.5 -111l-50 -25q-28 40 -61 69t-69 46v-195h-70v0zM529 -100v130q-74 -43 -90 -70q28 -10 51 -25.5t39 -34.5v0zM404 250q9 0 20 9.5
t20 25.5q17 29 25 35q-20 5 -41.5 19t-43.5 36v-95q0 -12 6 -21t14 -9v0zM324 280v170h-190v-20q9 -33 59 -72.5t131 -77.5v0zM154 75q35 0 79 41.5t86 113.5q-66 24 -113 52t-72 58v-245q0 -8 6 -14t14 -6v0z" />
    <glyph glyph-name="Z" unicode="Z" horiz-adv-x="239" 
d="M-10 500h259v-50h-125q43 -61 87.5 -103t87.5 -62q9 -4 14.5 -11t5.5 -14q0 -39 -69.5 -114.5t-105.5 -75.5q-33 0 -56.5 26.5t-23.5 63.5v290h-74v50v0zM144 130q20 3 49 32.5t66 82.5q-46 27 -80.5 58.5t-54.5 66.5v-220q0 -8 6 -14t14 -6v0z" />
    <glyph glyph-name="bracketleft" unicode="[" horiz-adv-x="220" 
d="M50 570q0 60 52.5 102.5t127.5 42.5t145.5 -35.5t124.5 -99.5l-35 -40q-58 58 -119 89t-116 31q-50 0 -85 -26.5t-35 -63.5q0 -23 9.5 -42t25.5 -28h85v-50h-90v-450h-60v450h-90v50h90q-14 14 -22 32.5t-8 37.5v0z" />
    <glyph glyph-name="backslash" unicode="\" horiz-adv-x="670" 
d="M569 -20q-39 84 -45.5 169.5t20.5 160.5q-76 -20 -147 8t-108 92q-19 -19 -29.5 -40t-10.5 -40q0 -31 17.5 -53t42.5 -22q12 0 35 7.5t35 7.5q33 0 56.5 -23.5t23.5 -56.5q0 -61 -46.5 -98t-123.5 -37q-107 0 -183.5 91t-76.5 219l55 5q0 -102 62.5 -181t142.5 -79
q46 0 78 23.5t32 56.5q0 10 -9 17.5t-21 7.5q-11 0 -32.5 -7.5t-32.5 -7.5q-48 0 -81.5 35t-33.5 85q0 34 15.5 67.5t44.5 62.5h-259v50h690v-50h-356q25 -44 65.5 -69.5t84.5 -25.5q32 0 56.5 6.5t38.5 18.5l55 -35q-20 -42 -30 -84t-10 -81q0 -47 10 -92.5t30 -87.5
l-55 -20v0z" />
    <glyph glyph-name="bracketright" unicode="]" horiz-adv-x="220" 
d="M80 0v450h-90v50h90q0 29 -33.5 49.5t-81.5 20.5q-24 0 -70 -7.5t-70 -7.5q-54 0 -92 32t-38 78q0 12 4 23.5t11 21.5l50 -10q-5 -28 -5 -35q0 -23 20.5 -39t49.5 -16q24 0 72.5 7.5t72.5 7.5q70 0 120 -36.5t50 -88.5h90v-50h-90v-450h-60v0zM165 600q-63 0 -109 41.5
t-51 103.5l55 -5q7 -38 36.5 -63t68.5 -25t69 25t36 63l55 5q-5 -62 -51 -103.5t-109 -41.5v0zM165 685q-17 0 -28.5 9.5t-11.5 23.5q0 13 11 22.5t27 9.5q17 0 29.5 -9t12.5 -21q0 -14 -11.5 -24.5t-28.5 -10.5v0z" />
    <glyph glyph-name="asciicircum" unicode="^" horiz-adv-x="795" 
d="M243 145q-91 0 -155.5 67.5t-64.5 162.5l55 5q0 -75 48.5 -127.5t116.5 -52.5q33 0 56.5 19t23.5 46q0 12 -9 21t-21 9t-35 -7.5t-35 -7.5q-31 0 -53 23.5t-22 56.5q0 23 9 46.5t26 43.5h-193v50h815v-50h-502q19 -23 55 -39.5t85 -25.5q26 31 50 45l50 -15
q22 -48 70 -74t105 -21l35 -45q-33 -92 -32 -182.5t37 -167.5l-55 -20q-17 30 -53.5 47.5t-81.5 17.5l-45 40q36 42 71.5 69t68.5 36q-5 29 1.5 68t23.5 87q-64 6 -113 31t-72 64q-19 -11 -29.5 -28.5t-10.5 -36.5q0 -14 7.5 -24.5t17.5 -10.5t30 5t30 5q37 0 63.5 -25
t26.5 -60q0 -48 -39.5 -81.5t-95.5 -33.5q-43 0 -87.5 25t-82.5 70q-14 -12 -37.5 -18.5t-52.5 -6.5v0zM503 130q31 0 53 17.5t22 42.5q0 12 -7.5 21t-17.5 9q-11 0 -32.5 -5t-32.5 -5q-33 0 -56.5 25t-23.5 60q0 23 10 50q-50 4 -96.5 26t-83.5 59q-17 -14 -26 -33.5
t-9 -41.5q0 -8 4.5 -14t10.5 -6q12 0 35 7.5t35 7.5q37 0 63.5 -23.5t26.5 -56.5q0 -43 -10 -60q26 -38 62 -59t73 -21v0zM678 -20q-15 56 -15 80q-26 -12 -43.5 -24.5t-26.5 -25.5q56 -10 85 -30v0z" />
    <glyph glyph-name="underscore" unicode="_" horiz-adv-x="602" 
d="M608 -100q-10 37 -38 66.5t-67 43.5v-110h-60q-19 34 -56.5 55t-83.5 25l-35 50q28 41 73.5 70.5t101.5 44.5v190q-59 21 -100 47t-60 53q-29 -8 -47 -33t-18 -57q0 -14 7.5 -24.5t17.5 -10.5t30 7.5t30 7.5q37 0 63.5 -25t26.5 -60q0 -52 -41 -88.5t-99 -36.5
q-95 0 -162.5 67.5t-67.5 162.5l55 5q0 -72 50 -123.5t120 -51.5q35 0 60 17.5t25 42.5q0 12 -9 21t-21 9q-10 0 -30 -7.5t-30 -7.5q-35 0 -60 28t-25 67q0 31 14.5 59t40.5 46h-223v50h763v-50h-90v-550h-55v0zM443 -25v110q-31 -8 -56.5 -23.5t-43.5 -36.5q36 -6 62 -19
t38 -31v0zM603 5v445h-250q25 -29 64 -47.5t86 -22.5v-310q29 -8 54.5 -24.5t45.5 -40.5v0z" />
    <glyph glyph-name="grave" unicode="`" horiz-adv-x="606" 
d="M300 30q-114 0 -194.5 80.5t-80.5 194.5l60 10q0 -93 63 -159t152 -66q50 0 85 29.5t35 70.5q0 19 -6.5 37.5t-18.5 32.5q-22 -26 -47 -40.5t-48 -14.5q-52 0 -88.5 35t-36.5 85q0 31 15.5 63.5t44.5 61.5h-245v50h767v-50h-417l90 -130q17 47 58.5 76t91.5 29
q46 0 78 -23.5t32 -56.5q0 -24 -10.5 -46.5t-29.5 -38.5q26 -18 40.5 -40.5t14.5 -44.5q0 -39 -31 -67t-74 -28q-36 0 -68.5 13t-56.5 37q-27 -46 -74 -73t-101 -27v0zM590 135q21 0 35.5 13t14.5 32q0 15 -10.5 29.5t-29.5 25.5q-32 -15 -40 -15q-21 0 -35.5 11.5
t-14.5 28.5q0 19 14.5 32t35.5 13q11 0 21 -2.5t19 -7.5q12 8 18.5 17.5t6.5 17.5q0 14 -14.5 24.5t-35.5 10.5q-42 0 -74.5 -29.5t-40.5 -75.5q12 -26 20 -70q22 -26 51 -40.5t59 -14.5v0zM305 260q14 0 30.5 13.5t29.5 36.5l-75 110q-26 -15 -40.5 -40.5t-14.5 -54.5
q0 -27 20.5 -46t49.5 -19v0z" />
    <glyph glyph-name="a" unicode="a" horiz-adv-x="627" 
d="M24 325l60 15q0 -79 47 -134.5t113 -55.5q43 0 74 22t31 53q0 27 -25 46t-60 19q-17 0 -35 -5t-35 -15l-40 55q11 29 40 61t75 64h-279v50h647v-50h-268q16 -28 45.5 -44t64.5 -16q68 0 80 10l25 -35q-22 -26 -33.5 -91.5t-11.5 -163.5q0 -64 35 -160l-50 -10
q-29 24 -65 37t-75 13l-45 40q23 40 59 72t81 53q0 137 25 180q-67 0 -117 23t-68 62q-42 -24 -65.5 -44.5t-24.5 -35.5q68 18 124 -17.5t56 -97.5q0 -54 -47 -92t-113 -38q-93 0 -159 67.5t-66 162.5v0zM499 5q-9 20 -15 85q-24 -4 -42.5 -17.5t-27.5 -32.5q27 -5 48.5 -14
t36.5 -21v0z" />
    <glyph glyph-name="b" unicode="b" horiz-adv-x="681" 
d="M54 325l55 5q0 -90 65.5 -160t149.5 -70q41 0 70.5 25t29.5 60q0 12 -6 21t-14 9q-14 0 -40 -7.5t-40 -7.5q-50 0 -85 38t-35 92q0 35 14.5 66.5t40.5 53.5h-269v50h701v-50h-352q25 -44 65.5 -69.5t84.5 -25.5q26 0 49.5 7.5t40.5 22.5l55 -60q-17 -30 -26 -70.5
t-9 -89.5q0 -59 11.5 -113t33.5 -102l-60 -30q-17 15 -45.5 22.5t-64.5 7.5q-50 0 -147.5 -22.5t-147.5 -22.5q-64 0 -109.5 45.5t-45.5 109.5l60 10q0 -46 28 -78t67 -32q50 0 147.5 22.5t147.5 22.5q29 0 53.5 -6.5t41.5 -18.5q-30 52 -30 200q0 43 6.5 78.5t18.5 61.5
q-17 -10 -36 -15t-39 -5q-53 0 -103.5 29t-86.5 81q-17 -17 -26 -37.5t-9 -42.5q0 -31 17.5 -53t42.5 -22q13 0 40 10q19 5 50 5q29 0 49.5 -25t20.5 -60q0 -61 -43.5 -98t-116.5 -37q-111 0 -190.5 81t-79.5 194v0z" />
    <glyph glyph-name="c" unicode="c" horiz-adv-x="441" 
d="M16 265q54 54 125.5 89.5t154.5 50.5v45h-306v50h366v-250q29 -20 52 -44t38 -51v405h60v-60h86v-50h-86v-425h-60q-8 45 -31.5 82.5t-58.5 62.5v-170h-60q-27 74 -94.5 129.5t-160.5 80.5l-25 55v0zM296 110v235q-62 -11 -112 -34t-83 -56q74 -31 124 -68.5t71 -76.5v0z
" />
    <glyph glyph-name="d" unicode="d" horiz-adv-x="650" 
d="M428 0v35q-9 33 -37.5 53t-62.5 17q-23 0 -65 -15t-65 -15q-66 0 -113 50t-47 120q0 35 10.5 66t29.5 54l45 -25q-12 -14 -18.5 -37.5t-6.5 -52.5q0 -48 29.5 -81.5t70.5 -33.5q22 0 65 13.5t65 13.5q28 0 54 -11t46 -31v310q0 12 -7.5 21t-17.5 9q-44 0 -84 -48.5
t-36 -96.5q5 7 13 11t17 4q19 0 32 -13t13 -32q0 -23 -17.5 -39t-42.5 -16q-33 0 -56.5 26.5t-23.5 63.5q0 70 60 135t125 65q35 0 60 -26.5t25 -63.5v-10q24 42 57.5 66t67.5 24h30q39 0 67 -26.5t28 -63.5q0 -25 -12 -48.5t-33 -41.5q26 -15 40.5 -37.5t14.5 -47.5
q0 -52 -31 -88.5t-74 -36.5q-46 0 -88 25.5t-67 69.5v-215h-60v0zM638 180q21 0 35.5 19t14.5 46q0 12 -6.5 22.5t-18.5 17.5q-14 -10 -25.5 -15t-19.5 -5q-23 0 -39 16t-16 39t17.5 39t42.5 16q9 0 16.5 -2.5t13.5 -7.5q11 4 18 18t7 32q0 19 -14.5 32t-35.5 13
q-34 0 -72 -38t-68 -102q23 -63 64 -101.5t86 -38.5v0z" />
    <glyph glyph-name="e" unicode="e" horiz-adv-x="534" 
d="M313 0q-38 65 -93 107t-117 53l-40 45q44 64 109 105.5t141 54.5q-19 41 -55.5 65.5t-79.5 24.5q-37 0 -63.5 -13t-26.5 -32q20 7 37.5 -5.5t17.5 -34.5q0 -21 -16 -35.5t-39 -14.5q-27 0 -46 22t-19 53q0 48 45.5 81.5t109.5 33.5q44 0 79.5 -16t55.5 -44v110h60v-135
q23 33 61.5 51.5t83.5 18.5q43 0 74 -29.5t31 -70.5q0 -24 -13 -50t-37 -50q24 -20 37 -46t13 -54q0 -48 -32 -81.5t-78 -33.5q-42 0 -79.5 23t-60.5 62v-165h-60v0zM313 100v210q-55 -15 -97.5 -42t-67.5 -63q44 -8 86.5 -35t78.5 -70v0zM508 140q23 0 39 20.5t16 49.5
q0 14 -6.5 27t-18.5 23q-35 -20 -50 -20q-23 0 -39 14.5t-16 35.5t16 35.5t39 14.5q3 0 40 -10q16 9 25.5 28t9.5 42q0 17 -13 28.5t-32 11.5q-44 0 -83.5 -28.5t-61.5 -76.5v-85q23 -50 60 -80t75 -30v0z" />
    <glyph glyph-name="f" unicode="f" horiz-adv-x="426" 
d="M408 -180q-56 67 -134.5 103.5t-165.5 36.5l-10 75q69 -25 130 -25q48 0 81.5 26.5t33.5 63.5q0 12 -10.5 21t-24.5 9q-27 0 -75 -22.5t-75 -22.5q-41 0 -70.5 26.5t-29.5 63.5q0 39 35.5 78t94.5 67q35 25 55 48.5t20 41.5q0 19 -26.5 32t-63.5 13q-31 0 -53 -10.5
t-22 -24.5q18 3 31.5 -7.5t13.5 -27.5q0 -19 -14.5 -32t-35.5 -13q-25 0 -42.5 17.5t-17.5 42.5q0 46 41 78t99 32q55 0 95 -16.5t50 -43.5q26 31 56 48t59 17q39 0 67 -28t28 -67q0 -22 -10.5 -42t-29.5 -33q19 -11 29.5 -31t10.5 -44q0 -37 -28 -63.5t-67 -26.5
q-45 0 -86 38.5t-64 101.5l-35 -30q7 -38 17 -63.5t23 -36.5h10q46 0 78 -26.5t32 -63.5q0 -45 -32.5 -80.5t-82.5 -44.5q44 -16 84 -48t71 -77l-40 -30v0zM158 140q16 0 80 30q-15 18 -25 41t-15 49q-37 -21 -58.5 -44t-21.5 -41q0 -14 11.5 -24.5t28.5 -10.5v0zM433 240
q14 0 24.5 9t10.5 21q0 16 -5.5 28.5t-14.5 16.5q-27 -10 -35 -10q-17 0 -28.5 13t-11.5 32q0 17 11.5 28.5t28.5 11.5q-2 0 35 -10q12 10 18.5 20.5t6.5 19.5q0 17 -11.5 28.5t-28.5 11.5q-27 0 -56.5 -24t-53.5 -66q10 -56 41 -93t69 -37v0z" />
    <glyph glyph-name="g" unicode="g" horiz-adv-x="637" 
d="M283 -15q-96 0 -168.5 81.5t-85.5 203.5l55 10q11 -102 67.5 -171t130.5 -69q40 0 68 19t28 46q0 16 -7.5 30.5t-21.5 24.5q-17 -12 -34.5 -18.5t-33.5 -6.5q-42 0 -71.5 29.5t-29.5 70.5q0 29 15 55.5t41 44.5q30 26 47 48t17 37q0 19 -21 32t-50 13q-37 0 -63 -22
t-26 -53q4 2 8.5 3t8.5 1q17 0 29 -11.5t12 -27.5q0 -17 -14 -28.5t-34 -11.5q-28 0 -48 22t-20 53q0 54 43.5 92t105.5 38q39 0 69.5 -13.5t43.5 -36.5q24 24 54 37t62 13q48 0 82 -25t34 -60q0 -18 -10 -36t-29 -34q20 -12 32 -30.5t12 -39.5q0 -20 -10 -37.5t-28 -27.5
l30 -20q-18 -25 -27 -56t-9 -64q0 -38 13 -72t37 -58l-49 -20q-29 29 -45 65.5t-16 74.5q0 45 6.5 78.5t19.5 51.5q-60 -5 -114.5 26t-86.5 89q-31 -21 -48 -45t-17 -45q0 -19 14.5 -32t34.5 -13q12 0 27 9t32 26q41 -20 65.5 -55t24.5 -75q0 -46 -44.5 -78t-107.5 -32v0z
M466 260q24 0 41.5 10.5t17.5 24.5t-8.5 25t-21.5 15q-24 -5 -30 -5q-18 0 -30.5 10.5t-12.5 24.5t12.5 24.5t30.5 10.5q-7 0 29 -5q10 7 16 16.5t6 18.5q0 17 -16.5 28.5t-40.5 11.5q-23 0 -48 -13t-49 -37q-6 -30 -23 -60q30 -47 64 -73.5t63 -26.5v0z" />
    <glyph glyph-name="h" unicode="h" horiz-adv-x="475" 
d="M313 -50q-21 36 -56.5 58.5t-78.5 26.5l-30 60q34 41 69 64t66 26q-13 7 -32 11t-43 4q-77 0 -131 39.5t-54 95.5q0 16 4 28.5t11 21.5l55 -10q-5 -9 -7.5 -19t-2.5 -21q0 -33 36.5 -56.5t88.5 -23.5q34 0 61.5 -10.5t43.5 -29.5v225q0 6 -3 10.5t-7 4.5q-26 0 -53 -30
t-27 -60q3 2 8 3.5t12 1.5q14 0 24.5 -10.5t10.5 -24.5q0 -19 -13 -32t-32 -13q-31 0 -53 19t-22 46q0 53 50.5 106.5t99.5 53.5q27 0 46 -17.5t19 -42.5v-30q20 35 47 55t53 20q37 0 63.5 -25t26.5 -60q0 -21 -8 -39.5t-22 -30.5q17 -14 26 -29.5t9 -30.5q0 -33 -15.5 -57
t-39.5 -28v-250h-60q-2 27 -23 60.5t-57 69.5v-130h-60v0zM318 20v125q-39 -14 -66 -30.5t-39 -34.5q34 -9 61 -24.5t44 -35.5v0zM453 60v135q-17 3 -37.5 18.5t-42.5 41.5v-105q28 -19 48 -42t32 -48v0zM473 245q14 0 24.5 11.5t10.5 28.5q0 11 -2.5 19t-7.5 11
q-27 -10 -30 -10q-19 0 -32 11.5t-13 28.5t11.5 28.5t28.5 11.5q11 0 25 -5q6 0 10.5 9t4.5 21q0 14 -9 24.5t-21 10.5q-27 0 -54.5 -30t-45.5 -80q24 -42 51 -66t49 -24v0z" />
    <glyph glyph-name="i" unicode="i" horiz-adv-x="289" 
d="M-10 450v50h306q31 14 49 33.5t16 36.5q0 17 -20.5 28.5t-49.5 11.5t-87.5 -10t-87.5 -10q-46 0 -78 25t-32 60q0 22 16.5 42t43.5 33l40 -35q-15 -4 -25 -15t-10 -25t13 -24.5t32 -10.5q30 0 90 10t90 10q52 0 88.5 -28t36.5 -67q0 -13 -12 -30t-33 -35h64v-50h-304
v-345q0 -25 11.5 -42.5t28.5 -17.5q42 0 98.5 62t56.5 108q-27 0 -46 16t-19 39q0 25 19 42.5t46 17.5t46 -22t19 -53q0 -93 -70 -179t-145 -86q-43 0 -74 33.5t-31 81.5v345h-86v0z" />
    <glyph glyph-name="j" unicode="j" horiz-adv-x="348" 
d="M257 -75q-97 0 -166 67.5t-69 162.5l60 5q0 -75 51.5 -127.5t123.5 -52.5q39 0 67 17.5t28 42.5q0 11 -6.5 21.5t-18.5 18.5q-21 -10 -41.5 -15t-38.5 -5q-43 0 -74 33.5t-31 81.5v275h-152v50h392q0 33 -31 56.5t-74 23.5l-150 -20q-43 0 -74 26.5t-31 63.5q0 17 6.5 35
t18.5 35l50 -20q-10 -10 -15 -20t-5 -20q0 -21 13 -35.5t32 -14.5l155 20q68 0 116.5 -38t48.5 -92h57v-50h-297v-285q0 -21 13 -35.5t32 -14.5q49 0 89.5 35t55.5 90q-25 -7 -45 8.5t-20 41.5q0 19 16 32t39 13q29 0 49.5 -22t20.5 -53q0 -39 -21 -78.5t-59 -71.5
q19 -13 29.5 -31.5t10.5 -38.5q0 -48 -45.5 -81.5t-109.5 -33.5v0z" />
    <glyph glyph-name="k" unicode="k" horiz-adv-x="266" 
d="M195 -10q-70 0 -120 60t-50 145q69 18 112 70t43 115q0 20 -5 38t-15 32h-170v50h145q-43 43 -66.5 84.5t-23.5 75.5q0 32 12 56t33 34l50 -25q-17 -14 -26 -32.5t-9 -37.5q0 -42 95 -155h217v-50h-187q62 -62 96 -132.5t34 -137.5q0 -79 -48.5 -134.5t-116.5 -55.5v0z
M195 50q43 0 74 38t31 92q0 52 -17 99.5t-48 85.5q5 -62 -36.5 -118t-113.5 -82q4 -49 36 -82t74 -33v0z" />
    <glyph glyph-name="l" unicode="l" horiz-adv-x="404" 
d="M295 -10q-110 0 -187.5 95t-77.5 230l60 10q0 -118 60 -201.5t145 -83.5q62 0 106 41t44 99q0 24 -6.5 43.5t-18.5 31.5q-17 -37 -48 -58.5t-67 -21.5q-37 0 -63.5 29.5t-26.5 70.5v175h-225v50h565v-50h-280v-190q0 -12 9 -21t21 -9q22 0 49.5 30t50.5 80q44 -12 72 -55
t28 -100q0 -88 -57.5 -141.5t-152.5 -53.5v0z" />
    <glyph glyph-name="m" unicode="m" horiz-adv-x="777" 
d="M657 -10q-83 0 -149.5 33.5t-95.5 91.5q-29 -29 -68 -44.5t-82 -15.5q-97 0 -166 82t-69 198l60 5q0 -95 51.5 -162.5t123.5 -67.5q62 0 106 36.5t44 88.5q0 23 -9 39t-21 16q-9 0 -21 -8t-24 -22q-18 -21 -37.5 -33t-37.5 -12q-31 0 -53 28t-22 67v140h-197v50h938v-50
h-291v-180q0 -4 6 -7t14 -3q7 0 17.5 8t22.5 22q14 14 33.5 22t41.5 8q46 0 78 -36.5t32 -88.5q0 -85 -66 -145t-159 -60v0zM657 40q68 0 116.5 45.5t48.5 109.5q0 29 -14.5 49.5t-35.5 20.5q-23 0 -57.5 -30t-57.5 -30q-33 0 -56.5 25t-23.5 60v160h-330v-155
q0 -10 4.5 -17.5t10.5 -7.5q7 0 19 9t26 26q16 19 35.5 29.5t39.5 10.5q37 0 63.5 -31t26.5 -74q0 -34 -10.5 -61.5t-29.5 -43.5h40q20 -43 70.5 -69t114.5 -26v0z" />
    <glyph glyph-name="n" unicode="n" horiz-adv-x="285" 
d="M-10 450v50h446v-50h-300v-345q0 -25 13 -42.5t32 -17.5q39 0 92 62t53 108q-27 0 -46 16t-19 39q0 25 19 42.5t46 17.5t46 -22t19 -53q0 -93 -68 -179t-142 -86q-43 0 -74 33.5t-31 81.5v345h-86v0z" />
    <glyph glyph-name="o" unicode="o" horiz-adv-x="461" 
d="M321 0v305q0 62 -36.5 106t-88.5 44q-43 0 -74 -28t-31 -67q0 -22 9 -41.5t26 -33.5q0 23 16 39t39 16t39 -16t16 -39q0 -29 -23.5 -49.5t-56.5 -20.5q-52 0 -88.5 42.5t-36.5 102.5q0 62 47 106t113 44q46 0 81 -17.5t49 -47.5v115h60v-60h90v-50h-90v-450h-60v0z" />
    <glyph glyph-name="p" unicode="p" horiz-adv-x="467" 
d="M327 560h60v-60h90v-50h-90v-450h-60v35q0 66 -38 113t-92 47q-35 0 -60 -17.5t-25 -42.5q0 -14 4 -26t11 -19q0 14 11.5 24.5t28.5 10.5q21 0 35.5 -14.5t14.5 -35.5q0 -23 -19 -39t-46 -16q-41 0 -70.5 33.5t-29.5 81.5t42.5 81.5t102.5 33.5q40 0 75 -20t55 -55v115
q0 68 -39.5 116.5t-95.5 48.5q-33 0 -56.5 -17.5t-23.5 -42.5q0 -14 4 -26t11 -19q0 14 11.5 24.5t28.5 10.5q21 0 35.5 -14.5t14.5 -35.5q0 -23 -19 -39t-46 -16q-41 0 -70.5 33.5t-29.5 81.5t42.5 81.5t102.5 33.5q40 0 75 -20t55 -55v125v0z" />
    <glyph glyph-name="q" unicode="q" horiz-adv-x="377" 
d="M307 -10q-72 0 -123.5 55.5t-51.5 134.5v30q61 0 113 47t52 102q0 9 -2.5 17t-7.5 14q-10 27 -43 43.5t-77 16.5q-33 0 -56.5 -23t-23.5 -55q0 -23 9.5 -41.5t25.5 -25.5q-10 21 4.5 40.5t40.5 19.5q19 0 32 -14.5t13 -35.5q0 -27 -20.5 -46t-49.5 -19q-48 0 -81.5 35.5
t-33.5 85.5q0 53 41 91t99 38q21 0 38.5 -2.5t31.5 -7.5q-29 24 -44.5 58t-15.5 72t15.5 72t44.5 58l40 -35q-19 -16 -29.5 -41t-10.5 -54q0 -23 15.5 -54t44.5 -66h231v-50h-201q69 -58 107 -128.5t38 -141.5q0 -79 -48.5 -134.5t-116.5 -55.5v0zM302 45q46 0 78 39.5
t32 95.5q0 43 -15.5 84t-44.5 76q0 -60 -43.5 -109t-111.5 -66q0 -45 33 -82.5t72 -37.5v0z" />
    <glyph glyph-name="r" unicode="r" horiz-adv-x="516" 
d="M409 -10q-137 0 -246 110.5t-139 279.5l55 10q26 -150 118 -247.5t207 -97.5q54 0 92 31t38 74q0 15 -4 27t-11 18q-5 -5 -15.5 -7.5t-24.5 -2.5q-23 0 -39 14.5t-16 35.5t17.5 35.5t42.5 14.5q9 0 19 -2.5t21 -7.5q10 27 10 60q0 35 -16.5 62.5t-43.5 37.5l-45 -85h-50
q-4 42 -31 71t-64 29q-29 0 -49.5 -17.5t-20.5 -42.5q0 -21 13 -35.5t32 -14.5q0 17 13 28.5t32 11.5q17 0 28.5 -13t11.5 -32q0 -23 -19 -39t-46 -16q-52 0 -88.5 32t-36.5 78t38 78t92 32q46 0 81 -21t44 -54q27 57 50 85q61 -22 98 -70t37 -105q0 -30 -7.5 -57t-22.5 -48
q15 -17 22.5 -38t7.5 -42q0 -66 -54 -113t-131 -47v0z" />
    <glyph glyph-name="s" unicode="s" horiz-adv-x="190" 
d="M25 380q0 50 39.5 85t95.5 35q43 0 78 -17.5t52 -47.5v-105q-9 50 -45.5 82.5t-84.5 32.5q-31 0 -53 -17.5t-22 -42.5q0 -14 4 -26t11 -19q0 14 11.5 24.5t28.5 10.5q21 0 35.5 -14.5t14.5 -35.5q0 -23 -19 -39t-46 -16q-41 0 -70.5 32t-29.5 78v0z" />
    <glyph glyph-name="t" unicode="t" horiz-adv-x="423" 
d="M310 -10q-116 0 -198 99.5t-82 240.5l60 5q0 -120 64.5 -205t155.5 -85q62 0 106 44t44 106q0 50 -33.5 85t-81.5 35q-22 0 -38 -8.5t-17 -21.5q24 9 44.5 -5.5t20.5 -39.5q0 -21 -17.5 -35.5t-42.5 -14.5q-31 0 -53 20.5t-22 49.5q0 46 36.5 78t88.5 32
q75 0 127.5 -51.5t52.5 -123.5q0 -85 -63 -145t-152 -60v0zM-10 450v50h584v-50h-584v0z" />
    <glyph glyph-name="u" unicode="u" horiz-adv-x="726" 
d="M586 -50q-12 44 -44 72t-71 28q-6 -22 -24 -36t-41 -14t-39 14.5t-16 35.5t17 38t43 22l-10 40q-24 -17 -51 -26t-54 -9q-98 0 -176 78t-99 197l55 10q18 -100 80 -165t140 -65q50 0 85 31t35 74q0 37 -25 63.5t-60 26.5q-14 0 -24.5 -4t-15.5 -11q14 0 24.5 -11.5
t10.5 -28.5q0 -21 -16 -35.5t-39 -14.5q-25 0 -42.5 19t-17.5 46q0 37 35 63.5t85 26.5q60 0 102.5 -41t42.5 -99q0 -23 -7.5 -46t-22.5 -44l25 -75q34 -6 64 -23t51 -42v405h-596v50h746v-50h-90v-500h-60v0z" />
    <glyph glyph-name="v" unicode="v" horiz-adv-x="432" 
d="M355 -60q-116 0 -209 102t-121 258l55 20q25 -141 103 -233t172 -92q48 0 81.5 23.5t33.5 56.5q0 27 -15 50t-40 35q-17 -12 -31.5 -18.5t-23.5 -6.5q-29 0 -49.5 13t-20.5 32q0 23 22 39t53 16q-12 0 45 -10q14 10 22 24.5t8 30.5q0 35 -28 60t-67 25q-31 0 -54.5 -12.5
t-30.5 -32.5q14 0 24.5 -13t10.5 -32t-14.5 -32t-35.5 -13q-25 0 -42.5 20.5t-17.5 49.5q0 50 47 85t113 35q64 0 109.5 -41t45.5 -99q0 -21 -10.5 -44t-29.5 -46q32 -19 51 -49.5t19 -65.5q0 -56 -51.5 -95.5t-123.5 -39.5v0zM-10 450v50h593v-50h-593v0z" />
    <glyph glyph-name="w" unicode="w" horiz-adv-x="536" 
d="M349 -195q-18 31 -52.5 51t-77.5 24l-35 45q19 22 41.5 41t48.5 34q-108 29 -176.5 124t-68.5 216l60 5q0 -122 74.5 -208.5t180.5 -86.5q39 0 67 22t28 53q0 25 -14.5 42.5t-35.5 17.5q-35 -20 -45 -20q-23 0 -39 16t-16 39q0 21 16 35.5t39 14.5q4 0 25 -10
q12 12 18.5 26.5t6.5 28.5q0 25 -22 42.5t-53 17.5q-35 0 -59 -8.5t-26 -21.5q17 0 28.5 -11.5t11.5 -28.5q0 -19 -14.5 -32t-35.5 -13q-25 0 -42.5 19t-17.5 46q0 43 44 74t106 31q58 0 99 -33.5t41 -81.5q0 -19 -9 -39.5t-26 -40.5q37 -17 58.5 -48t21.5 -67
q0 -35 -24.5 -65t-65.5 -45v-205h-60v0zM349 -125v105q-21 -6 -41.5 -20t-38.5 -35q25 -4 45.5 -17t34.5 -33v0zM-10 450v50h556v-50h-556v0z" />
    <glyph glyph-name="x" unicode="x" horiz-adv-x="572" 
d="M17 420q0 37 29.5 63.5t70.5 26.5q33 0 57 -11t33 -29q7 18 26 29t44 11q41 0 70.5 -39.5t29.5 -95.5q0 -53 -36 -96.5t-94 -58.5q56 -15 103.5 -48.5t81.5 -81.5v470h60v-60h90v-50h-90v-450h-55q-49 85 -137.5 137.5t-197.5 62.5l-10 65q16 -7 32.5 -11t32.5 -4
q68 0 116.5 39.5t48.5 95.5q0 31 -13 53t-32 22q-17 0 -28.5 -16t-11.5 -39v-35h-55v35q0 23 -16 39t-39 16q-21 0 -35.5 -12.5t-14.5 -29.5q0 -6 1.5 -12t4.5 -11q4 7 12 11t17 4q12 0 21 -10.5t9 -25.5q0 -18 -13.5 -30.5t-32.5 -12.5q-33 0 -56 26t-23 63v0z" />
    <glyph glyph-name="y" unicode="y" horiz-adv-x="561" 
d="M428 -50q0 43 -36.5 74t-88.5 31q-19 0 -57.5 -7.5t-57.5 -7.5q-62 0 -106 50t-44 120q0 31 7.5 60t22.5 55l55 -20q-12 -21 -18.5 -45.5t-6.5 -49.5q0 -46 26.5 -78t63.5 -32q20 0 60 7.5t60 7.5q35 0 66.5 -14.5t53.5 -40.5v270q0 14 -7.5 24.5t-17.5 10.5
q-42 0 -88.5 -46.5t-46.5 -88.5q23 13 46.5 3t23.5 -33t-17.5 -39t-42.5 -16q-29 0 -49.5 28t-20.5 67q0 61 65.5 123t129.5 62q35 0 60 -28t25 -67v-380h-60v0zM-10 450v50h581v-50h-581v0z" />
    <glyph glyph-name="z" unicode="z" 
d="M-305 195q0 43 36.5 74t88.5 31q62 0 106 -44t44 -106q0 -70 -57 -120t-138 -50q-95 0 -162.5 69t-67.5 166l55 10q0 -77 51.5 -131t123.5 -54q56 0 95.5 33.5t39.5 81.5q0 37 -26.5 63.5t-63.5 26.5q-19 0 -33.5 -6.5t-21.5 -18.5q22 8 41 -4.5t19 -35.5t-16 -39
t-39 -16q-31 0 -53 20.5t-22 49.5v0z" />
    <glyph glyph-name="braceleft" unicode="{" horiz-adv-x="220" 
d="M50 570q0 60 47 102.5t113 42.5q45 0 95.5 -36t94.5 -99l-40 -30q-36 52 -76 81t-74 29q-41 0 -70.5 -26.5t-29.5 -63.5q0 -23 9.5 -42t25.5 -28h85v-50h-90v-450h-60v450h-90v50h90q-14 14 -22 32.5t-8 37.5v0zM500 585q-53 0 -92 33t-43 82l50 20q6 -36 30 -59.5
t55 -23.5q29 0 51.5 23.5t28.5 59.5l50 -20q-4 -49 -41.5 -82t-88.5 -33v0zM500 665q-17 0 -28.5 11t-11.5 27q0 17 12.5 29.5t30.5 12.5q15 0 26 -11.5t11 -28.5t-11.5 -28.5t-28.5 -11.5v0z" />
    <glyph glyph-name="bar" unicode="|" 
d="M-90 -80q-3 36 -36 60.5t-79 24.5q-24 0 -70 -12.5t-70 -12.5q-43 0 -74 32t-31 78l55 10q0 -25 14.5 -42.5t35.5 -17.5q25 0 72.5 10t72.5 10q31 0 59.5 -11.5t50.5 -33.5v195q0 14 -9 24.5t-21 10.5q-26 0 -54 -18.5t-51 -51.5q13 -4 21.5 -16.5t8.5 -28.5
q0 -19 -13 -32t-32 -13q-25 0 -42.5 16t-17.5 39q0 54 60.5 109.5t119.5 55.5q37 0 63.5 -28t26.5 -67v-290h-60v0z" />
    <glyph glyph-name="braceright" unicode="}" horiz-adv-x="336" 
d="M256 -20q-36 62 -95.5 118t-139.5 102l40 55q87 -50 150 -113t95 -132l-50 -30v0zM176 290q-48 0 -81.5 32t-33.5 78t32 78t78 32q50 0 85 -32t35 -78t-33.5 -78t-81.5 -32v0zM176 340q23 0 39 17.5t16 42.5t-14.5 42.5t-35.5 17.5q-25 0 -42.5 -17.5t-17.5 -42.5
t16 -42.5t39 -17.5v0z" />
    <glyph glyph-name="asciitilde" unicode="~" 
d="M-405 -85q16 23 115 80q-70 25 -112.5 87t-42.5 138l55 10q0 -79 51.5 -134.5t123.5 -55.5q52 0 88.5 32t36.5 78q0 39 -22 67t-53 28q-18 0 -31.5 -5.5t-18.5 -14.5q24 2 42 -13t18 -37q0 -19 -16 -32t-39 -13q-29 0 -49.5 22t-20.5 53q0 41 33.5 70.5t81.5 29.5
q56 0 95.5 -45.5t39.5 -109.5q0 -62 -43 -108t-107 -52v-210h-50q-22 38 -61.5 62t-88.5 28l-25 45v0zM-230 -155v125q-75 -35 -95 -55q26 -9 50 -27t45 -43v0z" />
    <glyph glyph-name="c141" horiz-adv-x="521" 
d="M46 240l-30 55q27 38 72 64t103 36v55h-201v50h541v-50h-280v-350q0 -21 11.5 -35.5t28.5 -14.5q48 13 83.5 59t46.5 111q-25 0 -42.5 16t-17.5 39t19 39t46 16q25 0 42.5 -20.5t17.5 -49.5q0 -93 -63.5 -179t-131.5 -86q-41 0 -70.5 32t-29.5 78v60q-27 32 -64.5 51.5
t-80.5 23.5v0zM191 230v105q-32 -3 -58 -14.5t-42 -30.5q28 -5 54 -20.5t46 -39.5v0z" />
    <glyph glyph-name="c144" horiz-adv-x="417" 
d="M286 -10q-97 0 -172 66.5t-93 168.5l50 15q15 -87 76 -143.5t139 -56.5q72 0 123.5 45.5t51.5 109.5q0 17 -5 31t-15 24q-25 -44 -57.5 -69.5t-62.5 -25.5q-27 0 -47.5 15.5t-27.5 39.5q-28 33 -64.5 51.5t-75.5 18.5l-30 35q27 39 70 65t95 35v35h-251v50h578v-50h-267
v-210q0 -12 6 -21t14 -9q21 0 51 33t64 92q39 -23 62 -61.5t23 -83.5q0 -83 -69 -141.5t-166 -58.5v0zM241 280v85q-32 -9 -54 -20.5t-31 -24.5q30 -8 51.5 -18t33.5 -22v0z" />
    <glyph glyph-name="uni0090" horiz-adv-x="628" 
d="M435 -50q-21 31 -51.5 48t-63.5 17q-16 0 -47.5 -5t-47.5 -5q-42 0 -78 27.5t-52 72.5l50 15q13 -27 34.5 -43.5t45.5 -16.5q15 0 45 5t45 5q33 0 64.5 -15.5t55.5 -44.5v290q0 19 -9 32t-21 13q-31 0 -53 -25t-22 -60q21 0 35.5 -13t14.5 -32t-14.5 -32t-35.5 -13
q-25 0 -42.5 19t-17.5 46q-33 -47 -67.5 -73.5t-62.5 -26.5q-35 0 -60 28t-25 67v220h-65v50h789v-50h-664q0 -31 45 -70.5t120 -74.5q21 46 55 73t70 27q37 0 63.5 -29.5t26.5 -70.5q32 38 66 59t64 21q39 0 67 -26.5t28 -63.5q0 -22 -10.5 -40.5t-29.5 -29.5
q21 -12 33 -31t12 -39q0 -37 -29.5 -63.5t-70.5 -26.5q-34 0 -68 18.5t-62 51.5v-185h-60v0zM630 120q17 0 28.5 10.5t11.5 24.5t-11 26t-29 19q-17 -10 -25 -10q-17 0 -28.5 10.5t-11.5 24.5t11.5 24.5t28.5 10.5q8 0 25 -10q14 6 22 18.5t8 26.5t-9 24.5t-21 10.5
q-33 0 -69.5 -29.5t-65.5 -80.5q27 -46 63 -73t72 -27v0zM145 190q14 0 34.5 19.5t45.5 55.5q-37 14 -65.5 35.5t-44.5 49.5v-120q0 -17 9 -28.5t21 -11.5v0z" />
    <glyph glyph-name="nonbreakingspace" unicode="&#xa0;" horiz-adv-x="200" 
 />
    <glyph glyph-name="exclamdown" unicode="&#xa1;" horiz-adv-x="141" 
 />
    <glyph glyph-name="cent" unicode="&#xa2;" 
d="M-110 500l-45 40l175 195l45 -35l-175 -200v0z" />
    <glyph glyph-name="sterling" unicode="&#xa3;" horiz-adv-x="255" 
d="M140 -50q-22 47 -85.5 83t-154.5 52l-50 65l135 110l-95 70l20 50l160 -120l-140 -120q62 -11 116 -38t94 -67v305h95q56 0 95.5 -33.5t39.5 -81.5q0 -33 -20.5 -56.5t-49.5 -23.5q-21 0 -35.5 11.5t-14.5 28.5t11.5 28.5t28.5 11.5q3 0 20 -10v15q0 21 -19 35.5
t-46 14.5h-45v-330h-60v0zM-179 500h585v-50h-585v50v0z" />
    <glyph glyph-name="currency" unicode="&#xa4;" horiz-adv-x="427" 
d="M292 0q-24 66 -87 113t-148 62l-40 60q41 58 110.5 102t159.5 68v45h-297v50h447v-50h-90v-450h-55v0zM287 105v240q-59 -16 -109 -46.5t-86 -73.5q61 -11 111.5 -42t83.5 -78v0z" />
    <glyph glyph-name="yen" unicode="&#xa5;" horiz-adv-x="615" 
d="M260 185q-54 0 -103.5 45.5t-76.5 119.5l50 25q29 -62 64 -98.5t66 -36.5q43 0 103 61.5t122 168.5l50 -30q-68 -118 -142 -186.5t-133 -68.5v0zM265 340q-17 0 -28.5 11.5t-11.5 28.5q0 19 11.5 32t28.5 13t28.5 -11.5t11.5 -28.5q0 -19 -11.5 -32t-28.5 -13v0z" />
    <glyph glyph-name="brokenbar" unicode="&#xa6;" horiz-adv-x="543" 
d="M450 -15q-29 35 -44.5 73.5t-15.5 76.5q0 42 11.5 80.5t33.5 69.5q-43 -16 -84 -50.5t-76 -84.5h-60q-35 50 -79 77t-86 23l-35 55q36 43 88 69t112 31v45h-225v50h563v-50h-278v-215q35 42 81 74t99 51l55 -60q-29 -35 -44.5 -80t-15.5 -95q0 -30 11.5 -59.5t33.5 -55.5
l-45 -25v0zM215 225v125q-44 -8 -75 -21t-45 -29q32 -6 63 -25t57 -50v0z" />
    <glyph glyph-name="section" unicode="&#xa7;" horiz-adv-x="433" 
d="M282 0q-41 41 -91.5 65.5t-103.5 29.5l-35 45q8 17 65 65l-55 15l-40 60q43 51 110 85.5t150 49.5v35h-292v50h594v-50h-242v-145q10 7 32 11t53 4t53 -28t22 -67q0 -24 -5 -72.5t-5 -72.5q0 -17 6 -28.5t14 -11.5q6 0 13.5 2.5t16.5 7.5l10 -45q-13 -7 -25.5 -11
t-24.5 -4q-29 0 -49.5 26.5t-20.5 63.5q0 25 5 75t5 75q0 14 -10.5 24.5t-24.5 10.5q-19 0 -35.5 -4t-29.5 -11v-250h-60v0zM282 60v175q-44 -12 -82.5 -36t-67.5 -59q126 -46 150 -80v0zM162 240q72 42 120 50v70q-53 -9 -100.5 -33.5t-84.5 -61.5q26 -2 65 -25v0z" />
    <glyph glyph-name="dieresis" unicode="&#xa8;" horiz-adv-x="400" 
d="M264 0q-41 41 -87.5 63t-92.5 22l-30 60q16 27 55 60q-43 20 -65 20l-20 40q47 67 109.5 110t130.5 55v20h-274v50h434v60h60v-60h67v-50h-67v-320h-60q-13 35 -39 61t-61 39v-230h-60v0zM264 70v165q-47 -13 -84.5 -37.5t-60.5 -57.5q50 -13 87 -31t58 -39v0zM149 235
q62 36 115 55v85q-49 -13 -92.5 -41t-77.5 -69q16 -3 55 -30v0zM424 220v230h-100v-160q32 -6 58 -24t42 -46v0z" />
    <glyph glyph-name="copyright" unicode="&#xa9;" horiz-adv-x="403" 
d="M342 -20q-63 90 -144.5 144t-165.5 61l-10 55q95 0 162.5 35t67.5 85q0 37 -23.5 63.5t-56.5 26.5q-15 0 -25.5 -1t-14.5 -4q12 -7 18.5 -19t6.5 -26q0 -21 -16 -35.5t-39 -14.5q-27 0 -46 17.5t-19 42.5q0 41 39.5 70.5t95.5 29.5q60 0 102.5 -44t42.5 -106
q0 -47 -44.5 -89t-115.5 -61q62 -23 122 -74t113 -126l-50 -30v0z" />
    <glyph glyph-name="ordfeminine" unicode="&#xaa;" horiz-adv-x="719" 
d="M282 -10q-95 0 -168.5 66.5t-91.5 168.5l55 15q15 -85 73 -140t132 -55q66 0 113 35t47 85q0 17 -4 29t-11 16q-13 -27 -40 -43.5t-60 -16.5q-23 0 -46 16t-39 44q-14 25 -48.5 43.5t-81.5 26.5l-35 45q20 35 62 60t98 35v30h-247v50h739v-50h-432v-25
q49 -28 131.5 -33.5t188.5 13.5l55 -55q-22 -38 -33.5 -84t-11.5 -96q0 -41 12.5 -84t37.5 -86h-55q-27 47 -41 90t-14 80q0 49 9 93.5t26 81.5q-97 -17 -175.5 -10.5t-129.5 35.5v-120q0 -19 9 -32t21 -13q24 0 49.5 20t45.5 55q35 -20 55 -51t20 -64q0 -72 -63 -123.5
t-152 -51.5v0zM237 275v95q-35 -9 -58.5 -22t-31.5 -28q27 -2 50.5 -14t39.5 -31v0z" />
    <glyph glyph-name="guillemotleft" unicode="&#xab;" 
d="M-140 -100q-24 42 -64 66t-86 24l-30 50q41 48 87 80t93 45h60v-265h-60v0zM-140 -25v135q-30 -14 -55.5 -33t-44.5 -42q38 -14 63.5 -29.5t36.5 -30.5v0z" />
    <glyph glyph-name="logicalnot" unicode="&#xac;" 
d="M-140 -50q-22 48 -70 81t-110 44l-25 55q30 36 82 67.5t123 57.5v40h60v-345h-60v0zM-140 35v155q-29 -5 -62 -23t-68 -47q33 -6 66.5 -28t63.5 -57v0z" />
    <glyph glyph-name="minus" unicode="&#xad;" 
 />
    <glyph glyph-name="registered" unicode="&#xae;" horiz-adv-x="413" 
d="M317 -10q-118 0 -201.5 107t-83.5 258l60 5q0 -128 67.5 -219t162.5 -91q56 0 95.5 35t39.5 85q0 25 -9.5 45.5t-25.5 29.5q-15 -32 -45 -51t-65 -19q-54 0 -92 32t-38 78q0 27 19 46t46 19q21 0 35.5 -14.5t14.5 -35.5q0 -19 -10.5 -32t-24.5 -13q35 -35 82.5 -10.5
t52.5 80.5q54 -20 87 -62.5t33 -92.5q0 -82 -54.5 -131t-145.5 -49v0zM-10 450v50h574v-50h-574v0z" />
    <glyph glyph-name="macron" unicode="&#xaf;" horiz-adv-x="563" 
d="M306 90q-102 0 -182.5 80.5t-102.5 204.5l60 5q18 -100 83 -165t147 -65q56 0 95.5 29.5t39.5 70.5q0 16 -9.5 31t-25.5 24q-15 -32 -45 -51t-65 -19q-54 0 -92 32t-38 78q0 27 19 46t46 19q21 0 35.5 -14.5t14.5 -35.5q0 -19 -10.5 -32t-24.5 -13q35 -35 82.5 -10.5
t52.5 80.5q52 -9 86 -47.5t34 -87.5q0 -28 -10 -65v-245h-60q0 23 -16 39t-39 16q-14 0 -24.5 -14.5t-10.5 -35.5h-60q0 29 -20.5 49.5t-49.5 20.5q-31 0 -49.5 -20.5t-5.5 -39.5q19 19 44.5 10t25.5 -35q0 -17 -14.5 -28.5t-35.5 -11.5q-33 0 -56.5 23.5t-23.5 56.5
q0 43 35 74t85 31q32 0 58.5 -14.5t41.5 -40.5q7 16 25 25.5t40 9.5q14 0 27 -8t23 -22v100q-16 -16 -51.5 -25.5t-78.5 -9.5v0zM-10 450v50h583v-50h-583v0z" />
    <glyph glyph-name="degree" unicode="&#xb0;" horiz-adv-x="552" 
d="M425 0q-20 24 -60.5 37t-94.5 13q-18 0 -52.5 -2.5t-52.5 -2.5q-54 0 -92 42.5t-38 102.5q0 30 11.5 59.5t33.5 55.5l50 -15q-19 -23 -29.5 -49t-10.5 -51q0 -37 25 -63.5t60 -26.5q18 0 52.5 2.5t52.5 2.5q53 0 91 -10.5t54 -29.5v235q-22 -26 -53.5 -40.5t-66.5 -14.5
q-62 0 -106 32t-44 78q0 27 17.5 46t42.5 19q23 0 39 -14.5t16 -35.5q0 -8 -5 -18t-15 -22q5 -11 21.5 -18t38.5 -7q30 0 58.5 23t46.5 62q29 0 49.5 -35t20.5 -85v-270h-60v0zM-10 450v50h572v-50h-572v0z" />
    <glyph glyph-name="plusminus" unicode="&#xb1;" 
d="M-185 15q-86 0 -157 82t-93 208l48 10q13 -96 74.5 -170.5t127.5 -74.5q39 0 67 29.5t28 70.5q0 8 -2.5 15t-7.5 10q-13 -27 -37.5 -43.5t-52.5 -16.5q-37 0 -63.5 25t-26.5 60q0 25 14.5 42.5t35.5 17.5q19 0 32 -11.5t13 -28.5q0 -14 -10 -25t-25 -15q3 -2 10.5 -3.5
t19.5 -1.5q30 0 54 27t31 68q35 -20 55 -53.5t20 -71.5q0 -62 -45.5 -106t-109.5 -44v0z" />
    <glyph glyph-name="twosuperior" unicode="&#xb2;" 
d="M-90 -50q0 29 -20.5 49.5t-49.5 20.5q-22 0 -65 -12.5t-65 -12.5q-41 0 -70.5 28t-29.5 67h60q0 -17 11.5 -28.5t28.5 -11.5q22 0 65 12.5t65 12.5q21 0 39.5 -8t30.5 -22v150q-20 -35 -51 -55t-64 -20q-38 -3 -66.5 25t-28.5 70q0 27 14.5 46t35.5 19q19 0 32 -11.5
t13 -28.5q0 -16 -8 -30t-22 -20q3 -7 11.5 -11.5t18.5 -4.5q33 0 64.5 32t50.5 84h60v-340h-60v0z" />
    <glyph glyph-name="threesuperior" unicode="&#xb3;" horiz-adv-x="422" 
d="M282 0q-7 74 -38 125t-72 55q-2 -28 -24 -46.5t-51 -18.5q-27 0 -46 19t-19 46q0 29 22 49.5t53 20.5q0 58 -21 110t-59 90h-37v50h442v-50h-90v-450h-60v0zM282 160v290h-180q31 -38 48 -90.5t17 -114.5q33 -9 62.5 -31t52.5 -54v0z" />
    <glyph glyph-name="acute" unicode="&#xb4;" horiz-adv-x="386" 
d="M19 345q0 25 21 41t49 14q-8 17 -17 29.5t-18 20.5h-64v50h406v-50h-52q10 -8 15 -23.5t5 -36.5q0 -41 -28 -70.5t-67 -29.5q-23 0 -65 17.5t-65 17.5q-12 -16 -27.5 -25.5t-32.5 -9.5q-25 0 -42.5 16t-17.5 39v0zM269 345q14 0 24.5 13t10.5 32q0 22 -8 38.5t-22 21.5
h-160q19 -21 29.5 -40.5t10.5 -34.5q20 0 57.5 -15t57.5 -15v0z" />
    <glyph glyph-name="mu" unicode="&#xb5;" horiz-adv-x="360" 
d="M220 0q-18 38 -52 65.5t-78 39.5q0 -23 -16 -39t-39 -16q-27 0 -46 16t-19 39q0 25 20 43.5t50 21.5v330h330v-50h-90v-450h-60v0zM220 85v365h-120v-285q33 -9 64 -29.5t56 -50.5v0z" />
    <glyph glyph-name="paragraph" unicode="&#xb6;" horiz-adv-x="295" 
d="M155 0q-16 45 -40 75t-50 40q0 -21 -17.5 -35.5t-42.5 -14.5q-27 0 -46 16.5t-19 40.5q0 22 18.5 39t46.5 19q0 36 -27 72t-73 63l30 45q61 -43 95.5 -92t34.5 -93q17 -5 40 -24t50 -51v350h-280v50h430v-50h-90v-450h-60v0z" />
    <glyph glyph-name="periodcentered" unicode="&#xb7;" horiz-adv-x="600" 
d="M100 250q0 83 58.5 141.5t141.5 58.5t141.5 -58.5t58.5 -141.5t-58.5 -141.5t-141.5 -58.5t-141.5 58.5t-58.5 141.5v0z" />
    <glyph glyph-name="periodcentered" unicode="&#x2219;" horiz-adv-x="600" 
d="M100 250q0 83 58.5 141.5t141.5 58.5t141.5 -58.5t58.5 -141.5t-58.5 -141.5t-141.5 -58.5t-141.5 58.5t-58.5 141.5v0z" />
    <glyph glyph-name="cedilla" unicode="&#xb8;" horiz-adv-x="224" 
d="M82 -10l-40 45q34 12 54.5 39.5t20.5 60.5q0 40 -32.5 112.5t-32.5 112.5q0 26 7.5 49.5t22.5 40.5h-92v50h244v-50h-87q-17 -20 -26 -42t-9 -43q0 -41 32.5 -115t32.5 -115q0 -46 -26 -85.5t-69 -59.5v0z" />
    <glyph glyph-name="onesuperior" unicode="&#xb9;" horiz-adv-x="429" 
d="M294 0q-24 66 -87 113t-148 62l-40 60q41 58 110.5 102t159.5 68v45h-299v50h449v-50h-90v-450h-55v0zM289 105v240q-59 -16 -109 -46.5t-86 -73.5q61 -11 111.5 -42t83.5 -78v0zM124 5q-19 0 -32 13t-13 32t14.5 32t35.5 13q17 0 28.5 -11.5t11.5 -28.5q0 -21 -13 -35.5
t-32 -14.5v0z" />
    <glyph glyph-name="ordmasculine" unicode="&#xba;" horiz-adv-x="568" 
d="M428 0v260q-8 29 -29 47t-46 18q-21 0 -35.5 -16t-14.5 -39h-50q-2 25 -25 42.5t-55 17.5q-33 0 -56.5 -23.5t-23.5 -56.5q0 -32 18.5 -56t46.5 -29q-5 9 -7.5 17.5t-2.5 17.5q0 19 16 32t39 13t39 -17.5t16 -42.5q0 -29 -26.5 -49.5t-63.5 -20.5q-56 0 -95.5 39.5
t-39.5 95.5q0 58 41 99t99 41q37 0 65.5 -13.5t39.5 -36.5q10 21 31.5 33t48.5 12q23 0 42 -9.5t28 -25.5v100h-438v50h588v-50h-90v-450h-60v0z" />
    <glyph glyph-name="guillemotright" unicode="&#xbb;" horiz-adv-x="473" 
d="M378 0q-25 36 -69.5 58t-100.5 27l-55 55q45 53 102.5 90.5t122.5 54.5v40q0 10 -14.5 17.5t-35.5 7.5q-19 0 -32 -17.5t-13 -42.5h-60q0 27 -22 46t-53 19q-25 0 -42.5 -16t-17.5 -39q0 -12 2.5 -21t7.5 -14q1 15 14 25t31 10q19 0 32 -13t13 -32q0 -23 -19 -39t-46 -16
q-39 0 -67 29.5t-28 70.5q0 46 33.5 78t81.5 32q40 0 69.5 -13.5t40.5 -36.5q8 23 30 36.5t50 13.5q10 0 21.5 -5t23.5 -15v60h-388v50h634v-50h-186v-160q62 0 106 -36.5t44 -88.5q0 -31 -16 -53t-39 -22q-21 0 -35.5 11.5t-14.5 28.5q0 19 13 32t32 13q0 23 -26.5 39
t-63.5 16v-230h-60v0zM378 70v155q-32 -3 -69.5 -25t-75.5 -60q45 -4 82.5 -22t62.5 -48v0z" />
    <glyph glyph-name="onequarter" unicode="&#xbc;" horiz-adv-x="518" 
d="M378 0v90q-23 39 -55 62t-65 23t-59 -16.5t-36 -43.5q43 25 65 25q39 0 67 -25t28 -60q0 -52 -61.5 -88.5t-148.5 -36.5l-5 50q62 0 106 22t44 53q0 10 -9 17.5t-21 7.5q-21 0 -43 -9t-42 -26l-50 35q6 64 53.5 107t111.5 43q33 0 64.5 -15.5t55.5 -44.5v155
q-7 9 -20 14.5t-30 5.5q-23 0 -39 -19t-16 -46h-60q0 33 -20.5 56.5t-49.5 23.5q-23 0 -39 -14.5t-16 -35.5q0 -11 2.5 -20t7.5 -15q4 15 15 25t25 10q19 0 32 -14.5t13 -35.5t-16 -35.5t-39 -14.5q-41 0 -70.5 28t-29.5 67q0 46 32 78t78 32q39 0 68.5 -15t41.5 -40
q10 21 31.5 33t48.5 12q16 0 29 -5t21 -15v65h-388v50h538v-50h-90v-450h-60v0z" />
    <glyph glyph-name="onehalf" unicode="&#xbd;" horiz-adv-x="686" 
d="M437 -115q-142 0 -255 88t-150 227l60 20q33 -124 128 -202t212 -78q75 0 127.5 33.5t52.5 81.5q0 11 -6.5 21.5t-18.5 18.5q-9 -16 -21 -25.5t-24 -9.5q-19 0 -32 10.5t-13 24.5q0 21 14.5 35.5t35.5 14.5q0 23 -10.5 39t-24.5 16t-24.5 -11.5t-10.5 -28.5l-45 -10
q-10 38 -32.5 61.5t-47.5 23.5q-24 0 -43.5 -15.5t-26.5 -39.5q14 5 27.5 7.5t27.5 2.5q27 0 46 -20.5t19 -49.5q0 -33 -29.5 -60t-75.5 -35l-25 40q34 3 57 19t23 36q0 10 -10.5 17.5t-24.5 7.5q-17 0 -32.5 -9.5t-27.5 -25.5l-40 25q0 60 38 102.5t92 42.5q28 -2 35 -5v85
q-6 7 -15 11t-20 4q-19 0 -32 -16t-13 -39h-60q-13 27 -32 43.5t-38 16.5q-25 0 -42.5 -14.5t-17.5 -35.5q0 -17 7.5 -28.5t17.5 -11.5q0 17 10.5 28.5t24.5 11.5q12 0 21 -11.5t9 -28.5q0 -19 -17.5 -32t-42.5 -13q-33 0 -56.5 26.5t-23.5 63.5t31 63.5t74 26.5
q30 0 57 -16t43 -44q12 25 32 40t43 15q11 0 24 -6t16 -4v40h-392v50h706v-50h-264v-200q18 -18 20 -25q14 12 28.5 18.5t26.5 6.5q37 0 63.5 -29.5t26.5 -70.5q29 -11 47 -38.5t18 -61.5q0 -68 -66 -116.5t-159 -48.5v0z" />
    <glyph glyph-name="threequarters" unicode="&#xbe;" horiz-adv-x="522" 
d="M382 0q-28 40 -73 62.5t-97 22.5l-55 55q39 47 97 81.5t128 53.5v30q0 12 -14.5 21t-35.5 9t-35.5 -19t-14.5 -46h-60q0 35 -22 60t-53 25q-25 0 -42.5 -16t-17.5 -39q0 -8 4 -17t11 -18q0 14 13 24.5t32 10.5t32 -13t13 -32q0 -23 -19 -39t-46 -16q-41 0 -70.5 29.5
t-29.5 70.5q0 46 33.5 78t81.5 32q39 0 68.5 -15t41.5 -40q9 18 30.5 29t49.5 11q13 0 25.5 -5t24.5 -15v75h-392v50h542v-50h-90v-450h-60v0zM382 75v140q-44 -8 -80 -27t-60 -48q40 -3 76 -20t64 -45v0z" />
    <glyph glyph-name="questiondown" unicode="&#xbf;" horiz-adv-x="550" 
d="M410 -50v140q-38 -7 -91 -49.5t-114 -115.5l-50 25q14 23 40 55q0 19 -13 32t-32 13q-11 0 -25 -17.5t-25 -17.5q-14 0 -24.5 9t-10.5 21q0 39 77 92t133 53q40 0 75.5 -15.5t59.5 -44.5v170q-5 28 -25 46.5t-45 18.5q-19 0 -32 -16t-13 -39h-60q-2 25 -21 42.5t-44 17.5
q-29 0 -49.5 -22t-20.5 -53q0 -25 14.5 -42.5t35.5 -17.5q-8 22 4.5 41t35.5 19q17 0 28.5 -14.5t11.5 -35.5q0 -27 -23.5 -46t-56.5 -19q-46 0 -78 35t-32 85q0 52 39.5 88.5t95.5 36.5q30 0 54 -12t36 -33q13 19 33 29.5t42 10.5q23 0 42 -9.5t28 -25.5v65h-420v50h570
v-50h-90v-500h-60v0zM230 40q58 58 95 75q-7 9 -21.5 14.5t-33.5 5.5q-22 0 -48 -11.5t-52 -33.5q24 0 41 -14.5t19 -35.5v0z" />
    <glyph glyph-name="Agrave" unicode="&#xc0;" horiz-adv-x="538" 
d="M398 0v105q0 14 -14.5 24.5t-35.5 10.5q-19 0 -32 -20.5t-13 -49.5h-55q0 37 -22 63.5t-53 26.5q-23 0 -39 -16t-16 -39q0 -13 5.5 -24t14.5 -16q3 11 12.5 18t22.5 7q17 0 28.5 -13t11.5 -32t-16 -32t-39 -13q-39 0 -67 31t-28 74q0 36 19 65t51 40q-37 7 -61 35t-24 65
q0 43 35 74t85 31q39 0 68 -13.5t37 -36.5q9 16 29.5 25.5t45.5 9.5q16 0 29 -5t21 -15v70h-408v50h558v-50h-90v-450h-60v0zM278 150q8 23 27.5 36.5t42.5 13.5q17 0 30 -6.5t20 -18.5v120q0 19 -13 32t-32 13q-21 0 -35.5 -17.5t-14.5 -42.5h-55q0 35 -23.5 60t-56.5 25
q-25 0 -42.5 -16t-17.5 -39q0 -14 2.5 -24t7.5 -16q0 14 13 24.5t32 10.5q17 0 28.5 -13t11.5 -32q0 -9 -8 -21t-22 -24q37 0 65.5 -18t39.5 -47v0z" />
    <glyph glyph-name="Aacute" unicode="&#xc1;" horiz-adv-x="520" 
d="M403 -10q-85 0 -154.5 61.5t-95.5 158.5l55 15q22 -82 75 -133.5t115 -51.5q68 0 116.5 42.5t48.5 102.5q0 22 -5 38.5t-15 26.5q-20 -35 -49.5 -55t-60.5 -20q-39 0 -67 29.5t-28 70.5v45q0 14 -13 24.5t-32 10.5t-32 -10.5t-13 -24.5v-20h-50v10q0 23 -19 39t-46 16
q-25 0 -41 -14.5t-9 -30.5q18 11 36.5 1t18.5 -31q0 -17 -11.5 -28.5t-28.5 -11.5q-31 0 -53 22t-22 53q0 39 32 67t78 28q34 0 59.5 -12t35.5 -33q7 16 25 25.5t40 9.5q16 0 28 -5.5t17 -14.5v60h-348v50h681v-50h-273v-190q0 -12 11.5 -21t28.5 -9q22 0 49.5 30t50.5 80
q39 -23 62 -63t23 -87q0 -83 -64.5 -141.5t-155.5 -58.5v0z" />
    <glyph glyph-name="Acircumflex" unicode="&#xc2;" horiz-adv-x="276" 
d="M26 305q0 43 33.5 74t81.5 31q35 0 63.5 -13.5t41.5 -36.5q9 18 29 29t46 11q19 0 33.5 -6.5t21.5 -18.5v-75q-10 21 -24.5 33t-30.5 12q-19 0 -32 -16t-13 -39h-60q-5 28 -26 46.5t-49 18.5q-23 0 -39 -13t-16 -32q0 -12 2.5 -20t7.5 -10q5 11 16 18t24 7q19 0 32 -13
t13 -32q0 -21 -17.5 -35.5t-42.5 -14.5q-39 0 -67 28t-28 67v0zM-10 500h296v-50h-296v50v0z" />
    <glyph glyph-name="Atilde" unicode="&#xc3;" 
d="M-140 -45q0 29 -13 49.5t-32 20.5q-17 0 -28.5 -13t-11.5 -32h-45q0 29 -23.5 49.5t-56.5 20.5q-17 0 -28.5 -11.5t-11.5 -28.5q0 -6 4 -13.5t11 -16.5q7 12 17.5 18.5t22.5 6.5q14 0 24.5 -10.5t10.5 -24.5q0 -19 -17.5 -32t-42.5 -13q-35 0 -60 25t-25 60q0 39 29.5 67
t70.5 28q34 0 60 -15t35 -40q16 27 49.5 30t60.5 -20v190h60v-295h-60v0z" />
    <glyph glyph-name="Adieresis" unicode="&#xc4;" horiz-adv-x="437" 
d="M-10 450v50h457v-50h-90v-450h-60v45q-21 45 -57 73t-78 32q15 -26 15 -39q0 -25 -19 -43t-46 -18q-29 0 -49.5 20.5t-20.5 49.5q0 33 28 56.5t67 23.5q43 0 84.5 -18t75.5 -52v120q-24 41 -59.5 66.5t-75.5 28.5q15 -26 15 -34q0 -25 -19 -43t-46 -18q-29 0 -49.5 20.5
t-20.5 49.5q0 33 28 56.5t67 23.5q43 0 84.5 -18t75.5 -52v120h-307v0z" />
    <glyph glyph-name="Aring" unicode="&#xc5;" horiz-adv-x="457" 
d="M317 0v375q-13 36 -36.5 58t-48.5 22q-20 0 -39 -12t-31 -33q40 -34 62.5 -63t22.5 -47q0 -23 -16 -39t-39 -16q-21 0 -37.5 14t-22.5 36q-7 -24 -22 -39.5t-33 -15.5q-23 0 -39 16t-16 39q0 26 75 115q-9 18 -28 29t-42 11h-37v50h37q35 0 63.5 -13.5t41.5 -36.5
q20 28 46.5 44t53.5 16q23 0 46 -13t39 -37v100h60v-60h90v-50h-90v-450h-60v0z" />
    <glyph glyph-name="AE" unicode="&#xc6;" horiz-adv-x="220" 
d="M20 330q0 22 18.5 47t51.5 48q-3 11 -19.5 18t-40.5 7h-40v50h45q29 -3 52.5 -13t37.5 -27q18 21 41.5 33t48.5 12q31 0 59.5 -17.5t45.5 -47.5v-90q-12 44 -42.5 72t-67.5 28q-11 0 -23 -6.5t-22 -18.5q35 -20 55 -44t20 -46q0 -19 -13 -32t-32 -13q-16 0 -33 12t-32 33
q-16 -24 -33.5 -37t-31.5 -13q-19 0 -32 13t-13 32v0z" />
    <glyph glyph-name="Ccedilla" unicode="&#xc7;" horiz-adv-x="509" 
d="M368 -10q-125 0 -222.5 69.5t-127.5 180.5l55 20q25 -95 106 -155t184 -60q68 0 116.5 28t48.5 67q0 19 -8 37.5t-22 32.5q-32 -15 -40 -15q-25 0 -42.5 13t-17.5 32q0 17 17.5 28.5t42.5 11.5q11 0 21 -2.5t19 -7.5q17 17 26 36.5t9 38.5q0 39 -19 67t-46 28
q-17 0 -28.5 -20.5t-11.5 -49.5h-45q-9 33 -30 54t-45 21q-12 0 -22.5 -6.5t-17.5 -18.5q35 -20 55 -47t20 -53q0 -19 -14.5 -32t-35.5 -13q-19 0 -38 16.5t-32 43.5q-15 -32 -35.5 -51t-39.5 -19t-32 11.5t-13 28.5q0 25 19.5 55t55.5 60q-9 9 -29.5 17t-50.5 13h-108v50
h88q43 0 79.5 -15.5t60.5 -44.5q17 30 42.5 47.5t52.5 17.5q22 0 45 -17.5t40 -47.5q7 27 26.5 43.5t43.5 16.5q46 0 85.5 -48.5t39.5 -106.5q0 -31 -14.5 -59t-40.5 -46q24 -16 37 -42.5t13 -57.5q0 -62 -64.5 -106t-155.5 -44v0z" />
    <glyph glyph-name="Egrave" unicode="&#xc8;" horiz-adv-x="421" 
d="M286 0q-20 76 -83.5 127t-146.5 58l-40 55l130 115l-100 95h-56v50h441v-50h-90v-450h-55v0zM281 115v115l-100 85l-85 -85q53 -5 101.5 -35t83.5 -80v0zM281 300v150h-155l155 -150v0z" />
    <glyph glyph-name="Eacute" unicode="&#xc9;" horiz-adv-x="394" 
d="M242 0q-23 64 -71.5 106.5t-108.5 53.5l-30 55q15 18 35.5 33.5t44.5 26.5q-27 13 -43.5 40t-16.5 60q2 20 15 40t35 35h-112v50h414v-50h-77q12 -12 18.5 -27.5t6.5 -32.5q0 -26 -13.5 -49t-36.5 -36v-305h-60v0zM242 100v165q-41 -7 -74.5 -22.5t-55.5 -37.5
q39 -11 73 -38t57 -67v0zM172 305l40 15q-9 34 -27.5 59t-42.5 36q-14 -10 -22 -22t-8 -23q0 -27 17.5 -46t42.5 -19v0zM252 335q18 9 29 23.5t11 31.5q0 19 -13.5 35.5t-36.5 24.5h-75q28 -20 50 -49.5t35 -65.5v0z" />
    <glyph glyph-name="Ecircumflex" unicode="&#xca;" horiz-adv-x="322" 
d="M64 115q0 33 17 63.5t48 51.5q-35 6 -57.5 28.5t-22.5 51.5q0 38 22.5 75t62.5 65h-144v50h319q0 27 -20.5 46t-49.5 19q-24 0 -72.5 -5t-72.5 -5q-35 0 -60 25t-25 60q0 22 8 41.5t22 33.5l45 -25q-10 -12 -15 -22t-5 -18q0 -17 9 -28.5t21 -11.5q24 0 72.5 5t72.5 5
q54 0 92 -35t38 -85h104v-50h-144q15 -17 22.5 -38t7.5 -42q0 -42 -38.5 -82t-101.5 -63q-41 -19 -65.5 -47.5t-24.5 -57.5q0 -33 36.5 -56.5t88.5 -23.5q42 0 73.5 16.5t41.5 43.5q-19 0 -32 13t-13 32t17.5 32t42.5 13q23 0 39 -17.5t16 -42.5q0 -58 -52.5 -99t-127.5 -41
q-81 0 -138 36.5t-57 88.5v0zM174 265q9 0 20.5 4t24.5 11q-6 36 -26 64t-49 41q-17 -14 -26 -29.5t-9 -30.5q0 -25 19 -42.5t46 -17.5v0zM259 305q19 11 29.5 28.5t10.5 36.5q0 24 -10.5 45.5t-29.5 34.5h-35q-10 -1 -22 -8.5t-23 -21.5q25 -17 45.5 -46.5t34.5 -68.5v0z
" />
    <glyph glyph-name="Edieresis" unicode="&#xcb;" horiz-adv-x="354" 
d="M242 -10q-77 0 -131 67.5t-54 162.5l25 2q-14 8 -22 23.5t-8 34.5q0 22 20 60t20 60q0 12 -4 24.5t-11 25.5h-87v50h272q-50 50 -77.5 98.5t-27.5 86.5q0 17 9 34t26 31l45 -20q-10 -8 -15 -22.5t-5 -32.5q0 -34 27.5 -79.5t77.5 -95.5h183v-50h-153q46 -66 70.5 -129
t24.5 -116q0 -89 -60 -152t-145 -63v0zM242 45q60 0 102.5 47t42.5 113q0 41 -15.5 84.5t-44.5 85.5q7 -79 -55.5 -137t-154.5 -58q0 -56 36.5 -95.5t88.5 -39.5v0zM152 240q23 0 46 13t39 37l-95 80q-6 -34 -15 -45q-10 -12 -15 -23.5t-5 -21.5q0 -17 13 -28.5t32 -11.5v0z
M262 325q10 17 15 37.5t5 42.5q0 12 -2.5 23t-7.5 22h-145l135 -125v0z" />
    <glyph glyph-name="Igrave" unicode="&#xcc;" horiz-adv-x="517" 
d="M295 0q-19 72 -81.5 123.5t-148.5 66.5l-50 55l130 110l-105 95h-50v50h365v-70q26 38 60.5 59t69.5 21q50 0 85 -32t35 -78q0 -28 -13 -54t-37 -46q24 -16 37 -41.5t13 -53.5q0 -54 -32 -92t-78 -38q-33 0 -69.5 22.5t-70.5 62.5v-160h-60v0zM495 135q23 0 39 19t16 46
q0 18 -8 34t-22 26q-14 -10 -27 -15t-23 -5q-21 0 -35.5 14.5t-14.5 35.5q0 23 16 39t39 16q14 0 35 -10q16 9 25.5 24t9.5 31q0 27 -16 46t-39 19q-42 0 -79 -31.5t-56 -83.5v-100q35 -49 72 -77t68 -28v0zM295 110v115l-110 90l-90 -75q65 -17 116.5 -50.5t83.5 -79.5v0z
M295 290v160h-180l180 -160v0z" />
    <glyph glyph-name="Iacute" unicode="&#xcd;" horiz-adv-x="414" 
d="M-10 450v50h434v-50h-76q9 -7 14.5 -22.5t5.5 -37.5q0 -48 -55.5 -81.5t-134.5 -33.5q-54 0 -92 28t-38 67q0 28 8 49t22 31h-88v0zM178 320q14 0 25 2.5t20 7.5q-20 35 -80 95q-16 -9 -25.5 -24t-9.5 -31q0 -21 20.5 -35.5t49.5 -14.5v0zM273 340q21 10 33 23.5t12 26.5
q0 23 -17.5 39t-42.5 16q-29 0 -44.5 -2t-20.5 -8q20 -9 80 -95v0z" />
    <glyph glyph-name="Icircumflex" unicode="&#xce;" horiz-adv-x="505" 
d="M365 0v255q-16 19 -33 29.5t-32 10.5q-18 0 -38.5 -20.5t-36.5 -54.5q-18 -39 -46.5 -62t-58.5 -23q-40 0 -70.5 31.5t-34.5 78.5l55 10q2 -25 16.5 -42.5t33.5 -17.5q15 0 35.5 24.5t39.5 65.5q-23 64 -53 107t-62 58h-90v50h525v-50h-90v-450h-60v0zM245 330
q10 10 25.5 15t34.5 5q12 0 27.5 -7.5t32.5 -22.5v130h-200q26 -22 46 -52.5t34 -67.5v0z" />
    <glyph glyph-name="Idieresis" unicode="&#xcf;" horiz-adv-x="634" 
d="M494 -50q-36 51 -93.5 82.5t-126.5 37.5v60q54 0 92 29.5t38 70.5q0 12 -4.5 21t-10.5 9q-9 0 -55 -55q-18 -21 -39 -33t-41 -12q-35 0 -60 23.5t-25 56.5q0 23 17.5 39t42.5 16q17 0 28.5 -14.5t11.5 -35.5q0 -11 -5 -25q16 9 28.5 21.5t21.5 28.5q13 23 33.5 36.5
t41.5 13.5q31 0 53 -28t22 -67q0 -42 -24.5 -76t-65.5 -49q30 -5 61 -26t59 -54v540h60v-60h90v-50h-90v-500h-60v0zM109 295q-39 0 -67 28t-28 67l60 10q0 -21 10.5 -35.5t24.5 -14.5q17 0 28.5 14.5t11.5 35.5t-9 35.5t-21 14.5h-129v50h349q39 0 67 -25t28 -60
q0 -39 -29.5 -67t-70.5 -28q-36 0 -69 18.5t-56 51.5q0 -39 -29.5 -67t-70.5 -28v0zM334 375q17 0 28.5 13t11.5 32q0 12 -7.5 21t-17.5 9h-125q25 -35 54 -55t56 -20v0z" />
    <glyph glyph-name="Eth" unicode="&#xd0;" horiz-adv-x="556" 
d="M359 80v190q-12 10 -27 15t-33 5q-31 0 -54.5 -15.5t-30.5 -39.5q-7 -41 -35.5 -68t-65.5 -27q-30 0 -57 24.5t-42 65.5l55 30q7 -27 21 -43.5t29 -16.5q8 0 18 12.5t17 32.5q1 17 13 35t32 35q-27 46 -58.5 80.5t-66.5 54.5h-84v50h509q19 13 29.5 30.5t10.5 34.5
q0 23 -16 39t-39 16h-140q-31 0 -53 22t-22 53q0 16 6.5 30.5t18.5 24.5l50 -20q-7 -9 -11 -16.5t-4 -13.5q0 -12 10.5 -21t24.5 -9h135q41 0 70.5 -26.5t29.5 -63.5q0 -21 -7.5 -42t-22.5 -38h138v-50h-288v-370q0 -17 11.5 -28.5t28.5 -11.5q38 0 89 66t51 114
q-25 0 -42.5 14.5t-17.5 35.5t14.5 35.5t35.5 14.5q31 0 53 -25t22 -60q0 -81 -70.5 -163t-139.5 -82q-39 0 -67 26.5t-28 63.5v0zM294 350q17 0 34 -8t31 -22v130h-195q27 -23 48.5 -51t36.5 -59q9 5 20 7.5t25 2.5v0z" />
    <glyph glyph-name="Ntilde" unicode="&#xd1;" horiz-adv-x="415" 
d="M-10 450v50h435v-50h-46q7 -13 11 -25.5t4 -24.5q0 -43 -29.5 -74t-70.5 -31q-33 0 -61.5 19t-43.5 51q-15 -32 -40.5 -51t-54.5 -19q-27 0 -49.5 19.5t-30.5 50.5l35 35q7 -20 19.5 -32.5t25.5 -12.5q24 0 42.5 27.5t22.5 67.5h-169v0zM294 355q17 0 28.5 13t11.5 32
q0 16 -4 28.5t-11 21.5h-110q7 -41 31 -68t54 -27v0z" />
    <glyph glyph-name="Ograve" unicode="&#xd2;" horiz-adv-x="390" 
d="M371 -105q-55 95 -142 150t-183 55l-20 65l35 -5q89 0 152 31t63 74q0 29 -25 49.5t-60 20.5q-6 -35 -31.5 -57.5t-58.5 -22.5q-27 0 -46 17.5t-19 42.5q0 23 23.5 44t61.5 31q-2 19 -8.5 34.5t-16.5 25.5h-106v50h410v-50h-229q14 -23 20 -60q62 -5 103.5 -39.5
t41.5 -80.5q0 -53 -38 -94t-97 -51q64 -23 121 -74.5t99 -125.5l-50 -30v0z" />
    <glyph glyph-name="Oacute" unicode="&#xd3;" horiz-adv-x="448" 
d="M433 -105q-13 28 -41 57t-69 58v-100h-60v25q0 12 -9 21t-21 9q-14 0 -24.5 -10.5t-10.5 -24.5h-60q0 23 -13 39t-32 16q-21 0 -35.5 -13t-14.5 -32v-10q6 5 13.5 7.5t16.5 2.5q14 0 24.5 -10.5t10.5 -24.5q0 -19 -16 -32t-39 -13q-29 0 -49.5 23.5t-20.5 56.5
q0 41 32 70.5t78 29.5q26 0 49 -13.5t36 -36.5q6 14 20 22t30 8t28 -5.5t17 -14.5v50q-34 20 -77.5 30t-92.5 10l5 60h55q70 0 120 29.5t50 70.5q0 35 -22 60t-53 25q-8 -31 -32 -50.5t-53 -19.5q-25 0 -42.5 16t-17.5 39t25 43.5t65 31.5q0 12 -30 55h-183v50h468v-50h-215
q10 -14 15 -28t5 -27q55 -5 92.5 -46.5t37.5 -98.5q0 -52 -40.5 -91t-99.5 -44q74 -27 133 -76t97 -114l-50 -30v0z" />
    <glyph glyph-name="Ocircumflex" unicode="&#xd4;" horiz-adv-x="367" 
d="M201 -170q-21 25 -53.5 41t-71.5 19l-25 45q35 42 70.5 70t69.5 40q-30 17 -61.5 26t-63.5 9l-25 60l35 -5q75 0 127.5 33.5t52.5 81.5q0 33 -26.5 56.5t-63.5 23.5q-6 -35 -28.5 -57.5t-51.5 -22.5q-25 0 -42.5 13t-17.5 32q0 32 25.5 57.5t64.5 32.5q-6 24 -16.5 41
t-23.5 24h-86v50h387v-50h-231q11 -11 18.5 -27.5t11.5 -37.5q59 -5 99.5 -44t40.5 -91q0 -48 -37.5 -88.5t-97.5 -56.5q66 -24 125 -71.5t105 -113.5l-50 -30q-11 29 -95 100v-160h-65v0zM211 -120v120q-30 -14 -53 -32t-37 -38q82 -38 90 -50v0z" />
    <glyph glyph-name="Otilde" unicode="&#xd5;" horiz-adv-x="488" 
d="M351 0q-13 50 -42.5 85t-67.5 45q-10 -14 -24.5 -22t-30.5 -8q-25 0 -42.5 16t-17.5 39q0 29 26 45t56 5q-8 43 -25.5 74.5t-41.5 45.5q-8 -23 -24.5 -36.5t-35.5 -13.5q-25 0 -42.5 16t-17.5 39t17.5 39t42.5 16q-10 26 -28.5 43.5t-41.5 21.5h-21v50h649v-50h-228v-70
q6 5 17.5 7.5t27.5 2.5q43 0 74 -39.5t31 -95.5q0 -23 -7.5 -67.5t-7.5 -67.5q0 -26 13.5 -49t36.5 -36l-40 -40q-32 15 -51 47.5t-19 72.5q0 24 7.5 70t7.5 70q0 33 -14.5 56.5t-35.5 23.5q-13 0 -23.5 -4t-16.5 -11v-320h-60v0zM351 110v220q-17 -10 -36 -15t-39 -5
q-41 0 -55 5q19 -23 29.5 -58t10.5 -77q27 -10 50 -28t40 -42v0zM266 360q29 0 51 6.5t34 18.5v65h-250q29 -34 40 -65q21 -12 53 -18.5t72 -6.5v0z" />
    <glyph glyph-name="Odieresis" unicode="&#xd6;" horiz-adv-x="401" 
d="M228 -80q-27 32 -55 51t-55 24q11 -23 -5.5 -44t-44.5 -21q-19 0 -32 16t-13 39q0 27 22 46t53 19q34 0 67.5 -15.5t62.5 -44.5v55q-31 22 -62 33.5t-58 11.5h-25l-30 65q57 -10 80 -10q60 0 102.5 31t42.5 74q0 35 -26.5 60t-63.5 25q0 -31 -23.5 -53t-56.5 -22
q-25 0 -42.5 17.5t-17.5 42.5q0 26 25.5 47t64.5 28q0 10 -5 24t-15 31h-128v50h421v-50h-228q19 -40 20 -55q56 0 95.5 -42.5t39.5 -102.5q0 -52 -28 -91.5t-72 -48.5q49 -19 100.5 -65t99.5 -115l-45 -35q-46 65 -105 115v-90h-60v0z" />
    <glyph glyph-name="multiply" unicode="&#xd7;" horiz-adv-x="483" 
d="M444 -70q-64 76 -150.5 118t-179.5 42v60h55q81 0 138 48.5t57 116.5q0 21 -11.5 35.5t-28.5 14.5q-23 0 -39 -19t-16 -46h-60q0 27 -19 46t-46 19q-25 0 -42.5 -10.5t-17.5 -24.5q0 -10 2.5 -17.5t7.5 -12.5q15 27 45 21t30 -36q0 -19 -16 -32t-39 -13q-37 0 -63.5 26.5
t-26.5 63.5q0 39 33.5 67t81.5 28q36 0 63.5 -15t36.5 -40q9 25 32.5 40t52.5 15q41 0 70.5 -33.5t29.5 -81.5q0 -64 -40 -117.5t-105 -77.5q56 -15 109.5 -52t100.5 -93l-45 -40v0zM-10 450v50h503v-50h-503v0z" />
    <glyph glyph-name="Oslash" unicode="&#xd8;" 
d="M241 -140q-21 0 -35.5 14.5t-14.5 35.5t16 35.5t39 14.5q19 0 32 -13t13 -32q0 -23 -14.5 -39t-35.5 -16v0z" />
    <glyph glyph-name="Ugrave" unicode="&#xd9;" horiz-adv-x="518" 
d="M378 0v130q0 10 -6 17.5t-14 7.5q-32 0 -84 -41.5t-116 -118.5l-50 35q6 11 35 45q2 2 3.5 7t1.5 13q0 17 -11.5 28.5t-28.5 11.5q-10 0 -25 -15t-25 -15q-12 0 -21 9t-9 21q0 19 28.5 48.5t81.5 66.5l-25 25l35 35q10 17 10 20q0 19 -14.5 32t-35.5 13q-9 0 -22.5 -12.5
t-22.5 -12.5q-12 0 -21 9t-9 21q0 38 73 84t132 46q38 0 74.5 -15.5t65.5 -44.5v110h60v-60h90v-50h-90v-450h-60v0zM188 105q38 38 68.5 59.5t51.5 25.5q-10 14 -30 22t-45 8q-26 0 -52 -11.5t-48 -33.5q24 -4 39.5 -24t15.5 -46v0zM198 360q25 25 51.5 42.5t53.5 27.5
q-17 15 -32.5 22.5t-27.5 7.5q-23 0 -47.5 -10.5t-47.5 -29.5q14 -6 26.5 -21.5t23.5 -38.5v0zM378 195v175q0 10 -4.5 17.5t-10.5 7.5q-27 0 -73 -32t-107 -93h40q32 0 72 -19.5t83 -55.5v0z" />
    <glyph glyph-name="Uacute" unicode="&#xda;" horiz-adv-x="436" 
d="M296 0q-23 63 -87.5 108.5t-152.5 61.5l-40 60l145 115l-120 105h-51v50h456v-50h-90v-450h-60v0zM296 100v350h-170l120 -110l-150 -120q69 -12 121.5 -43.5t78.5 -76.5v0zM146 0q-19 0 -32 13t-13 32t14.5 32t35.5 13q17 0 28.5 -11.5t11.5 -28.5q0 -21 -13 -35.5
t-32 -14.5v0z" />
    <glyph glyph-name="Ucircumflex" unicode="&#xdb;" horiz-adv-x="500" 
d="M380 0q-7 40 -39 73.5t-81 51.5q-5 -18 -19 -29t-31 -11q-25 0 -42.5 16t-17.5 39t20.5 39t49.5 16q7 37 -15 67.5t-60 37.5q0 -25 -17.5 -42.5t-42.5 -17.5t-42.5 17.5t-17.5 42.5q0 21 17 38t43 22q-9 32 -26 56t-39 34h-30v50h661v-50h-211v-95q72 0 123.5 -36.5
t51.5 -88.5q0 -35 -20.5 -60t-49.5 -25q-21 0 -35.5 13t-14.5 32q0 14 10.5 24.5t24.5 10.5q10 0 16.5 -1.5t8.5 -3.5q16 28 -22 56.5t-93 28.5v-305h-60v0zM380 100v205q-68 0 -116.5 42.5t-48.5 102.5h-125q18 -10 31 -34t19 -56q74 -6 116 -63.5t19 -121.5
q35 -9 62.5 -28.5t42.5 -46.5v0zM380 355v95h-105q0 -39 31 -67t74 -28v0z" />
    <glyph glyph-name="Udieresis" unicode="&#xdc;" horiz-adv-x="673" 
d="M533 -10q-16 45 -61.5 72.5t-103.5 27.5q0 -19 -14.5 -32t-35.5 -13q-25 0 -42.5 17.5t-17.5 42.5q0 23 19 39t46 16q-5 27 -23 46.5t-42 23.5q0 -19 -16 -32t-39 -13t-39 16t-16 39q0 22 18.5 35.5t41.5 9.5q-2 23 -23.5 39t-51.5 16q0 -23 -17.5 -39t-42.5 -16
q-23 0 -39 16t-16 39t20.5 39t49.5 16q0 11 -4 25t-11 30h-83v50h693v-50h-90v-460h-60v0zM533 80v370h-160v-60h35q37 0 63.5 -22t26.5 -53t-17.5 -53t-42.5 -22q-19 0 -32 10.5t-13 24.5q0 12 10.5 21t24.5 9q2 0 6 -2.5t9 -7.5q5 5 7.5 10t2.5 10q0 14 -11.5 24.5
t-28.5 10.5h-40v-195q59 -10 100.5 -29.5t59.5 -45.5v0zM323 245v105h-25q-35 0 -60 26.5t-25 63.5v10h-85q10 -27 10 -60q45 -4 78.5 -34t41.5 -73q21 -4 38 -13.5t27 -24.5v0zM298 390h25v60h-60v-20q0 -17 10.5 -28.5t24.5 -11.5v0z" />
    <glyph glyph-name="Yacute" unicode="&#xdd;" horiz-adv-x="473" 
d="M353 -50q-28 33 -64.5 51.5t-75.5 18.5q20 -24 4 -52t-49 -28q-25 0 -42.5 17.5t-17.5 42.5q0 31 28 53t67 22q38 0 76.5 -15.5t73.5 -44.5q-9 51 -39 87.5t-71 47.5q-6 -14 -21 -22t-34 -8q-23 0 -39 16t-16 39q0 24 18.5 39t41.5 11q6 34 -11.5 63t-48.5 37
q0 -19 -17.5 -32t-42.5 -13q-21 0 -35.5 14.5t-14.5 35.5q0 20 12.5 36t32.5 19q-7 19 -17 35.5t-23 29.5h-38v50h634v-50h-211v-90q72 0 123.5 -39.5t51.5 -95.5q0 -31 -19 -53t-46 -22q-21 0 -35.5 13t-14.5 32q0 23 20 35t40 0q0 33 -35 56.5t-85 23.5v-360h-60v0z
M353 125v185q-65 6 -110 45.5t-50 94.5h-100q12 -17 19.5 -33.5t10.5 -31.5q65 -11 103 -64t27 -116q34 -9 60.5 -30t39.5 -50v0zM353 365v85h-100q0 -32 29 -56.5t71 -28.5v0z" />
    <glyph glyph-name="Thorn" unicode="&#xde;" horiz-adv-x="411" 
d="M271 0q-16 44 -56 75t-94 40l-35 45q35 41 82.5 68t102.5 37q-15 33 -55 56.5t-95 33.5q19 -27 5 -56t-45 -29q-25 0 -42.5 19t-17.5 46q0 31 26.5 53t63.5 22q48 0 90 -18.5t70 -51.5v110h-281v50h431v-50h-90v-450h-60v0zM271 90v120q-33 -6 -59 -19t-41 -31
q26 -7 51.5 -25t48.5 -45v0z" />
    <glyph glyph-name="germandbls" unicode="&#xdf;" horiz-adv-x="475" 
d="M335 0q-20 35 -53.5 55t-71.5 20q-51 0 -150 -30t-150 -30q-56 0 -95.5 36.5t-39.5 88.5q0 17 4 32t11 28l55 -15q-5 -9 -7.5 -20t-2.5 -25q0 -31 22 -53t53 -22q51 0 150 30t150 30q35 0 68 -15.5t57 -44.5v270q-40 40 -55 40q-30 0 -74 -47t-91 -128l-40 30q7 12 30 45
q5 11 5 35q0 23 -16 39t-39 16q-14 0 -32.5 -20t-32.5 -20q-12 0 -21 9t-9 21q0 10 10.5 25.5t29.5 34.5q46 46 87.5 70.5t72.5 24.5q43 0 89 -26t86 -74v150h60v-60h90v-50h-90v-450h-60v0zM155 340q19 28 42 48t48 32q-16 19 -37 29.5t-43 10.5q-21 0 -44.5 -14.5
t-45.5 -40.5q33 0 56.5 -19t23.5 -46v0z" />
    <glyph glyph-name="agrave" unicode="&#xe0;" horiz-adv-x="223" 
d="M83 0v335q-4 49 -23 82t-42 33h-28v50h28q17 0 35 -20.5t30 -54.5v135h60v-60h90v-50h-90v-450h-60v0z" />
    <glyph glyph-name="aacute" unicode="&#xe1;" horiz-adv-x="452" 
d="M444 -115q-35 75 -109.5 120t-165.5 45q-26 0 -37.5 -1t-17.5 -4l-20 70q9 -2 23 -3.5t32 -1.5q79 0 134.5 50t55.5 120q0 17 -10.5 28.5t-24.5 11.5q-18 0 -35.5 -12t-29.5 -33q-21 -46 -52.5 -73t-62.5 -27t-53 23.5t-22 56.5v195h-59v50h472v-50h-353l120 -95
q14 12 33.5 18.5t41.5 6.5q39 0 67 -29.5t28 -70.5q0 -60 -34 -111.5t-91 -78.5q73 -19 130.5 -68t89.5 -117l-50 -20v0zM119 235q11 0 21.5 6.5t18.5 18.5l35 50l-85 60v-115q0 -8 3 -14t7 -6v0z" />
    <glyph glyph-name="acircumflex" unicode="&#xe2;" horiz-adv-x="530" 
d="M221 315q0 46 36.5 78t88.5 32q62 0 106 -44t44 -106q0 -66 -57 -113t-138 -47q-101 0 -180 76.5t-100 193.5l55 15q7 -85 78 -157.5t147 -72.5q56 0 95.5 32t39.5 78q0 37 -26.5 63.5t-63.5 26.5q-21 0 -36.5 -10t-18.5 -25q20 3 35 -10.5t15 -34.5q0 -19 -14.5 -32
t-35.5 -13q-29 0 -49.5 20.5t-20.5 49.5v0zM-10 450v50h550v-50h-550v0z" />
    <glyph glyph-name="atilde" unicode="&#xe3;" horiz-adv-x="220" 
d="M80 0v450h-90v50h90q-7 85 -85 142.5t-185 57.5q-50 0 -85 -19t-35 -46q0 -14 9.5 -23.5t22.5 -9.5q19 0 56.5 4t56.5 4q37 0 63.5 -28t26.5 -67h-65q0 16 -10.5 27t-24.5 11q-18 0 -52.5 -4t-52.5 -4q-41 0 -70.5 25t-29.5 60q0 54 54.5 87t145.5 33q127 0 219 -72
t101 -178h90v-50h-90v-450h-60v0z" />
    <glyph glyph-name="adieresis" unicode="&#xe4;" horiz-adv-x="555" 
d="M473 -125q-39 39 -81 58.5t-79 16.5l-35 50q31 44 69 77t81 53q0 27 5 55t15 55q-33 -15 -63 -44.5t-53 -70.5l-74 25q-9 50 -4 97.5t24 87.5q-49 -28 -88.5 -73t-66.5 -102l-75 35v255h-58v50h575v-50h-457v-205q30 52 72.5 91.5t92.5 63.5l75 -40q-15 -26 -22.5 -60
t-7.5 -75v-25q15 26 48 54t82 56l65 -40q-25 -69 -25 -160q0 -56 12.5 -106.5t37.5 -93.5l-65 -35v0zM468 -60q-15 32 -22.5 62.5t-7.5 57.5v10q-26 -12 -47.5 -30t-37.5 -40q37 -10 66 -25t49 -35v0z" />
    <glyph glyph-name="aring" unicode="&#xe5;" 
d="M-20 -235q-16 35 -40.5 64.5t-54.5 50.5q-13 -23 -37.5 -36.5t-52.5 -13.5q-37 0 -63.5 22t-26.5 53t26.5 53t63.5 22q12 0 27.5 -5t32.5 -15l5 45h60q0 -53 -10 -80q38 -27 68.5 -64t51.5 -81l-50 -15v0zM-205 -120q15 0 28.5 8t21.5 22q-12 10 -23.5 15t-21.5 5
q-17 0 -28.5 -7.5t-11.5 -17.5t10.5 -17.5t24.5 -7.5v0z" />
    <glyph glyph-name="ae" unicode="&#xe6;" 
d="M-20 -285q-16 35 -40.5 64.5t-54.5 50.5q-13 -23 -37.5 -36.5t-52.5 -13.5q-37 0 -63.5 22t-26.5 53t26.5 53t63.5 22q12 0 27.5 -5t32.5 -15l5 45h60q0 -53 -10 -80q38 -27 68.5 -64t51.5 -81l-50 -15v0zM-205 -170q15 0 28.5 8t21.5 22q-12 10 -23.5 15t-21.5 5
q-17 0 -28.5 -7.5t-11.5 -17.5t10.5 -17.5t24.5 -7.5v0z" />
    <glyph glyph-name="ccedilla" unicode="&#xe7;" horiz-adv-x="10" 
d="M-37 340q0 21 17.5 35.5t42.5 14.5q41 0 70.5 -33.5t29.5 -81.5q0 -41 -33.5 -70.5t-81.5 -29.5q-24 0 -50.5 13t-50.5 37v80q12 -34 38.5 -54.5t57.5 -20.5q27 0 46 13t19 32q0 14 -7 25t-18 15q-4 -9 -13.5 -14.5t-21.5 -5.5q-19 0 -32 13t-13 32v0zM-105 450v50h266
v-50h-266v0z" />
    <glyph glyph-name="egrave" unicode="&#xe8;" 
d="M-140 10h60v-75h-60q-21 0 -35.5 -14.5t-14.5 -35.5q0 -19 11.5 -32t28.5 -13q20 0 34 7t16 18h50l170 -75l-25 -40l-160 70q-12 -14 -33 -22t-47 -8q-43 0 -74 29.5t-31 70.5q0 43 33.5 70.5t76.5 19.5v30v0z" />
    <glyph glyph-name="eacute" unicode="&#xe9;" 
d="M-140 -40h60v-75h-60q-21 0 -35.5 -14.5t-14.5 -35.5q0 -19 11.5 -32t28.5 -13q20 0 34 7t16 18h50l170 -75l-25 -40l-160 70q-12 -14 -33 -22t-47 -8q-43 0 -74 29.5t-31 70.5q0 43 33.5 70.5t76.5 19.5v30v0z" />
    <glyph glyph-name="ecircumflex" unicode="&#xea;" horiz-adv-x="9" 
d="M13 115q0 24 7.5 72.5t7.5 72.5q0 12 -9 21t-21 9q-28 0 -52.5 -17.5t-38.5 -47.5v75q20 24 45 37t51 13q35 0 60 -29.5t25 -70.5q0 -23 -7.5 -67.5t-7.5 -67.5q0 -22 13 -37.5t32 -17.5l-35 -40q-30 5 -50 32t-20 63v0zM-105 450v50h265v-50h-265v0z" />
    <glyph glyph-name="edieresis" unicode="&#xeb;" horiz-adv-x="301" 
d="M51 170q0 99 45 186.5t125 143.5h90v-50h-60q-66 -46 -103 -119t-37 -156q0 -49 19.5 -85.5t50.5 -44.5q-12 26 4 50.5t46 24.5q21 0 35.5 -16t14.5 -39q0 -31 -23.5 -53t-56.5 -22q-62 0 -106 52.5t-44 127.5v0z" />
    <glyph glyph-name="igrave" unicode="&#xec;" horiz-adv-x="299" 
d="M-10 450v50h319v-50h-61q-67 -67 -103.5 -138.5t-36.5 -136.5q0 -49 19.5 -85.5t50.5 -44.5q-12 26 4 50.5t46 24.5q21 0 35.5 -16t14.5 -39q0 -31 -23.5 -53t-56.5 -22q-62 0 -106 52.5t-44 127.5q0 72 34 145t96 135h-188v0z" />
    <glyph glyph-name="iacute" unicode="&#xed;" horiz-adv-x="307" 
d="M2 635q0 24 8 43.5t22 31.5l50 -20q-10 -10 -15 -24t-5 -31q0 -14 16 -24.5t39 -10.5h90q35 0 60 -20.5t25 -49.5q0 -6 -2.5 -13.5t-7.5 -16.5h35v-50h-65q-70 -70 -107.5 -141.5t-37.5 -133.5q0 -47 25 -83t65 -47q-17 24 -1.5 49.5t46.5 25.5q19 0 32 -16t13 -39
q0 -29 -23.5 -49.5t-56.5 -20.5q-66 0 -113 52.5t-47 127.5q0 85 46 170t129 155q5 6 7.5 12.5t2.5 12.5q0 10 -10.5 17.5t-24.5 7.5h-95q-41 0 -70.5 25t-29.5 60v0z" />
    <glyph glyph-name="icircumflex" unicode="&#xee;" horiz-adv-x="306" 
d="M-10 500h231q5 6 7.5 12.5t2.5 12.5q0 10 -10.5 17.5t-24.5 7.5h-95q-41 0 -70.5 25t-29.5 60q0 24 8 43.5t22 31.5l50 -20q-10 -10 -15 -24t-5 -31q0 -14 16 -24.5t39 -10.5h90q35 0 60 -20.5t25 -49.5q0 -6 -2.5 -13.5t-7.5 -16.5h35v-50h-65q-70 -70 -107.5 -141.5
t-37.5 -133.5q0 -47 25 -83t65 -47q-17 24 -1.5 49.5t46.5 25.5q19 0 32 -16t13 -39q0 -29 -23.5 -49.5t-56.5 -20.5q-66 0 -113 52.5t-47 127.5q0 70 34 141.5t96 133.5h-186v50v0z" />
    <glyph glyph-name="idieresis" unicode="&#xef;" horiz-adv-x="220" 
d="M80 0v450h-90v50h90q0 29 -33.5 49.5t-81.5 20.5q-24 0 -70 -7.5t-70 -7.5q-54 0 -92 32t-38 78q0 12 4 23.5t11 21.5l50 -10q-5 -28 -5 -35q0 -23 20.5 -39t49.5 -16q24 0 72.5 7.5t72.5 7.5q70 0 120 -36.5t50 -88.5h90v-50h-90v-450h-60v0z" />
    <glyph glyph-name="eth" unicode="&#xf0;" horiz-adv-x="800" 
d="M234 145q-87 0 -148.5 67.5t-61.5 162.5l50 5q0 -75 45.5 -127.5t109.5 -52.5q35 0 60 17.5t25 42.5q0 10 -9 17.5t-21 7.5q-9 0 -25 -5t-25 -5q-39 0 -67 25t-28 60q0 24 10.5 47.5t29.5 42.5h-189v50h820v-50h-521q13 -28 52 -46.5t93 -23.5q17 20 32 32.5t28 17.5
l45 -15q15 -41 63.5 -63t111.5 -17l40 -60q-33 -71 -31.5 -145t36.5 -135h-60q-32 69 -36 143t21 142q-53 -5 -102.5 19.5t-82.5 70.5q-19 -11 -29.5 -29.5t-10.5 -40.5q0 -14 7.5 -24.5t17.5 -10.5t30 7.5t30 7.5q39 0 67 -25t28 -60q0 -48 -41 -81.5t-99 -33.5
q-49 0 -95 22.5t-80 62.5q-17 -10 -40 -15t-50 -5v0zM499 135q33 0 56.5 17.5t23.5 42.5q0 12 -9 21t-21 9q-11 0 -32.5 -7.5t-32.5 -7.5q-33 0 -56.5 25t-23.5 60q0 26 5 40q-55 5 -101 30t-74 65q-16 -12 -25.5 -29t-9.5 -36q0 -14 9 -24.5t21 -10.5q9 0 27.5 5t27.5 5
q37 0 63.5 -25t26.5 -60q0 -14 -2.5 -25t-7.5 -20q20 -35 56 -55t79 -20v0z" />
    <glyph glyph-name="ntilde" unicode="&#xf1;" 
d="M-175 -65q-95 8 -173.5 89t-111.5 206l50 20q30 -113 95.5 -184t139.5 -71q35 0 60 16t25 39q0 17 -6.5 30t-18.5 20q-10 -7 -22.5 -10.5t-27.5 -3.5q-21 0 -35.5 14.5t-14.5 34.5q0 21 19 35.5t46 14.5q9 0 30 -10q9 7 14.5 18.5t5.5 26.5q0 21 -26.5 35.5t-63.5 14.5
q-32 0 -55.5 -11.5t-24.5 -28.5q19 5 34.5 -6t15.5 -29q0 -17 -14.5 -28.5t-35.5 -11.5q-25 0 -42.5 17.5t-17.5 42.5q0 48 41 81.5t99 33.5q62 0 106 -32t44 -78q0 -26 -9.5 -47t-25.5 -33q21 -18 33 -41.5t12 -48.5q0 -48 -42.5 -81.5t-102.5 -33.5v0z" />
    <glyph glyph-name="ograve" unicode="&#xf2;" 
d="M-110 570q-63 0 -109.5 34.5t-50.5 85.5l55 15q6 -36 36 -59.5t69 -23.5q40 0 69.5 23.5t35.5 59.5l55 -15q-4 -51 -50.5 -85.5t-109.5 -34.5v0zM-110 650q-17 0 -28.5 11t-11.5 27q0 17 12.5 29.5t30.5 12.5q15 0 26 -11.5t11 -28.5t-11.5 -28.5t-28.5 -11.5v0z" />
    <glyph glyph-name="oacute" unicode="&#xf3;" horiz-adv-x="425" 
d="M-10 450v50h586v-50h-441l100 -95l-140 -125q50 -9 99.5 -45.5t90.5 -94.5v300h95q60 0 102.5 -38t42.5 -92q0 -29 -17.5 -49.5t-42.5 -20.5t-42.5 14.5t-17.5 35.5q0 25 14.5 42.5t35.5 17.5q0 14 -19 24.5t-46 10.5h-45v-335h-60q-46 79 -108 126.5t-127 53.5l-35 55
l140 120l-100 95h-65v0z" />
    <glyph glyph-name="ocircumflex" unicode="&#xf4;" 
d="M55 -240l-205 210l40 35l205 -215l-40 -30v0z" />
    <glyph glyph-name="otilde" unicode="&#xf5;" 
d="M-50 -250l-170 145l110 105l40 -30l-75 -70l135 -120l-40 -30v0z" />
    <glyph glyph-name="odieresis" unicode="&#xf6;" 
d="M-140 -160q-5 26 -27.5 43t-52.5 17q-26 0 -75 -15t-75 -15q-64 0 -109.5 52.5t-45.5 127.5h55q0 -50 29.5 -85t70.5 -35q25 0 72.5 15t72.5 15q21 0 43 -9t42 -26v210l60 40v-335h-60v0z" />
    <glyph glyph-name="divide" unicode="&#xf7;" 
d="M-140 -10q-5 26 -27.5 43t-52.5 17q-26 0 -75 -15t-75 -15q-50 0 -85 33.5t-35 81.5v30h60v-30q0 -23 17.5 -39t42.5 -16t72.5 15t72.5 15q21 0 43 -9t42 -26v285h60v-370h-60v0z" />
    <glyph glyph-name="oslash" unicode="&#xf8;" 
d="M-480 135h60q0 -31 17.5 -53t42.5 -22q22 0 62.5 17.5t62.5 17.5q48 0 81.5 -12t43.5 -33v-55q-12 21 -45.5 33t-79.5 12q-22 0 -62.5 -20t-62.5 -20q-50 0 -85 39.5t-35 95.5v0z" />
    <glyph glyph-name="ugrave" unicode="&#xf9;" 
d="M-135 40l50 -30v-150h-50q-10 21 -33 33t-52 12q-25 0 -72.5 -15t-72.5 -15q-50 0 -85 35t-35 85q0 22 6.5 41.5t18.5 33.5l50 -25q-7 -13 -11 -25.5t-4 -24.5q0 -27 17.5 -46t42.5 -19t72.5 15t72.5 15q26 0 48.5 -8t36.5 -22v110v0z" />
    <glyph glyph-name="uacute" unicode="&#xfa;" horiz-adv-x="370" 
d="M230 0v500h60v-500h-60v0z" />
    <glyph glyph-name="ucircumflex" unicode="&#xfb;" 
d="M-25 235q0 14 11.5 24.5t28.5 10.5q14 0 24.5 -9t10.5 -21q7 4 11 13.5t4 21.5q0 19 -16 32t-39 13q-37 0 -66.5 -27t-36.5 -68v95q18 26 45.5 40.5t57.5 14.5q46 0 78 -29.5t32 -70.5q0 -37 -25 -63.5t-60 -26.5q-25 0 -42.5 14.5t-17.5 35.5v0zM-105 450v50h261v-50
h-261v0z" />
    <glyph glyph-name="udieresis" unicode="&#xfc;" 
d="M-500 650q0 23 12 43t33 32l40 -30q-12 -10 -18.5 -22t-6.5 -23q0 -17 16 -28.5t39 -11.5q20 0 60 5t60 5q64 0 109.5 -35t45.5 -85h-60q0 29 -28 49.5t-67 20.5q-22 0 -65 -5t-65 -5q-43 0 -74 26.5t-31 63.5v0z" />
    <glyph glyph-name="yacute" unicode="&#xfd;" 
d="M18 45q0 23 10 60t10 60t-16 39t-39 16q-22 0 -76 -25v55q21 12 40.5 18.5t35.5 6.5q48 0 81.5 -29.5t33.5 -70.5q0 -23 -10 -67.5t-10 -67.5q0 -17 6.5 -34t18.5 -31l-50 -25q-17 17 -26 41.5t-9 53.5v0zM-105 500h253v-50h-253v50v0z" />
    <glyph glyph-name="thorn" unicode="&#xfe;" horiz-adv-x="122" 
d="M2 450v50h120v-50h-120v0z" />
    <glyph glyph-name="ydieresis" unicode="&#xff;" 
 />
    <glyph glyph-name="OE" unicode="&#x152;" horiz-adv-x="585" 
d="M445 -50q-7 25 -35.5 44t-69.5 26q0 -17 -13 -28.5t-32 -11.5q-25 0 -42.5 14.5t-17.5 35.5q0 17 13.5 32t36.5 23q-47 56 -96.5 88.5t-93.5 36.5l-40 70l45 30q-38 32 -59 70t-21 75q0 33 22 56.5t53 23.5q25 0 42.5 -16t17.5 -39q0 -19 -14.5 -32t-35.5 -13
q-11 0 -25 5q0 -22 18.5 -49.5t51.5 -55.5l135 75v40h-50v50h360v-50h-90v-500h-60v0zM445 30v420h-100v-370q30 -5 55.5 -18t44.5 -32v0zM285 160v185l-160 -90q35 -3 76 -27.5t84 -67.5v0z" />
    <glyph glyph-name="oe" unicode="&#x153;" horiz-adv-x="483" 
d="M401 -60q-129 0 -235 124.5t-140 315.5l55 10q30 -171 120.5 -283t199.5 -112q50 0 85 31t35 74q0 14 -8.5 25t-21.5 15q-3 -17 -17 -28.5t-33 -11.5q-23 0 -39 14.5t-16 35.5q0 29 25 46t55 9v190q-4 1 -8.5 3t-6.5 2q-40 0 -93 -43.5t-107 -121.5l-45 35
q9 11 17.5 26.5t12.5 18.5q2 4 3.5 8t1.5 7q0 15 -14 27.5t-31 12.5q-9 0 -22.5 -10t-22.5 -10q-12 0 -21 7.5t-9 17.5q0 46 63.5 93t126.5 47q40 0 80 -15.5t75 -44.5v105h60v-60h108v-50h-108v-260q26 -15 40.5 -40.5t14.5 -54.5q0 -64 -52.5 -109.5t-127.5 -45.5v0z
M276 355q26 31 55.5 51.5t59.5 28.5q-14 12 -33.5 18.5t-41.5 6.5q-27 0 -52 -12t-43 -33q16 0 35.5 -14t19.5 -26v-20v0z" />
    <glyph glyph-name="Scaron" unicode="&#x160;" horiz-adv-x="415" 
d="M-10 450v50h435v-50h-287v-70q15 15 51 28t89 22l65 -45q-42 -90 -42 -121l-42 1q0 67 14 105q-46 -8 -80.5 -25t-54.5 -40l-65 45v100h-83v0z" />
    <glyph glyph-name="scaron" unicode="&#x161;" horiz-adv-x="522" 
d="M382 0v305q-10 18 -24 34.5t-31 30.5l-165 -185l-45 35l50 60q-10 27 -34 45.5t-56 24.5q-6 -14 -17 -22t-23 -8q-8 0 -14 7.5t-6 17.5q0 44 69.5 104.5t120.5 60.5q43 0 89.5 -32t85.5 -88v170h60v-60h90v-50h-90v-450h-60v0zM207 320l80 90q-19 19 -38.5 29.5
t-36.5 10.5q-24 0 -50 -15.5t-50 -44.5q32 -6 57 -24.5t38 -45.5v0z" />
    <glyph glyph-name="Ydieresis" unicode="&#x178;" horiz-adv-x="282" 
d="M17 335q0 42 67.5 93.5t122.5 51.5q41 0 86.5 -23.5t88.5 -66.5v-75q-10 21 -23.5 33t-26.5 12q-33 0 -82 -43.5t-103 -121.5l-45 40q1 2 45 55q0 21 -14.5 35.5t-35.5 14.5q-11 0 -25 -17.5t-25 -17.5q-12 0 -21 9t-9 21v0zM177 330q65 65 95 70q-12 14 -30.5 22
t-39.5 8q-15 0 -75 -50q22 -6 36 -20t14 -30v0z" />
    <glyph glyph-name="florin" unicode="&#x192;" horiz-adv-x="390" 
d="M308 -15q-34 34 -52 79.5t-18 95.5q0 47 7.5 83t22.5 57q-42 -15 -81.5 -48.5t-73.5 -81.5l-65 20v260h-58v50h410v-50h-292v-205q45 54 96.5 87.5t103.5 42.5l45 -40q-27 -32 -41 -74.5t-14 -90.5q0 -46 13 -86t37 -69l-40 -30v0z" />
    <glyph glyph-name="circumflex" unicode="&#x2c6;" horiz-adv-x="551" 
d="M411 -50q-13 49 -45 79.5t-70 30.5q-2 -21 -16.5 -35.5t-33.5 -14.5q-25 0 -42.5 16t-17.5 39q0 18 12.5 32.5t32.5 17.5q-8 30 -8 65q0 33 8.5 65t24.5 60q-40 -14 -76 -48t-64 -82l-70 30v245h-56v50h571v-50h-90v-500h-60v0zM411 45v405h-305v-190q29 42 77 73t108 47
l50 -50q-27 -32 -41 -70.5t-14 -79.5q0 -32 5 -60q34 -3 65.5 -22.5t54.5 -52.5v0z" />
    <glyph glyph-name="lozenge" unicode="&#x2dc;" horiz-adv-x="496" 
d="M361 0q-19 70 -79.5 116.5t-140.5 53.5l-50 55q27 46 98.5 86.5t176.5 68.5q-53 9 -88.5 25t-46.5 35q-26 -38 -62 -59t-73 -21q-35 0 -60 25t-25 60q0 23 17.5 39t42.5 16q17 0 28.5 -10.5t11.5 -24.5t-7.5 -24.5t-17.5 -10.5h-10q0 -8 7.5 -14t17.5 -6q24 0 57 28
t68 77q36 -36 70.5 -58t64.5 -27v70h60v-210q63 -53 90 -100v370h60v-60h76v-50h-76v-370h-60q-15 42 -38 76.5t-52 58.5v-215h-60v0zM361 110v210q-50 -4 -100.5 -30t-94.5 -70q65 -6 116.5 -35t78.5 -75v0z" />
    <glyph glyph-name="endash" unicode="&#x2013;" horiz-adv-x="205" 
d="M20 340q0 29 20.5 49.5t49.5 20.5q64 0 119.5 -18t95.5 -52v-65q-38 38 -86.5 56t-98.5 14q2 -4 3 -8.5t1 -8.5q0 -20 -14.5 -34t-34.5 -14q-23 0 -39 17.5t-16 42.5v0zM-10 500h225v-50h-225v50v0z" />
    <glyph glyph-name="emdash" unicode="&#x2014;" 
d="M-360 0q0 31 26.5 53t63.5 22q42 0 76 -13t54 -37v275h55v-355h-50q-20 35 -56 55t-79 20q24 -20 13 -50t-43 -30q-25 0 -42.5 17.5t-17.5 42.5v0z" />
    <glyph glyph-name="quoteleft" unicode="&#x2018;" horiz-adv-x="290" 
d="M150 405q-29 0 -49.5 23.5t-20.5 56.5q0 50 27 94t73 71l25 -30q-34 -16 -54.5 -47t-20.5 -68q3 5 11 7.5t19 2.5q21 0 35.5 -16t14.5 -39t-17.5 -39t-42.5 -16v0z" />
    <glyph glyph-name="quoteright" unicode="&#x2019;" horiz-adv-x="305" 
d="M115 400l-25 45q35 9 57.5 34.5t22.5 55.5q-3 -5 -12 -7.5t-23 -2.5q-23 0 -39 17.5t-16 42.5q0 23 19 39t46 16q33 0 56.5 -23.5t23.5 -56.5q0 -50 -30 -93.5t-80 -66.5v0z" />
    <glyph glyph-name="quotesinglbase" unicode="&#x201a;" 
d="M-70 -95q-56 56 -126 89.5t-144 40.5l-30 60q10 -4 27.5 -4.5t62.5 -0.5q46 0 78 28t32 67q0 25 -17.5 42.5t-42.5 17.5q-18 0 -33 -9.5t-22 -25.5q9 -3 14.5 -10t5.5 -15q0 -14 -10.5 -24.5t-24.5 -10.5q-23 0 -39 14.5t-16 35.5q0 41 38 70.5t92 29.5q48 0 81.5 -33.5
t33.5 -81.5q0 -49 -28.5 -85.5t-71.5 -44.5q40 -11 86 -41.5t94 -78.5l-40 -30v0z" />
    <glyph glyph-name="quotedblleft" unicode="&#x201c;" horiz-adv-x="484" 
d="M339 -15q-115 0 -201.5 62.5t-103.5 157.5l50 15q21 -77 92 -126t163 -49q79 0 134.5 39.5t55.5 95.5q0 24 -9.5 43.5t-25.5 31.5q-23 -33 -55 -51.5t-65 -18.5q-37 0 -64.5 24.5t-30.5 60.5q-26 26 -59.5 41.5t-70.5 18.5q8 -7 12.5 -16t4.5 -19q0 -23 -16.5 -39
t-40.5 -16q-25 0 -42.5 20.5t-17.5 49.5q0 31 26.5 53t63.5 22q33 0 69 -13t71 -37v115h-289v50h645v-50h-296v-170q0 -17 10.5 -28.5t24.5 -11.5q31 0 62.5 27t52.5 73q46 -27 73 -70t27 -90q0 -81 -73 -138t-177 -57v0z" />
    <glyph glyph-name="quotedblright" unicode="&#x201d;" horiz-adv-x="393" 
d="M-10 450v50h413v-50h-67q16 -9 25.5 -26.5t9.5 -38.5q0 -39 -28 -67t-67 -28q-22 0 -44 10.5t-41 29.5q-22 22 -44 33.5t-41 11.5q9 -5 14.5 -15.5t5.5 -22.5q0 -19 -13 -33t-32 -14q-25 0 -42.5 19t-17.5 46q0 31 23.5 53t56.5 22q36 0 115 -55q17 -12 32.5 -18.5
t27.5 -6.5q14 0 24.5 10.5t10.5 24.5q0 27 -22 46t-53 19h-246v0z" />
    <glyph glyph-name="quotedblbase" unicode="&#x201e;" horiz-adv-x="572" 
d="M473 -15q-20 28 -30 64t-10 76q0 27 9 60t26 70q-51 -30 -87 -70t-53 -85l-75 45q-5 61 1 111.5t24 88.5q-48 -34 -87.5 -82.5t-67.5 -107.5l-75 50v245h-58v50h592v-50h-474v-210q27 46 70 90.5t100 84.5l70 -45q-35 -96 -35 -180q83 99 150 130l70 -55
q-36 -63 -36 -135t36 -135l-60 -10v0z" />
    <glyph glyph-name="dagger" unicode="&#x2020;" horiz-adv-x="457" 
d="M330 -120q-20 20 -48 35.5t-62 24.5l-45 35q28 40 68 66t87 34q-74 52 -120 60l-40 35q29 42 72 69t93 36q-5 28 -26 46.5t-49 18.5q-52 0 -96 -33t-64 -87h-60v230h-50v50h618v-50h-508v-140q32 38 76.5 59t93.5 21q50 0 85 -33.5t35 -81.5h35q56 0 95.5 -50t39.5 -120
q0 -48 -13 -91.5t-37 -78.5l-40 20q17 24 26 61.5t9 83.5q0 52 -28 88.5t-67 36.5h-20v-345h-60v0zM330 -70v100q-30 -5 -54.5 -18t-40.5 -32q38 -10 95 -50v0zM330 125v95q-30 -5 -53 -16.5t-37 -28.5q56 -26 90 -50v0z" />
    <glyph glyph-name="daggerdbl" unicode="&#x2021;" horiz-adv-x="443" 
d="M378 -25h-60q-31 54 -73 88t-87 42l-25 35q41 59 89 95.5t96 44.5q0 23 -17.5 39t-42.5 16q-52 0 -94.5 -30t-60.5 -80l-65 15v210h-48v50h463v-50h-355v-140q32 38 72.5 59t82.5 21q52 0 88.5 -31t36.5 -74v-310v0zM318 55v170q-39 -14 -67.5 -34.5t-42.5 -45.5
q33 -9 61.5 -32.5t48.5 -57.5v0z" />
    <glyph glyph-name="bullet" unicode="&#x2022;" 
d="M-395 25q0 31 28 53t67 22q49 0 91.5 -21t68.5 -59v215h60v-315h-60q-9 50 -53.5 85t-106.5 40q9 -8 14 -18t5 -21q0 -21 -14.5 -36t-34.5 -15q-27 0 -46 20.5t-19 49.5v0z" />
    <glyph glyph-name="ellipsis" unicode="&#x2026;" horiz-adv-x="220" 
d="M80 0v450h-90v50h90q-7 85 -85 142.5t-185 57.5q-50 0 -85 -19t-35 -46q0 -14 9.5 -23.5t22.5 -9.5q19 0 56.5 4t56.5 4q37 0 63.5 -28t26.5 -67h-65q0 16 -10.5 27t-24.5 11q-18 0 -52.5 -4t-52.5 -4q-41 0 -70.5 25t-29.5 60q0 54 54.5 87t145.5 33q127 0 219 -72
t101 -178h90v-50h-90v-450h-60v0zM190 650q-61 0 -105.5 37.5t-49.5 92.5l50 -5q6 -34 35.5 -56t69.5 -22t70 22t35 56l55 5q-5 -55 -51 -92.5t-109 -37.5v0zM190 730q-17 0 -28.5 9.5t-11.5 23.5q0 13 12.5 22.5t30.5 9.5q15 0 26 -10.5t11 -24.5q0 -12 -11.5 -21t-28.5 -9
v0z" />
    <glyph glyph-name="perthousand" unicode="&#x2030;" horiz-adv-x="494" 
d="M401 -20q-21 12 -43 18.5t-42 6.5q-22 0 -65 -7.5t-65 -7.5q-64 0 -109.5 44t-45.5 106q0 27 12 52t33 43l50 -25q-15 -17 -22.5 -35t-7.5 -35q0 -39 28 -67t67 -28q19 0 57.5 7.5t57.5 7.5q24 0 41.5 -2.5t28.5 -7.5q-17 30 -26 60.5t-9 59.5q0 32 10 66.5t30 68.5
q-42 -15 -79 -44.5t-66 -70.5l-70 25v235h-176v50h514v-50h-278v-185q37 44 84.5 72.5t100.5 37.5l45 -45q-27 -32 -41 -73t-14 -87t13 -86t37 -69l-50 -35v0z" />
    <glyph glyph-name="guilsinglleft" unicode="&#x2039;" horiz-adv-x="425" 
d="M285 0q-40 78 -99.5 124t-120.5 46l-40 60l125 105q-52 9 -86 40t-34 70q0 37 32 63.5t78 26.5q27 0 46 -14.5t19 -35.5q0 -19 -14.5 -32t-35.5 -13q-15 0 -27.5 8t-17.5 22q-9 -2 -14.5 -10.5t-5.5 -19.5q0 -23 33 -42t82 -23l80 55v130h60v-60h90v-50h-90v-450h-60v0z
M285 100v265l-180 -140q55 -15 101.5 -47t78.5 -78v0z" />
    <glyph glyph-name="guilsinglright" unicode="&#x203a;" horiz-adv-x="675" 
d="M535 0v250q-12 21 -35 33t-50 12q-16 0 -33.5 -17.5t-31.5 -47.5q-16 -45 -43.5 -72.5t-56.5 -27.5q-37 0 -65 24t-35 61l50 30q2 -23 16.5 -39t33.5 -16q14 0 30.5 22t29.5 58q-11 18 -70 60l-145 -140l-40 40l30 30q15 21 15 25q0 12 -9 21t-21 9q-10 0 -16.5 -1.5
t-8.5 -3.5q-7 -12 -16 -18.5t-19 -6.5q-12 0 -21 10.5t-9 24.5q0 30 58.5 67.5t106.5 37.5q36 0 83 -27.5t97 -77.5q-44 121 -60 130h-310v50h695v-50h-90v-450h-60v0zM170 305l65 55q-35 20 -50 20t-30.5 -5t-29.5 -15q19 -5 31 -20t14 -35v0zM410 335q7 7 19 11t26 4
q22 0 42.5 -9t37.5 -26v135h-165q40 -86 40 -115v0z" />
    <glyph glyph-name="trademark" unicode="&#x2122;" horiz-adv-x="436" 
d="M296 0q-23 63 -87.5 108.5t-152.5 61.5l-40 60l145 115l-120 105h-51v50h456v-50h-90v-450h-60v0zM296 95v355h-170l120 -110l-150 -120q68 -12 120.5 -45t79.5 -80v0z" />
    <glyph glyph-name="c129" horiz-adv-x="800" 
d="M100 0v700h600v-700h-600v0zM150 50h500v600h-500v-600v0z" />
    </font>
</defs>
</svg>
