<?xml version="1.0" standalone="no"?>
<!DOCTYPE svg PUBLIC "-//W3C//DTD SVG 1.1//EN" "http://www.w3.org/Graphics/SVG/1.1/DTD/svg11.dtd" >
<svg xmlns="http://www.w3.org/2000/svg" xmlns:xlink="http://www.w3.org/1999/xlink" version="1.1">
<metadata>
Created by FontForge 20170731 at Sun Mar 25 04:00:00 2012
 By Aleksey,,,
SHREE-KAN-0853 Copyright(c) 1992, Modular Infotech, Pune, INDIA. - Licenced to User with Reg. No. 400832
</metadata>
<defs>
<font id="SHREE-KAN-0853" horiz-adv-x="5" >
  <font-face 
    font-family="SHREE-KAN-0853"
    font-weight="400"
    font-stretch="normal"
    units-per-em="1000"
    panose-1="0 0 0 0 0 0 0 0 0 0"
    ascent="620"
    descent="-380"
    x-height="450"
    cap-height="460"
    bbox="-520 -515 1176 880"
    underline-thickness="20"
    underline-position="-130"
    unicode-range="U+0020-2122"
  />
<missing-glyph horiz-adv-x="364" 
d="M33 0v620h265v-620h-265zM66 33h199v554h-199v-554z" />
    <glyph glyph-name=".notdef" horiz-adv-x="364" 
d="M33 0v620h265v-620h-265zM66 33h199v554h-199v-554z" />
    <glyph glyph-name=".null" horiz-adv-x="0" 
 />
    <glyph glyph-name="nonmarkingreturn" horiz-adv-x="0" 
 />
    <glyph glyph-name="space" unicode=" " horiz-adv-x="235" 
 />
    <glyph glyph-name="exclam" unicode="!" horiz-adv-x="200" 
d="M60 -45q0 17 11.5 28.5t28.5 11.5t28.5 -11.5t11.5 -28.5t-11.5 -28.5t-28.5 -11.5t-28.5 11.5t-11.5 28.5v0zM60 445v100h80v-100l-30 -400h-20l-30 400v0z" />
    <glyph glyph-name="quotedbl" unicode="&#x22;" horiz-adv-x="210" 
d="M60 495q0 37 19 69t51 51l20 -20q-24 -20 -37 -41t-13 -39q18 -7 29 -18t11 -22q0 -17 -11.5 -28.5t-28.5 -11.5t-28.5 17.5t-11.5 42.5v0z" />
    <glyph glyph-name="numbersign" unicode="#" horiz-adv-x="860" 
d="M440 590v50h60v-50h-60v0zM290 610h50q0 -41 38 -70.5t92 -29.5t92 29.5t38 70.5h50q0 -58 -52.5 -99t-127.5 -41t-127.5 41t-52.5 99v0zM60 130l40 20q18 -50 56.5 -80t83.5 -30q46 0 78 20.5t32 49.5q0 37 -32 63.5t-78 26.5v40q41 0 70.5 23.5t29.5 56.5
q0 37 -29.5 63.5t-70.5 26.5q-25 0 -50 -16t-45 -44l-35 30q19 32 53.5 51t76.5 19q62 0 106 -38t44 -92q0 -34 -19 -61.5t-51 -38.5q36 -13 58 -43.5t22 -66.5q0 -50 -47 -85t-113 -35q-58 0 -107.5 38.5t-72.5 101.5v0zM390 200v45q31 -26 73.5 -3.5t61.5 73.5
q12 34 46.5 54.5t78.5 20.5q62 0 106 -50t44 -120q0 -75 -38 -127.5t-92 -52.5q-50 0 -85 35t-35 85h40q0 -33 23.5 -56.5t56.5 -23.5t56.5 41t23.5 99q0 54 -29.5 92t-70.5 38q-29 0 -56 -21.5t-44 -58.5q-25 -54 -73.5 -75t-86.5 5v0z" />
    <glyph glyph-name="dollar" unicode="$" horiz-adv-x="270" 
d="M0 0v1h1v-1h-1v0z" />
    <glyph glyph-name="percent" unicode="%" horiz-adv-x="620" 
d="M60 420q0 54 35 92t85 38t85 -38t35 -92t-35 -92t-85 -38t-85 38t-35 92v0zM100 420q0 -37 23.5 -63.5t56.5 -26.5t56.5 26.5t23.5 63.5t-23.5 63.5t-56.5 26.5t-56.5 -26.5t-23.5 -63.5v0zM140 0l300 550h40l-300 -550h-40v0zM320 130q0 54 35 92t85 38t85 -38t35 -92
t-35 -92t-85 -38t-85 38t-35 92v0zM360 130q0 -37 23.5 -63.5t56.5 -26.5t56.5 26.5t23.5 63.5t-23.5 63.5t-56.5 26.5t-56.5 -26.5t-23.5 -63.5v0z" />
    <glyph glyph-name="ampersand" unicode="&#x26;" horiz-adv-x="420" 
d="M60 250h300v-40h-300v40v0z" />
    <glyph glyph-name="quotesingle" unicode="'" horiz-adv-x="210" 
d="M70 490q0 17 11.5 28.5t28.5 11.5t28.5 -17.5t11.5 -42.5q0 -37 -19 -69t-51 -51l-20 20q23 13 36.5 34.5t13.5 45.5q-17 0 -28.5 11.5t-11.5 28.5v0z" />
    <glyph glyph-name="parenleft" unicode="(" horiz-adv-x="350" 
d="M60 170q0 146 53 265t147 185l30 -30q-85 -59 -132.5 -170.5t-47.5 -249.5t47.5 -249.5t132.5 -170.5l-30 -30q-94 66 -147 185t-53 265v0z" />
    <glyph glyph-name="parenright" unicode=")" horiz-adv-x="360" 
d="M60 -250q89 63 139.5 174t50.5 246t-50.5 246t-139.5 174l30 30q99 -69 154.5 -188.5t55.5 -261.5t-55.5 -261.5t-154.5 -188.5l-30 30v0z" />
    <glyph glyph-name="asterisk" unicode="*" horiz-adv-x="875" 
d="M60 280h295l85 260l90 -260h285l-235 -180l95 -265l-235 165l-230 -170l90 270l-240 180v0z" />
    <glyph glyph-name="plus" unicode="+" horiz-adv-x="460" 
d="M60 210v40h150v150h40v-150h150v-40h-150v-150h-40v150h-150v0z" />
    <glyph glyph-name="comma" unicode="," horiz-adv-x="210" 
d="M70 40q0 17 11.5 28.5t28.5 11.5t28.5 -17.5t11.5 -42.5q0 -33 -18.5 -65t-51.5 -55l-20 20q24 16 37 37.5t13 42.5q-17 0 -28.5 11.5t-11.5 28.5v0z" />
    <glyph glyph-name="hyphen" unicode="-" 
d="M0 0v1h1v-1h-1v0z" />
    <glyph glyph-name="period" unicode="." horiz-adv-x="200" 
d="M60 40q0 17 11.5 28.5t28.5 11.5t28.5 -11.5t11.5 -28.5t-11.5 -28.5t-28.5 -11.5t-28.5 11.5t-11.5 28.5v0z" />
    <glyph glyph-name="slash" unicode="/" horiz-adv-x="560" 
d="M60 -210l400 800h40l-400 -800h-40v0z" />
    <glyph glyph-name="zero" unicode="0" horiz-adv-x="470" 
d="M35 300q0 133 58.5 226.5t141.5 93.5t141.5 -93.5t58.5 -226.5q0 -128 -58.5 -219t-141.5 -91t-141.5 91t-58.5 219v0zM85 300q0 -108 44 -184t106 -76t106 76t44 184q0 112 -44 191t-106 79t-106 -79t-44 -191v0z" />
    <glyph glyph-name="one" unicode="1" horiz-adv-x="470" 
d="M70 0v45h140v485q-29 -24 -65 -37t-75 -13v40q51 0 92.5 27.5t57.5 72.5h40v-575h140v-45h-330v0z" />
    <glyph glyph-name="two" unicode="2" horiz-adv-x="470" 
d="M40 0v40q0 60 51 124.5t139 115.5q65 38 102.5 88.5t37.5 101.5q0 46 -41 78t-99 32t-99 -38t-41 -92q0 -17 5 -35t15 -35l-40 -20q-15 26 -22.5 48.5t-7.5 41.5q0 70 55.5 120t134.5 50q77 0 131 -44t54 -106t-49.5 -126t-135.5 -114q-65 -38 -102.5 -86t-37.5 -94h340
v-50h-390v0z" />
    <glyph glyph-name="three" unicode="3" horiz-adv-x="470" 
d="M35 190h50q0 -60 44 -102.5t106 -42.5t106 42.5t44 102.5q0 56 -44 95.5t-106 39.5h-50v35l165 220h-315v40h360l20 -30l-160 -220q75 0 127.5 -52.5t52.5 -127.5q0 -83 -58.5 -141.5t-141.5 -58.5t-141.5 58.5t-58.5 141.5v0z" />
    <glyph glyph-name="four" unicode="4" horiz-adv-x="470" 
d="M35 140v30l260 450h40v-440h100v-40h-100v-90h50v-50h-150v50h50v90h-250v0zM95 180h190v330l-190 -330v0z" />
    <glyph glyph-name="five" unicode="5" horiz-adv-x="470" 
d="M45 120l40 20q15 -41 53.5 -65.5t86.5 -24.5q62 0 106 47t44 113t-44 113t-106 47q-37 0 -73.5 -19.5t-66.5 -55.5l-40 15l50 310h320v-40h-280l-30 -205q29 24 60 37t60 13q83 0 141.5 -66t58.5 -159q0 -87 -58.5 -148.5t-141.5 -61.5q-60 0 -109.5 35.5t-70.5 94.5v0z
" />
    <glyph glyph-name="six" unicode="6" horiz-adv-x="470" 
d="M40 320q0 124 63 212t152 88q59 0 107 -33t68 -87l-40 -15q-10 38 -47.5 61.5t-87.5 23.5q-68 0 -116.5 -70.5t-48.5 -169.5q21 37 61.5 58.5t88.5 21.5q79 0 134.5 -61.5t55.5 -148.5t-55.5 -148.5t-134.5 -61.5q-91 0 -145.5 90t-54.5 240v0zM90 260q0 -89 44 -152
t106 -63q58 0 99 47t41 113t-41 113t-99 47q-41 0 -81.5 -28t-68.5 -77v0z" />
    <glyph glyph-name="seven" unicode="7" horiz-adv-x="469" 
d="M52 500v120h340l25 -50l-145 -310q-25 -43 -37.5 -109t-12.5 -151h-50q0 87 15.5 158t44.5 122l135 300h-265v-80h-50v0z" />
    <glyph glyph-name="eight" unicode="8" horiz-adv-x="470" 
d="M35 170q0 54 30 98t80 62q-37 21 -58.5 56t-21.5 74q0 66 50 113t120 47t120 -47t50 -113q0 -39 -21.5 -74t-58.5 -56q50 -18 80 -62t30 -98q0 -75 -58.5 -127.5t-141.5 -52.5t-141.5 52.5t-58.5 127.5v0zM85 170q0 -54 44 -92t106 -38t106 38t44 92q0 56 -44 95.5
t-106 39.5t-106 -39.5t-44 -95.5v0zM115 460q0 -46 35 -78t85 -32t85 32t35 78q0 48 -35 81.5t-85 33.5t-85 -33.5t-35 -81.5v0z" />
    <glyph glyph-name="nine" unicode="9" horiz-adv-x="470" 
d="M40 420q0 83 52.5 141.5t127.5 58.5q87 0 148.5 -91t61.5 -219q0 -133 -64.5 -226.5t-155.5 -93.5q-55 0 -102 35.5t-68 94.5l40 20q16 -45 52 -72.5t78 -27.5q70 0 120 76t50 184q-26 -38 -66 -59t-84 -21q-79 0 -134.5 58.5t-55.5 141.5v0zM90 420q0 -62 41 -106
t99 -44q40 0 79 27t66 73q-8 89 -52.5 149.5t-102.5 60.5q-54 0 -92 -47t-38 -113v0z" />
    <glyph glyph-name="colon" unicode=":" horiz-adv-x="200" 
d="M60 390q0 17 11.5 28.5t28.5 11.5t28.5 -11.5t11.5 -28.5t-11.5 -28.5t-28.5 -11.5t-28.5 11.5t-11.5 28.5v0zM60 40q0 17 11.5 28.5t28.5 11.5t28.5 -11.5t11.5 -28.5t-11.5 -28.5t-28.5 -11.5t-28.5 11.5t-11.5 28.5v0z" />
    <glyph glyph-name="semicolon" unicode=";" horiz-adv-x="200" 
d="M60 390q0 17 11.5 28.5t28.5 11.5t28.5 -11.5t11.5 -28.5t-11.5 -28.5t-28.5 -11.5t-28.5 11.5t-11.5 28.5v0zM60 40q0 17 11.5 28.5t28.5 11.5t28.5 -17.5t11.5 -42.5q0 -33 -18.5 -65t-51.5 -55l-10 30q19 13 29.5 31.5t10.5 38.5q-17 0 -28.5 11.5t-11.5 28.5v0z" />
    <glyph glyph-name="equal" unicode="=" horiz-adv-x="420" 
d="M60 110v40h300v-40h-300v0zM60 280v40h300v-40h-300v0z" />
    <glyph glyph-name="greater" unicode="&#x3e;" horiz-adv-x="170" 
d="M60 -30v510h50v-510h-50v0z" />
    <glyph glyph-name="question" unicode="?" horiz-adv-x="520" 
d="M220 10q0 17 11.5 28.5t28.5 11.5t28.5 -11.5t11.5 -28.5t-11.5 -28.5t-28.5 -11.5t-28.5 11.5t-11.5 28.5v0zM60 430q0 70 58.5 120t141.5 50t141.5 -50t58.5 -120q0 -47 -27 -90t-73 -70q-37 -21 -58.5 -58.5t-21.5 -81.5v-30h-40v30q0 56 27 102.5t73 67.5
q37 17 58.5 52.5t21.5 77.5q0 54 -47 92t-113 38t-113 -38t-47 -92q0 -24 10.5 -45.5t29.5 -34.5l-25 -30q-26 18 -40.5 47t-14.5 63v0z" />
    <glyph glyph-name="at" unicode="@" horiz-adv-x="266" 
d="M86 100q0 41 29.5 70.5t70.5 29.5t70.5 -29.5t29.5 -70.5t-29.5 -70.5t-70.5 -29.5t-70.5 29.5t-29.5 70.5v0zM131 100q0 -23 16 -39t39 -16t39 16t16 39t-16 39t-39 16t-39 -16t-16 -39v0zM86 360q0 41 29.5 70.5t70.5 29.5t70.5 -29.5t29.5 -70.5t-29.5 -70.5
t-70.5 -29.5t-70.5 29.5t-29.5 70.5v0zM131 360q0 -23 16 -39t39 -16t39 16t16 39t-16 39t-39 16t-39 -16t-16 -39v0z" />
    <glyph glyph-name="A" unicode="A" horiz-adv-x="569" 
d="M149 330q13 -23 29.5 -36.5t30.5 -13.5q17 0 28.5 20.5t11.5 49.5t-11.5 49.5t-28.5 20.5q-19 0 -36 -25.5t-24 -64.5v0zM429 350q0 -29 11.5 -49.5t28.5 -20.5q14 0 30.5 13.5t29.5 36.5q-7 39 -24 64.5t-36 25.5q-17 0 -28.5 -20.5t-11.5 -49.5v0zM89 250
q0 87 35 148.5t85 61.5q37 0 63.5 -32t26.5 -78t-26.5 -78t-63.5 -32q-22 0 -40.5 10.5t-29.5 29.5v-30q0 -91 54.5 -145.5t145.5 -54.5t145.5 54.5t54.5 145.5v30q-11 -19 -29.5 -29.5t-40.5 -10.5v-20h-160v40h105q-17 20 -26 43.5t-9 46.5q0 46 26.5 78t63.5 32
q50 0 85 -61.5t35 -148.5q0 -113 -68.5 -181.5t-181.5 -68.5t-181.5 68.5t-68.5 181.5v0z" />
    <glyph glyph-name="B" unicode="B" horiz-adv-x="567" 
d="M147 330q12 -21 28 -33t32 -12q17 0 28.5 19t11.5 46t-11.5 46t-28.5 19q-20 0 -36.5 -24t-23.5 -61v0zM457 370q0 -27 15 -50t40 -35q12 14 18.5 31t6.5 34q0 27 -11.5 46t-28.5 19t-28.5 -13t-11.5 -32v0zM87 250q0 87 35 148.5t85 61.5q37 0 63.5 -32t26.5 -78
t-26.5 -78t-63.5 -32q-17 0 -35.5 10.5t-34.5 29.5v-30q0 -91 60 -145.5t160 -54.5q75 0 127.5 29.5t52.5 70.5q0 21 -7.5 42t-22.5 38q-27 -10 -50 -10h-150v40h160q-28 16 -44 45.5t-16 64.5q0 37 26.5 63.5t63.5 26.5t63.5 -32t26.5 -78q0 -28 -13 -54t-37 -46
q24 -20 37 -46t13 -54q0 -62 -67.5 -106t-162.5 -44q-123 0 -196.5 68.5t-73.5 181.5v0z" />
    <glyph glyph-name="C" unicode="C" horiz-adv-x="542" 
d="M202 100q0 -21 29.5 -35.5t70.5 -14.5q44 0 82.5 13t67.5 37q-32 27 -70.5 41t-79.5 14t-70.5 -16t-29.5 -39v0zM52 330q0 54 35 92t85 38q46 0 82.5 -26.5t47.5 -68.5q11 42 44.5 68.5t75.5 26.5q58 0 99 -55.5t41 -134.5q0 -42 -14 -84.5t-41 -80.5q23 -28 39.5 -67.5
t25.5 -87.5h-50q-3 37 -13.5 66.5t-26.5 48.5q-26 -31 -73 -48t-107 -17q-62 0 -106 29.5t-44 70.5t44 70.5t106 29.5q45 0 88.5 -17t81.5 -48q20 34 30 68.5t10 66.5q0 62 -26.5 106t-63.5 44q-41 0 -70.5 -50t-29.5 -120h-40q0 70 -32 120t-78 50q-29 0 -49.5 -26.5
t-20.5 -63.5q0 -19 10.5 -40t29.5 -40l-35 -30q-26 22 -40.5 51t-14.5 59v0z" />
    <glyph glyph-name="D" unicode="D" horiz-adv-x="753" 
d="M648 330q0 -17 10.5 -35.5t29.5 -34.5q19 16 29.5 34.5t10.5 35.5q0 25 -11.5 42.5t-28.5 17.5t-28.5 -17.5t-11.5 -42.5v0zM148 210q0 -66 50 -113t120 -47t120 47t50 113h-340v0zM148 250h340q-12 69 -60 114.5t-110 45.5t-110 -45.5t-60 -114.5v0zM38 250h60
q10 54 36 96t64 64h-110v40h350q26 5 43 22t17 38q0 19 -16.5 38t-43.5 32l20 30q37 -17 58.5 -44t21.5 -56q0 -41 -29.5 -70.5t-70.5 -29.5q38 -22 64 -64t36 -96h100q-19 16 -29.5 37t-10.5 43q0 43 26.5 74t63.5 31q35 0 60 -31t25 -74q0 -34 -17.5 -63.5t-47.5 -46.5
q20 -34 30 -62t10 -48q0 -41 -28 -70.5t-67 -29.5q-20 0 -36.5 5t-28.5 15l20 30q9 -5 21.5 -7.5t28.5 -2.5q17 0 28.5 17.5t11.5 42.5q0 21 -10 46.5t-30 53.5h-120q-8 -89 -71 -149.5t-149 -60.5t-149 60.5t-71 149.5h-60v40v0z" />
    <glyph glyph-name="E" unicode="E" horiz-adv-x="851" 
d="M151 330q12 -21 28 -33t32 -12q17 0 28.5 19t11.5 46q0 25 -11.5 42.5t-28.5 17.5q-20 0 -37 -22.5t-23 -57.5v0zM701 50q50 0 85 50t35 120q0 81 -33.5 138t-81.5 57l5 45q66 0 113 -70.5t47 -169.5q0 -91 -50 -155.5t-120 -64.5q-58 0 -99 50t-41 120q0 23 5 70t5 70
q0 41 -23.5 70.5t-56.5 29.5t-56.5 -32t-23.5 -78q0 -25 5 -75t5 -75q0 -62 -41 -106t-99 -44q-79 0 -134.5 73t-55.5 177q0 87 35 148.5t85 61.5q37 0 63.5 -32t26.5 -78t-26.5 -78t-63.5 -32q-22 0 -40.5 10.5t-29.5 29.5v-30q0 -83 41 -141.5t99 -58.5q37 0 63.5 29.5
t26.5 70.5q0 25 -5 75t-5 75q0 66 38 113t92 47t92 -44t38 -106q0 -23 -5 -70t-5 -70q0 -50 26.5 -85t63.5 -35v0z" />
    <glyph glyph-name="F" unicode="F" horiz-adv-x="1156" 
d="M151 330q11 -19 27 -29.5t33 -10.5q21 0 35.5 17.5t14.5 42.5q0 27 -14.5 46t-35.5 19q-20 0 -36.5 -24t-23.5 -61v0zM701 50q37 0 63.5 35t26.5 85q0 22 -2.5 65t-2.5 65q0 66 47 113t113 47q95 0 162.5 -70.5t67.5 -169.5q0 -91 -45.5 -155.5t-109.5 -64.5
q-58 0 -99 44t-41 106q0 54 33.5 92t81.5 38q29 0 49.5 -19t20.5 -46q0 -19 -14.5 -32t-35.5 -13q-18 0 -30.5 12.5t-12.5 30.5q0 4 1 8.5t2 8.5q-22 -4 -36 -26.5t-14 -53.5q0 -41 28 -70.5t67 -29.5q46 0 78 50t32 120q0 81 -54 138t-131 57q-46 0 -78 -33.5t-32 -81.5
q0 -22 2.5 -65t2.5 -65q0 -70 -41 -120t-99 -50t-99 50t-41 120q0 22 5 65t5 65q0 48 -26.5 81.5t-63.5 33.5q-29 0 -49.5 -33.5t-20.5 -81.5q0 -25 5 -75t5 -75q0 -62 -41 -106t-99 -44q-79 0 -134.5 73t-55.5 177q0 87 35 148.5t85 61.5q41 0 70.5 -32t29.5 -78t-29.5 -78
t-70.5 -32q-22 0 -40.5 10.5t-29.5 29.5v-30q0 -83 41 -141.5t99 -58.5q37 0 63.5 29.5t26.5 70.5q0 25 -5 75t-5 75q0 66 35 113t85 47q58 0 99 -47t41 -113q0 -22 -5 -65t-5 -65q0 -50 26.5 -85t63.5 -35v0z" />
    <glyph glyph-name="G" unicode="G" horiz-adv-x="547" 
d="M427 50q37 0 63.5 35t26.5 85q0 113 -93 181.5t-247 68.5v40q177 0 283.5 -79t106.5 -211q0 -70 -41 -120t-99 -50q-41 0 -74.5 28t-45.5 72q-12 -44 -45.5 -72t-74.5 -28q-54 0 -92 38t-38 92q0 46 29.5 78t70.5 32q33 0 56.5 -26.5t23.5 -63.5h-40q0 21 -11.5 35.5
t-28.5 14.5q-21 0 -35.5 -20.5t-14.5 -49.5q0 -33 23.5 -56.5t56.5 -23.5q41 0 70.5 44t29.5 106h40q0 -62 29.5 -106t70.5 -44v0z" />
    <glyph glyph-name="H" unicode="H" horiz-adv-x="554" 
d="M434 50q37 0 63.5 35t26.5 85q0 78 -42.5 141.5t-112.5 88.5q-13 -36 -47.5 -58t-77.5 -22q-58 0 -99 41t-41 99h50q0 -41 26.5 -70.5t63.5 -29.5t63.5 29.5t26.5 70.5q104 -18 172 -100.5t68 -189.5q0 -70 -41 -120t-99 -50q-41 0 -74.5 28t-45.5 72q-12 -44 -45.5 -72
t-74.5 -28q-54 0 -92 38t-38 92q0 46 29.5 78t70.5 32q33 0 56.5 -26.5t23.5 -63.5h-40q0 21 -11.5 35.5t-28.5 14.5q-21 0 -35.5 -20.5t-14.5 -49.5q0 -33 23.5 -56.5t56.5 -23.5q41 0 70.5 44t29.5 106h40q0 -62 29.5 -106t70.5 -44v0z" />
    <glyph glyph-name="I" unicode="I" horiz-adv-x="576" 
d="M456 50q47 0 71 45.5t24 134.5q0 92 -24 138.5t-71 46.5q-41 0 -70.5 -39.5t-29.5 -95.5h-40q0 56 -29.5 95.5t-70.5 39.5q-33 0 -56.5 -35t-23.5 -85h-50q0 68 38 116.5t92 48.5q41 0 74 -22t46 -58q13 36 46 58t74 22q69 0 104.5 -58t35.5 -172t-35.5 -172t-104.5 -58
q-39 0 -72 24.5t-48 65.5q-15 -41 -48 -65.5t-72 -24.5q-54 0 -92 38t-38 92q0 46 29.5 78t70.5 32q33 0 56.5 -26.5t23.5 -63.5h-40q0 21 -11.5 35.5t-28.5 14.5q-21 0 -35.5 -20.5t-14.5 -49.5q0 -33 23.5 -56.5t56.5 -23.5q41 0 70.5 44t29.5 106h40q0 -62 29.5 -106
t70.5 -44v0z" />
    <glyph glyph-name="J" unicode="J" horiz-adv-x="565" 
d="M75 360q0 41 29.5 70.5t70.5 29.5t70.5 -29.5t29.5 -70.5q0 -33 -15.5 -64.5t-44.5 -55.5t-44.5 -53t-15.5 -57q0 -33 20.5 -56.5t49.5 -23.5q41 0 70.5 44t29.5 106h40q0 -62 29.5 -106t70.5 -44q29 0 49.5 23.5t20.5 56.5q0 25 -12 48.5t-33 41.5l30 30
q31 -26 48 -57.5t17 -62.5q0 -54 -35 -92t-85 -38q-41 0 -74.5 28t-45.5 72q-12 -44 -45.5 -72t-74.5 -28q-50 0 -85 38t-35 92q0 32 13 61t37 49q33 28 51.5 59.5t18.5 60.5q0 23 -14.5 39t-35.5 16t-35.5 -16t-14.5 -39q0 -11 5 -21.5t15 -18.5l-40 -30q-14 12 -22 30.5
t-8 39.5v0z" />
    <glyph glyph-name="K" unicode="K" horiz-adv-x="565" 
d="M75 360q0 33 20.5 60t52.5 36q-21 19 -32 41t-11 43q0 26 20.5 49.5t54.5 35.5l25 -35q-23 -11 -36.5 -24.5t-13.5 -25.5q0 -18 10.5 -39t29.5 -42q34 -4 57 -32t23 -67q0 -33 -15.5 -64.5t-44.5 -55.5t-44.5 -53t-15.5 -57q0 -33 20.5 -56.5t49.5 -23.5q41 0 70.5 44
t29.5 106h40q0 -62 29.5 -106t70.5 -44q29 0 49.5 23.5t20.5 56.5q0 23 -13 46.5t-37 43.5l30 30q33 -28 51.5 -59.5t18.5 -60.5q0 -54 -35 -92t-85 -38q-42 0 -75.5 26.5t-44.5 68.5q-11 -42 -44.5 -68.5t-75.5 -26.5q-50 0 -85 38t-35 92q0 32 13 61t37 49
q33 28 51.5 59.5t18.5 60.5q0 23 -14.5 39t-35.5 16t-35.5 -16t-14.5 -39q0 -11 5 -21.5t15 -18.5l-40 -30q-14 12 -22 30.5t-8 39.5v0z" />
    <glyph glyph-name="L" unicode="L" horiz-adv-x="565" 
d="M75 360q0 39 29.5 67t70.5 28t70.5 -28t29.5 -67q0 -33 -15.5 -64.5t-44.5 -55.5t-44.5 -53t-15.5 -57q0 -33 20.5 -56.5t49.5 -23.5q41 0 70.5 44t29.5 106h40q0 -62 29.5 -106t70.5 -44q29 0 49.5 23.5t20.5 56.5q0 23 -13 46.5t-37 43.5l30 30q33 -28 51.5 -59.5
t18.5 -60.5q0 -54 -35 -92t-85 -38q-41 0 -74.5 28t-45.5 72q-12 -44 -45.5 -72t-74.5 -28q-50 0 -85 38t-35 92q0 32 13 61t37 49q33 28 51.5 59.5t18.5 60.5q0 21 -14.5 35.5t-35.5 14.5t-35.5 -14.5t-14.5 -35.5q0 -11 5 -21.5t15 -18.5l-40 -30q-14 12 -22 30.5t-8 39.5
v0zM85 457v40h180q8 0 14 6t6 14q0 14 -13.5 30.5t-36.5 29.5h-150v40h300q83 0 141.5 -58.5t58.5 -141.5q0 -66 -41 -113t-99 -47q-46 0 -78 32t-32 78t29.5 78t70.5 32q29 0 49.5 -14.5t20.5 -35.5q0 -17 -10.5 -28.5t-24.5 -11.5q-19 0 -30 14.5t-5 30.5q-23 0 -39 -19
t-16 -46t19 -46t46 -19q37 0 63.5 33.5t26.5 81.5q0 66 -44 113t-106 47h-80q14 -10 22 -26t8 -34q0 -25 -20.5 -42.5t-49.5 -17.5h-180v0z" />
    <glyph glyph-name="M" unicode="M" horiz-adv-x="625" 
d="M125 90q0 -17 14.5 -28.5t35.5 -11.5q19 0 35.5 4t29.5 11q-5 30 -23.5 50t-41.5 20q-21 0 -35.5 -13t-14.5 -32v0zM125 370q0 -19 14.5 -32t35.5 -13t38 20t22 50q-14 10 -29.5 15t-30.5 5q-21 0 -35.5 -13t-14.5 -32v0zM75 90q0 37 29.5 63.5t70.5 26.5
q36 0 64.5 -25.5t35.5 -64.5q24 29 37 65t13 75q0 43 -13 79.5t-37 60.5q-7 -39 -35.5 -64.5t-64.5 -25.5q-41 0 -70.5 26.5t-29.5 63.5t29.5 63.5t70.5 26.5q83 0 141.5 -67.5t58.5 -162.5q0 -46 -5 -60q9 -52 39 -86t66 -34q50 0 85 52.5t35 127.5t-38 127.5t-92 52.5h-90
v40h195q17 0 28.5 14.5t11.5 35.5q0 15 -9 30.5t-26 29.5l30 30q24 -20 37 -43.5t13 -46.5q0 -37 -25 -63.5t-60 -26.5h-10q39 -23 62 -72.5t23 -112.5q0 -93 -50 -159t-120 -66q-41 0 -77 29t-53 76q-22 -48 -65.5 -76.5t-94.5 -28.5q-46 0 -78 26.5t-32 63.5v0z" />
    <glyph glyph-name="N" unicode="N" horiz-adv-x="707" 
d="M277 -150v40l20 140h20l20 -140v-40h-60v0zM277 270v60h60v-60h-60v0zM622 275q23 0 39 19t16 46t-10.5 50.5t-29.5 39.5l35 30q27 -32 41 -63t14 -57q0 -46 -31 -78t-74 -32q-25 0 -43.5 5t-26.5 15q7 -16 11 -36t4 -44q0 -70 -41 -120t-99 -50q-42 0 -75.5 25t-44.5 65
q-11 -40 -44.5 -65t-75.5 -25q-54 0 -92 38t-38 92q0 46 29.5 78t70.5 32q33 0 56.5 -26.5t23.5 -63.5h-40q0 21 -11.5 35.5t-28.5 14.5q-21 0 -35.5 -20.5t-14.5 -49.5q0 -33 23.5 -56.5t56.5 -23.5q41 0 70.5 44t29.5 106h40q0 -62 29.5 -106t70.5 -44q39 0 67 36.5
t28 88.5q0 47 -17 92t-48 83l40 20q25 -44 58.5 -69.5t66.5 -25.5v0zM57 450h400q41 0 70.5 17.5t29.5 42.5q0 29 -17.5 49.5t-42.5 20.5q-21 0 -35.5 -9t-14.5 -21h10q12 0 21 -9t9 -21q0 -17 -11.5 -28.5t-28.5 -11.5q-21 0 -35.5 17.5t-14.5 42.5q0 33 29.5 56.5
t70.5 23.5t70.5 -32t29.5 -78q0 -41 -41 -70.5t-99 -29.5h-400v40v0z" />
    <glyph glyph-name="O" unicode="O" horiz-adv-x="637" 
d="M87 95q0 20 17.5 40.5t47.5 34.5q-29 11 -47 34t-18 51q0 41 35 70.5t85 29.5q45 0 85.5 -24t64.5 -66q24 42 64.5 66t85.5 24q62 0 106 -54t44 -131q0 -70 -44 -120t-106 -50q-41 0 -70.5 29.5t-29.5 70.5q0 37 28 63.5t67 26.5q17 0 32.5 -8t27.5 -22l-25 -25
q-9 7 -18 11t-17 4q-21 0 -35.5 -14.5t-14.5 -35.5t16 -35.5t39 -14.5q43 0 74 35t31 85q0 58 -31 99t-74 41q-54 0 -92 -41t-38 -99h-40q0 58 -38 99t-92 41q-29 0 -49.5 -16t-20.5 -39q0 -27 26.5 -46t63.5 -19v-40q-37 0 -63.5 -16t-26.5 -39q0 -19 19 -32t46 -13
q21 0 39.5 8t30.5 22l30 -30q-20 -24 -46 -37t-54 -13q-48 0 -81.5 28t-33.5 67v0zM87 450h503v-40h-503v40v0z" />
    <glyph glyph-name="P" unicode="P" horiz-adv-x="430" 
d="M140 160q0 -46 32 -78t78 -32t78 32t32 78q0 50 -32 85t-78 35t-78 -35t-32 -85v0zM50 320h180v90h-180v40h330v-40h-110v-90h180v-40h-100q29 -24 44.5 -55.5t15.5 -64.5q0 -66 -47 -113t-113 -47t-113 47t-47 113q0 33 15.5 64.5t44.5 55.5h-100v40v0z" />
    <glyph glyph-name="Q" unicode="Q" horiz-adv-x="430" 
d="M140 160q0 -46 32 -78t78 -32t78 32t32 78q0 50 -32 85t-78 35t-78 -35t-32 -85v0zM50 320h180q60 72 60 90q0 3 -14 -3.5t-26 -6.5q-41 0 -70.5 29.5t-29.5 70.5t29.5 70.5t70.5 29.5t70.5 -32t29.5 -78q0 -42 -18 -86t-52 -84h170v-40h-100q29 -24 44.5 -55.5
t15.5 -64.5q0 -66 -47 -113t-113 -47t-113 47t-47 113q0 33 15.5 64.5t44.5 55.5h-100v40v0zM190 500q0 -25 17.5 -42.5t42.5 -17.5t42.5 17.5t17.5 42.5t-17.5 42.5t-42.5 17.5t-42.5 -17.5t-17.5 -42.5v0z" />
    <glyph glyph-name="R" unicode="R" horiz-adv-x="66" 
d="M-63 -260q0 -33 23.5 -56.5t56.5 -23.5t56.5 23.5t23.5 56.5t-23.5 56.5t-56.5 23.5t-56.5 -23.5t-23.5 -56.5v0zM-133 -180v40h130q15 26 22.5 56.5t7.5 63.5t-10 60l30 20q10 -17 15 -37.5t5 -42.5q0 -33 -7.5 -63.5t-22.5 -56.5h130v-40h-60q15 -17 22.5 -38t7.5 -42
q0 -50 -35 -85t-85 -35t-85 35t-35 85q0 22 10.5 43t29.5 37h-70v0z" />
    <glyph glyph-name="S" unicode="S" horiz-adv-x="640" 
d="M110 100q0 -21 23.5 -35.5t56.5 -14.5q32 0 61.5 19t48.5 51q-23 19 -49 29.5t-51 10.5q-37 0 -63.5 -17.5t-26.5 -42.5v0zM490 50q50 0 85 58.5t35 141.5q0 99 -52.5 169.5t-127.5 70.5v40q95 0 162.5 -82t67.5 -198q0 -104 -50 -177t-120 -73q-39 0 -78.5 21t-71.5 59
q-32 -38 -71.5 -59t-78.5 -21q-54 0 -92 29.5t-38 70.5t41 70.5t99 29.5q35 0 66 -10.5t54 -29.5q10 27 10 90q0 70 -29.5 120t-70.5 50q-25 0 -42.5 -14.5t-17.5 -35.5q0 -8 4 -16t11 -14q8 14 18.5 22t21.5 8q19 0 32 -11.5t13 -28.5q0 -21 -20.5 -35.5t-49.5 -14.5
q-33 0 -56.5 26.5t-23.5 63.5t32 63.5t78 26.5q62 0 106 -61.5t44 -148.5q0 -75 -20 -130q28 -33 62 -51.5t68 -18.5v0z" />
    <glyph glyph-name="T" unicode="T" horiz-adv-x="640" 
d="M110 100q0 -21 23.5 -35.5t56.5 -14.5q32 0 61.5 19t48.5 51q-23 19 -49 29.5t-51 10.5q-37 0 -63.5 -17.5t-26.5 -42.5v0zM490 50q59 0 94.5 54.5t35.5 145.5q0 66 -35 113t-85 47h-65v40h155v-35q32 -19 51 -63t19 -102q0 -113 -46.5 -181.5t-123.5 -68.5
q-39 0 -78.5 21t-71.5 59q-32 -38 -71.5 -59t-78.5 -21q-54 0 -92 29.5t-38 70.5t41 70.5t99 29.5q35 0 66 -10.5t54 -29.5q10 27 10 90q0 70 -29.5 120t-70.5 50q-25 0 -42.5 -14.5t-17.5 -35.5q0 -8 4 -16t11 -14q11 19 21.5 29.5t18.5 10.5q19 0 32 -14.5t13 -35.5
t-20.5 -35.5t-49.5 -14.5q-33 0 -56.5 26.5t-23.5 63.5t32 63.5t78 26.5q62 0 106 -61.5t44 -148.5q0 -75 -20 -130q28 -33 62 -51.5t68 -18.5v0z" />
    <glyph glyph-name="U" unicode="U" horiz-adv-x="649" 
d="M109 100q0 -21 23.5 -35.5t56.5 -14.5q37 0 69 19t51 51q-23 19 -51.5 29.5t-58.5 10.5q-37 0 -63.5 -17.5t-26.5 -42.5v0zM59 100q0 41 41 70.5t99 29.5q35 0 66 -10.5t54 -29.5q10 27 10 90q0 70 -32 120t-78 50q-21 0 -35.5 -14.5t-14.5 -35.5q0 -15 4 -25.5t11 -14.5
q0 17 11.5 28.5t28.5 11.5q19 0 32 -11.5t13 -28.5q0 -21 -16 -35.5t-39 -14.5q-39 0 -67 26.5t-28 63.5t29.5 63.5t70.5 26.5q66 0 113 -61.5t47 -148.5q0 -75 -20 -130q28 -33 62 -51.5t68 -18.5q56 0 95.5 67.5t39.5 162.5q0 67 -22 129t-63 111q0 -41 -29.5 -70.5
t-70.5 -29.5t-70.5 29.5t-29.5 70.5t29.5 70.5t70.5 29.5q95 0 162.5 -99.5t67.5 -240.5q0 -116 -52.5 -198t-127.5 -82q-39 0 -78.5 21t-71.5 59q-32 -38 -71.5 -59t-78.5 -21q-54 0 -92 29.5t-38 70.5v0zM384 520q0 -25 16 -42.5t39 -17.5q25 0 42.5 26.5t17.5 63.5
q0 12 -17.5 21t-42.5 9q-23 0 -39 -17.5t-16 -42.5v0z" />
    <glyph glyph-name="V" unicode="V" horiz-adv-x="25" 
d="M-140 -340q0 -12 17.5 -21t42.5 -9q17 0 32.5 8t27.5 22q-17 15 -38 22.5t-42 7.5q-17 0 -28.5 -9t-11.5 -21v0zM-180 -340q0 29 23.5 49.5t56.5 20.5q25 0 51 -10.5t49 -29.5q10 17 15 42.5t5 57.5q0 41 -23.5 70.5t-56.5 29.5q-21 0 -35.5 -14.5t-14.5 -35.5
q0 -4 2.5 -9t7.5 -11q0 12 7.5 21t17.5 9q14 0 24.5 -10.5t10.5 -24.5q0 -19 -11.5 -32t-28.5 -13q-29 0 -49.5 20.5t-20.5 49.5q0 37 26.5 63.5t63.5 26.5q50 0 85 -41t35 -99q0 -43 -6.5 -76t-18.5 -54q17 -15 39 -22.5t46 -7.5q29 0 49.5 29.5t20.5 70.5q0 57 -15.5 106
t-44.5 84l35 20q32 -45 48.5 -99t16.5 -111q0 -58 -32 -99t-78 -41q-24 0 -52.5 13t-57.5 37q-20 -24 -43.5 -37t-46.5 -13q-41 0 -70.5 20.5t-29.5 49.5v0z" />
    <glyph glyph-name="W" unicode="W" horiz-adv-x="484" 
d="M104 450h330v-40h-30q48 -40 74 -108t26 -152v-150h-50v150q0 108 -44 184t-106 76t-106 -76t-44 -184v-150h-50v150q0 84 26 152t74 108h-100v40v0z" />
    <glyph glyph-name="X" unicode="X" horiz-adv-x="484" 
d="M154 500q0 -21 32 -35.5t78 -14.5h40q40 0 74 -21.5t51 -58.5q-7 85 -57.5 142.5t-117.5 57.5q-41 0 -70.5 -20.5t-29.5 -49.5v0zM104 0v150q0 84 26 152t74 108q-41 0 -70.5 26.5t-29.5 63.5q0 46 44 78t106 32q104 0 177 -126t73 -304v-180h-50v150q0 108 -44 184
t-106 76t-106 -76t-44 -184v-150h-50v0z" />
    <glyph glyph-name="Y" unicode="Y" 
d="M-170 -370v100q0 83 50 141.5t120 58.5t120 -58.5t50 -141.5v-100h-40v100q0 66 -38 113t-92 47t-92 -47t-38 -113v-100h-40v0z" />
    <glyph glyph-name="Z" unicode="Z" horiz-adv-x="707" 
d="M277 -150v40l20 140h20l20 -140v-40h-60v0zM277 270v60h60v-60h-60v0zM627 280q21 0 35.5 17.5t14.5 42.5t-12 48.5t-33 41.5l40 30q26 -22 40.5 -53.5t14.5 -66.5q0 -46 -29.5 -78t-70.5 -32q-28 0 -47.5 5t-27.5 15q7 -16 11 -36t4 -44q0 -70 -41 -120t-99 -50
q-42 0 -75.5 25t-44.5 65q-11 -40 -44.5 -65t-75.5 -25q-54 0 -92 38t-38 92q0 46 29.5 78t70.5 32q28 0 50.5 -25.5t29.5 -64.5h-40q0 21 -11.5 35.5t-28.5 14.5q-21 0 -35.5 -20.5t-14.5 -49.5q0 -33 23.5 -56.5t56.5 -23.5q41 0 70.5 44t29.5 106h40q0 -62 29.5 -106
t70.5 -44q37 0 63.5 35t26.5 85q0 53 -15.5 99t-44.5 81l40 20q24 -42 59 -66t71 -24v0zM57 450h390q29 0 49.5 14.5t20.5 35.5q0 24 -16.5 45.5t-43.5 34.5l20 30q37 -17 58.5 -47t21.5 -63q0 -37 -32 -63.5t-78 -26.5h-390v40v0z" />
    <glyph glyph-name="bracketleft" unicode="[" horiz-adv-x="707" 
d="M277 -150v40l20 140h20l20 -140v-40h-60v0zM277 270v60h60v-60h-60v0zM627 275q21 0 35.5 19t14.5 46q0 17 -5 35t-15 35h-600v40h670v-40h-20q10 -17 15 -35t5 -35q0 -46 -29.5 -78t-70.5 -32q-28 0 -47.5 5t-27.5 15q7 -16 11 -36t4 -44q0 -70 -41 -120t-99 -50
q-42 0 -75.5 25t-44.5 65q-11 -40 -44.5 -65t-75.5 -25q-54 0 -92 38t-38 92q0 46 29.5 78t70.5 32q33 0 56.5 -26.5t23.5 -63.5h-40q0 21 -11.5 35.5t-28.5 14.5q-21 0 -35.5 -20.5t-14.5 -49.5q0 -33 23.5 -56.5t56.5 -23.5q41 0 70.5 44t29.5 106h40q0 -62 29.5 -106
t70.5 -44q39 0 67 35t28 85t-17 96t-48 84l40 20q25 -44 60 -69.5t70 -25.5v0z" />
    <glyph glyph-name="backslash" unicode="\" horiz-adv-x="707" 
d="M277 -150v40l20 140h20l20 -140v-40h-60v0zM627 275q21 0 35.5 19t14.5 46t-10.5 50.5t-29.5 39.5l35 30q27 -32 41 -63t14 -57q0 -46 -29.5 -78t-70.5 -32q-28 0 -47.5 5t-27.5 15q7 -16 11 -36t4 -44q0 -70 -41 -120t-99 -50q-42 0 -75.5 25t-44.5 65
q-11 -40 -44.5 -65t-75.5 -25q-54 0 -92 38t-38 92q0 46 29.5 78t70.5 32q33 0 56.5 -26.5t23.5 -63.5h-40q0 21 -11.5 35.5t-28.5 14.5q-21 0 -35.5 -20.5t-14.5 -49.5q0 -33 23.5 -56.5t56.5 -23.5q41 0 70.5 44t29.5 106h40q0 -62 29.5 -106t70.5 -44q37 0 63.5 35
t26.5 85q0 53 -15.5 99t-44.5 81l40 20q25 -44 60 -69.5t70 -25.5v0zM247 430q0 -21 14.5 -35.5t35.5 -14.5q14 0 30.5 13.5t29.5 36.5q-10 27 -26.5 43.5t-33.5 16.5q-21 0 -35.5 -17.5t-14.5 -42.5v0zM197 430q0 41 29.5 70.5t70.5 29.5q50 0 85 -44t35 -106
q0 -58 -35 -99t-85 -41q-43 0 -70 10l20 40q11 -5 23.5 -7.5t26.5 -2.5q29 0 49.5 29.5t20.5 70.5q-16 -19 -34.5 -29.5t-35.5 -10.5q-41 0 -70.5 26.5t-29.5 63.5v0z" />
    <glyph glyph-name="bracketright" unicode="]" horiz-adv-x="839" 
d="M549 550q0 -32 24 -64t66 -56q5 28 5 50q0 41 -19 70.5t-46 29.5q-12 0 -21 -9t-9 -21v0zM289 100q0 -35 44 -60t106 -25q83 0 141.5 48.5t58.5 116.5q0 30 -4 50.5t-11 29.5q-27 -46 -71 -73t-94 -27h-80q-37 0 -63.5 -17.5t-26.5 -42.5v0zM69 70q0 57 15.5 106t44.5 84
l40 -20q-24 -29 -37 -73t-13 -97q0 -116 93.5 -198t226.5 -82q153 0 261.5 93.5t108.5 226.5q0 81 -37.5 149t-102.5 106q-3 -19 -20 -55q19 -23 29.5 -56.5t10.5 -73.5q0 -87 -73 -148.5t-177 -61.5q-83 0 -141.5 38t-58.5 92q0 41 41 70.5t99 29.5h80q42 0 80 28.5
t60 76.5q-25 35 -67 55t-93 20q-21 0 -42 -7.5t-38 -22.5q19 -11 29.5 -24.5t10.5 -25.5q0 -21 -14.5 -35.5t-35.5 -14.5q-25 0 -42.5 17.5t-17.5 42.5q0 46 44 78t106 32q58 0 105 -18.5t75 -51.5q11 20 15 40q-62 29 -98.5 72.5t-36.5 87.5q0 29 23.5 49.5t56.5 20.5
q46 0 78 -41t32 -99q0 -43 -10 -70q84 -48 132 -128.5t48 -171.5q0 -153 -123 -261.5t-297 -108.5q-153 0 -261.5 96.5t-108.5 233.5v0z" />
    <glyph glyph-name="asciicircum" unicode="^" horiz-adv-x="80" 
d="M-10 -415v30l20 50h20l20 -50v-30h-60v0zM-180 -255q0 41 29.5 70.5t70.5 29.5q13 0 25.5 -5t24.5 -15l-20 -30q-9 5 -16.5 7.5t-13.5 2.5q-25 0 -42.5 -17.5t-17.5 -42.5t17.5 -42.5t42.5 -17.5q33 0 56.5 26.5t23.5 63.5h40q0 -37 23.5 -63.5t56.5 -26.5
q25 0 42.5 23.5t17.5 56.5q0 40 -17 81t-48 79l35 30q24 -42 51 -66t49 -24q21 0 35.5 11.5t14.5 28.5q0 11 -2.5 21t-7.5 19l40 20q10 -27 10 -60t-26.5 -56.5t-63.5 -23.5q-14 0 -50 30q20 -55 20 -90q0 -50 -29.5 -85t-70.5 -35q-32 0 -59 17.5t-41 47.5
q-14 -30 -41 -47.5t-59 -17.5q-41 0 -70.5 29.5t-29.5 70.5v0z" />
    <glyph glyph-name="underscore" unicode="_" horiz-adv-x="567" 
d="M322 240v50h50v-50h-50v0zM77 360q0 41 29.5 70.5t70.5 29.5q36 0 64 -28.5t36 -71.5q40 48 92.5 74t107.5 26q46 0 78 -26.5t32 -63.5q0 -26 -16 -50t-44 -40l-30 30q19 16 29.5 31.5t10.5 28.5q0 21 -17.5 35.5t-42.5 14.5q-38 0 -77 -18t-73 -52l-100 -110
q-38 -32 -59 -64.5t-21 -60.5q0 -27 23.5 -46t56.5 -19q41 0 70.5 38t29.5 92h40q0 -54 29.5 -92t70.5 -38q29 0 49.5 23.5t20.5 56.5q0 30 -12 54t-33 36l35 30q29 -24 44.5 -55.5t15.5 -64.5q0 -54 -35 -92t-85 -38q-41 0 -74.5 28t-45.5 72q-12 -44 -45.5 -72t-74.5 -28
q-54 0 -92 33.5t-38 81.5q0 32 18.5 64.5t51.5 60.5q29 24 44.5 55.5t15.5 64.5q0 25 -14.5 42.5t-35.5 17.5t-35.5 -17.5t-14.5 -42.5q0 -13 4 -24.5t11 -20.5l-35 -25q-15 17 -22.5 35t-7.5 35v0z" />
    <glyph glyph-name="grave" unicode="`" horiz-adv-x="22" 
d="M-180 -310q0 26 15 51t42 44q30 21 46.5 40.5t16.5 34.5q0 14 -11.5 24.5t-28.5 10.5t-28.5 -10.5t-11.5 -24.5q0 -3 10 -20l-30 -20q-10 12 -15 22t-5 18q0 31 23.5 53t56.5 22q30 0 52.5 -18.5t27.5 -46.5q35 29 71 44.5t69 15.5t56.5 -20.5t23.5 -49.5
q0 -15 -10.5 -31t-29.5 -29l-25 25q12 10 18.5 19t6.5 16q0 12 -11.5 21t-28.5 9q-30 0 -67.5 -18t-77.5 -52l-60 -50q-23 -16 -36.5 -37t-13.5 -43q0 -21 17.5 -35.5t42.5 -14.5q33 0 56.5 26.5t23.5 63.5h40q0 -37 20.5 -63.5t49.5 -26.5t49.5 17.5t20.5 42.5q0 9 -4 19.5
t-11 20.5l35 20q10 -17 15 -32.5t5 -27.5q0 -41 -32 -70.5t-78 -29.5q-27 0 -51 14.5t-39 40.5q-15 -26 -41.5 -40.5t-58.5 -14.5q-43 0 -74 26.5t-31 63.5v0zM45 -220v40h40v-40h-40v0z" />
    <glyph glyph-name="a" unicode="a" horiz-adv-x="578" 
d="M378 290h90v120h-90v40h150v-40h-10v-120h80v-40h-80q32 -19 51 -51t19 -69q0 -54 -35 -92t-85 -38q-41 0 -74.5 28t-45.5 72q-12 -44 -45.5 -72t-74.5 -28q-54 0 -92 38t-38 92q0 32 21 65.5t59 59.5q24 16 37 44t13 61q0 23 -14.5 39t-35.5 16t-35.5 -16t-14.5 -39
q0 -8 5 -18t15 -22l-40 -30q-15 17 -22.5 35t-7.5 35q0 41 29.5 70.5t70.5 29.5t70.5 -29.5t29.5 -70.5q0 -40 -17 -74.5t-48 -55.5t-48 -47.5t-17 -52.5q0 -33 23.5 -56.5t56.5 -23.5q41 0 70.5 44t29.5 106h40q0 -62 29.5 -106t70.5 -44q29 0 49.5 23.5t20.5 56.5
q0 39 -24.5 72t-65.5 48h-70v40v0z" />
    <glyph glyph-name="b" unicode="b" horiz-adv-x="576" 
d="M376 290h60q35 35 55.5 65.5t24.5 54.5q-9 -5 -19 -7.5t-21 -2.5q-41 0 -70.5 29.5t-29.5 70.5t29.5 70.5t70.5 29.5q43 0 74 -31t31 -74q0 -58 -22 -111t-63 -94h100v-40h-80q32 -19 51 -51t19 -69q0 -54 -35 -92t-85 -38q-41 0 -74.5 28t-45.5 72q-12 -44 -45.5 -72
t-74.5 -28q-54 0 -92 35t-38 85q0 30 21 64t59 66q24 20 37 49t13 61q0 23 -14.5 39t-35.5 16t-35.5 -16t-14.5 -39q0 -8 5 -18t15 -22l-35 -30q-17 20 -26 38t-9 32q0 41 29.5 70.5t70.5 29.5t70.5 -29.5t29.5 -70.5q0 -40 -17 -74.5t-48 -55.5t-48 -50.5t-17 -59.5
q0 -29 23.5 -49.5t56.5 -20.5q41 0 70.5 44t29.5 106h40q0 -62 29.5 -106t70.5 -44q29 0 49.5 23.5t20.5 56.5q0 39 -24.5 72t-65.5 48h-70v40v0zM416 500q0 -25 17.5 -42.5t42.5 -17.5t42.5 17.5t17.5 42.5t-17.5 42.5t-42.5 17.5t-42.5 -17.5t-17.5 -42.5v0z" />
    <glyph glyph-name="c" unicode="c" horiz-adv-x="25" 
d="M-170 -300q0 24 17.5 49t47.5 46q21 14 33 30t12 30t-11.5 24.5t-28.5 10.5t-28.5 -9t-11.5 -21q0 -6 2.5 -12.5t7.5 -12.5l-30 -20q-10 12 -15 23.5t-5 21.5q0 29 23.5 49.5t56.5 20.5t56.5 -22t23.5 -53q0 -25 -15 -48t-40 -37t-40 -33t-15 -37q0 -25 17.5 -42.5
t42.5 -17.5q33 0 56.5 26.5t23.5 63.5h40q0 -37 23.5 -63.5t56.5 -26.5q25 0 42.5 20.5t17.5 49.5t-17.5 49.5t-42.5 20.5h-70v40h70q12 14 18.5 27t6.5 23q0 16 -6.5 30.5t-18.5 24.5l30 20q17 -14 26 -33.5t9 -41.5q0 -14 -4 -27t-11 -23h50v-40h-25q12 -12 18.5 -30
t6.5 -40q0 -46 -29.5 -78t-70.5 -32q-30 0 -57 16t-43 44q-16 -28 -43 -44t-57 -16q-41 0 -70.5 29.5t-29.5 70.5v0z" />
    <glyph glyph-name="d" unicode="d" horiz-adv-x="576" 
d="M311 -150v40l20 140h20l20 -140v-40h-60v0zM451 50q45 0 72.5 49t27.5 131q0 75 -35 127.5t-85 52.5h-80v40h180v-40h-10q35 -25 55 -72.5t20 -107.5q0 -104 -39.5 -167t-105.5 -63q-39 0 -70 22.5t-40 57.5q-9 -35 -40 -57.5t-70 -22.5q-59 0 -94.5 68.5t-35.5 181.5
q0 87 32 148.5t78 61.5q37 0 63.5 -29.5t26.5 -70.5t-29.5 -70.5t-70.5 -29.5q-15 0 -50 20l-5 -30q0 -91 23 -145.5t62 -54.5q37 0 63.5 44t26.5 106h40q0 -62 26.5 -106t63.5 -44v0zM161 330q8 -14 18.5 -22t21.5 -8q21 0 35.5 17.5t14.5 42.5t-11.5 42.5t-28.5 17.5
q-18 0 -32.5 -26t-17.5 -64v0z" />
    <glyph glyph-name="e" unicode="e" horiz-adv-x="589" 
d="M309 -150v40l20 140h20l20 -140v-40h-60v0zM449 50q52 0 83.5 64t31.5 171q0 67 -17 122t-48 93q-4 -42 -32.5 -71t-67.5 -29q-41 0 -70.5 29.5t-29.5 70.5t29.5 70.5t70.5 29.5q87 0 148.5 -92.5t61.5 -222.5q0 -129 -43.5 -207t-116.5 -78q-39 0 -70 22.5t-40 57.5
q-9 -35 -40 -57.5t-70 -22.5q-54 0 -92 73t-38 177q0 87 33.5 148.5t81.5 61.5q35 0 60 -29.5t25 -70.5t-29.5 -70.5t-70.5 -29.5q-15 0 -50 20l-5 -30q0 -83 25 -141.5t60 -58.5q37 0 63.5 44t26.5 106h40q0 -62 26.5 -106t63.5 -44v0zM159 330q8 -14 18.5 -22t21.5 -8
q21 0 35.5 17.5t14.5 42.5t-11.5 42.5t-28.5 17.5q-18 0 -32.5 -26t-17.5 -64v0zM349 500q0 -25 14.5 -42.5t35.5 -17.5q25 0 42.5 29.5t17.5 70.5q-12 10 -27 15t-33 5q-21 0 -35.5 -17.5t-14.5 -42.5v0z" />
    <glyph glyph-name="f" unicode="f" horiz-adv-x="20" 
d="M-5 -410v30l15 50h20l15 -50v-30h-50v0zM-120 -140q5 -14 16 -22t24 -8q12 0 21 9t9 21t-9 21t-21 9q-13 0 -24 -8t-16 -22v0zM-180 -210q0 58 29.5 99t70.5 41q29 0 49.5 -20.5t20.5 -49.5t-20.5 -49.5t-49.5 -20.5q-17 0 -32.5 8t-27.5 22v-30q0 -41 20.5 -70.5
t49.5 -29.5t49.5 26.5t20.5 63.5h40q0 -37 20.5 -63.5t49.5 -26.5t49.5 36.5t20.5 88.5q0 38 -13 68.5t-37 46.5l25 30q31 -26 48 -64t17 -81q0 -68 -32 -116.5t-78 -48.5q-26 0 -50 16t-40 44q-16 -28 -40 -44t-50 -16q-46 0 -78 41t-32 99v0z" />
    <glyph glyph-name="g" unicode="g" horiz-adv-x="568" 
d="M273 360q0 -37 -13 -68.5t-37 -51.5q-36 -30 -55.5 -59t-19.5 -51q0 -33 23.5 -56.5t56.5 -23.5q41 0 70.5 44t29.5 106h40q0 -62 29.5 -106t70.5 -44q31 0 53 22t22 53q0 19 -6.5 38.5t-18.5 36.5l30 30q19 -23 29.5 -49t10.5 -51q0 -54 -35 -92t-85 -38q-41 0 -74.5 28
t-45.5 72q-12 -44 -45.5 -72t-74.5 -28q-54 0 -92 35t-38 85q0 31 17 62.5t48 57.5t48 57.5t17 62.5q0 23 -14.5 39t-35.5 16t-35.5 -16t-14.5 -39q0 -8 5 -18t15 -22l-40 -30q-15 17 -22.5 35t-7.5 35q0 41 29.5 70.5t70.5 29.5q14 0 26.5 -2.5t23.5 -7.5q63 -44 115.5 -67
t89.5 -23q32 0 64 24t56 66l35 -30q-35 -49 -76 -77t-79 -28q-47 0 -160 65v-20v0z" />
    <glyph glyph-name="h" unicode="h" horiz-adv-x="569" 
d="M274 360q0 -37 -14.5 -70t-40.5 -55q-33 -28 -51.5 -55.5t-18.5 -49.5q0 -33 23.5 -56.5t56.5 -23.5q41 0 70.5 44t29.5 106h40q0 -62 29.5 -106t70.5 -44q29 0 49.5 23.5t20.5 56.5q0 20 -5 38t-15 32l35 30q17 -20 26 -46t9 -54q0 -54 -35 -92t-85 -38q-41 0 -74.5 28
t-45.5 72q-12 -44 -45.5 -72t-74.5 -28q-54 0 -92 38t-38 92q0 29 18.5 60.5t51.5 59.5q29 24 44.5 53t15.5 57q0 23 -14.5 39t-35.5 16t-35.5 -16t-14.5 -39q0 -8 5 -18t15 -22l-40 -30q-15 17 -22.5 35t-7.5 35q0 41 29.5 70.5t70.5 29.5q30 0 59.5 -17t50.5 -48
q45 -32 96.5 -48.5t103.5 -16.5q12 0 21 9t9 21q0 14 -11 27.5t-29 22.5h-50v40h92l18 -40q14 -12 22 -25t8 -25q0 -29 -23.5 -49.5t-56.5 -20.5q-46 0 -100.5 18t-114.5 52v0z" />
    <glyph glyph-name="i" unicode="i" horiz-adv-x="570" 
d="M275 360q0 -33 -14.5 -63t-40.5 -52q-33 -28 -51.5 -58t-18.5 -57q0 -33 23.5 -56.5t56.5 -23.5q41 0 70.5 44t29.5 106h40q0 -62 29.5 -106t70.5 -44q29 0 49.5 23.5t20.5 56.5q0 19 -8 37.5t-22 32.5l40 30q19 -23 29.5 -49t10.5 -51q0 -54 -35 -92t-85 -38
q-41 0 -74.5 28t-45.5 72q-12 -44 -45.5 -72t-74.5 -28q-54 0 -92 38t-38 92q0 32 18.5 64.5t51.5 60.5q29 24 44.5 51.5t15.5 53.5q0 21 -14.5 35.5t-35.5 14.5t-35.5 -14.5t-14.5 -35.5q0 -8 5 -18t15 -22l-40 -30q-15 17 -22.5 35t-7.5 35q0 41 29.5 70.5t70.5 29.5
q27 0 52 -13t43 -37q44 -34 78.5 -52t56.5 -18q35 0 65 19t45 51q-27 -10 -40 -10q-41 0 -70.5 26.5t-29.5 63.5q0 41 29.5 70.5t70.5 29.5t70.5 -29.5t29.5 -70.5q0 -79 -50 -134.5t-120 -55.5q-31 0 -65.5 15.5t-69.5 44.5v0zM430 495q0 -23 14.5 -39t35.5 -16
q16 0 28.5 4t21.5 11l5 40q0 25 -16 42.5t-39 17.5q-21 0 -35.5 -17.5t-14.5 -42.5v0z" />
    <glyph glyph-name="j" unicode="j" horiz-adv-x="27" 
d="M-165 -310q0 25 14.5 49t40.5 41t40.5 36t14.5 34q0 17 -11.5 28.5t-28.5 11.5t-28.5 -9t-11.5 -21q0 -7 4 -15t11 -15l-35 -25q-12 12 -18.5 26.5t-6.5 28.5q0 31 25 53t60 22q19 0 37.5 -9t32.5 -26q104 -60 145 -60q19 0 32 11.5t13 28.5q0 13 -5.5 24t-14.5 16l30 25
q16 -9 25.5 -26.5t9.5 -38.5q0 -33 -26.5 -56.5t-63.5 -23.5q-26 0 -59 11.5t-71 33.5q0 -21 -17 -45t-48 -45q-24 -16 -37 -33.5t-13 -31.5q0 -21 17.5 -35.5t42.5 -14.5q33 0 56.5 26.5t23.5 63.5h40q0 -37 23.5 -63.5t56.5 -26.5q25 0 42.5 14.5t17.5 35.5q0 12 -4 24.5
t-11 25.5l30 20q12 -14 18.5 -32.5t6.5 -37.5q0 -37 -29.5 -63.5t-70.5 -26.5q-30 0 -57 16t-43 44q-16 -28 -43 -44t-57 -16q-41 0 -70.5 26.5t-29.5 63.5v0z" />
    <glyph glyph-name="k" unicode="k" horiz-adv-x="300" 
d="M275 -150v40l20 140h20l20 -140v-40h-60v0zM-20 145l5 70q20 -73 61.5 -119t88.5 -46q56 0 95.5 50.5t39.5 121.5q0 74 -44 126t-106 52l10 50q79 0 134.5 -67.5t55.5 -162.5q0 -91 -54 -155.5t-131 -64.5q-51 0 -94.5 40.5t-60.5 104.5v0z" />
    <glyph glyph-name="l" unicode="l" horiz-adv-x="120" 
d="M190 -370v30l20 50h20l20 -50v-30h-60v0zM-140 -190q0 -33 23.5 -56.5t56.5 -23.5t56.5 23.5t23.5 56.5t-23.5 56.5t-56.5 23.5t-56.5 -23.5t-23.5 -56.5v0zM-180 -190q0 50 35 85t85 35t85 -35t35 -85q0 -33 20.5 -56.5t49.5 -23.5t49.5 23.5t20.5 56.5q0 35 -25 60
t-60 25l10 35q48 0 81.5 -35t33.5 -85q0 -33 20.5 -56.5t49.5 -23.5t49.5 23.5t20.5 56.5q0 37 -26.5 63.5t-63.5 26.5l10 30q50 0 85 -35t35 -85t-32 -85t-78 -35q-25 0 -47.5 14.5t-37.5 40.5q-15 -26 -40.5 -40.5t-54.5 -14.5q-25 0 -47.5 14.5t-37.5 40.5
q-18 -26 -46 -40.5t-59 -14.5q-50 0 -85 35t-35 85v0z" />
    <glyph glyph-name="m" unicode="m" horiz-adv-x="772" 
d="M202 100q0 -21 29.5 -35.5t70.5 -14.5q51 0 90.5 13t59.5 37q-29 29 -68 44.5t-82 15.5q-41 0 -70.5 -17.5t-29.5 -42.5v0zM52 330q0 54 35 92t85 38q42 0 78 -27.5t52 -72.5q16 45 49 72.5t71 27.5q37 0 68.5 -24.5t46.5 -65.5q15 41 52 65.5t83 24.5q50 0 85 -38
t35 -92q0 -25 -10.5 -51t-29.5 -49l-40 20q15 17 22.5 38t7.5 42q0 33 -20.5 56.5t-49.5 23.5q-46 0 -78 -44t-32 -106q0 -43 -13 -84t-37 -76q29 -24 44.5 -63.5t15.5 -86.5h-50q0 35 -10.5 66t-29.5 54q-28 -33 -75 -51.5t-105 -18.5q-62 0 -106 29.5t-44 70.5t44 70.5
t106 29.5q47 0 93.5 -18t86.5 -52q15 26 22.5 59t7.5 71q0 62 -26.5 106t-63.5 44q-41 0 -70.5 -47t-29.5 -113h-40q0 66 -32 113t-78 47q-29 0 -49.5 -23.5t-20.5 -56.5q0 -21 7.5 -42t22.5 -38l-30 -30q-24 20 -37 49t-13 61v0z" />
    <glyph glyph-name="n" unicode="n" horiz-adv-x="80" 
d="M-60 -300q0 -12 17.5 -21t42.5 -9t51 10.5t49 29.5q-17 10 -42.5 15t-57.5 5q-25 0 -42.5 -9t-17.5 -21v0zM-180 -170q0 41 28 70.5t67 29.5q25 0 47.5 -12t37.5 -33q15 21 36 33t44 12q22 0 43 -10.5t37 -29.5q16 19 37 29.5t43 10.5q41 0 70.5 -29.5t29.5 -70.5
q0 -18 -5 -33t-15 -27l-35 20q15 26 15 40q0 25 -17.5 42.5t-42.5 17.5q-23 0 -40.5 -17.5t-19.5 -42.5q-3 -34 -10.5 -61.5t-19.5 -48.5q19 -16 34.5 -39t25.5 -51h-50q-7 18 -15.5 32t-19.5 23q-26 -26 -58.5 -40.5t-66.5 -14.5q-41 0 -70.5 20.5t-29.5 49.5t29.5 49.5
t70.5 20.5t72 -7.5t48 -22.5q10 17 15 40t5 50q0 25 -17.5 42.5t-42.5 17.5t-42.5 -17.5t-17.5 -42.5h-40q0 25 -17.5 42.5t-42.5 17.5t-42.5 -17.5t-17.5 -42.5q0 -13 10 -40l-30 -20q-10 17 -15 32.5t-5 27.5v0z" />
    <glyph glyph-name="o" unicode="o" horiz-adv-x="595" 
d="M235 0q-58 0 -99 48.5t-41 116.5q0 48 14 90.5t41 74.5q-17 17 -26 41.5t-9 53.5q0 35 24.5 65t65.5 45l25 -35q-32 -11 -51 -32t-19 -43t6.5 -40t18.5 -30q10 7 23 11t27 4q37 0 63.5 -26.5t26.5 -63.5q0 -41 -31 -70.5t-74 -29.5q-21 0 -39.5 8t-30.5 22q-6 -22 -6 -45
q0 -48 26.5 -81.5t64.5 -33.5q41 0 70.5 38t29.5 92h40q0 -54 29.5 -92t70.5 -38q39 0 67 31.5t28 75.5q0 45 -28 76.5t-67 31.5h-40v40h40q39 0 67 29.5t28 70.5q0 26 -13 50t-37 40l30 35q31 -21 48 -54.5t17 -70.5q0 -38 -17.5 -70.5t-47.5 -49.5q30 -17 47.5 -56
t17.5 -89q0 -58 -41 -99t-99 -41q-38 0 -70.5 21.5t-49.5 58.5q-17 -37 -49.5 -58.5t-70.5 -21.5v0zM160 250q10 -12 25.5 -18.5t34.5 -6.5q23 0 39 16t16 39q0 19 -11.5 32t-28.5 13q-27 0 -48 -21t-27 -54v0z" />
    <glyph glyph-name="p" unicode="p" horiz-adv-x="595" 
d="M95 165q0 48 14 90.5t41 74.5q-17 17 -26 41.5t-9 53.5q0 35 24.5 65t65.5 45l25 -35q-32 -11 -51 -32t-19 -43t6.5 -40t18.5 -30q10 7 23 11t27 4q37 0 63.5 -26.5t26.5 -63.5q0 -41 -31 -70.5t-74 -29.5q-21 0 -39.5 8t-30.5 22q-6 -22 -6 -45q0 -48 26.5 -81.5
t64.5 -33.5q41 0 70.5 38t29.5 92h40q0 -54 29.5 -92t70.5 -38q39 0 67 26.5t28 63.5q0 43 -28 74t-67 31h-80v50h75q25 0 42.5 16.5t17.5 40.5t-17.5 41t-42.5 17h-60v40h135v-40q14 -12 22 -27t8 -31q0 -21 -10.5 -41t-29.5 -36q36 -13 58 -50t22 -85q0 -58 -41 -99
t-99 -41q-38 0 -70.5 21.5t-49.5 58.5q-17 -37 -49.5 -58.5t-70.5 -21.5q-58 0 -99 48.5t-41 116.5v0zM160 250q10 -12 25.5 -18.5t34.5 -6.5q23 0 39 16t16 39q0 19 -11.5 32t-28.5 13q-27 0 -48 -21t-27 -54v0z" />
    <glyph glyph-name="q" unicode="q" horiz-adv-x="594" 
d="M94 185q0 38 14 75.5t41 69.5q-17 17 -26 41.5t-9 53.5q0 35 24.5 65t65.5 45l25 -35q-32 -11 -51 -32t-19 -43t6.5 -40t18.5 -30q10 7 23 11t27 4q37 0 63.5 -26.5t26.5 -63.5q0 -41 -31 -70.5t-74 -29.5q-21 0 -39.5 8t-30.5 22l-3 -20q-5 -56 21.5 -98t66.5 -42
q41 0 70.5 38t29.5 92h40q0 -54 29.5 -92t70.5 -38q39 0 67 32t28 78t-28 78t-67 32h-50v40h45q25 0 46 28.5t29 71.5q-9 -5 -21.5 -7.5t-28.5 -2.5q-41 0 -70.5 29.5t-29.5 70.5t29.5 70.5t70.5 29.5q43 0 74 -36.5t31 -88.5q0 -62 -15.5 -109t-44.5 -71q34 -12 54.5 -49.5
t20.5 -85.5q0 -66 -41 -113t-99 -47q-38 0 -70.5 21.5t-49.5 58.5q-17 -37 -49.5 -58.5t-70.5 -21.5q-58 0 -99 54t-41 131v0zM159 250q10 -12 25.5 -18.5t34.5 -6.5q23 0 39 16t16 39q0 19 -11.5 32t-28.5 13q-27 0 -48 -21t-27 -54v0zM434 500q0 -25 17.5 -42.5
t42.5 -17.5t42.5 16t17.5 39q0 27 -17.5 46t-42.5 19t-42.5 -17.5t-17.5 -42.5v0z" />
    <glyph glyph-name="r" unicode="r" horiz-adv-x="20" 
d="M-120 -140q5 -14 16 -22t24 -8q12 0 21 9t9 21t-9 21t-21 9q-11 0 -21.5 -8t-18.5 -22v0zM-180 -210q0 58 29.5 99t70.5 41q29 0 49.5 -20.5t20.5 -49.5t-20.5 -49.5t-49.5 -20.5q-17 0 -32.5 8t-27.5 22v-30q0 -41 20.5 -70.5t49.5 -29.5t49.5 26.5t20.5 63.5h40
q0 -37 20.5 -63.5t49.5 -26.5t49.5 20.5t20.5 49.5t-20.5 49.5t-49.5 20.5h-25v40h25q29 0 49.5 14.5t20.5 35.5q0 10 -5 24t-15 31l40 20q10 -17 15 -35t5 -35q0 -29 -14 -51.5t-36 -28.5q23 -13 36.5 -36t13.5 -49q0 -46 -32 -78t-78 -32q-28 0 -52.5 13.5t-37.5 36.5
q-13 -23 -37.5 -36.5t-52.5 -13.5q-46 0 -78 41t-32 99v0z" />
    <glyph glyph-name="s" unicode="s" horiz-adv-x="505" 
d="M135 220q0 -70 50 -120t120 -50t120 50t50 120q0 79 -50 134.5t-120 55.5t-120 -55.5t-50 -134.5v0zM185 410h-100v40h370v-40h-30q46 -27 73 -78t27 -112q0 -91 -64.5 -155.5t-155.5 -64.5t-155.5 64.5t-64.5 155.5q0 61 27 112t73 78v0zM275 190v60h60v-60h-60v0z" />
    <glyph glyph-name="t" unicode="t" horiz-adv-x="505" 
d="M85 220q0 61 27 112t73 78q-41 0 -70.5 26.5t-29.5 63.5q0 46 44 78t106 32q120 0 205 -114.5t85 -276.5q0 -91 -64.5 -155t-155.5 -64t-155.5 64.5t-64.5 155.5v0zM135 220q0 -70 50 -120t120 -50t120 50t50 120q0 79 -50 134.5t-120 55.5t-120 -55.5t-50 -134.5v0z
M135 500q0 -21 20.5 -35.5t49.5 -14.5h110q42 0 76 -13t54 -37q-28 77 -85.5 123.5t-124.5 46.5q-41 0 -70.5 -20.5t-29.5 -49.5v0zM275 190v60h60v-60h-60v0z" />
    <glyph glyph-name="u" unicode="u" 
d="M-150 -220q0 62 44 106t106 44t106 -44t44 -106t-44 -106t-106 -44t-106 44t-44 106v0zM-110 -220q0 -46 32 -78t78 -32t78 32t32 78t-32 78t-78 32t-78 -32t-32 -78v0zM-20 -240v40h40v-40h-40v0z" />
    <glyph glyph-name="v" unicode="v" horiz-adv-x="580" 
d="M135 180q0 -54 28 -92t67 -38q37 0 63.5 35t26.5 85h40q0 -50 29.5 -85t70.5 -35q37 0 63.5 26.5t26.5 63.5q0 32 -8 56t-22 34q-22 -22 -50.5 -33.5t-59.5 -11.5q-39 0 -67 22t-28 53t28 53t67 22q28 0 54 -9t46 -26q0 46 -50 78t-120 32q-85 0 -145 -67.5t-60 -162.5v0
zM360 260q0 -12 14.5 -21t35.5 -9t42 7.5t38 22.5q-17 15 -38 22.5t-42 7.5t-35.5 -9t-14.5 -21v0zM210 410h-120v40h442v-40h-47q30 -17 47.5 -44t17.5 -56q0 -11 -2.5 -21t-7.5 -19q28 -16 44 -51t16 -79q0 -58 -41 -99t-99 -41q-42 0 -75.5 25t-44.5 65
q-11 -40 -41.5 -65t-68.5 -25q-58 0 -99 52.5t-41 127.5t32 136.5t88 93.5v0z" />
    <glyph glyph-name="w" unicode="w" horiz-adv-x="581" 
d="M136 185q0 -56 28 -95.5t67 -39.5q37 0 63.5 35t26.5 85h40q0 -50 29.5 -85t70.5 -35q37 0 63.5 26.5t26.5 63.5q0 26 -7.5 49.5t-22.5 40.5q-16 -19 -45 -29.5t-65 -10.5q-39 0 -67 20.5t-28 49.5t28 49.5t67 20.5q24 0 49 -7.5t51 -22.5q0 46 -50 78t-120 32
q-85 0 -145 -66t-60 -159v0zM361 260q0 -12 14.5 -21t35.5 -9t42 7.5t38 22.5q-17 15 -38 22.5t-42 7.5t-35.5 -9t-14.5 -21v0zM91 185q0 72 32 132.5t88 92.5q-41 0 -70.5 26.5t-29.5 63.5q0 46 52.5 78t127.5 32q108 0 184 -76t76 -184q0 -63 -10 -80q28 -16 44 -51
t16 -79q0 -58 -41 -99t-99 -41q-39 0 -72 24.5t-48 65.5q-15 -41 -48 -65.5t-72 -24.5q-54 0 -92 54t-38 131v0zM161 500q0 -21 26.5 -35.5t63.5 -14.5h90q53 0 97 -15.5t73 -44.5q0 75 -64.5 127.5t-155.5 52.5q-54 0 -92 -20.5t-38 -49.5v0z" />
    <glyph glyph-name="x" unicode="x" horiz-adv-x="20" 
d="M-180 -235q0 68 58.5 116.5t141.5 48.5q70 0 120 -32t50 -78q14 -14 22 -32.5t8 -37.5q0 -41 -32 -70.5t-78 -29.5q-28 0 -52.5 13.5t-37.5 36.5q-13 -23 -37.5 -36.5t-52.5 -13.5q-46 0 -78 33.5t-32 81.5v0zM-140 -235q0 -31 20.5 -53t49.5 -22t49.5 20.5t20.5 49.5h40
q0 -29 20.5 -49.5t49.5 -20.5t49.5 17.5t20.5 42.5q0 11 -2.5 21t-7.5 19q-17 -15 -35 -22.5t-35 -7.5q-25 0 -42.5 14.5t-17.5 35.5t17.5 35.5t42.5 14.5q15 0 30.5 -5t29.5 -15q-11 23 -49 36.5t-91 13.5q-66 0 -113 -36.5t-47 -88.5v0zM70 -190q0 -8 9 -14t21 -6
q10 0 20 5t20 15q-10 10 -20 15t-20 5q-12 0 -21 -6t-9 -14v0z" />
    <glyph glyph-name="y" unicode="y" horiz-adv-x="578" 
d="M138 180q0 -54 26.5 -92t63.5 -38t63.5 35t26.5 85h40q0 -50 29.5 -85t70.5 -35q37 0 63.5 26.5t26.5 63.5q0 26 -7.5 49.5t-22.5 40.5q-22 -22 -50.5 -33.5t-59.5 -11.5q-39 0 -67 22t-28 53t28 53t67 22q28 0 54 -9t46 -26q0 46 -50 78t-120 32q-83 0 -141.5 -67.5
t-58.5 -162.5v0zM358 260q0 -12 14.5 -21t35.5 -9t42 7.5t38 22.5q-17 15 -38 22.5t-42 7.5t-35.5 -9t-14.5 -21v0zM218 410h-130v40h442v-40h-52q32 -19 51 -45.5t19 -54.5q0 -11 -2.5 -21t-7.5 -19q28 -16 44 -51t16 -79q0 -58 -41 -99t-99 -41q-42 0 -75.5 25t-44.5 65
q-11 -40 -41.5 -65t-68.5 -25q-58 0 -99 52.5t-41 127.5q0 72 35 133.5t95 96.5v0zM308 -150v40l20 140h20l20 -140v-40h-60v0z" />
    <glyph glyph-name="z" unicode="z" horiz-adv-x="20" 
d="M-180 -235q0 68 58.5 116.5t141.5 48.5q70 0 120 -32t50 -78q14 -14 22 -32.5t8 -37.5q0 -41 -32 -70.5t-78 -29.5q-28 0 -52.5 13.5t-37.5 36.5q-13 -23 -37.5 -36.5t-52.5 -13.5q-46 0 -78 33.5t-32 81.5v0zM-140 -235q0 -31 20.5 -53t49.5 -22t49.5 20.5t20.5 49.5h40
q0 -29 20.5 -49.5t49.5 -20.5t49.5 17.5t20.5 42.5q0 11 -2.5 21t-7.5 19q-17 -15 -35 -22.5t-35 -7.5q-25 0 -42.5 14.5t-17.5 35.5t17.5 35.5t42.5 14.5q15 0 30.5 -5t29.5 -15q-11 23 -49 36.5t-91 13.5q-66 0 -113 -36.5t-47 -88.5v0zM70 -190q0 -8 9 -14t21 -6
q10 0 20 5t20 15q-10 10 -20 15t-20 5q-12 0 -21 -6t-9 -14v0zM-10 -410v30l20 50h20l20 -50v-30h-60v0z" />
    <glyph glyph-name="braceleft" unicode="{" horiz-adv-x="581" 
d="M136 180q0 -54 28 -92t67 -38q37 0 63.5 35t26.5 85h40q0 -50 29.5 -85t70.5 -35q37 0 63.5 26.5t26.5 63.5q0 29 -7.5 53.5t-22.5 41.5q-20 -24 -49 -37t-61 -13q-39 0 -67 22t-28 53t28 53t67 22q24 0 50 -9t50 -26q0 46 -50 78t-120 32q-85 0 -145 -67.5t-60 -162.5v0
zM361 260q0 -12 14.5 -21t35.5 -9t42 7.5t38 22.5q-17 15 -38 22.5t-42 7.5t-35.5 -9t-14.5 -21v0zM91 180q0 75 32 136.5t88 93.5q-41 0 -70.5 26.5t-29.5 63.5q0 46 52.5 78t127.5 32q108 0 184 -76t76 -184q0 -63 -10 -80q28 -16 44 -51t16 -79q0 -58 -41 -99t-99 -41
q-39 0 -72 24.5t-48 65.5q-15 -41 -48 -65.5t-72 -24.5q-54 0 -92 52.5t-38 127.5v0zM161 500q0 -21 26.5 -35.5t63.5 -14.5h90q53 0 97 -15.5t73 -44.5q0 75 -64.5 127.5t-155.5 52.5q-54 0 -92 -20.5t-38 -49.5v0zM311 -150v40l20 140h20l20 -140v-40h-60v0z" />
    <glyph glyph-name="bar" unicode="|" horiz-adv-x="630" 
d="M500 460q62 0 106 -64.5t44 -155.5q0 -99 -44 -169.5t-106 -70.5q-46 0 -78 32t-32 78q0 41 29.5 70.5t70.5 29.5q13 0 25.5 -5t24.5 -15l-20 -30q-9 5 -16.5 7.5t-13.5 2.5q-23 0 -39 -17.5t-16 -42.5t19 -42.5t46 -17.5q46 0 78 55.5t32 134.5q0 75 -32 127.5t-78 52.5
t-78 -50t-32 -120h-40q0 70 -35 120t-85 50q-33 0 -56.5 -26.5t-23.5 -63.5t28 -63.5t67 -26.5v-40q-39 0 -67 -26.5t-28 -63.5q0 -25 22 -42.5t53 -17.5q28 0 50.5 8t34.5 22l30 -30q-20 -24 -49 -37t-61 -13q-54 0 -92 32t-38 78q0 32 19 61.5t51 48.5q-32 15 -51 47.5
t-19 72.5q0 50 38 85t92 35q47 0 85.5 -27.5t54.5 -72.5q16 45 52 72.5t78 27.5v0z" />
    <glyph glyph-name="braceright" unicode="}" horiz-adv-x="525" 
d="M100 365q0 35 36.5 60t88.5 25h300v-40h-300q-32 0 -54.5 -14t-22.5 -33q0 -18 18 -30.5t44 -12.5h205v-40h-205q-27 0 -46 -16t-19 -39q0 -19 19 -32t46 -13h125v-40h-125q-21 0 -35.5 -14.5t-14.5 -35.5t14.5 -35.5t35.5 -14.5h75v-40h-75q-39 0 -67 26.5t-28 63.5
q0 23 11 42t29 28q-24 7 -39.5 25t-15.5 40q0 28 15.5 49.5t39.5 25.5q-25 9 -40 27t-15 38v0z" />
    <glyph glyph-name="asciitilde" unicode="~" horiz-adv-x="630" 
d="M500 460q18 0 31 -4t19 -11q8 6 13 12.5t7 12.5q-29 0 -49.5 20.5t-20.5 49.5q0 33 23.5 56.5t56.5 23.5t56.5 -23.5t23.5 -56.5q0 -25 -19.5 -55t-55.5 -60q31 -26 48 -74.5t17 -110.5q0 -99 -44 -169.5t-106 -70.5q-48 0 -81.5 32t-33.5 78q0 43 31 74t74 31
q13 0 25.5 -5t24.5 -15l-20 -35q-9 5 -16.5 7.5t-13.5 2.5q-25 0 -42.5 -17.5t-17.5 -42.5t20.5 -42.5t49.5 -17.5q46 0 78 55.5t32 134.5q0 72 -32 123.5t-78 51.5t-78 -48.5t-32 -116.5h-40q0 68 -35 116.5t-85 48.5q-33 0 -56.5 -25t-23.5 -60q0 -37 32 -63.5t78 -26.5
v-40q-46 0 -78 -26.5t-32 -63.5q0 -25 22 -42.5t53 -17.5q21 0 39.5 8t30.5 22l30 -40q-16 -19 -42 -29.5t-58 -10.5q-52 0 -88.5 32t-36.5 78q0 32 19 61.5t51 48.5q-32 19 -51 51t-19 69q0 50 38 85t92 35q47 0 85.5 -27.5t54.5 -72.5q16 45 52 72.5t78 27.5v0zM540 540
q0 -17 11.5 -28.5t28.5 -11.5t28.5 11.5t11.5 28.5t-11.5 28.5t-28.5 11.5t-28.5 -11.5t-11.5 -28.5v0z" />
    <glyph glyph-name="uni008D" horiz-adv-x="502" 
d="M103 -1l-43 43l147 148l-147 147l44 44l147 -147l147 147l44 -44l-147 -147l147 -148l-43 -43l-148 147l-148 -147v0z" />
    <glyph glyph-name="uni0090" horiz-adv-x="250" 
d="M0 0v1h1v-1h-1v0z" />
    <glyph glyph-name="nonbreakingspace" unicode="&#xa0;" horiz-adv-x="200" 
d="M0 0v1h1v-1h-1v0z" />
    <glyph glyph-name="exclamdown" unicode="&#xa1;" horiz-adv-x="30" 
d="M-180 -287q0 23 12.5 41.5t32.5 25.5q-21 11 -33 30t-12 41q0 36 29.5 61t70.5 25q31 0 57.5 -14.5t42.5 -39.5q16 25 42.5 39.5t57.5 14.5q50 0 85 -45t35 -109q0 -63 -35 -108t-85 -45q-37 0 -63.5 23.5t-26.5 57.5t25 58t60 24q12 0 25 -6t25 -17l-20 -23
q-6 5 -14 7.5t-16 2.5q-19 0 -32 -13.5t-13 -32.5q0 -18 14.5 -31t35.5 -13q33 0 56.5 35t23.5 84q0 48 -23.5 81.5t-56.5 33.5t-56.5 -21t-23.5 -51h-40q0 30 -23.5 51t-56.5 21q-25 0 -42.5 -14.5t-17.5 -35.5q0 -22 23.5 -37.5t56.5 -15.5v-36q-33 0 -56.5 -14.5
t-23.5 -34.5q0 -19 16 -32.5t39 -13.5q16 0 30 4.5t25 13.5l20 -28q-17 -13 -35 -20t-35 -7q-41 0 -70.5 24.5t-29.5 58.5v0z" />
    <glyph glyph-name="cent" unicode="&#xa2;" horiz-adv-x="292" 
d="M-120 -110v40h130q15 17 22.5 38t7.5 42q0 19 -4 34.5t-11 25.5l25 20q15 -17 22.5 -38t7.5 -42q0 -28 -30 -80h130v-40h-70q14 -17 19.5 -40.5t0.5 -49.5q29 0 49.5 -20.5t20.5 -49.5t-23.5 -49.5t-56.5 -20.5q12 -10 27 -15t33 -5q50 0 85 48.5t35 116.5
q0 82 -32.5 158.5t-92.5 136.5l25 25q67 -67 103.5 -150.5t36.5 -169.5q0 -85 -47 -145t-113 -60q-50 0 -85 35t-35 85v20q-9 -5 -16.5 -7.5t-13.5 -2.5q-41 0 -70.5 29.5t-29.5 70.5q0 12 5 27.5t15 32.5h-70v0zM-30 -170q0 -25 17.5 -42.5t42.5 -17.5t42.5 17.5t17.5 42.5
t-17.5 42.5t-42.5 17.5t-42.5 -17.5t-17.5 -42.5v0zM100 -270q0 -12 9 -21t21 -9t21 9t9 21t-9 21t-21 9t-21 -9t-9 -21v0z" />
    <glyph glyph-name="sterling" unicode="&#xa3;" horiz-adv-x="432" 
d="M352 310q7 9 11 29.5t4 50.5q0 27 -4 47t-11 33q-11 -32 -38.5 -51t-61.5 -19q-41 0 -70.5 29.5t-29.5 70.5t29.5 70.5t70.5 29.5q66 0 113 -61.5t47 -148.5q0 -32 -5 -57.5t-15 -42.5q29 -24 44.5 -58t15.5 -72q0 -66 -58.5 -113t-141.5 -47t-141.5 47t-58.5 113
q0 19 6.5 37.5t18.5 32.5l35 -20q-10 -12 -15 -24.5t-5 -25.5q0 -46 47 -78t113 -32q62 0 106 32t44 78q0 22 -6.5 41.5t-18.5 33.5q-14 -38 -45.5 -61.5t-69.5 -23.5q-41 0 -70.5 26.5t-29.5 63.5t29.5 63.5t70.5 26.5q27 0 50 -5t40 -15v0zM192 500q0 -25 17.5 -42.5
t42.5 -17.5q24 0 44 22.5t26 57.5q-11 19 -29.5 29.5t-40.5 10.5q-25 0 -42.5 -17.5t-17.5 -42.5v0zM212 240q0 -21 14.5 -35.5t35.5 -14.5q29 0 51.5 22.5t28.5 57.5q-17 10 -37.5 15t-42.5 5q-21 0 -35.5 -14.5t-14.5 -35.5v0z" />
    <glyph glyph-name="currency" unicode="&#xa4;" horiz-adv-x="20" 
d="M-400 -310v40h230q-15 17 -22.5 32.5t-7.5 27.5q0 41 29.5 70.5t70.5 29.5t70.5 -29.5t29.5 -70.5t-29.5 -70.5t-70.5 -29.5h-300v0zM-160 -210q0 -25 17.5 -42.5t42.5 -17.5t42.5 17.5t17.5 42.5t-17.5 42.5t-42.5 17.5t-42.5 -17.5t-17.5 -42.5v0z" />
    <glyph glyph-name="yen" unicode="&#xa5;" horiz-adv-x="570" 
d="M135 180q0 -54 28 -92t67 -38q37 0 63.5 35t26.5 85h40q0 -50 26.5 -85t63.5 -35q39 0 67 38t28 92q0 95 -60 162.5t-145 67.5t-145 -67.5t-60 -162.5v0zM210 410h-120v40h430v-40h-50q56 -32 88 -93.5t32 -136.5t-41 -127.5t-99 -52.5q-38 0 -68.5 25t-41.5 65
q-11 -40 -41.5 -65t-68.5 -25q-58 0 -99 52.5t-41 127.5t32 136.5t88 93.5v0zM310 230v60h60v-60h-60v0zM310 -150v40l20 140h20l20 -140v-40h-60v0z" />
    <glyph glyph-name="brokenbar" unicode="&#xa6;" horiz-adv-x="570" 
d="M135 180q0 -54 28 -92t67 -38q37 0 63.5 35t26.5 85h40q0 -50 26.5 -85t63.5 -35q39 0 67 38t28 92q0 95 -60 162.5t-145 67.5t-145 -67.5t-60 -162.5v0zM210 410q-41 0 -70.5 26.5t-29.5 63.5q0 46 52.5 78t127.5 32q124 0 212 -105.5t88 -254.5v-70q0 -75 -41 -127.5
t-99 -52.5q-38 0 -68.5 25t-41.5 65q-11 -40 -41.5 -65t-68.5 -25q-58 0 -99 52.5t-41 127.5t32 136.5t88 93.5v0zM230 450h110q61 0 114.5 -32t85.5 -88q-20 105 -90.5 172.5t-159.5 67.5q-54 0 -92 -20.5t-38 -49.5q0 -21 20.5 -35.5t49.5 -14.5v0zM310 230v60h60v-60h-60
v0zM310 -150v40l20 140h20l20 -140v-40h-60v0z" />
    <glyph glyph-name="section" unicode="&#xa7;" horiz-adv-x="20" 
d="M-10 -215v50h60v-50h-60v0zM-10 -415v30l20 50h20l20 -50v-30h-60v0zM-180 -240q0 68 58.5 116.5t141.5 48.5t141.5 -48.5t58.5 -116.5q0 -48 -32 -81.5t-78 -33.5q-26 0 -50 16t-40 44q-13 -27 -37.5 -43.5t-52.5 -16.5q-46 0 -78 33.5t-32 81.5v0zM-140 -240
q0 -31 20.5 -53t49.5 -22t49.5 20.5t20.5 49.5h40q0 -29 20.5 -49.5t49.5 -20.5t49.5 22t20.5 53q0 52 -47 88.5t-113 36.5t-113 -36.5t-47 -88.5v0z" />
    <glyph glyph-name="dieresis" unicode="&#xa8;" horiz-adv-x="570" 
d="M135 180q0 -54 28 -92t67 -38q37 0 63.5 35t26.5 85h40q0 -50 26.5 -85t63.5 -35q39 0 67 38t28 92q0 95 -60 162.5t-145 67.5t-145 -67.5t-60 -162.5v0zM210 410h-120v40h430v-40h-50q56 -32 88 -93.5t32 -136.5t-41 -127.5t-99 -52.5q-38 0 -68.5 25t-41.5 65
q-11 -40 -41.5 -65t-68.5 -25q-58 0 -99 52.5t-41 127.5t32 136.5t88 93.5v0z" />
    <glyph glyph-name="copyright" unicode="&#xa9;" horiz-adv-x="570" 
d="M135 180q0 -54 28 -92t67 -38q37 0 63.5 35t26.5 85h40q0 -50 26.5 -85t63.5 -35q39 0 67 38t28 92q0 95 -60 162.5t-145 67.5t-145 -67.5t-60 -162.5v0zM210 410q-41 0 -70.5 26.5t-29.5 63.5q0 46 52.5 78t127.5 32q124 0 212 -105.5t88 -254.5v-70q0 -75 -41 -127.5
t-99 -52.5q-38 0 -68.5 25t-41.5 65q-11 -40 -41.5 -65t-68.5 -25q-58 0 -99 52.5t-41 127.5t32 136.5t88 93.5v0zM230 450h110q61 0 114.5 -32t85.5 -88q-20 105 -90.5 172.5t-159.5 67.5q-54 0 -92 -20.5t-38 -49.5q0 -21 20.5 -35.5t49.5 -14.5v0z" />
    <glyph glyph-name="ordfeminine" unicode="&#xaa;" horiz-adv-x="20" 
d="M-180 -235q0 68 58.5 116.5t141.5 48.5t141.5 -48.5t58.5 -116.5q0 -48 -32 -81.5t-78 -33.5q-23 0 -46.5 13t-43.5 37q-20 -24 -43.5 -37t-46.5 -13q-46 0 -78 33.5t-32 81.5v0zM-140 -235q0 -31 20.5 -53t49.5 -22t49.5 20.5t20.5 49.5h40q0 -29 20.5 -49.5t49.5 -20.5
t49.5 22t20.5 53q0 52 -47 88.5t-113 36.5t-113 -36.5t-47 -88.5v0z" />
    <glyph glyph-name="guillemotleft" unicode="&#xab;" horiz-adv-x="570" 
d="M135 180q0 -54 28 -92t67 -38q37 0 63.5 35t26.5 85h40q0 -50 26.5 -85t63.5 -35q39 0 67 38t28 92q0 95 -60 162.5t-145 67.5t-145 -67.5t-60 -162.5v0zM210 410h-120v40h430v-40h-50q56 -32 88 -93.5t32 -136.5t-41 -127.5t-99 -52.5q-38 0 -68.5 25t-41.5 65
q-11 -40 -41.5 -65t-68.5 -25q-58 0 -99 52.5t-41 127.5t32 136.5t88 93.5v0zM310 -150v40l20 140h20l20 -140v-40h-60v0z" />
    <glyph glyph-name="logicalnot" unicode="&#xac;" horiz-adv-x="1000" 
d="M0 250h1000v-40h-1000v40v0z" />
    <glyph glyph-name="registered" unicode="&#xae;" horiz-adv-x="507" 
d="M482 170q0 99 -70.5 169.5t-169.5 70.5h-165v40h383v-40h-73q64 -30 102 -95t38 -145q0 -70 -38 -120t-92 -50q-40 0 -76 42t-54 108q-13 49 -35.5 79.5t-44.5 30.5q-25 0 -42.5 -29.5t-17.5 -70.5q0 -48 18.5 -90t51.5 -70l-35 -30q-40 34 -62.5 84t-22.5 106
q0 62 32 106t78 44q39 0 75 -44.5t55 -115.5q12 -44 34 -72t46 -28q35 0 60 35t25 85v0z" />
    <glyph glyph-name="macron" unicode="&#xaf;" horiz-adv-x="522" 
d="M497 210q0 130 -34 220.5t-86 99.5v-30q0 -46 -29.5 -78t-70.5 -32t-70.5 32t-29.5 78q0 41 29.5 70.5t70.5 29.5q131 0 198 -98.5t67 -291.5q0 -87 -42.5 -148.5t-102.5 -61.5q-40 0 -76 42t-54 108q-13 49 -35.5 79.5t-44.5 30.5q-25 0 -42.5 -29.5t-17.5 -70.5
q0 -48 18.5 -90t51.5 -70l-35 -30q-40 34 -62.5 84t-22.5 106q0 62 32 106t78 44q39 0 75 -44.5t55 -115.5q12 -44 34 -72t46 -28q41 0 70.5 47t29.5 113v0zM227 500q0 -29 14.5 -49.5t35.5 -20.5t35.5 20.5t14.5 49.5v45q-13 7 -25.5 11t-24.5 4q-21 0 -35.5 -17.5
t-14.5 -42.5v0z" />
    <glyph glyph-name="degree" unicode="&#xb0;" horiz-adv-x="15" 
d="M-135 -210q0 -21 22 -35.5t53 -14.5q26 0 49.5 7.5t40.5 22.5q-11 32 -40 51t-65 19q-25 0 -42.5 -14.5t-17.5 -35.5v0zM-180 -210q0 37 31 63.5t74 26.5q41 0 77.5 -21.5t57.5 -58.5q10 14 15 32t5 38q0 28 -7.5 53.5t-22.5 46.5l35 20q20 -28 30 -58.5t10 -61.5
q0 -39 -12 -70.5t-33 -49.5q13 -36 32.5 -58t37.5 -22q11 0 21 4t19 11l20 -45q-12 -10 -27 -15t-33 -5q-32 0 -62 30t-48 80q-17 -15 -43 -22.5t-57 -7.5q-50 0 -85 26.5t-35 63.5v0z" />
    <glyph glyph-name="plusminus" unicode="&#xb1;" horiz-adv-x="547" 
d="M277 270v60h60v-60h-60v0zM57 130q0 46 29.5 78t70.5 32q33 0 56.5 -26.5t23.5 -63.5h-40q0 21 -11.5 35.5t-28.5 14.5q-21 0 -35.5 -20.5t-14.5 -49.5q0 -33 23.5 -56.5t56.5 -23.5q41 0 70.5 44t29.5 106h40q0 -62 29.5 -106t70.5 -44q39 0 67 35t28 85t-17 96t-48 84
l40 20q34 -40 52 -92t18 -108q0 -70 -41 -120t-99 -50q-39 0 -72 24.5t-48 65.5q-11 -40 -44.5 -65t-75.5 -25q-54 0 -92 38t-38 92v0zM57 450h442v-40h-442v40v0z" />
    <glyph glyph-name="twosuperior" unicode="&#xb2;" horiz-adv-x="547" 
d="M57 130q0 46 29.5 78t70.5 32q33 0 56.5 -26.5t23.5 -63.5h-40q0 21 -11.5 35.5t-28.5 14.5q-21 0 -35.5 -20.5t-14.5 -49.5q0 -33 23.5 -56.5t56.5 -23.5q41 0 70.5 44t29.5 106h40q0 -62 29.5 -106t70.5 -44q39 0 67 35t28 85t-17 96t-48 84l40 20q34 -40 52 -92
t18 -108q0 -70 -41 -120t-99 -50q-42 0 -75.5 25t-44.5 65q-11 -40 -44.5 -65t-75.5 -25q-54 0 -92 38t-38 92v0zM247 450q0 -21 14.5 -35.5t35.5 -14.5q14 0 30.5 13.5t29.5 36.5q-10 27 -26.5 43.5t-33.5 16.5q-21 0 -35.5 -17.5t-14.5 -42.5v0zM197 450q0 41 29.5 70.5
t70.5 29.5q50 0 85 -44t35 -106q0 -58 -35 -99t-85 -41q-43 0 -70 10l20 40q11 -5 23.5 -7.5t26.5 -2.5q37 0 58.5 31t11.5 69q-16 -19 -34.5 -29.5t-35.5 -10.5q-41 0 -70.5 26.5t-29.5 63.5v0z" />
    <glyph glyph-name="threesuperior" unicode="&#xb3;" horiz-adv-x="22" 
d="M-180 -220q0 41 28 70.5t67 29.5q18 0 33 -5t27 -15l-20 -30q-7 5 -14.5 7.5t-15.5 2.5q-25 0 -42.5 -17.5t-17.5 -42.5t17.5 -42.5t42.5 -17.5q33 0 56.5 26.5t23.5 63.5h40q0 -37 23.5 -63.5t56.5 -26.5q25 0 42.5 26.5t17.5 63.5q0 42 -24.5 76t-65.5 49l20 35
q50 -18 80 -62t30 -98q0 -59 -27.5 -94.5t-72.5 -35.5q-29 0 -55.5 14.5t-44.5 40.5q-18 -26 -44.5 -40.5t-55.5 -14.5q-43 0 -74 29.5t-31 70.5v0z" />
    <glyph glyph-name="acute" unicode="&#xb4;" horiz-adv-x="547" 
d="M277 270v60h60v-60h-60v0zM57 130q0 46 29.5 78t70.5 32q33 0 56.5 -26.5t23.5 -63.5h-40q0 21 -11.5 35.5t-28.5 14.5q-21 0 -35.5 -20.5t-14.5 -49.5q0 -33 23.5 -56.5t56.5 -23.5q41 0 70.5 44t29.5 106h40q0 -62 29.5 -106t70.5 -44q39 0 67 35t28 85t-17 96t-48 84
l40 20q34 -40 52 -92t18 -108q0 -70 -41 -120t-99 -50q-39 0 -72 24.5t-48 65.5q-15 -41 -48 -65.5t-72 -24.5q-54 0 -92 38t-38 92v0zM57 450h442v-40h-442v40v0zM277 -150v40l20 140h20l20 -140v-40h-60v0z" />
    <glyph glyph-name="mu" unicode="&#xb5;" horiz-adv-x="547" 
d="M57 130q0 46 29.5 78t70.5 32q33 0 56.5 -26.5t23.5 -63.5h-40q0 21 -11.5 35.5t-28.5 14.5q-21 0 -35.5 -20.5t-14.5 -49.5q0 -33 23.5 -56.5t56.5 -23.5q41 0 70.5 44t29.5 106h40q0 -62 29.5 -106t70.5 -44q39 0 67 35t28 85t-17 96t-48 84l40 20q34 -40 52 -92
t18 -108q0 -70 -41 -120t-99 -50q-39 0 -72 24.5t-48 65.5q-15 -41 -48 -65.5t-72 -24.5q-54 0 -92 38t-38 92v0zM247 450q0 -21 14.5 -35.5t35.5 -14.5q14 0 30.5 13.5t29.5 36.5q-10 27 -26.5 43.5t-33.5 16.5q-21 0 -35.5 -17.5t-14.5 -42.5v0zM197 450q0 41 29.5 70.5
t70.5 29.5q50 0 85 -44t35 -106q0 -58 -35 -99t-85 -41q-43 0 -70 10l20 40q11 -5 23.5 -7.5t26.5 -2.5q37 0 58.5 31t11.5 69q-16 -19 -34.5 -29.5t-35.5 -10.5q-41 0 -70.5 26.5t-29.5 63.5v0zM277 -150v40l20 140h20l20 -140v-40h-60v0z" />
    <glyph glyph-name="paragraph" unicode="&#xb6;" horiz-adv-x="470" 
d="M0 250h524v-40h-524v40v0z" />
    <glyph glyph-name="paragraph" unicode="&#xf000;" horiz-adv-x="470" 
d="M0 250h524v-40h-524v40v0z" />
    <glyph glyph-name="cedilla" unicode="&#xb8;" horiz-adv-x="609" 
d="M579 225q0 77 -35 131t-85 54h-80v40h182v-40h-12q37 -17 58.5 -67t21.5 -118q0 -93 -44 -159t-106 -66q-46 0 -82 28t-48 72q-12 -44 -48 -72t-82 -28q-50 0 -85 33.5t-35 81.5q0 34 18.5 68t51.5 62q29 24 44.5 54t15.5 61q0 25 -14.5 42.5t-35.5 17.5t-35.5 -17.5
t-14.5 -42.5q0 -8 5 -18t15 -22l-40 -30q-15 17 -22.5 35t-7.5 35q0 41 29.5 70.5t70.5 29.5t70.5 -29.5t29.5 -70.5q0 -31 -15.5 -63.5t-44.5 -61.5q-34 -34 -52 -65t-18 -55q0 -27 20.5 -46t49.5 -19q46 0 78 44t32 106h40q0 -62 32 -106t78 -44q41 0 70.5 51.5
t29.5 123.5v0z" />
    <glyph glyph-name="onesuperior" unicode="&#xb9;" horiz-adv-x="608" 
d="M583 255q0 81 -17 140t-48 85q-13 -36 -43.5 -58t-66.5 -22q-41 0 -70.5 29.5t-29.5 70.5t29.5 70.5t70.5 29.5q100 0 160 -95.5t60 -254.5q0 -113 -41 -181.5t-109 -68.5q-46 0 -82 28t-48 72q-12 -44 -48 -72t-82 -28q-50 0 -85 33.5t-35 81.5q0 32 18.5 64.5
t51.5 60.5q29 24 44.5 55.5t15.5 64.5q0 25 -14.5 42.5t-35.5 17.5t-35.5 -17.5t-14.5 -42.5q0 -8 5 -18t15 -22l-40 -30q-15 17 -22.5 35t-7.5 35q0 41 29.5 70.5t70.5 29.5t70.5 -29.5t29.5 -70.5q0 -34 -15.5 -67.5t-44.5 -62.5q-34 -34 -52 -63.5t-18 -51.5
q0 -27 20.5 -46t49.5 -19q46 0 78 44t32 106h40q0 -62 32 -106t78 -44q43 0 74 60t31 145v0zM353 500q0 -25 16 -42.5t39 -17.5q27 0 50.5 19t34.5 51q-13 23 -36 36.5t-49 13.5q-23 0 -39 -17.5t-16 -42.5v0z" />
    <glyph glyph-name="ordmasculine" unicode="&#xba;" horiz-adv-x="32" 
d="M-165 -280q0 25 14 46.5t38 33.5t38.5 28t14.5 32q0 12 -11.5 21t-28.5 9t-28.5 -9t-11.5 -21q0 -4 2.5 -9t7.5 -11l-40 -10q-5 9 -7.5 16.5t-2.5 13.5q0 29 23.5 49.5t56.5 20.5t56.5 -19t23.5 -46t-14.5 -50t-38.5 -35t-38 -28t-14 -32q0 -21 17.5 -35.5t42.5 -14.5
q33 0 56.5 23.5t23.5 56.5h40q0 -33 23.5 -56.5t56.5 -23.5q29 0 49.5 33.5t20.5 81.5q0 39 -19 72.5t-51 52.5l30 30q38 -26 59 -68.5t21 -91.5q0 -62 -32 -106t-78 -44q-30 0 -57 16t-43 44q-16 -28 -43 -44t-57 -16q-41 0 -70.5 26.5t-29.5 63.5v0z" />
    <glyph glyph-name="guillemotright" unicode="&#xbb;" horiz-adv-x="609" 
d="M589 220q0 79 -44 134.5t-106 55.5h-50v40h172v-40h-27q43 -20 69 -71.5t26 -118.5q0 -91 -44 -155.5t-106 -64.5q-46 0 -82 28t-48 72q-12 -44 -48 -72t-82 -28q-50 0 -85 33.5t-35 81.5q0 34 18.5 68t51.5 62q29 24 44.5 54t15.5 61q0 23 -14.5 39t-35.5 16t-35.5 -16
t-14.5 -39q0 -8 5 -18t15 -22l-40 -30q-15 17 -22.5 35t-7.5 35q0 41 29.5 70.5t70.5 29.5t70.5 -29.5t29.5 -70.5q0 -31 -15.5 -63.5t-44.5 -61.5q-34 -34 -52 -65t-18 -55q0 -27 20.5 -46t49.5 -19q46 0 78 44t32 106h40q0 -62 32 -106t78 -44t78 50t32 120v0zM319 -150
v40l20 140h20l20 -140v-40h-60v0z" />
    <glyph glyph-name="onequarter" unicode="&#xbc;" horiz-adv-x="608" 
d="M583 255q0 76 -17 132.5t-48 82.5q-12 -34 -42.5 -54.5t-67.5 -20.5q-41 0 -70.5 31t-29.5 74q0 41 29.5 70.5t70.5 29.5q100 0 160 -94t60 -251q0 -106 -44 -180.5t-106 -74.5q-46 0 -82 28t-48 72q-12 -44 -48 -72t-82 -28q-50 0 -85 33.5t-35 81.5q0 32 18.5 64.5
t51.5 60.5q29 24 44.5 55.5t15.5 64.5q0 23 -14.5 39t-35.5 16t-35.5 -16t-14.5 -39q0 -8 5 -18t15 -22l-40 -30q-15 17 -22.5 35t-7.5 35q0 41 29.5 70.5t70.5 29.5t70.5 -29.5t29.5 -70.5q0 -34 -15.5 -67.5t-44.5 -62.5q-34 -34 -52 -63.5t-18 -51.5q0 -27 20.5 -46
t49.5 -19q46 0 78 44t32 106h40q0 -62 32 -106t78 -44q43 0 74 60t31 145v0zM353 500q0 -25 16 -42.5t39 -17.5q27 0 50.5 19t34.5 51q-13 23 -36 36.5t-49 13.5q-23 0 -39 -17.5t-16 -42.5v0zM318 -150v40l20 140h20l20 -140v-40h-60v0z" />
    <glyph glyph-name="onehalf" unicode="&#xbd;" horiz-adv-x="32" 
d="M5 -410v20l20 40h20l20 -40v-20h-60v0zM-165 -280q0 25 14 46.5t38 33.5t38.5 28t14.5 32q0 12 -11.5 21t-28.5 9t-28.5 -9t-11.5 -21q0 -4 2.5 -9t7.5 -11l-40 -10q-5 9 -7.5 16.5t-2.5 13.5q0 29 23.5 49.5t56.5 20.5t56.5 -19t23.5 -46t-14.5 -50t-38.5 -35t-38 -28
t-14 -32q0 -21 17.5 -35.5t42.5 -14.5q33 0 56.5 23.5t23.5 56.5h40q0 -33 23.5 -56.5t56.5 -23.5q29 0 49.5 33.5t20.5 81.5q0 39 -19 72.5t-51 52.5l30 30q38 -26 59 -68.5t21 -91.5q0 -62 -32 -106t-78 -44q-30 0 -57 16t-43 44q-16 -28 -43 -44t-57 -16
q-41 0 -70.5 26.5t-29.5 63.5v0z" />
    <glyph glyph-name="threequarters" unicode="&#xbe;" horiz-adv-x="91" 
d="M36 -170q0 -17 13 -28.5t32 -11.5q25 0 42.5 11.5t17.5 28.5q0 25 -23.5 42.5t-56.5 17.5q-6 -7 -25 -60v0zM-119 -210q0 58 45.5 99t109.5 41q7 16 11 31t4 29q0 17 -7.5 35t-22.5 35l30 20q19 -16 29.5 -39.5t10.5 -50.5q0 -39 -10 -60q43 -8 71.5 -36t28.5 -64
q0 -33 -29.5 -56.5t-70.5 -23.5q-37 0 -63.5 23.5t-26.5 56.5q0 10 5 23t15 27q-39 -7 -64.5 -32.5t-25.5 -57.5q0 -50 50 -85t120 -35t120 52.5t50 127.5h40q0 -91 -61.5 -155.5t-148.5 -64.5t-148.5 47t-61.5 113v0z" />
    <glyph glyph-name="questiondown" unicode="&#xbf;" horiz-adv-x="807" 
d="M132 230q0 -75 48.5 -127.5t116.5 -52.5t116.5 52.5t48.5 127.5q0 77 -48.5 131t-116.5 54t-116.5 -54t-48.5 -131v0zM637 50q60 0 102.5 51.5t42.5 123.5q0 77 -39.5 131t-95.5 54h-40v40h120q25 0 42.5 14.5t17.5 35.5q0 24 -16.5 45.5t-43.5 34.5l20 30
q37 -17 58.5 -47t21.5 -63q0 -37 -25 -63.5t-60 -26.5q40 -28 62.5 -77t22.5 -108q0 -93 -55.5 -159t-134.5 -66q-52 0 -97 30t-68 80q-23 -50 -70.5 -80t-104.5 -30q-87 0 -148.5 67.5t-61.5 162.5t61.5 162.5t148.5 67.5t148.5 -67.5t61.5 -162.5q0 -33 -10 -70
q13 -49 52 -79.5t88 -30.5v0z" />
    <glyph glyph-name="Agrave" unicode="&#xc0;" horiz-adv-x="797" 
d="M137 230q0 -75 47 -127.5t113 -52.5t113 52.5t47 127.5t-47 127.5t-113 52.5t-113 -52.5t-47 -127.5v0zM627 50q60 0 102.5 58.5t42.5 141.5q0 33 -13 69t-37 71q0 -39 -28 -67t-67 -28q-41 0 -70.5 31t-29.5 74q0 41 29.5 70.5t70.5 29.5q79 0 134.5 -73t55.5 -177
t-55.5 -177t-134.5 -73q-52 0 -94.5 30t-60.5 80q-18 -50 -66 -80t-109 -30q-87 0 -148.5 67.5t-61.5 162.5t61.5 162.5t148.5 67.5t148.5 -67.5t61.5 -162.5q0 -49 -10 -70q13 -49 49.5 -79.5t80.5 -30.5v0zM577 400q0 -25 14.5 -42.5t35.5 -17.5t35.5 20.5t14.5 49.5
q0 21 -14.5 35.5t-35.5 14.5t-35.5 -17.5t-14.5 -42.5v0z" />
    <glyph glyph-name="Aacute" unicode="&#xc1;" horiz-adv-x="807" 
d="M137 230q0 -75 47 -127.5t113 -52.5t113 52.5t47 127.5t-47 127.5t-113 52.5t-113 -52.5t-47 -127.5v0zM627 50q64 0 109.5 52.5t45.5 127.5t-48.5 127.5t-116.5 52.5h-40v40h130q31 0 53 20.5t22 49.5q0 25 -19 42.5t-46 17.5q-19 0 -32 -9t-13 -21h15q12 0 21 -11.5
t9 -28.5q0 -12 -11.5 -21t-28.5 -9q-21 0 -35.5 17.5t-14.5 42.5q0 33 26.5 56.5t63.5 23.5q46 0 78 -29.5t32 -70.5q0 -43 -26 -75t-64 -35q42 -30 66 -77.5t24 -102.5q0 -95 -58.5 -162.5t-141.5 -67.5q-47 0 -89.5 30t-65.5 80q-23 -50 -70.5 -80t-104.5 -30
q-87 0 -148.5 67.5t-61.5 162.5t61.5 162.5t148.5 67.5t148.5 -67.5t61.5 -162.5q0 -33 -10 -70q23 -50 58.5 -80t71.5 -30v0z" />
    <glyph glyph-name="Acircumflex" unicode="&#xc2;" horiz-adv-x="191" 
d="M-134 -140q0 29 23.5 49.5t56.5 20.5t56.5 -20.5t23.5 -49.5q0 -25 -18 -47t-47 -33q-27 -10 -43.5 -23.5t-16.5 -26.5q0 -21 29.5 -35.5t70.5 -14.5q58 0 99 35t41 85q0 25 -12 48.5t-33 41.5q-33 28 -51.5 62t-18.5 68q0 33 25 56.5t60 23.5q29 0 51.5 -22.5
t28.5 -57.5h-40q-3 17 -14.5 28.5t-25.5 11.5q-17 0 -28.5 -11.5t-11.5 -28.5q0 -27 10.5 -50.5t29.5 -39.5q33 -28 51.5 -62t18.5 -68q0 -66 -52.5 -113t-127.5 -47q-58 0 -99 26.5t-41 63.5q0 21 17.5 40t45.5 30t45 27.5t17 32.5q0 12 -11.5 21t-28.5 9t-28.5 -9
t-11.5 -21q0 -7 2.5 -12.5t7.5 -7.5l-30 -20q-10 10 -15 20t-5 20v0z" />
    <glyph glyph-name="Atilde" unicode="&#xc3;" horiz-adv-x="505" 
d="M135 220q0 -70 50 -120t120 -50t120 50t50 120q0 79 -50 134.5t-120 55.5t-120 -55.5t-50 -134.5v0zM185 410h-100v40h370v-40h-30q46 -27 73 -78t27 -112q0 -91 -64.5 -155.5t-155.5 -64.5t-155.5 64.5t-64.5 155.5q0 61 27 112t73 78v0z" />
    <glyph glyph-name="Adieresis" unicode="&#xc4;" horiz-adv-x="505" 
d="M85 220q0 61 27 112t73 78q-41 0 -70.5 26.5t-29.5 63.5q0 46 44 78t106 32q120 0 205 -114.5t85 -276.5q0 -91 -64.5 -155t-155.5 -64t-155.5 64.5t-64.5 155.5v0zM135 220q0 -70 50 -120t120 -50t120 50t50 120q0 79 -50 134.5t-120 55.5t-120 -55.5t-50 -134.5v0z
M135 500q0 -21 20.5 -35.5t49.5 -14.5h110q42 0 76 -13t54 -37q-28 77 -85.5 123.5t-124.5 46.5q-41 0 -70.5 -20.5t-29.5 -49.5v0z" />
    <glyph glyph-name="Aring" unicode="&#xc5;" horiz-adv-x="79" 
d="M39 110h40q0 -95 -17 -165.5t-49 -108.5q-38 -46 -103.5 -71t-145.5 -25v40q71 0 130 23.5t95 66.5q24 29 37 91t13 149v0z" />
    <glyph glyph-name="AE" unicode="&#xc6;" horiz-adv-x="587" 
d="M212 360q0 -25 16 -42.5t39 -17.5t39 17.5t16 42.5t-16 42.5t-39 17.5t-39 -17.5t-16 -42.5v0zM347 50q98 0 156.5 57.5t58.5 152.5q0 48 -28 92.5t-77 72.5l30 35q56 -32 88 -85.5t32 -114.5q0 -118 -71 -189t-189 -71t-189 65.5t-71 174.5q0 91 52.5 155.5t127.5 64.5
q41 0 70.5 -29.5t29.5 -70.5t-29.5 -70.5t-70.5 -29.5t-70.5 28t-29.5 67q-17 -20 -26 -49.5t-9 -65.5q0 -86 58.5 -138t156.5 -52v0z" />
    <glyph glyph-name="Ccedilla" unicode="&#xc7;" horiz-adv-x="587" 
d="M212 365q0 -27 16 -46t39 -19q21 0 35.5 17.5t14.5 42.5t-14.5 42.5t-35.5 17.5q-23 0 -39 -16t-16 -39v0zM347 50q98 0 156.5 50.5t58.5 134.5q0 57 -37 105t-98 70v40h110v-40h-30q46 -21 73 -67.5t27 -102.5q0 -109 -71 -174.5t-189 -65.5t-189 65.5t-71 174.5
q0 91 52.5 155.5t127.5 64.5q41 0 70.5 -29.5t29.5 -70.5t-29.5 -70.5t-70.5 -29.5t-70.5 29.5t-29.5 70.5q-17 -20 -26 -51t-9 -69q0 -86 58.5 -138t156.5 -52v0z" />
    <glyph glyph-name="Egrave" unicode="&#xc8;" horiz-adv-x="597" 
d="M217 360q0 -25 16 -42.5t39 -17.5t39 17.5t16 42.5t-16 42.5t-39 17.5t-39 -17.5t-16 -42.5v0zM347 50q102 0 163.5 71t61.5 189q0 67 -10.5 114.5t-29.5 70.5q-8 -31 -34.5 -50.5t-60.5 -19.5q-39 0 -67 26.5t-28 63.5q0 41 28 70.5t67 29.5q78 0 129 -86.5t51 -218.5
q0 -141 -73.5 -225.5t-196.5 -84.5q-118 0 -189 65.5t-71 174.5q0 91 52.5 155.5t127.5 64.5q41 0 70.5 -29.5t29.5 -70.5t-29.5 -70.5t-70.5 -29.5q-39 0 -67 29.5t-28 70.5q-19 -23 -29.5 -54t-10.5 -66q0 -86 58.5 -138t156.5 -52v0zM382 515q0 -21 16 -35.5t39 -14.5
q27 0 46 17.5t19 42.5q0 21 -19 35.5t-46 14.5q-23 0 -39 -17.5t-16 -42.5v0z" />
    <glyph glyph-name="Eacute" unicode="&#xc9;" horiz-adv-x="30" 
d="M-180 -165q0 39 29.5 67t70.5 28q35 0 64.5 -16t45.5 -44q16 28 45.5 44t64.5 16q41 0 70.5 -28t29.5 -67q0 -37 -24.5 -68.5t-65.5 -46.5l-15 30q29 11 47 34t18 51q0 23 -17.5 39t-42.5 16q-37 0 -63.5 -29.5t-26.5 -70.5h-40q0 41 -26.5 70.5t-63.5 29.5
q-25 0 -42.5 -16t-17.5 -39q0 -28 18 -51t47 -34l-15 -30q-41 15 -65.5 46.5t-24.5 68.5v0z" />
    <glyph glyph-name="Ecircumflex" unicode="&#xca;" horiz-adv-x="537" 
d="M427 50q35 0 60 42.5t25 102.5q0 89 -80.5 152t-194.5 63h-180v40h430v-40h-75q65 -24 105 -83t40 -132q0 -88 -35.5 -141.5t-94.5 -53.5q-39 0 -72 24.5t-48 65.5q-15 -41 -48 -65.5t-72 -24.5q-54 0 -92 38t-38 92q0 46 29.5 78t70.5 32q33 0 56.5 -26.5t23.5 -63.5
h-40q0 21 -11.5 35.5t-28.5 14.5q-23 0 -39 -20.5t-16 -49.5q0 -33 25 -56.5t60 -23.5q41 0 70.5 44t29.5 106h40q0 -62 29.5 -106t70.5 -44v0z" />
    <glyph glyph-name="Edieresis" unicode="&#xcb;" horiz-adv-x="567" 
d="M427 50q48 0 81.5 58.5t33.5 141.5q0 93 -56.5 164t-143.5 86q29 -50 0.5 -100t-85.5 -50q-41 0 -70.5 29.5t-29.5 70.5t29.5 70.5t70.5 29.5q81 0 148 -26t107 -74q36 -43 55.5 -94.5t19.5 -105.5q0 -104 -47 -177t-113 -73q-39 0 -72 24.5t-48 65.5q-15 -41 -48 -65.5
t-72 -24.5q-54 0 -92 38t-38 92q0 46 29.5 78t70.5 32q33 0 56.5 -26.5t23.5 -63.5h-40q0 21 -11.5 35.5t-28.5 14.5q-21 0 -35.5 -20.5t-14.5 -49.5q0 -33 23.5 -56.5t56.5 -23.5q41 0 70.5 44t29.5 106h40q0 -62 29.5 -106t70.5 -44v0zM207 450q0 -25 14.5 -42.5
t35.5 -17.5t35.5 17.5t14.5 42.5t-14.5 42.5t-35.5 17.5t-35.5 -17.5t-14.5 -42.5v0z" />
    <glyph glyph-name="Igrave" unicode="&#xcc;" horiz-adv-x="230" 
d="M-180 -290q0 41 26.5 70.5t63.5 29.5q13 0 25.5 -5t24.5 -15l-25 -30q-6 5 -12.5 7.5t-12.5 2.5q-21 0 -35.5 -17.5t-14.5 -42.5t17.5 -42.5t42.5 -17.5q33 0 56.5 29.5t23.5 70.5h40q0 -41 23.5 -70.5t56.5 -29.5q29 0 49.5 31t20.5 74q0 64 -51.5 109.5t-123.5 45.5
h-95v40h210q25 0 42.5 23.5t17.5 56.5h40q0 -50 -29.5 -85t-70.5 -35q45 -16 72.5 -59t27.5 -96q0 -60 -32 -102.5t-78 -42.5q-30 0 -57 16t-43 44q-16 -28 -43 -44t-57 -16q-41 0 -70.5 29.5t-29.5 70.5v0z" />
    <glyph glyph-name="Iacute" unicode="&#xcd;" horiz-adv-x="500" 
d="M120 140q0 -37 44 -63.5t106 -26.5q91 0 145.5 52t54.5 138q0 51 -31.5 93.5t-83.5 61.5q12 -14 18.5 -31t6.5 -34q0 -50 -39.5 -85t-95.5 -35h-35q-37 0 -63.5 -20.5t-26.5 -49.5v0zM160 410h-90v40h378v-40h-38q51 -29 80.5 -73.5t29.5 -91.5q0 -111 -68.5 -178
t-181.5 -67q-83 0 -141.5 41t-58.5 99q0 48 41 81.5t99 33.5h35q37 0 63.5 20.5t26.5 49.5q0 35 -26.5 60t-63.5 25q-10 0 -24 -5t-31 -15q14 -5 22 -20t8 -35q0 -19 -13 -32t-32 -13q-23 0 -39 16t-16 39q0 15 10.5 32t29.5 33v0z" />
    <glyph glyph-name="Icircumflex" unicode="&#xce;" horiz-adv-x="500" 
d="M160 540q0 -21 14.5 -35.5t35.5 -14.5t35.5 14.5t14.5 35.5q0 17 -14.5 28.5t-35.5 11.5t-35.5 -11.5t-14.5 -28.5v0zM70 140q0 48 41 81.5t99 33.5h35q72 0 123.5 23.5t61.5 61.5q-28 33 -70 51.5t-90 18.5q-21 0 -42.5 -7.5t-42.5 -22.5q15 -3 25 -17t10 -33
q0 -17 -11.5 -28.5t-28.5 -11.5q-25 0 -42.5 16t-17.5 39q0 43 44 74t106 31q50 0 95 -15.5t80 -44.5l5 30q0 55 -46.5 98.5t-118.5 56.5q5 -4 7.5 -16t2.5 -29q0 -29 -25 -49.5t-60 -20.5t-60 23.5t-25 56.5t25 56.5t60 23.5q116 0 198 -58.5t82 -141.5q0 -53 -10 -80
q19 -23 29.5 -55.5t10.5 -69.5q0 -89 -73 -152t-177 -63q-83 0 -141.5 41t-58.5 99v0zM120 135q0 -35 44 -60t106 -25q83 0 141.5 55.5t58.5 134.5q0 14 -2.5 27.5t-7.5 27.5q-18 -39 -76.5 -62t-138.5 -23h-35q-37 0 -63.5 -22t-26.5 -53v0z" />
    <glyph glyph-name="Idieresis" unicode="&#xcf;" horiz-adv-x="120" 
d="M-180 -290q0 30 24.5 57.5t65.5 42.5q68 25 110 60q-14 10 -34.5 15t-45.5 5q0 -17 -11.5 -28.5t-28.5 -11.5t-28.5 11.5t-11.5 28.5q0 19 13 32t32 13q39 0 74.5 -9t65.5 -26q17 24 26 60t9 80h40q0 -43 -11.5 -85t-33.5 -80q21 -18 33 -45.5t12 -59.5q0 -70 -50 -120
t-120 -50q-54 0 -92 32t-38 78v0zM-140 -290q0 -29 26.5 -49.5t63.5 -20.5q54 0 92 38t38 92q0 21 -7.5 42t-22.5 38q-20 -24 -50.5 -42t-69.5 -28q-31 -8 -50.5 -27.5t-19.5 -42.5v0z" />
    <glyph glyph-name="Eth" unicode="&#xd0;" horiz-adv-x="547" 
d="M277 270v60h60v-60h-60v0zM57 130q0 46 29.5 78t70.5 32q33 0 56.5 -26.5t23.5 -63.5h-40q0 21 -11.5 35.5t-28.5 14.5q-23 0 -39 -20.5t-16 -49.5q0 -33 25 -56.5t60 -23.5q41 0 70.5 44t29.5 106h40q0 -62 29.5 -106t70.5 -44q21 0 38 7t27 19l-125 144v30h30l116 -135
q9 26 9 55q0 50 -17 96t-48 84l40 20q34 -40 52 -92t18 -108q0 -25 -5.5 -48.5t-16.5 -43.5l102 -123v-30h-30l-97 118q-19 -21 -43.5 -32t-49.5 -11q-42 0 -75.5 25t-44.5 65q-11 -40 -44.5 -65t-75.5 -25q-54 0 -92 38t-38 92v0zM57 450h432v-40h-432v40v0z" />
    <glyph glyph-name="Ntilde" unicode="&#xd1;" horiz-adv-x="547" 
d="M57 130q0 46 29.5 78t70.5 32q33 0 56.5 -26.5t23.5 -63.5h-40q0 21 -11.5 35.5t-28.5 14.5q-25 0 -42.5 -20.5t-17.5 -49.5q0 -33 26.5 -56.5t63.5 -23.5q41 0 70.5 44t29.5 106h40q0 -62 29.5 -106t70.5 -44q21 0 38 7t27 19l-125 144v30h30l116 -135q9 26 9 55
q0 50 -17 96t-48 84l40 20q34 -40 52 -92t18 -108q0 -25 -5.5 -48.5t-16.5 -43.5l102 -118v-30h-30l-97 113q-19 -21 -43.5 -32t-49.5 -11q-42 0 -75.5 25t-44.5 65q-11 -40 -44.5 -65t-75.5 -25q-54 0 -92 38t-38 92v0zM247 450q0 -21 14.5 -35.5t35.5 -14.5
q14 0 30.5 13.5t29.5 36.5q-10 27 -26.5 43.5t-33.5 16.5q-21 0 -35.5 -17.5t-14.5 -42.5v0zM197 450q0 41 29.5 70.5t70.5 29.5q50 0 85 -44t35 -106q0 -58 -35 -99t-85 -41q-43 0 -70 10l20 40q11 -5 23.5 -7.5t26.5 -2.5q37 0 58.5 31t11.5 69q-16 -19 -34.5 -29.5
t-35.5 -10.5q-41 0 -70.5 26.5t-29.5 63.5v0z" />
    <glyph glyph-name="Ograve" unicode="&#xd2;" horiz-adv-x="60" 
d="M-180 -230q0 41 26.5 70.5t63.5 29.5q12 0 24.5 -4t25.5 -11l-10 -35q-9 5 -19 7.5t-21 2.5q-21 0 -35.5 -17.5t-14.5 -42.5t17.5 -42.5t42.5 -17.5q33 0 56.5 29.5t23.5 70.5h40q0 -41 23.5 -70.5t56.5 -29.5q25 0 42.5 17.5t17.5 42.5q0 36 -30 100t-30 100h40
q0 -34 15.5 -67.5t44.5 -62.5q38 -38 59 -80t21 -80h-40q0 34 -10.5 61.5t-29.5 43.5v-15q0 -41 -29.5 -70.5t-70.5 -29.5q-30 0 -57 16t-43 44q-16 -28 -43 -44t-57 -16q-41 0 -70.5 29.5t-29.5 70.5v0z" />
    <glyph glyph-name="Oacute" unicode="&#xd3;" horiz-adv-x="438" 
d="M168 270v60h60v-60h-60v0zM48 0q0 87 39.5 148.5t95.5 61.5q31 0 60 -27.5t45 -72.5q10 -27 29 -43.5t41 -16.5q23 0 39 35t16 85q0 40 -14 81t-41 79l40 20q29 -35 44.5 -81t15.5 -99q0 -70 -29.5 -120t-70.5 -50q-34 0 -64 26t-46 69q-11 29 -28.5 47t-36.5 18
q-35 0 -60 -47t-25 -113h-50v0zM48 450h343v-40h-343v40v0z" />
    <glyph glyph-name="Ocircumflex" unicode="&#xd4;" horiz-adv-x="444" 
d="M54 0q0 87 44 148.5t106 61.5q28 0 54.5 -19t45.5 -51q52 -90 60 -90q23 0 39 35t16 85q0 40 -14 81t-41 79l40 20q29 -35 44.5 -81t15.5 -99q0 -70 -29.5 -120t-70.5 -50q-26 0 -50.5 24.5t-39.5 65.5q-11 32 -30.5 51t-39.5 19q-41 0 -70.5 -47t-29.5 -113h-50v0z
M144 460q0 -17 14.5 -28.5t35.5 -11.5q20 0 36.5 11t23.5 29q-10 27 -26.5 43.5t-33.5 16.5q-21 0 -35.5 -17.5t-14.5 -42.5v0zM94 460q0 41 29.5 70.5t70.5 29.5q50 0 85 -44t35 -106q0 -58 -35 -99t-85 -41q-43 0 -70 10l20 40q27 -10 50 -10q29 0 49.5 29.5t20.5 70.5
q-16 -19 -34.5 -29.5t-35.5 -10.5q-41 0 -70.5 26.5t-29.5 63.5v0z" />
    <glyph glyph-name="Otilde" unicode="&#xd5;" horiz-adv-x="22" 
d="M-180 -370q0 83 41 141.5t99 58.5q36 0 65 -25t40 -65q7 -27 22.5 -43.5t32.5 -16.5q25 0 42.5 32t17.5 78q0 30 -10 63t-30 67l40 20q22 -38 33.5 -76.5t11.5 -73.5q0 -66 -31 -113t-74 -47q-26 0 -50.5 24.5t-39.5 65.5q-11 29 -30 47t-40 18q-41 0 -70.5 -45.5
t-29.5 -109.5h-40v0z" />
    <glyph glyph-name="Odieresis" unicode="&#xd6;" horiz-adv-x="596" 
d="M236 410h-170v40h482v-40h-272q37 -21 58.5 -64t21.5 -96q29 24 57.5 37t52.5 13q62 0 106 -44t44 -106t-44 -106t-106 -44q-39 0 -72.5 19t-52.5 51q-19 -32 -52.5 -51t-72.5 -19q-62 0 -106 44t-44 106t44 106t106 44q29 0 57.5 -13t52.5 -37q0 50 -24 93t-66 67v0z
M116 150q0 -41 29.5 -70.5t70.5 -29.5t70.5 29.5t29.5 70.5t-29.5 70.5t-70.5 29.5t-70.5 -29.5t-29.5 -70.5v0zM366 150q0 -41 29.5 -70.5t70.5 -29.5t70.5 29.5t29.5 70.5t-29.5 70.5t-70.5 29.5t-70.5 -29.5t-29.5 -70.5v0z" />
    <glyph glyph-name="multiply" unicode="&#xd7;" horiz-adv-x="596" 
d="M341 225q20 35 53.5 55t71.5 20q62 0 106 -44t44 -106t-44 -106t-106 -44q-39 0 -72.5 19t-52.5 51q-19 -32 -52.5 -51t-72.5 -19q-62 0 -106 44t-44 106t44 106t106 44q38 0 71.5 -20t53.5 -55v0zM116 150q0 -41 29.5 -70.5t70.5 -29.5t70.5 29.5t29.5 70.5t-29.5 70.5
t-70.5 29.5t-70.5 -29.5t-29.5 -70.5v0zM366 150q0 -41 29.5 -70.5t70.5 -29.5t70.5 29.5t29.5 70.5t-29.5 70.5t-70.5 29.5t-70.5 -29.5t-29.5 -70.5v0zM156 520q0 -25 17.5 -42.5t42.5 -17.5t42.5 17.5t17.5 42.5t-17.5 42.5t-42.5 17.5t-42.5 -17.5t-17.5 -42.5v0z
M116 520q0 41 29.5 70.5t70.5 29.5t70.5 -29.5t29.5 -70.5q0 -63 -29.5 -117t-80.5 -83l-30 30q30 21 49 41.5t26 38.5q-9 -5 -17.5 -7.5t-17.5 -2.5q-41 0 -70.5 29.5t-29.5 70.5v0z" />
    <glyph glyph-name="Oslash" unicode="&#xd8;" horiz-adv-x="60" 
d="M-180 -200q0 54 38 92t92 38q35 0 64.5 -16t45.5 -44q16 28 45.5 44t64.5 16q54 0 92 -38t38 -92t-38 -92t-92 -38q-35 0 -64.5 16t-45.5 44q-16 -28 -45.5 -44t-64.5 -16q-54 0 -92 38t-38 92v0zM-140 -200q0 -37 26.5 -63.5t63.5 -26.5t63.5 26.5t26.5 63.5t-26.5 63.5
t-63.5 26.5t-63.5 -26.5t-26.5 -63.5v0zM80 -200q0 -37 26.5 -63.5t63.5 -26.5t63.5 26.5t26.5 63.5t-26.5 63.5t-63.5 26.5t-63.5 -26.5t-26.5 -63.5v0z" />
    <glyph glyph-name="Ugrave" unicode="&#xd9;" horiz-adv-x="470" 
d="M245 100q0 -21 14.5 -35.5t35.5 -14.5t35.5 14.5t14.5 35.5q0 25 -14.5 42.5t-35.5 17.5t-35.5 -17.5t-14.5 -42.5v0zM115 370q8 -23 30 -36.5t50 -13.5q17 0 28.5 11.5t11.5 28.5q0 25 -14.5 42.5t-35.5 17.5q-19 0 -38 -13.5t-32 -36.5v0zM325 190q50 0 85 31t35 74
q0 48 -29.5 81.5t-70.5 33.5v40h74v-20q32 -15 51.5 -51.5t19.5 -83.5q0 -51 -32 -91t-83 -54q20 -35 20 -50q0 -41 -29.5 -70.5t-70.5 -29.5t-70.5 29.5t-29.5 70.5q0 17 6.5 34t18.5 31q-70 6 -117.5 49t-47.5 101q0 60 35 102.5t85 42.5q41 0 70.5 -26.5t29.5 -63.5
t-26.5 -63.5t-63.5 -26.5q-32 0 -56 20t-29 50q-5 -9 -7.5 -19t-2.5 -21q0 -46 51.5 -78t123.5 -32q21 0 36 -2.5t24 -7.5v0z" />
    <glyph glyph-name="Uacute" unicode="&#xda;" horiz-adv-x="525" 
d="M245 100q0 -21 14.5 -35.5t35.5 -14.5t35.5 14.5t14.5 35.5q0 25 -14.5 42.5t-35.5 17.5t-35.5 -17.5t-14.5 -42.5v0zM115 370q10 -27 26.5 -43.5t33.5 -16.5q21 0 35.5 14.5t14.5 35.5q0 25 -14.5 42.5t-35.5 17.5q-14 0 -30.5 -13.5t-29.5 -36.5v0zM345 180
q70 40 110 101.5t40 128.5q0 34 -10 65q-18 -26 -47 -40.5t-63 -14.5q-41 0 -70.5 29.5t-29.5 70.5t29.5 70.5t70.5 29.5q70 0 120 -61.5t50 -148.5q0 -75 -45.5 -144.5t-124.5 -115.5q20 -35 20 -50q0 -41 -29.5 -70.5t-70.5 -29.5t-70.5 29.5t-29.5 70.5q0 17 6.5 34
t18.5 31q-70 6 -117.5 50.5t-47.5 104.5q0 58 35 99t85 41q39 0 67 -29.5t28 -70.5q0 -35 -28 -60t-67 -25q-26 0 -48 16.5t-32 43.5v-25q0 -46 47 -78t113 -32q27 0 50 -5t40 -15v0zM325 520q0 -25 14.5 -42.5t35.5 -17.5t46 15.5t49 44.5q-13 27 -38.5 43.5t-56.5 16.5
q-21 0 -35.5 -17.5t-14.5 -42.5v0z" />
    <glyph glyph-name="Ucircumflex" unicode="&#xdb;" horiz-adv-x="133" 
d="M-45 -310q0 -12 9 -21t21 -9t21 9t9 21t-9 21t-21 9t-21 -9t-9 -21v0zM-135 -110q0 -12 9 -21t21 -9t21 9t9 21t-9 21t-21 9t-21 -9t-9 -21v0zM-180 -130q0 37 22 63.5t53 26.5q29 0 49.5 -20.5t20.5 -49.5t-20.5 -49.5t-49.5 -20.5q-6 0 -11 2.5t-9 7.5q8 -31 39 -50.5
t71 -19.5q56 32 88 77.5t32 92.5q0 25 -6.5 49.5t-18.5 45.5l35 15q15 -26 22.5 -53.5t7.5 -56.5q0 -50 -32 -100.5t-88 -89.5q14 -10 22 -23t8 -27q0 -29 -20.5 -49.5t-49.5 -20.5t-49.5 20.5t-20.5 49.5q0 11 4 21t11 19q-49 13 -79.5 52t-30.5 88v0z" />
    <glyph glyph-name="Udieresis" unicode="&#xdc;" 
d="M0 520q0 17 -10.5 33t-29.5 27l20 30q28 -16 44 -40t16 -50q0 -46 -29.5 -78t-70.5 -32h-20v40h20q25 0 42.5 20.5t17.5 49.5v0z" />
    <glyph glyph-name="Yacute" unicode="&#xdd;" horiz-adv-x="372" 
d="M-78 450h200q104 0 177 -70.5t73 -169.5q0 -87 -52.5 -148.5t-127.5 -61.5q-54 0 -92 38t-38 92q0 52 33.5 88.5t81.5 36.5q31 0 53 -19t22 -46q0 -21 -14.5 -35.5t-35.5 -14.5q-19 0 -32 14.5t-13 35.5q0 7 1.5 12t3.5 8q-22 -4 -36 -26.5t-14 -53.5q0 -33 23.5 -56.5
t56.5 -23.5q54 0 92 47t38 113q0 83 -58.5 141.5t-141.5 58.5h-200v40v0z" />
    <glyph glyph-name="Thorn" unicode="&#xde;" horiz-adv-x="680" 
d="M90 410v40h340q104 0 177 -70.5t73 -169.5q0 -87 -52.5 -148.5t-127.5 -61.5q-54 0 -92 38t-38 92q0 50 32 85t78 35q31 0 53 -17.5t22 -42.5q0 -21 -13 -35.5t-32 -14.5q-21 0 -35.5 14.5t-14.5 35.5v10q-21 -12 -33 -31t-12 -39q0 -33 25 -56.5t60 -23.5q56 0 95.5 47
t39.5 113q0 83 -60 141.5t-145 58.5h-185q42 -30 66 -79t24 -106q0 -102 -52 -163.5t-138 -61.5q-56 0 -100 42.5t-55 107.5v75q6 -74 51 -124.5t104 -50.5q58 0 99 51.5t41 123.5q0 73 -39 126.5t-96 58.5h-60v0z" />
    <glyph glyph-name="germandbls" unicode="&#xdf;" horiz-adv-x="227" 
d="M57 450q0 -21 14.5 -35.5t35.5 -14.5q20 0 36.5 11t23.5 29q-10 27 -26.5 43.5t-33.5 16.5q-21 0 -35.5 -14.5t-14.5 -35.5v0zM7 445q0 39 29.5 67t70.5 28q50 0 85 -44t35 -106q0 -58 -36.5 -99t-88.5 -41q-28 0 -54 9t-46 26l20 35q12 -14 33 -22t47 -8q36 0 59 30.5
t16 69.5q-14 -17 -32.5 -26t-37.5 -9q-41 0 -70.5 26.5t-29.5 63.5v0z" />
    <glyph glyph-name="agrave" unicode="&#xe0;" horiz-adv-x="341" 
d="M181 380q9 -33 28.5 -54t41.5 -21q25 0 42.5 16t17.5 39q0 25 -17.5 42.5t-42.5 17.5q-17 0 -35.5 -10.5t-34.5 -29.5v0zM81 270q0 79 50 134.5t120 55.5q46 0 78 -29.5t32 -70.5t-32 -70.5t-78 -29.5q-36 0 -64.5 25.5t-35.5 64.5q-10 -17 -15 -37.5t-5 -42.5
q0 -72 53.5 -144t146.5 -126h-80q-80 56 -125 127.5t-45 142.5v0z" />
    <glyph glyph-name="aacute" unicode="&#xe1;" horiz-adv-x="315" 
d="M140 405v45q79 7 137 -60t58 -165q0 -93 -54 -159t-131 -66q-50 0 -94 37t-66 98l5 105q23 -84 66 -137t89 -53q56 0 95.5 51.5t39.5 123.5q0 75 -42.5 127.5t-102.5 52.5v0z" />
    <glyph glyph-name="acircumflex" unicode="&#xe2;" horiz-adv-x="190" 
d="M-250 30h20q0 -54 50 -92t120 -38q83 0 141.5 73t58.5 177q0 79 -10 137.5t-30 92.5l50 20q40 -110 40 -250q0 -120 -73 -205t-177 -85q-79 0 -134.5 50t-55.5 120v0z" />
    <glyph glyph-name="atilde" unicode="&#xe3;" horiz-adv-x="620" 
d="M335 145q0 56 33.5 95.5t81.5 39.5q25 0 42.5 -17.5t17.5 -42.5q0 -21 -16 -35.5t-39 -14.5q-18 0 -31 11.5t-14 28.5q-12 -7 -18.5 -25.5t-6.5 -44.5q0 -37 25 -63.5t60 -26.5q41 0 70.5 51.5t29.5 123.5t-45.5 123.5t-109.5 51.5t-109.5 -58.5t-45.5 -141.5
t-45.5 -141.5t-109.5 -58.5q-42 0 -74.5 28.5t-40.5 71.5v85q10 -59 42.5 -97t72.5 -38q43 0 74 44t31 106q0 104 60 177t145 73t145 -66t60 -159t-44 -159t-106 -66q-56 0 -95.5 42.5t-39.5 102.5v0z" />
    <glyph glyph-name="adieresis" unicode="&#xe4;" horiz-adv-x="585" 
d="M-40 -100q77 0 131 58.5t54 141.5q0 25 -10 75t-10 75q0 87 61.5 148.5t148.5 61.5q104 0 177 -73t73 -177q0 -87 -47 -148.5t-113 -61.5q-50 0 -85 35t-35 85t32 85t78 35q25 0 42.5 -14.5t17.5 -35.5q0 -17 -11.5 -28.5t-28.5 -11.5q-12 0 -21 9t-9 21v20
q-23 -13 -36.5 -34.5t-13.5 -45.5q0 -33 20.5 -56.5t49.5 -23.5q46 0 78 50t32 120q0 83 -58.5 141.5t-141.5 58.5q-66 0 -113 -47t-47 -113q0 -25 10 -75t10 -75q0 -99 -69 -169.5t-166 -70.5q-78 0 -137.5 48t-72.5 122h20q10 -56 64 -93t126 -37v0z" />
    <glyph glyph-name="aring" unicode="&#xe5;" horiz-adv-x="335" 
d="M95 410v40h182v-40h-37q44 -25 69.5 -76t25.5 -114q0 -91 -57 -155.5t-138 -64.5q-52 0 -93.5 35t-56.5 90v115q15 -82 57 -136t93 -54q62 5 103.5 54t41.5 116q0 79 -45.5 134.5t-109.5 55.5h-35v0z" />
    <glyph glyph-name="ae" unicode="&#xe6;" 
d="M-110 450h60q19 0 32 17.5t13 42.5q0 29 -17.5 49.5t-42.5 20.5q-14 0 -24 -10t-11 -25h10q10 0 17.5 -9t7.5 -21q0 -14 -11.5 -24.5t-28.5 -10.5q-19 0 -32 16t-13 39q0 35 25 60t60 25q43 0 74 -32t31 -78q0 -41 -26.5 -70.5t-63.5 -29.5h-60v40v0z" />
    <glyph glyph-name="ccedilla" unicode="&#xe7;" horiz-adv-x="130" 
d="M-180 -180q0 46 28 78t67 32q31 0 53 -20.5t22 -49.5t-22 -49.5t-53 -20.5q-17 0 -32 8t-23 22q0 -46 33.5 -78t81.5 -32t81.5 31t33.5 74q0 27 -14.5 52t-40.5 43q26 22 40.5 51t14.5 59q0 17 -5 35t-15 35l35 20q12 -21 18.5 -44t6.5 -46q0 -30 -10.5 -58.5
t-29.5 -51.5q19 -23 29.5 -47.5t10.5 -47.5q0 -60 -45.5 -102.5t-109.5 -42.5t-109.5 44t-45.5 106v0zM-125 -140q0 -12 11.5 -21t28.5 -9q14 0 24.5 9t10.5 21t-10.5 21t-24.5 9q-17 0 -28.5 -9t-11.5 -21v0z" />
    <glyph glyph-name="egrave" unicode="&#xe8;" horiz-adv-x="407" 
d="M-78 410v40h95q21 0 35.5 17.5t14.5 42.5q0 29 -17.5 49.5t-42.5 20.5h-80v40h240q99 0 169.5 -79t70.5 -191q0 -91 -55.5 -155.5t-134.5 -64.5q-62 0 -106 47t-44 113q0 50 32 85t78 35q29 0 49.5 -17.5t20.5 -42.5q0 -21 -14.5 -35.5t-35.5 -14.5t-35.5 11.5
t-14.5 28.5v20q-14 -10 -22 -28.5t-8 -41.5q0 -46 29.5 -78t70.5 -32q58 0 99 50t41 120q0 95 -55.5 162.5t-134.5 67.5h-90q16 -7 25.5 -26t9.5 -44q0 -41 -28 -70.5t-67 -29.5h-95v0z" />
    <glyph glyph-name="eacute" unicode="&#xe9;" horiz-adv-x="330" 
d="M5 -140q0 29 23.5 49.5t56.5 20.5t56.5 -20.5t23.5 -49.5q0 -25 -18 -47t-47 -33q-27 -10 -43.5 -23.5t-16.5 -26.5q0 -21 29.5 -35.5t70.5 -14.5q58 0 99 35t41 85q0 25 -12 48.5t-33 41.5q-33 28 -51.5 62t-18.5 68q0 33 25 56.5t60 23.5q29 0 51.5 -22.5t28.5 -57.5
h-40q-3 17 -14.5 28.5t-25.5 11.5q-17 0 -28.5 -11.5t-11.5 -28.5q0 -27 10.5 -50.5t29.5 -39.5q33 -28 51.5 -62t18.5 -68q0 -66 -52.5 -113t-127.5 -47q-58 0 -99 26.5t-41 63.5q0 21 17.5 40t45.5 30t45 27.5t17 32.5q0 12 -11.5 21t-28.5 9t-28.5 -9t-11.5 -21
q0 -7 2.5 -12.5t7.5 -7.5l-30 -20q-10 10 -15 20t-5 20v0z" />
    <glyph glyph-name="ecircumflex" unicode="&#xea;" horiz-adv-x="136" 
d="M-149 -180q0 46 29.5 78t70.5 32q29 0 49.5 -20.5t20.5 -49.5t-20.5 -49.5t-49.5 -20.5q-18 0 -34 8t-26 22q0 -46 32 -78t78 -32t78 47t32 113q0 77 -20.5 143t-59.5 112l35 20q41 -49 63 -120t22 -155q0 -83 -44 -141.5t-106 -58.5t-106 44t-44 106v0zM-94 -135
q9 -16 21 -25.5t24 -9.5t21 9t9 21t-9 21t-21 9q-14 0 -26 -6.5t-19 -18.5v0z" />
    <glyph glyph-name="edieresis" unicode="&#xeb;" horiz-adv-x="418" 
d="M-168 -180q0 46 29.5 78t70.5 32q29 0 49.5 -20.5t20.5 -49.5t-20.5 -49.5t-49.5 -20.5q-20 0 -36 8t-24 22q0 -46 31 -78t74 -32q48 0 81.5 42.5t33.5 102.5q0 63 -21.5 113.5t-59.5 76.5h301q66 0 113 -52.5t47 -127.5q0 -77 -50 -131t-120 -54q-56 0 -95.5 33.5
t-39.5 81.5q0 43 32 74t78 31q27 0 46 -17.5t19 -42.5q0 -17 -11.5 -28.5t-28.5 -11.5q-19 0 -32 10.5t-13 24.5v20q-21 0 -35.5 -17.5t-14.5 -42.5q0 -31 28 -53t67 -22q52 0 88.5 41.5t36.5 100.5t-33.5 101t-81.5 42h-219q19 -25 29 -63.5t10 -86.5q0 -77 -45.5 -131
t-109.5 -54q-60 0 -102.5 44t-42.5 106v0zM-118 -140q8 -14 21.5 -22t28.5 -8q12 0 21 9t9 21t-9 21t-21 9q-16 0 -30 -8t-20 -22v0z" />
    <glyph glyph-name="igrave" unicode="&#xec;" horiz-adv-x="500" 
d="M100 120q0 30 18 54.5t47 35.5q-31 21 -48 50.5t-17 59.5q0 54 41 92t99 38h260v-40h-260q-37 0 -63.5 -26.5t-26.5 -63.5t26.5 -63.5t63.5 -26.5h80v-40h-80q-37 0 -63.5 -20.5t-26.5 -49.5q0 -27 22 -52t58 -38l-20 -40q-50 23 -80 58.5t-30 71.5v0z" />
    <glyph glyph-name="iacute" unicode="&#xed;" horiz-adv-x="409" 
d="M89 225q0 89 50 152t120 63t120 -63t50 -152t-50 -152t-120 -63t-120 63t-50 152v0zM139 225q0 -70 35 -120t85 -50t85 50t35 120t-35 120t-85 50t-85 -50t-35 -120v0z" />
    <glyph glyph-name="icircumflex" unicode="&#xee;" horiz-adv-x="272" 
d="M2 450h215l5 -40h10q19 -13 29.5 -31.5t10.5 -38.5q0 -37 -38 -63.5t-92 -26.5q-30 0 -58.5 10.5t-51.5 29.5l20 35q17 -17 40.5 -26t49.5 -9q33 0 56.5 14.5t23.5 35.5q0 29 -23.5 49.5t-56.5 20.5h-140v40v0z" />
    <glyph glyph-name="idieresis" unicode="&#xef;" horiz-adv-x="282" 
d="M2 450h140q41 0 70.5 22t29.5 53q0 23 -17.5 39t-42.5 16q-21 0 -35.5 -10.5t-14.5 -24.5h20q10 0 17.5 -10.5t7.5 -24.5t-11.5 -24.5t-28.5 -10.5q-23 0 -39 16t-16 39q0 37 29.5 63.5t70.5 26.5t70.5 -28t29.5 -67q0 -34 -18 -60.5t-47 -34.5q24 -4 39.5 -25.5
t15.5 -49.5q0 -41 -38 -70.5t-92 -29.5q-32 0 -63 11.5t-57 33.5l20 35q20 -17 46 -26t54 -9q33 0 56.5 16t23.5 39t-23.5 39t-56.5 16h-140v40v0z" />
    <glyph glyph-name="eth" unicode="&#xf0;" horiz-adv-x="89" 
d="M-170 -300l26 30q27 -42 76 -66t107 -24q53 0 98.5 24t72.5 66l30 -30q-30 -47 -83.5 -73.5t-117.5 -26.5q-67 0 -123 26.5t-86 73.5v0zM-41 -180q0 -33 23.5 -56.5t56.5 -23.5t56.5 23.5t23.5 56.5t-23.5 56.5t-56.5 23.5t-56.5 -23.5t-23.5 -56.5v0zM-111 -100v40h130
q15 26 22.5 56.5t7.5 63.5t-10 60l30 20q10 -17 15 -37.5t5 -42.5q0 -33 -7.5 -63.5t-22.5 -56.5h130v-40h-60q15 -17 22.5 -38t7.5 -42q0 -50 -35 -85t-85 -35t-85 35t-35 85q0 22 10.5 43t29.5 37h-70v0z" />
    <glyph glyph-name="ntilde" unicode="&#xf1;" horiz-adv-x="432" 
d="M342 310q0 30 -16 57t-44 43h-230v40h330v-40h-40q24 -20 37 -53t13 -72q29 -24 44.5 -57t15.5 -68q0 -66 -58.5 -113t-141.5 -47t-141.5 47t-58.5 113q0 19 6.5 37.5t18.5 32.5l35 -20q-10 -12 -15 -24.5t-5 -25.5q0 -46 47 -78t113 -32q64 0 109.5 32t45.5 78
q0 24 -8 43.5t-22 31.5q-14 -38 -45.5 -61.5t-69.5 -23.5q-41 0 -70.5 26.5t-29.5 63.5t29.5 63.5t70.5 26.5q22 0 42.5 -5t37.5 -15v0zM212 240q0 -21 14.5 -35.5t35.5 -14.5q29 0 51.5 22.5t28.5 57.5q-17 10 -37.5 15t-42.5 5q-21 0 -35.5 -14.5t-14.5 -35.5v0z" />
    <glyph glyph-name="ograve" unicode="&#xf2;" horiz-adv-x="472" 
d="M225 -223q0 -22 10 -48q37 0 63.5 14t26.5 34q0 19 -14.5 33t-35.5 14t-35.5 -14t-14.5 -33v0zM-175 -289q0 23 14 44.5t39 35.5q29 17 45.5 36t16.5 35t-11.5 27t-28.5 11t-28.5 -11t-11.5 -27q0 -8 2.5 -15t7.5 -13l-30 -19q-10 9 -15 21.5t-5 25.5q0 31 23.5 53.5
t56.5 22.5t56.5 -22t23.5 -53q0 -25 -15.5 -48t-41.5 -38q-27 -16 -42.5 -33.5t-15.5 -32.5q0 -24 17.5 -41t42.5 -17q33 0 56.5 25t23.5 61h40q0 -36 23.5 -61t56.5 -25q25 0 42.5 18.5t17.5 44.5q0 17 -12 33t-33 28l25 33q7 -4 20 -19q6 31 31.5 51t58.5 20
q37 0 63.5 -25t26.5 -60q0 -36 -32 -61t-78 -25q16 -18 35.5 -28t39.5 -10q48 0 81.5 33t33.5 80q0 42 -16 76t-44 49q24 23 37 45t13 40q0 14 -6.5 28.5t-18.5 28.5l30 24q17 -19 26 -40t9 -41q0 -22 -10.5 -44t-29.5 -41q24 -19 37 -52t13 -73q0 -63 -45.5 -107
t-109.5 -44q-38 0 -68.5 15t-46.5 42q-7 -25 -32 -41t-58 -16q-31 0 -57.5 15t-42.5 42q-16 -27 -42.5 -42t-57.5 -15q-41 0 -70.5 28t-29.5 68v0z" />
    <glyph glyph-name="oacute" unicode="&#xf3;" horiz-adv-x="67" 
d="M-80 -130q8 -10 16 -15t14 -5q8 0 14 6t6 14t-6 14t-14 6q-12 0 -21 -6t-9 -14v0zM-180 -345l20 25q46 -39 103 -59.5t117 -20.5q65 0 124.5 20.5t105.5 59.5l25 -25q-46 -46 -112 -70.5t-143 -24.5q-70 0 -132 24.5t-108 70.5v0zM-140 -180q0 46 26.5 78t63.5 32
q25 0 42.5 -17.5t17.5 -42.5t-17.5 -42.5t-42.5 -17.5q-14 0 -27 6.5t-23 18.5v-15q0 -37 20.5 -63.5t49.5 -26.5t49.5 23.5t20.5 56.5h40q0 -33 20.5 -56.5t49.5 -23.5q25 0 42.5 17.5t17.5 42.5t-17.5 42.5t-42.5 17.5h-10v40h20q21 0 35.5 14.5t14.5 35.5q0 11 -2.5 21
t-7.5 19l40 15q5 -14 7.5 -27.5t2.5 -27.5q0 -23 -9.5 -42t-25.5 -28q16 -12 25.5 -33t9.5 -47q0 -41 -29.5 -70.5t-70.5 -29.5q-31 0 -55.5 16.5t-34.5 43.5q-10 -27 -34.5 -43.5t-55.5 -16.5q-46 0 -78 38t-32 92v0z" />
    <glyph glyph-name="ocircumflex" unicode="&#xf4;" horiz-adv-x="340" 
d="M-180 -260v40h200v30q0 46 29.5 78t70.5 32q37 0 63.5 -26.5t26.5 -63.5t-26.5 -63.5t-63.5 -26.5h-60q9 -35 42.5 -57.5t77.5 -22.5q50 0 85 36.5t35 88.5q0 45 -17.5 81.5t-47.5 53.5q31 26 48 57.5t17 62.5q0 26 -7.5 49.5t-22.5 40.5l30 25q19 -23 29.5 -52.5
t10.5 -62.5q0 -29 -13 -60t-37 -60q24 -24 37 -59t13 -76q0 -68 -47 -116.5t-113 -48.5q-60 0 -105.5 34t-54.5 86h-200v0zM60 -220h60q21 0 35.5 14.5t14.5 35.5t-14.5 35.5t-35.5 14.5q-25 0 -42.5 -20.5t-17.5 -49.5v-30v0z" />
    <glyph glyph-name="otilde" unicode="&#xf5;" horiz-adv-x="292" 
d="M-180 -245v40h200v30q0 46 29.5 78t70.5 32q37 0 63.5 -26.5t26.5 -63.5t-26.5 -63.5t-63.5 -26.5h-60q6 -35 38.5 -57.5t76.5 -22.5q48 0 81.5 41t33.5 99q0 79 -25 143t-70 102l30 30q50 -42 77.5 -114t27.5 -161q0 -75 -45.5 -127.5t-109.5 -52.5q-54 0 -97.5 33.5
t-57.5 86.5h-200v0zM60 -205h60q21 0 35.5 14.5t14.5 35.5t-14.5 35.5t-35.5 14.5q-25 0 -42.5 -20.5t-17.5 -49.5v-30v0z" />
    <glyph glyph-name="odieresis" unicode="&#xf6;" horiz-adv-x="390" 
d="M-180 -220v40h250q-14 12 -22 27.5t-8 32.5q0 33 23.5 56.5t56.5 23.5q37 0 63.5 -26.5t26.5 -63.5t-26.5 -63.5t-63.5 -26.5q-16 -9 -25.5 -24t-9.5 -31q0 -27 37 -46t90 -19t90.5 23.5t37.5 56.5q0 43 -40 120t-40 120q0 37 20.5 63.5t49.5 26.5q25 0 42.5 -20.5
t17.5 -49.5h-30q0 12 -9 21t-21 9t-21 -11.5t-9 -28.5q0 -45 40 -125t40 -125q0 -50 -50 -85t-120 -35t-120 29.5t-50 70.5q0 12 7.5 27.5t22.5 32.5h-250v0zM80 -120q0 -13 10.5 -28.5t29.5 -31.5q21 0 35.5 14.5t14.5 35.5t-14.5 35.5t-35.5 14.5q-17 0 -28.5 -11.5
t-11.5 -28.5v0z" />
    <glyph glyph-name="divide" unicode="&#xf7;" horiz-adv-x="92" 
d="M-180 -245l20 30q48 -48 113 -74t138 -26q68 0 133 25.5t118 73.5l23 -33q-57 -51 -127.5 -78.5t-145.5 -27.5q-78 0 -148.5 28.5t-123.5 81.5v0zM-90 -190h200q-10 12 -15 24.5t-5 25.5q0 37 26.5 63.5t63.5 26.5t63.5 -26.5t26.5 -63.5t-26.5 -63.5t-63.5 -26.5h-270
v40v0zM130 -140q0 -21 14.5 -35.5t35.5 -14.5t35.5 14.5t14.5 35.5t-14.5 35.5t-35.5 14.5t-35.5 -14.5t-14.5 -35.5v0z" />
    <glyph glyph-name="oslash" unicode="&#xf8;" horiz-adv-x="80" 
d="M-180 -310l20 35q49 -41 110.5 -63t128.5 -22t129 22t111 63l21 -33q-46 -44 -113.5 -68t-146.5 -24q-74 0 -141 23t-119 67v0zM-120 -190q0 41 28 70.5t67 29.5q10 0 21.5 -5t23.5 -15l-20 -30q-6 5 -13.5 7.5t-16.5 2.5q-21 0 -35.5 -17.5t-14.5 -42.5t17.5 -42.5
t42.5 -17.5q33 0 56.5 23.5t23.5 56.5h40q0 -33 23.5 -56.5t56.5 -23.5q27 0 43.5 27.5t16.5 72.5q0 29 -13 60t-37 60l30 20q29 -35 44.5 -71t15.5 -69q0 -64 -27.5 -102t-72.5 -38q-30 0 -57 16t-43 44q-16 -28 -43 -44t-57 -16q-41 0 -70.5 29.5t-29.5 70.5v0z" />
    <glyph glyph-name="ugrave" unicode="&#xf9;" horiz-adv-x="350" 
d="M50 -210q0 -12 9 -21t21 -9t21 9t9 21t-9 21t-21 9t-21 -9t-9 -21v0zM-180 -120l20 35q49 -28 106 -43t117 -15q41 0 75 8.5t57 24.5l25 -35q-20 -14 -40 -23t-40 -12q5 -6 7.5 -13.5t2.5 -16.5q0 -29 -20.5 -49.5t-49.5 -20.5q-8 0 -25 10q8 -31 40 -50.5t75 -19.5
q50 0 85 36.5t35 88.5q0 35 -19 65.5t-51 49.5q42 24 66 61.5t24 78.5q0 13 -4 24.5t-11 20.5l35 25q10 -17 15 -35t5 -35q0 -39 -18.5 -75.5t-51.5 -64.5q24 -20 37 -50t13 -65q0 -68 -47 -116.5t-113 -48.5t-113 44t-47 106q0 23 10 50q-47 0 -98 15.5t-102 44.5v0z" />
    <glyph glyph-name="uacute" unicode="&#xfa;" horiz-adv-x="110" 
d="M-180 -315l25 40q55 -46 123 -70.5t142 -24.5t142 24.5t123 70.5l25 -40q-55 -46 -129.5 -70.5t-160.5 -24.5t-160.5 24.5t-129.5 70.5v0zM-85 -290q0 66 35 113t85 47q34 0 61.5 -19t38.5 -51q10 -27 26.5 -43.5t33.5 -16.5t28.5 29.5t11.5 70.5q0 38 -7.5 71t-22.5 59
l30 20q20 -34 30 -72t10 -78q0 -58 -23.5 -99t-56.5 -41q-29 0 -54 19t-36 51q-10 27 -29 43.5t-41 16.5q-33 0 -56.5 -35t-23.5 -85h-40v0z" />
    <glyph glyph-name="ucircumflex" unicode="&#xfb;" horiz-adv-x="430" 
d="M140 160q0 -46 32 -78t78 -32t78 32t32 78q0 50 -32 85t-78 35t-78 -35t-32 -85v0zM50 320h180v90h-180v40h330v-40h-110v-90h180v-40h-100q29 -24 44.5 -55.5t15.5 -64.5q0 -66 -47 -113t-113 -47t-113 47t-47 113q0 33 15.5 64.5t44.5 55.5h-100v40v0zM50 -190
q0 41 26.5 70.5t63.5 29.5q12 0 24.5 -4t25.5 -11l-10 -35q-9 5 -16.5 7.5t-13.5 2.5q-25 0 -42.5 -17.5t-17.5 -42.5t17.5 -42.5t42.5 -17.5q33 0 56.5 29.5t23.5 70.5h40q0 -41 23.5 -70.5t56.5 -29.5q25 0 42.5 17.5t17.5 42.5q0 36 -30 100t-30 100h40q0 -34 15.5 -67.5
t44.5 -62.5q38 -38 59 -80t21 -80h-40q0 34 -10.5 61.5t-29.5 43.5v-15q0 -41 -29.5 -70.5t-70.5 -29.5q-30 0 -57 16t-43 44q-16 -28 -43 -44t-57 -16q-41 0 -70.5 29.5t-29.5 70.5v0z" />
    <glyph glyph-name="udieresis" unicode="&#xfc;" horiz-adv-x="430" 
d="M140 160q0 -50 32 -85t78 -35t78 35t32 85t-32 85t-78 35t-78 -35t-32 -85v0zM50 320h180q60 72 60 90q0 3 -14 -3.5t-26 -6.5q-41 0 -70.5 29.5t-29.5 70.5t29.5 70.5t70.5 29.5t70.5 -32t29.5 -78q0 -42 -18 -86t-52 -84h170v-40h-100q29 -24 44.5 -55.5t15.5 -64.5
q0 -66 -47 -113t-113 -47t-113 47t-47 113q0 33 15.5 64.5t44.5 55.5h-100v40v0zM190 500q0 -25 17.5 -42.5t42.5 -17.5t42.5 17.5t17.5 42.5t-17.5 42.5t-42.5 17.5t-42.5 -17.5t-17.5 -42.5v0zM50 -190q0 41 29.5 70.5t70.5 29.5q14 0 40 -15l-10 -35q-9 5 -16.5 7.5
t-13.5 2.5q-25 0 -42.5 -17.5t-17.5 -42.5t17.5 -42.5t42.5 -17.5q33 0 56.5 29.5t23.5 70.5h40q0 -41 23.5 -70.5t56.5 -29.5q25 0 42.5 17.5t17.5 42.5q0 36 -30 100t-30 100h40q0 -34 15.5 -67.5t44.5 -62.5q38 -38 59 -80t21 -80h-40q0 34 -10.5 61.5t-29.5 43.5v-15
q0 -41 -29.5 -70.5t-70.5 -29.5q-30 0 -57 16t-43 44q-16 -28 -43 -44t-57 -16q-41 0 -70.5 29.5t-29.5 70.5v0z" />
    <glyph glyph-name="yacute" unicode="&#xfd;" horiz-adv-x="568" 
d="M273 360q0 -37 -13 -68.5t-37 -51.5q-36 -30 -55.5 -61.5t-19.5 -58.5q0 -29 23.5 -49.5t56.5 -20.5q41 0 70.5 44t29.5 106h40q0 -62 29.5 -106t70.5 -44q31 0 53 23.5t22 56.5q0 19 -8 37.5t-22 32.5l35 30q19 -23 29.5 -49t10.5 -51q0 -54 -35 -92t-85 -38
q-41 0 -74.5 28t-45.5 72q-12 -44 -45.5 -72t-74.5 -28q-54 0 -92 35t-38 85q0 31 17 62.5t48 57.5t48 57.5t17 62.5q0 23 -14.5 39t-35.5 16t-35.5 -16t-14.5 -39q0 -8 5 -18t15 -22l-40 -30q-15 17 -22.5 35t-7.5 35q0 41 29.5 70.5t70.5 29.5q14 0 26.5 -2.5t23.5 -7.5
q63 -44 115.5 -67t89.5 -23q32 0 64 24t56 66l35 -30q-35 -49 -76 -77t-79 -28q-47 0 -160 65v-20v0zM198 -310q0 -12 17.5 -21t42.5 -9t51 10.5t49 29.5q-17 10 -42.5 15t-57.5 5q-25 0 -42.5 -9t-17.5 -21v0zM78 -180q0 41 28 70.5t67 29.5q24 0 46.5 -10.5t38.5 -29.5
q16 19 37 29.5t43 10.5t43 -10.5t37 -29.5q16 19 37 29.5t43 10.5q41 0 70.5 -29.5t29.5 -70.5q0 -18 -5 -33t-15 -27l-30 20q5 9 7.5 19t2.5 21q0 25 -17.5 42.5t-42.5 17.5q-23 0 -40.5 -17.5t-19.5 -42.5q-3 -34 -10.5 -61.5t-19.5 -48.5q19 -16 34.5 -39t25.5 -51h-50
q-7 18 -15.5 32t-19.5 23q-26 -26 -58.5 -40.5t-66.5 -14.5q-41 0 -70.5 20.5t-29.5 49.5t29.5 49.5t70.5 20.5t72 -7.5t48 -22.5q10 17 15 40t5 50q0 25 -17.5 42.5t-42.5 17.5t-42.5 -17.5t-17.5 -42.5h-40q0 25 -17.5 42.5t-42.5 17.5t-42.5 -17.5t-17.5 -42.5
q0 -13 10 -40l-30 -20q-10 17 -15 32.5t-5 27.5v0z" />
    <glyph glyph-name="thorn" unicode="&#xfe;" horiz-adv-x="569" 
d="M274 360q0 -37 -14.5 -70t-40.5 -55q-33 -28 -51.5 -55.5t-18.5 -49.5q0 -33 23.5 -56.5t56.5 -23.5q41 0 70.5 44t29.5 106h40q0 -62 29.5 -106t70.5 -44q29 0 49.5 23.5t20.5 56.5q0 20 -5 38t-15 32l35 30q17 -20 26 -46t9 -54q0 -54 -35 -92t-85 -38
q-42 0 -75.5 26.5t-44.5 68.5q-11 -42 -44.5 -68.5t-75.5 -26.5q-54 0 -92 38t-38 92q0 29 18.5 60.5t51.5 59.5q29 24 44.5 53t15.5 57q0 23 -14.5 39t-35.5 16t-35.5 -16t-14.5 -39q0 -8 5 -18t15 -22l-40 -30q-15 17 -22.5 35t-7.5 35q0 41 29.5 70.5t70.5 29.5
q30 0 59.5 -17t50.5 -48q45 -32 96.5 -48.5t103.5 -16.5q12 0 21 9t9 21q0 14 -11 27.5t-29 22.5h-50v40h92l18 -40q14 -12 22 -25t8 -25q0 -29 -23.5 -49.5t-56.5 -20.5q-46 0 -100.5 18t-114.5 52v0zM199 -310q0 -12 17.5 -21t42.5 -9t51 10.5t49 29.5q-17 10 -42.5 15
t-57.5 5q-25 0 -42.5 -9t-17.5 -21v0zM79 -180q0 41 28 70.5t67 29.5q25 0 47.5 -12t37.5 -33q15 21 36 33t44 12q26 0 47.5 -10.5t32.5 -29.5q13 19 34.5 29.5t45.5 10.5q41 0 70.5 -29.5t29.5 -70.5q0 -18 -5 -33t-15 -27l-30 20q5 9 7.5 19t2.5 21q0 25 -17.5 42.5
t-42.5 17.5q-23 0 -40.5 -17.5t-19.5 -42.5q-3 -34 -10.5 -61.5t-19.5 -48.5q19 -16 34.5 -39t25.5 -51h-50q-7 18 -15.5 32t-19.5 23q-26 -26 -58.5 -40.5t-66.5 -14.5q-41 0 -70.5 20.5t-29.5 49.5t29.5 49.5t70.5 20.5t72 -7.5t48 -22.5q10 17 15 40t5 50
q0 25 -17.5 42.5t-42.5 17.5t-42.5 -17.5t-17.5 -42.5h-40q0 25 -17.5 42.5t-42.5 17.5t-42.5 -17.5t-17.5 -42.5q0 -13 10 -40l-30 -20q-10 17 -15 32.5t-5 27.5v0z" />
    <glyph glyph-name="ydieresis" unicode="&#xff;" horiz-adv-x="570" 
d="M275 360q0 -33 -14.5 -63t-40.5 -52q-33 -28 -51.5 -58t-18.5 -57q0 -33 23.5 -56.5t56.5 -23.5q41 0 70.5 44t29.5 106h40q0 -62 29.5 -106t70.5 -44q33 0 56.5 22t23.5 53q0 22 -8 41.5t-22 33.5l30 30q19 -23 29.5 -49t10.5 -51q0 -54 -35 -92t-85 -38q-41 0 -74.5 28
t-45.5 72q-12 -44 -45.5 -72t-74.5 -28q-54 0 -92 38t-38 92q0 32 18.5 64.5t51.5 60.5q29 24 44.5 51.5t15.5 53.5q0 23 -14.5 39t-35.5 16t-35.5 -16t-14.5 -39q0 -8 5 -18t15 -22l-40 -30q-15 17 -22.5 35t-7.5 35q0 41 29.5 70.5t70.5 29.5q27 0 52 -13t43 -37
q44 -34 78.5 -52t56.5 -18q35 0 65 19t45 51q-27 -10 -40 -10q-41 0 -70.5 26.5t-29.5 63.5q0 41 29.5 70.5t70.5 29.5t70.5 -29.5t29.5 -70.5q0 -79 -50 -134.5t-120 -55.5q-31 0 -65.5 15.5t-69.5 44.5v0zM430 495q0 -23 14.5 -39t35.5 -16q16 0 28.5 4t21.5 11v40
q0 25 -14.5 42.5t-35.5 17.5t-35.5 -17.5t-14.5 -42.5v0zM200 -310q0 -12 17.5 -21t42.5 -9t51 10.5t49 29.5q-17 10 -42.5 15t-57.5 5q-25 0 -42.5 -9t-17.5 -21v0zM80 -180q0 41 28 70.5t67 29.5q24 0 46.5 -10.5t38.5 -29.5q16 19 37 29.5t43 10.5t43 -10.5t37 -29.5
q16 19 37 29.5t43 10.5q41 0 70.5 -29.5t29.5 -70.5q0 -18 -5 -33t-15 -27l-30 20q5 9 7.5 19t2.5 21q0 25 -17.5 42.5t-42.5 17.5q-23 0 -40.5 -17.5t-19.5 -42.5q-3 -34 -10.5 -61.5t-19.5 -48.5q19 -16 34.5 -39t25.5 -51h-50q-7 18 -15.5 32t-19.5 23
q-26 -26 -58.5 -40.5t-66.5 -14.5q-41 0 -70.5 20.5t-29.5 49.5t29.5 49.5t70.5 20.5t72 -7.5t48 -22.5q10 17 15 40t5 50q0 25 -17.5 42.5t-42.5 17.5t-42.5 -17.5t-17.5 -42.5h-40q0 25 -17.5 42.5t-42.5 17.5t-42.5 -17.5t-17.5 -42.5q0 -13 10 -40l-30 -20
q-10 17 -15 32.5t-5 27.5v0z" />
    <glyph glyph-name="OE" unicode="&#x152;" horiz-adv-x="135" 
d="M0 0v1h1v-1h-1v0z" />
    <glyph glyph-name="oe" unicode="&#x153;" horiz-adv-x="20" 
d="M-10 -415v30l20 50h20l20 -50v-30h-60v0zM-180 -240q0 68 58.5 116.5t141.5 48.5t141.5 -48.5t58.5 -116.5q0 -48 -32 -81.5t-78 -33.5q-26 0 -50 16t-40 44q-16 -28 -40 -44t-50 -16q-46 0 -78 33.5t-32 81.5v0zM-140 -240q0 -31 20.5 -53t49.5 -22t49.5 20.5t20.5 49.5
h40q0 -29 20.5 -49.5t49.5 -20.5t49.5 22t20.5 53q0 52 -47 88.5t-113 36.5t-113 -36.5t-47 -88.5v0z" />
    <glyph glyph-name="Scaron" unicode="&#x160;" horiz-adv-x="539" 
d="M213 75q0 23 16 39t39 16t39 -15.5t16 -37.5t-16 -37t-39 -15t-39 14.5t-16 35.5v0zM60 189v62h419v-62h-419v0zM213 360q0 23 16 39t39 16t39 -15.5t16 -37.5t-16 -37t-39 -15t-39 14.5t-16 35.5v0z" />
    <glyph glyph-name="scaron" unicode="&#x161;" horiz-adv-x="25" 
d="M0 0v1h1v-1h-1v0z" />
    <glyph glyph-name="Ydieresis" unicode="&#x178;" horiz-adv-x="599" 
d="M574 200q0 65 -24.5 124.5t-70.5 105.5l40 25q48 -48 74 -114.5t26 -140.5q0 -83 -41 -141.5t-99 -58.5q-46 0 -82 28t-48 72q-12 -44 -48 -72t-82 -28q-50 0 -85 35t-35 85q0 32 18.5 64.5t51.5 60.5q29 24 44.5 54t15.5 61q0 25 -14.5 42.5t-35.5 17.5t-35.5 -17.5
t-14.5 -42.5q0 -8 5 -18t15 -22l-40 -30q-15 17 -22.5 35t-7.5 35q0 41 29.5 70.5t70.5 29.5t70.5 -29.5t29.5 -70.5q0 -31 -15.5 -63.5t-44.5 -61.5q-34 -34 -52 -63.5t-18 -51.5q0 -29 20.5 -49.5t49.5 -20.5q46 0 78 44t32 106h40q0 -62 32 -106t78 -44q39 0 67 44
t28 106v0z" />
    <glyph glyph-name="florin" unicode="&#x192;" horiz-adv-x="300" 
d="M0 -180q0 46 29.5 78t70.5 32q29 0 49.5 -20.5t20.5 -49.5t-20.5 -49.5t-49.5 -20.5q-18 0 -34 8t-26 22q0 -46 32 -78t78 -32t78 47t32 113q0 77 -20.5 143t-59.5 112l35 20q41 -49 63 -120t22 -155q0 -83 -44 -141.5t-106 -58.5t-106 44t-44 106v0zM55 -135
q9 -16 21 -25.5t24 -9.5t21 9t9 21t-9 21t-21 9q-14 0 -26 -6.5t-19 -18.5v0z" />
    <glyph glyph-name="circumflex" unicode="&#x2c6;" 
d="M272 670h-60v210h60v-210v0zM402 670h-60v210h60v-210v0z" />
    <glyph glyph-name="lozenge" unicode="&#x2dc;" horiz-adv-x="520" 
d="M60 140l30 30q32 -56 83 -88t107 -32q54 0 92 25t38 60q0 30 -41 57t-104 38q-67 12 -111 46t-44 74q0 41 32 70.5t78 29.5h200v-40h-200q-25 0 -42.5 -17.5t-17.5 -42.5q0 -26 34 -48.5t86 -31.5q78 -14 129 -50.5t51 -79.5q0 -58 -52.5 -99t-127.5 -41
q-65 0 -123.5 37.5t-96.5 102.5v0z" />
    <glyph glyph-name="endash" unicode="&#x2013;" horiz-adv-x="22" 
d="M-5 -380v30l20 50h20l20 -50v-30h-60v0zM-180 -220q0 41 28 70.5t67 29.5q18 0 33 -5t27 -15l-20 -30q-7 5 -14.5 7.5t-15.5 2.5q-25 0 -42.5 -17.5t-17.5 -42.5t17.5 -42.5t42.5 -17.5q33 0 56.5 26.5t23.5 63.5h40q0 -37 23.5 -63.5t56.5 -26.5q25 0 42.5 26.5
t17.5 63.5q0 42 -24.5 76t-65.5 49l20 35q50 -18 80 -62t30 -98q0 -59 -27.5 -94.5t-72.5 -35.5q-29 0 -55.5 14.5t-44.5 40.5q-18 -26 -44.5 -40.5t-55.5 -14.5q-43 0 -74 29.5t-31 70.5v0z" />
    <glyph glyph-name="emdash" unicode="&#x2014;" horiz-adv-x="570" 
d="M135 180q0 -54 28 -92t67 -38q37 0 63.5 35t26.5 85h40q0 -50 26.5 -85t63.5 -35q39 0 67 38t28 92q0 95 -60 162.5t-145 67.5t-145 -67.5t-60 -162.5v0zM210 410q-41 0 -70.5 26.5t-29.5 63.5q0 46 52.5 78t127.5 32q124 0 212 -105.5t88 -254.5v-70q0 -75 -41 -127.5
t-99 -52.5q-38 0 -68.5 25t-41.5 65q-11 -40 -41.5 -65t-68.5 -25q-58 0 -99 52.5t-41 127.5t32 136.5t88 93.5v0zM230 450h110q61 0 114.5 -32t85.5 -88q-20 105 -90.5 172.5t-159.5 67.5q-54 0 -92 -20.5t-38 -49.5q0 -21 20.5 -35.5t49.5 -14.5v0zM310 -150v40l20 140h20
l20 -140v-40h-60v0z" />
    <glyph glyph-name="quoteleft" unicode="&#x2018;" horiz-adv-x="577" 
d="M157 330q13 -23 29.5 -36.5t30.5 -13.5q17 0 28.5 20.5t11.5 49.5t-11.5 49.5t-28.5 20.5q-19 0 -36 -25.5t-24 -64.5v0zM437 350q0 -29 11.5 -49.5t28.5 -20.5q14 0 30.5 13.5t29.5 36.5q-7 39 -24 64.5t-36 25.5q-17 0 -28.5 -20.5t-11.5 -49.5v0zM97 230
q0 95 35 162.5t85 67.5q37 0 63.5 -32t26.5 -78t-26.5 -78t-63.5 -32q-22 0 -40.5 10.5t-29.5 29.5v-50q0 -75 29.5 -127.5t70.5 -52.5q33 0 56.5 26.5t23.5 63.5h45q0 -37 22 -63.5t53 -26.5q41 0 70.5 52.5t29.5 127.5v50q-11 -19 -29.5 -29.5t-40.5 -10.5q-37 0 -63.5 32
t-26.5 78t26.5 78t63.5 32q50 0 85 -67.5t35 -162.5t-44 -162.5t-106 -67.5q-34 0 -61.5 19t-38.5 51q-11 -32 -38.5 -51t-61.5 -19q-62 0 -106 67.5t-44 162.5v0z" />
    <glyph glyph-name="quoteright" unicode="&#x2019;" horiz-adv-x="577" 
d="M157 330q13 -23 29.5 -36.5t30.5 -13.5q17 0 28.5 20.5t11.5 49.5t-11.5 49.5t-28.5 20.5q-19 0 -36 -25.5t-24 -64.5v0zM437 350q0 -29 11.5 -49.5t28.5 -20.5q14 0 30.5 13.5t29.5 36.5q-7 39 -24 64.5t-36 25.5q-17 0 -28.5 -20.5t-11.5 -49.5v0zM97 230
q0 95 35 162.5t85 67.5q37 0 63.5 -32t26.5 -78t-26.5 -78t-63.5 -32q-22 0 -40.5 10.5t-29.5 29.5v-50q0 -75 29.5 -127.5t70.5 -52.5q33 0 56.5 26.5t23.5 63.5h40q0 -37 25 -63.5t60 -26.5q39 0 67 52.5t28 127.5v50q-11 -19 -29.5 -29.5t-40.5 -10.5q-37 0 -63.5 32
t-26.5 78t26.5 78t63.5 32q50 0 85 -67.5t35 -162.5t-42.5 -162.5t-102.5 -67.5q-37 0 -65.5 18t-39.5 47q-11 -29 -38.5 -47t-61.5 -18q-62 0 -106 67.5t-44 162.5v0z" />
    <glyph glyph-name="quotesinglbase" unicode="&#x201a;" 
d="M-410 -100q0 21 14.5 35.5t35.5 14.5t35.5 -14.5t14.5 -35.5t-14.5 -35.5t-35.5 -14.5t-35.5 14.5t-14.5 35.5v0zM-150 -100q0 21 14.5 35.5t35.5 14.5t35.5 -14.5t14.5 -35.5t-14.5 -35.5t-35.5 -14.5t-35.5 14.5t-14.5 35.5v0z" />
    <glyph glyph-name="quotedblleft" unicode="&#x201c;" horiz-adv-x="577" 
d="M157 330q13 -23 29.5 -36.5t30.5 -13.5q17 0 28.5 20.5t11.5 49.5t-11.5 49.5t-28.5 20.5q-19 0 -36 -25.5t-24 -64.5v0zM437 350q0 -29 11.5 -49.5t28.5 -20.5q14 0 30.5 13.5t29.5 36.5q-7 39 -24 64.5t-36 25.5q-17 0 -28.5 -20.5t-11.5 -49.5v0zM97 230
q0 95 35 162.5t85 67.5q37 0 63.5 -32t26.5 -78q0 -28 -10 -51.5t-28 -38.5h158q-19 21 -29.5 44t-10.5 46q0 46 26.5 78t63.5 32q50 0 85 -67.5t35 -162.5t-44 -162.5t-106 -67.5q-34 0 -61.5 19t-38.5 51q-11 -32 -38.5 -51t-61.5 -19q-62 0 -106 67.5t-44 162.5v0z
M217 240q-22 0 -40.5 10.5t-29.5 29.5v-50q0 -75 29.5 -127.5t70.5 -52.5q31 0 53 26.5t22 63.5h45q0 -37 23.5 -63.5t56.5 -26.5q41 0 70.5 52.5t29.5 127.5v50q-11 -19 -29.5 -29.5t-40.5 -10.5v-20h-260v20v0z" />
    <glyph glyph-name="quotedblright" unicode="&#x201d;" horiz-adv-x="577" 
d="M157 330q13 -23 29.5 -36.5t30.5 -13.5q17 0 28.5 20.5t11.5 49.5t-11.5 49.5t-28.5 20.5q-19 0 -36 -25.5t-24 -64.5v0zM437 350q0 -29 11.5 -49.5t28.5 -20.5q14 0 30.5 13.5t29.5 36.5q-7 39 -24 64.5t-36 25.5q-17 0 -28.5 -20.5t-11.5 -49.5v0zM97 230
q0 95 35 162.5t85 67.5q37 0 63.5 -32t26.5 -78q0 -28 -10 -51.5t-28 -38.5h158q-19 21 -29.5 44t-10.5 46q0 46 26.5 78t63.5 32q50 0 85 -67.5t35 -162.5t-44 -162.5t-106 -67.5q-34 0 -61.5 18t-38.5 47q-11 -29 -38.5 -47t-61.5 -18q-62 0 -106 67.5t-44 162.5v0z
M217 240q-22 0 -40.5 10.5t-29.5 29.5v-50q0 -75 29.5 -127.5t70.5 -52.5q31 0 53 26.5t22 63.5h45q0 -37 23.5 -63.5t56.5 -26.5q41 0 70.5 52.5t29.5 127.5v50q-11 -19 -29.5 -29.5t-40.5 -10.5v-20h-260v20v0z" />
    <glyph glyph-name="quotedblbase" unicode="&#x201e;" horiz-adv-x="310" 
d="M0 -180q0 46 28 78t67 32q31 0 53 -20.5t22 -49.5t-22 -49.5t-53 -20.5q-17 0 -32 8t-23 22q0 -46 33.5 -78t81.5 -32t81.5 31t33.5 74q0 27 -14.5 52t-40.5 43q26 22 40.5 51t14.5 59q0 17 -5 35t-15 35l35 20q12 -21 18.5 -44t6.5 -46q0 -30 -10.5 -58.5t-29.5 -51.5
q19 -23 29.5 -47.5t10.5 -47.5q0 -60 -45.5 -102.5t-109.5 -42.5t-109.5 44t-45.5 106v0zM55 -140q0 -12 11.5 -21t28.5 -9q14 0 24.5 9t10.5 21t-10.5 21t-24.5 9q-17 0 -28.5 -9t-11.5 -21v0z" />
    <glyph glyph-name="dagger" unicode="&#x2020;" horiz-adv-x="79" 
d="M219 -145h40q0 -95 -17 -165.5t-49 -108.5q-38 -46 -103.5 -71t-145.5 -25v40q71 0 130 23.5t95 66.5q24 29 37 91t13 149v0z" />
    <glyph glyph-name="daggerdbl" unicode="&#x2021;" 
d="M337 670h-60v210h60v-210v0z" />
    <glyph glyph-name="bullet" unicode="&#x2022;" 
d="M-133 -144q9 -16 20.5 -25.5t21.5 -9.5q12 0 20 14.5t8 34.5q0 16 -8 27.5t-20 11.5q-14 0 -26 -15t-16 -38v0zM63 -130q0 -20 8 -34.5t20 -14.5q10 0 21.5 9.5t20.5 25.5q-4 23 -16 38t-26 15q-12 0 -20 -11.5t-8 -27.5v0zM-175 -214q0 67 24.5 114t59.5 47
q26 0 44.5 -22.5t18.5 -54.5q0 -20 -7 -36.5t-19 -26.5h110q-13 14 -20.5 30.5t-7.5 32.5q0 32 18.5 54.5t44.5 22.5q35 0 59.5 -47t24.5 -114t-31 -114t-74 -47q-23 0 -42.5 13.5t-27.5 35.5q-8 -22 -27.5 -35.5t-42.5 -13.5q-43 0 -74 47t-31 114v0zM-91 -207
q-15 0 -28 7.5t-21 20.5v-35q0 -51 20.5 -87t49.5 -36q20 0 37.5 16.5t25.5 43.5h14q8 -27 25.5 -43.5t37.5 -16.5q29 0 49.5 36t20.5 87v35q-8 -13 -21 -20.5t-28 -7.5v-14h-182v14v0z" />
    <glyph glyph-name="ellipsis" unicode="&#x2026;" horiz-adv-x="307" 
d="M-78 450h135q5 57 42.5 96t87.5 39q39 0 71.5 -20.5t48.5 -54.5l-40 -25q-15 26 -36.5 40.5t-43.5 14.5q-31 0 -54 -26t-26 -64h45q41 0 70.5 -25t29.5 -60q0 -41 -29.5 -70.5t-70.5 -29.5t-70.5 33.5t-29.5 81.5v30h-130v40v0zM102 380q0 -27 14.5 -46t35.5 -19
t35.5 14.5t14.5 35.5q0 19 -14.5 32t-35.5 13h-50v-30v0z" />
    <glyph glyph-name="perthousand" unicode="&#x2030;" 
d="M-23 -475v45h385v-45h-385v0z" />
    <glyph glyph-name="guilsinglleft" unicode="&#x2039;" 
d="M-520 -196l30 30q52 -44 117 -67t136 -23q79 0 144.5 23t108.5 66l25 -26q-51 -50 -123 -76.5t-153 -26.5q-80 0 -153.5 26t-131.5 74v0z" />
    <glyph glyph-name="guilsinglright" unicode="&#x203a;" 
d="M-460 -196l30 30q52 -44 117 -67t136 -23q79 0 144.5 23t108.5 66l25 -26q-51 -50 -123 -76.5t-153 -26.5q-80 0 -153.5 26t-131.5 74v0z" />
    <glyph glyph-name="trademark" unicode="&#x2122;" horiz-adv-x="125" 
d="M0 0v1h1v-1h-1v0z" />
    <glyph glyph-name="c144" horiz-adv-x="800" 
d="M100 0v700h600v-700h-600v0zM150 50h500v600h-500v-600v0z" />
  </font>
</defs>
</svg>
