<?xml version="1.0" standalone="no"?>
<!DOCTYPE svg PUBLIC "-//W3C//DTD SVG 1.1//EN" "http://www.w3.org/Graphics/SVG/1.1/DTD/svg11.dtd" >
<svg xmlns="http://www.w3.org/2000/svg" xmlns:xlink="http://www.w3.org/1999/xlink" version="1.1">
<metadata>
Created by FontForge 20170731 at Wed Feb 17 03:00:00 2016
 By Aleksey,,,
SHREE-BAN-0560E Copyright(c) 1992, Modular Infotech, Pune, INDIA. - Licenced to User with Reg. No. 400832
</metadata>
<defs>
<font id="SHREE-BAN-0560E" horiz-adv-x="5" >
  <font-face 
    font-family="SHREE-BAN-0560E"
    font-weight="400"
    font-stretch="normal"
    units-per-em="1000"
    panose-1="0 0 0 0 0 0 0 0 0 0"
    ascent="750"
    descent="-250"
    x-height="340"
    cap-height="500"
    bbox="-485 -290 939 760"
    underline-thickness="20"
    underline-position="-130"
    unicode-range="U+0020-2122"
  />
<missing-glyph horiz-adv-x="364" 
d="M33 0v666h265v-666h-265zM66 33h199v600h-199v-600z" />
    <glyph glyph-name=".notdef" horiz-adv-x="364" 
d="M33 0v666h265v-666h-265zM66 33h199v600h-199v-600z" />
    <glyph glyph-name=".null" horiz-adv-x="0" 
 />
    <glyph glyph-name="nonmarkingreturn" horiz-adv-x="0" 
 />
    <glyph glyph-name="space" unicode=" " horiz-adv-x="249" 
 />
    <glyph glyph-name="exclam" unicode="!" horiz-adv-x="410" 
d="M280 -40q-17 0 -28.5 11.5t-11.5 28.5q0 14 11.5 24.5t28.5 10.5t28.5 -11.5t11.5 -28.5q0 -14 -11.5 -24.5t-28.5 -10.5v0zM260 100v450h40v-450h-40v0z" />
    <glyph glyph-name="quotedbl" unicode="&#x22;" horiz-adv-x="666" 
d="M536 0v105q-19 27 -43.5 45t-51.5 25q-20 -43 -62 -69t-93 -26q-91 0 -165 79.5t-95 200.5l40 5q19 -106 81 -175.5t139 -69.5q52 0 88.5 32t36.5 78q0 52 -32 88.5t-78 36.5q4 -5 6.5 -11.5t2.5 -12.5q0 -23 -16 -39.5t-39 -16.5q-24 0 -41.5 16t-17.5 39t17.5 40.5
t42.5 19.5l-35 75h-231v35h686v-35h-100v-465h-40v0zM536 155v310h-270l30 -70q73 0 120 -55t35 -125q28 -10 50 -25.5t35 -34.5v0z" />
    <glyph glyph-name="numbersign" unicode="#" horiz-adv-x="499" 
d="M414 -5q-29 29 -44.5 74.5t-15.5 100.5q0 45 14 88.5t41 81.5q-49 -18 -86.5 -51.5t-58.5 -78.5q-23 -50 -60 -80t-75 -30q-37 0 -63.5 23.5t-26.5 56.5q7 38 15 45l30 -15q-5 -14 -5 -25q0 -19 14.5 -32t35.5 -13q28 0 60.5 34t59.5 91q-15 42 -39 68.5t-51 31.5
q0 -25 -16 -42.5t-39 -17.5t-39 14.5t-16 35.5t18.5 37t46.5 18q-13 49 -20 55h-104v35h399q0 33 -25 56.5t-60 23.5q-29 0 -85 -10t-85 -10q-39 0 -67 26.5t-28 63.5q0 23 12 43t33 32l30 -20q-17 -14 -26 -28.5t-9 -26.5q0 -21 16 -35.5t39 -14.5q29 0 85 10t85 10
q52 0 88.5 -35t36.5 -85h80v-35h-370q6 -13 10 -27t5 -28q42 -7 75.5 -36.5t49.5 -73.5q38 38 78.5 59t76.5 21l25 -40q-31 -31 -48 -75.5t-17 -94.5q0 -57 14.5 -99.5t40.5 -60.5l-35 -15v0z" />
    <glyph glyph-name="dollar" unicode="$" horiz-adv-x="651" 
d="M367 -10q-139 0 -237 96.5t-98 233.5h35q0 -102 71 -186t184 -114q-84 48 -132 143t-48 212h40q0 -139 66 -237t159 -98q66 0 113 42.5t47 102.5q0 30 -13 57.5t-37 47.5q-21 -46 -53.5 -73t-66.5 -27q-33 0 -56.5 31t-23.5 74v170h-327v35h517q0 35 -26.5 60t-63.5 25
q-33 0 -97.5 -15t-97.5 -15q-43 0 -74 28t-31 67q0 29 17.5 56t47.5 44l25 -30q-23 -13 -36.5 -32t-13.5 -38q0 -23 19 -39t46 -16q33 0 97.5 15t97.5 15q54 0 92 -36.5t38 -88.5h114v-35h-304v-180q0 -23 10.5 -39t24.5 -16q27 0 58 32.5t57 87.5q46 -27 73 -70t27 -90
q0 -83 -70.5 -141.5t-169.5 -58.5v0z" />
    <glyph glyph-name="percent" unicode="%" horiz-adv-x="711" 
d="M145 0h-40l470 500h45l-475 -500v0zM506 -10q-48 0 -81.5 41.5t-33.5 100.5t33.5 101t81.5 42t81.5 -42t33.5 -101t-33.5 -100.5t-81.5 -41.5v0zM506 30q31 0 53 30t22 72q0 43 -22 73t-53 30t-53 -30t-22 -73q0 -42 22 -72t53 -30v0zM210 230q-50 0 -85 41t-35 99t35 99
t85 41t85 -41t35 -99t-35 -99t-85 -41v0zM207 270q32 0 55 29.5t23 70.5t-22 70.5t-53 29.5q-33 0 -56.5 -29.5t-23.5 -70.5t22.5 -70.5t54.5 -29.5v0z" />
    <glyph glyph-name="ampersand" unicode="&#x26;" horiz-adv-x="585" 
d="M455 0q-5 53 -45.5 89t-95.5 36q-22 0 -64.5 -7.5t-64.5 -7.5q-58 0 -99 50t-41 120q0 31 7.5 60t22.5 55l35 -20q-12 -21 -18.5 -45.5t-6.5 -49.5q0 -54 29.5 -92t70.5 -38q22 0 65 7.5t65 7.5q45 0 82.5 -20.5t57.5 -55.5v341q0 19 -14.5 32t-35.5 13q-50 0 -100 -52
t-50 -103q6 3 13.5 4.5t15.5 1.5q19 0 32.5 -13.5t13.5 -32.5t-14.5 -32t-35.5 -13q-27 0 -46 23.5t-19 56.5q0 70 61.5 135t128.5 65q37 0 63.5 -28t26.5 -67v-420h-40v0z" />
    <glyph glyph-name="quotesingle" unicode="'" horiz-adv-x="611" 
d="M449 0q-15 55 -58 90t-97 35q-18 0 -52.5 -5t-52.5 -5q-62 0 -106 42.5t-44 102.5q0 29 9 57.5t26 52.5l35 -20q-15 -21 -22.5 -44t-7.5 -46q0 -43 32 -74t78 -31q18 0 52.5 5t52.5 5q45 0 86 -22.5t69 -62.5v335q0 27 -13 46t-32 19q-54 0 -104.5 -57t-50.5 -118
q7 7 16 11t19 4q19 0 32 -11.5t13 -28.5q0 -21 -14.5 -35.5t-35.5 -14.5q-29 0 -49.5 23.5t-20.5 56.5q0 74 63.5 142t131.5 68q35 0 60 -29.5t25 -70.5v-35q35 6 57.5 36t22.5 69q0 43 -47 74t-113 31q-81 0 -138 33.5t-57 81.5q0 11 5 21.5t15 18.5l35 -15
q-7 -4 -11 -10.5t-4 -14.5q0 -31 48.5 -53t116.5 -22q79 0 134.5 -42.5t55.5 -102.5q0 -50 -33.5 -90.5t-86.5 -54.5v-345h-40v0z" />
    <glyph glyph-name="parenleft" unicode="(" horiz-adv-x="440" 
d="M330 -210q-111 64 -175.5 187.5t-64.5 272.5t64.5 272.5t175.5 187.5l20 -30q-102 -59 -161 -174t-59 -256t59 -256t161 -174l-20 -30v0z" />
    <glyph glyph-name="parenright" unicode=")" horiz-adv-x="440" 
d="M110 -210l-20 30q102 59 161 174t59 256t-59 256t-161 174l20 30q111 -64 175.5 -187.5t64.5 -272.5t-64.5 -272.5t-175.5 -187.5v0z" />
    <glyph glyph-name="asterisk" unicode="*" horiz-adv-x="566" 
d="M329 -10q-111 0 -196 108t-99 267l40 5q13 -144 86 -242t169 -98q58 0 99 32t41 78q0 36 -23.5 65.5t-61.5 39.5q-17 -10 -32.5 -15t-27.5 -5q-19 0 -32 10.5t-13 24.5q0 17 11.5 28.5t28.5 11.5q19 0 35.5 -4t29.5 -11q26 18 40.5 43t14.5 52q0 33 -32 56.5t-78 23.5
q-41 0 -70.5 -12.5t-34.5 -32.5q14 2 24.5 -7t10.5 -23q0 -17 -11.5 -28.5t-28.5 -11.5q-19 0 -32 13t-13 32q0 46 45.5 78t109.5 32q62 0 106 -35t44 -85q0 -35 -13 -65t-37 -50q37 -17 58.5 -51t21.5 -74q0 -62 -52.5 -106t-127.5 -44v0z" />
    <glyph glyph-name="plus" unicode="+" horiz-adv-x="631" 
d="M335 -10q-113 0 -199.5 109.5t-100.5 270.5l40 5q13 -146 86.5 -245.5t168.5 -99.5q58 0 99 35t41 85q0 39 -18 68t-47 37q-35 -20 -50 -20q-21 0 -35.5 11.5t-14.5 28.5q0 14 14.5 24.5t35.5 10.5q4 0 45 -15q16 12 25.5 33t9.5 47q0 39 -33.5 67t-81.5 28
q-37 0 -64.5 -13.5t-35.5 -36.5q19 0 32 -13t13 -32q0 -14 -13 -24.5t-32 -10.5q-21 0 -35.5 16t-14.5 39q0 48 44 81.5t106 33.5q64 0 109.5 -39.5t45.5 -95.5q43 0 74 25t31 60q0 41 -47.5 72.5t-117.5 37.5q-93 8 -156.5 50.5t-63.5 96.5q0 8 1.5 14t3.5 9h45
q-5 -14 -5 -20q0 -42 56 -75t139 -40q79 -7 132 -48.5t53 -96.5q0 -52 -43 -88.5t-104 -36.5q-1 -12 -8 -26t-20 -29q30 -14 47.5 -49t17.5 -81q0 -66 -51.5 -113t-123.5 -47v0z" />
    <glyph glyph-name="comma" unicode="," horiz-adv-x="320" 
d="M115 -135l-25 30q41 7 68 35.5t27 64.5q0 2 -1.5 4.5t-3.5 5.5q-6 -5 -16 -7.5t-24 -2.5q-17 0 -28.5 11.5t-11.5 28.5q0 23 16 39t39 16q31 0 53 -23.5t22 -56.5q0 -42 -31 -81t-84 -64v0z" />
    <glyph glyph-name="hyphen" unicode="-" horiz-adv-x="410" 
d="M90 240v35h230v-35h-230v0z" />
    <glyph glyph-name="period" unicode="." horiz-adv-x="270" 
d="M135 0q-19 0 -32 14t-13 33q0 20 13 34t32 14t32 -14t13 -34q0 -19 -13 -33t-32 -14v0z" />
    <glyph glyph-name="slash" unicode="/" horiz-adv-x="424" 
d="M-10 465v35h444v-35h-130v-205h-40q-16 19 -51.5 29.5t-83.5 10.5l-30 40q30 35 72 63t93 47v15h-274v0zM264 300v105q-46 -12 -115 -70q46 -4 76 -13t39 -22v0z" />
    <glyph glyph-name="zero" unicode="0" horiz-adv-x="426" 
d="M213 -6q-79 0 -122.5 69.5t-43.5 195.5t43.5 196t122.5 70t122.5 -70t43.5 -196t-43.5 -195.5t-122.5 -69.5v0zM213 28q61 0 94.5 60.5t33.5 170.5t-33.5 171t-94.5 61t-94.5 -61t-33.5 -171t33.5 -170.5t94.5 -60.5v0z" />
    <glyph glyph-name="one" unicode="1" horiz-adv-x="425" 
d="M251 0v394h-115v28h27q37 0 66 27.5t36 69.5h24v-519h-38v0z" />
    <glyph glyph-name="two" unicode="2" horiz-adv-x="425" 
d="M53 0v46q0 50 47 102t126 89q46 22 73.5 60.5t27.5 81.5q0 45 -33.5 76.5t-80.5 31.5q-45 0 -77 -37.5t-32 -90.5h-41q0 69 44 117.5t106 48.5q66 0 112.5 -43t46.5 -103q0 -52 -36 -100t-97 -76q-66 -31 -106 -71t-40 -75v-24h279v-33h-319v0z" />
    <glyph glyph-name="three" unicode="3" horiz-adv-x="426" 
d="M213 -6q-69 0 -117.5 40.5t-48.5 98.5v6h41v-6q0 -43 36.5 -74t88.5 -31t88.5 34.5t36.5 83.5q0 42 -29 72t-70 30h-59v38h59q33 0 56 29.5t23 70.5q0 39 -32.5 66.5t-78.5 27.5q-45 0 -77 -28.5t-32 -69.5v-17h-41l3 27q0 53 43 90t104 37q63 0 107.5 -39t44.5 -94
q0 -43 -20.5 -75.5t-52.5 -41.5q41 -11 67 -45.5t26 -77.5q0 -63 -48.5 -107.5t-117.5 -44.5v0z" />
    <glyph glyph-name="four" unicode="4" horiz-adv-x="426" 
d="M272 0v121h-232v45l239 353h27v-359h80v-39h-80v-121h-34v0zM78 160h194v288l-194 -288v0z" />
    <glyph glyph-name="five" unicode="5" horiz-adv-x="426" 
d="M213 -6q-66 0 -113.5 38t-52.5 94h38q7 -41 43.5 -67.5t84.5 -26.5q53 0 90.5 37.5t37.5 90.5q0 56 -37.5 95t-90.5 39q-36 0 -65.5 -12.5t-45.5 -35.5h-35l46 273h240v-39h-208l-34 -186q12 16 40.5 25.5t68.5 9.5q66 0 112.5 -47.5t46.5 -115.5q0 -71 -48.5 -121.5
t-117.5 -50.5v0z" />
    <glyph glyph-name="six" unicode="6" horiz-adv-x="426" 
d="M220 -6q-86 0 -129.5 60t-43.5 178q0 139 49 216t137 77q60 0 103 -35t43 -85h-41q0 34 -31 58t-74 24q-60 0 -102.5 -61t-42.5 -147v-37q14 37 50 60t82 23q66 0 112.5 -48.5t46.5 -116.5q0 -69 -46.5 -117.5t-112.5 -48.5v0zM220 28q50 0 85.5 38.5t35.5 93.5
q0 54 -35.5 92.5t-85.5 38.5q-51 0 -86.5 -38.5t-35.5 -92.5q0 -55 35.5 -93.5t86.5 -38.5v0z" />
    <glyph glyph-name="seven" unicode="7" horiz-adv-x="425" 
d="M121 0q0 127 54.5 258t145.5 222h-263v39h309v-34q-93 -93 -149.5 -225.5t-56.5 -259.5h-40v0z" />
    <glyph glyph-name="eight" unicode="8" horiz-adv-x="426" 
d="M213 -6q-69 0 -117.5 42.5t-48.5 102.5q0 46 28.5 84.5t74.5 55.5q-37 17 -58.5 47.5t-21.5 65.5q0 55 42 94t101 39t101 -39t42 -94q0 -38 -21.5 -69t-57.5 -44q46 -17 74 -55.5t28 -84.5q0 -60 -48.5 -102.5t-117.5 -42.5v0zM213 28q53 0 90.5 32.5t37.5 78.5
q0 48 -37.5 81.5t-90.5 33.5t-90.5 -33.5t-37.5 -81.5q0 -46 37.5 -78.5t90.5 -32.5v0zM213 298q43 0 74 28.5t31 68.5t-31 68t-74 28t-73.5 -28t-30.5 -68t30.5 -68.5t73.5 -28.5v0z" />
    <glyph glyph-name="nine" unicode="9" horiz-adv-x="426" 
d="M207 -6q-55 0 -96.5 31.5t-50.5 80.5h38q6 -35 37 -58t72 -23q55 0 94.5 59.5t39.5 142.5v46q-14 -39 -49.5 -63t-78.5 -24q-75 0 -120.5 45.5t-45.5 120.5q0 76 45.5 121.5t120.5 45.5q79 0 122.5 -66.5t43.5 -186.5q0 -129 -45 -200.5t-127 -71.5v0zM210 224
q49 0 83.5 37.5t34.5 90.5t-34.5 90.5t-83.5 37.5q-57 0 -91 -35t-34 -93t34 -93t91 -35v0z" />
    <glyph glyph-name="colon" unicode=":" horiz-adv-x="270" 
d="M135 285q-19 0 -32 14t-13 33q0 20 14.5 34t35.5 14q17 0 28.5 -14t11.5 -34q0 -19 -13 -33t-32 -14v0zM135 0q-19 0 -32 14t-13 33q0 20 13 34t32 14t32 -14t13 -34q0 -19 -13 -33t-32 -14v0z" />
    <glyph glyph-name="semicolon" unicode=";" horiz-adv-x="411" 
d="M338 0q-5 54 -47 100t-108 70q-65 24 -105 73.5t-40 106.5q0 66 51.5 113t123.5 47q48 0 81.5 -33.5t33.5 -81.5q0 -43 -28 -74t-67 -31q-41 0 -70.5 33.5t-29.5 81.5q0 12 4 24.5t11 25.5q-32 -11 -51 -40t-19 -65q0 -41 30 -79t80 -61q83 -30 136 -87t59 -123h-45v0z
M233 325q23 0 39 20.5t16 49.5q0 31 -17.5 53t-42.5 22q-23 0 -39 -19t-16 -46q0 -33 17.5 -56.5t42.5 -23.5v0z" />
    <glyph glyph-name="equal" unicode="=" horiz-adv-x="491" 
d="M361 0q-42 90 -118 146t-167 64l-10 45q6 -3 17.5 -4t37.5 -1q58 0 99 36.5t41 88.5q0 39 -31 67t-74 28q-26 0 -47 -8t-33 -22q17 0 28.5 -13t11.5 -32t-14.5 -32t-35.5 -13q-19 0 -32 16t-13 39q0 43 39.5 74t95.5 31q60 0 102.5 -39.5t42.5 -95.5q0 -48 -33 -89
t-87 -61q51 -14 98 -54t82 -101v490h40v-60h100v-35h-100v-465h-40v0z" />
    <glyph glyph-name="greater" unicode="&#x3e;" horiz-adv-x="452" 
d="M322 0v155q-11 63 -56.5 104t-103.5 41q-27 0 -47.5 -9.5t-27.5 -25.5q21 0 35.5 -14.5t14.5 -35.5t-14.5 -35.5t-35.5 -14.5q-25 0 -42.5 19t-17.5 46q0 46 39.5 78t95.5 32q51 0 94 -23t66 -62v210h-332v35h472v-35h-100v-465h-40v0z" />
    <glyph glyph-name="question" unicode="?" horiz-adv-x="605" 
d="M380 -40q-17 0 -28.5 10.5t-11.5 24.5t11.5 24.5t28.5 10.5q14 0 24.5 -10.5t10.5 -24.5t-10.5 -24.5t-24.5 -10.5v0zM360 80v105q0 36 17 70t48 60q24 20 37 43.5t13 46.5q0 37 -26.5 63.5t-63.5 26.5q-43 0 -74 -26.5t-31 -63.5v-45h-40v45q0 54 42.5 92t102.5 38
q54 0 92 -38t38 -92q0 -26 -15.5 -56t-44.5 -59q-26 -22 -40.5 -48t-14.5 -52v-110h-40v0z" />
    <glyph glyph-name="at" unicode="@" horiz-adv-x="410" 
d="M205 -10q-48 0 -81.5 32t-33.5 78t33.5 78t81.5 32t81.5 -32t33.5 -78t-33.5 -78t-81.5 -32v0zM205 30q31 0 53 20.5t22 49.5t-22 49.5t-53 20.5t-53 -20.5t-22 -49.5t22 -49.5t53 -20.5v0zM205 290q-48 0 -81.5 32t-33.5 78t33.5 78t81.5 32t81.5 -32t33.5 -78
t-33.5 -78t-81.5 -32v0zM205 330q31 0 53 20.5t22 49.5t-22 49.5t-53 20.5t-53 -20.5t-22 -49.5t22 -49.5t53 -20.5v0z" />
    <glyph glyph-name="A" unicode="A" horiz-adv-x="402" 
d="M272 0q-30 82 -87.5 135.5t-127.5 64.5l-40 35q51 72 117.5 115.5t137.5 49.5v65h-282v35h558v-35h-236v-65q81 -7 135.5 -57.5t54.5 -117.5q0 -37 -20.5 -63.5t-49.5 -26.5q-19 0 -32 11.5t-13 28.5q0 19 13.5 32t32.5 13q7 0 13 -1.5t11 -3.5q2 5 3.5 10t1.5 10
q0 44 -45.5 82t-104.5 43v-360h-40v0zM272 80v280q-59 -5 -111.5 -36.5t-88.5 -83.5q68 -18 120.5 -60t79.5 -100v0z" />
    <glyph glyph-name="B" unicode="B" horiz-adv-x="430" 
d="M295 0q-48 48 -105 74t-115 26l-25 40q21 25 85 70q-22 22 -44 33.5t-41 11.5l-25 30q39 56 110 91.5t160 43.5v45h-305v35h586v-35h-241v-45q76 -7 128 -40t52 -75q0 -23 -14.5 -39t-35.5 -16q-19 0 -32 11.5t-13 28.5q0 15 14.5 26.5t35.5 13.5q-24 24 -59 37t-76 13
v-110q76 -7 128 -43t52 -82q0 -29 -14.5 -49.5t-35.5 -20.5q-19 0 -32 11.5t-13 28.5t14.5 28.5t35.5 11.5q0 31 -39.5 53t-95.5 22v-230h-40v0zM295 50v180q-42 -4 -90.5 -28t-99.5 -67q43 0 92 -22t98 -63v0zM170 230q77 36 125 40v110q-58 0 -113.5 -24.5t-101.5 -70.5
q25 -4 48 -18.5t42 -36.5v0z" />
    <glyph glyph-name="C" unicode="C" horiz-adv-x="324" 
d="M238 -10q-60 0 -102.5 29.5t-42.5 70.5q0 29 27.5 56.5t72.5 43.5q-25 44 -69.5 69.5t-95.5 25.5l-10 40q43 43 99 66.5t116 23.5v50h-243v35h343q0 33 -22 56.5t-53 23.5q-27 0 -80 -10t-80 -10q-37 0 -63.5 20.5t-26.5 49.5q0 21 6.5 37t18.5 23l35 -15
q-10 -12 -15 -22t-5 -18q0 -14 14.5 -24.5t35.5 -10.5q26 0 77.5 10t77.5 10q50 0 85 -35t35 -85h97v-35h-197v-50q63 -11 104 -49.5t41 -85.5q0 -27 -14.5 -46t-35.5 -19q-19 0 -32 13t-13 32t15 31t35 9q-5 30 -33.5 50t-66.5 20v-145q0 -20 -19 -39.5t-51 -30.5
t-51 -30.5t-19 -39.5q0 -23 31 -39t74 -16q31 0 56.5 13.5t38.5 36.5q-40 0 -40 40t40 40q21 0 35.5 -14.5t14.5 -35.5q0 -50 -42.5 -85t-102.5 -35v0zM223 210q5 2 7.5 10t2.5 20v135q-43 0 -84 -15.5t-76 -44.5q52 -9 91.5 -37t58.5 -68v0z" />
    <glyph glyph-name="D" unicode="D" horiz-adv-x="535" 
d="M331 -195q-21 37 -61.5 58.5t-88.5 21.5l-15 35q29 29 62 50.5t68 34.5q-113 20 -186.5 117.5t-73.5 227.5l40 5q0 -130 73 -222.5t177 -92.5q39 0 67 25t28 60q0 29 -17.5 49.5t-42.5 20.5q-9 -5 -17.5 -7.5t-17.5 -2.5q-19 0 -32 10.5t-13 24.5t14.5 24.5t35.5 10.5
q14 0 35 -10q14 14 22 32.5t8 37.5q0 31 -26.5 53t-63.5 22q-30 0 -53 -15.5t-27 -39.5q17 0 28.5 -10.5t11.5 -24.5q0 -17 -13 -28.5t-32 -11.5t-32 14.5t-13 35.5q0 50 39.5 85t95.5 35q46 0 81 -22.5t44 -57.5q24 24 50 37t50 13q43 0 74 -28t31 -67q0 -41 -28 -70.5
t-67 -29.5q-21 0 -35.5 13t-14.5 32q0 17 13 28.5t32 11.5q11 0 20.5 -8t14.5 -22q11 2 18 13.5t7 26.5q0 25 -19 42.5t-46 17.5q-19 0 -45 -15.5t-55 -44.5q2 -20 -7.5 -41t-27.5 -39q27 -7 43.5 -33.5t16.5 -61.5q0 -37 -24.5 -68.5t-65.5 -46.5v-205h-40v0zM331 -145v135
l-110 -70q41 -7 70 -24.5t40 -40.5v0zM-10 465v35h691v-35h-691v0z" />
    <glyph glyph-name="E" unicode="E" horiz-adv-x="416" 
d="M308 0q-28 41 -87.5 67t-137.5 33l-30 30q50 60 85 80q-14 14 -37.5 23t-52.5 12l-25 35q46 54 120 88t165 42v55h-318v35h572v-35h-214v-55q72 0 123.5 -42.5t51.5 -102.5q0 -23 -13 -39t-32 -16t-32 10.5t-13 24.5q0 17 14.5 28.5t35.5 11.5q-7 37 -45 61t-90 24v-370
h-40v0zM308 50v190q-55 -5 -106 -32t-89 -73q64 -6 114.5 -28t80.5 -57v0zM168 235q86 40 140 45v90q-74 -7 -133.5 -30t-96.5 -60q27 -5 50 -16.5t40 -28.5v0z" />
    <glyph glyph-name="F" unicode="F" horiz-adv-x="603" 
d="M473 0q-16 43 -73.5 69t-136.5 26q-2 -21 -15 -35.5t-30 -14.5q-19 0 -32 13t-13 32q0 16 14 28.5t36 16.5q-13 50 -64 84.5t-121 40.5l-20 40q36 52 90 83.5t115 36.5v45h-233v35h623v-35h-100v-465h-40v0zM473 55v410h-210v-45q64 0 109.5 -38t45.5 -92
q0 -29 -16 -49.5t-39 -20.5q-17 0 -28.5 10.5t-11.5 24.5q0 16 11.5 27t27.5 11q8 0 16 -3q0 37 -33.5 63.5t-81.5 26.5v-245q78 -7 133 -28t77 -52v0zM223 205v175q-46 -4 -87.5 -26t-72.5 -59q53 -9 94.5 -32.5t65.5 -57.5v0z" />
    <glyph glyph-name="G" unicode="G" horiz-adv-x="565" 
d="M440 0q-10 56 -39.5 93t-65.5 37q-17 0 -37 -14.5t-38 -40.5t-42 -40.5t-48 -14.5q-39 0 -67 31t-28 74l5 25l45 -10q-5 -14 -5 -30q0 -21 14.5 -35.5t35.5 -14.5q14 0 27.5 11t22.5 29q-18 69 -67.5 114.5t-112.5 50.5l-15 45q42 42 91 66.5t99 28.5v60h-225v35h585v-35
h-100v-465h-35v0zM435 95v370h-180v-60q57 -5 96 -38t39 -77q0 -27 -14.5 -46t-35.5 -19q-17 0 -28.5 10.5t-11.5 24.5q0 20 17.5 31t37.5 4q0 26 -29 46t-71 24v-235q16 19 37 29.5t43 10.5q30 0 57 -20.5t43 -54.5v0zM215 190v175q-40 -3 -76 -20t-64 -45
q43 -12 79.5 -40.5t60.5 -69.5v0z" />
    <glyph glyph-name="H" unicode="H" 
d="M-188 0q-29 52 -72.5 81t-87.5 24l-28 40q30 54 79 90.5t109 49.5v45h40v-45q53 0 90.5 -38t37.5 -92q0 -25 -14 -42.5t-34 -17.5q-17 0 -28.5 11.5t-11.5 28.5q0 19 13.5 31.5t30.5 8.5q0 29 -24.5 49.5t-59.5 20.5v-245h-40v0zM-188 55v190q-39 -8 -75 -35.5t-65 -69.5
q39 0 76 -22.5t64 -62.5v0z" />
    <glyph glyph-name="I" unicode="I" horiz-adv-x="83" 
d="M-40 -65q-7 20 -23.5 32.5t-36.5 12.5q-25 0 -72.5 -15t-72.5 -15q-39 0 -67 38t-28 92h40q0 -37 16 -63.5t39 -26.5q25 0 72.5 15t72.5 15q22 0 38.5 -8t21.5 -22v220q0 21 -11.5 35.5t-28.5 14.5q-39 0 -73.5 -29t-51.5 -76q18 3 31.5 -9t13.5 -31t-13 -32t-32 -13
q-21 0 -35.5 16t-14.5 39q0 58 58.5 116.5t116.5 58.5q33 0 56.5 -26.5t23.5 -63.5v-15q18 21 41.5 33t48.5 12q41 0 70.5 -28t29.5 -67q0 -37 -28 -63.5t-67 -26.5q-23 0 -39 13t-16 32q0 14 10.5 24.5t24.5 10.5q17 0 28.5 -11.5t11.5 -28.5q14 -2 24.5 13t10.5 37
q0 25 -17.5 42.5t-42.5 17.5q-35 0 -61 -24.5t-29 -60.5v-185h-40v0zM-366 500h595v-35h-595v35v0z" />
    <glyph glyph-name="J" unicode="J" horiz-adv-x="505" 
d="M375 0q-27 100 -105 162.5t-175 62.5v35q67 12 111 56t44 99q0 18 -6.5 32.5t-18.5 22.5q-28 -40 -62.5 -62.5t-67.5 -22.5q-37 0 -63.5 22t-26.5 53q0 26 12 40.5t33 14.5q25 0 37.5 -11.5t12.5 -33.5q0 -10 -9.5 -19.5t-25.5 -15.5q20 -17 51.5 -6.5t53.5 41.5
q13 19 27.5 29.5t27.5 10.5q27 0 46 -29.5t19 -70.5q0 -54 -30 -98t-80 -62q60 -11 112 -54.5t83 -110.5v475h40v-60h100v-35h-100v-465h-40v0z" />
    <glyph glyph-name="K" unicode="K" horiz-adv-x="509" 
d="M379 0v320q-17 64 -63 104.5t-102 40.5q-50 0 -89.5 -39.5t-50.5 -100.5q23 19 45 29.5t40 10.5q50 0 85 -31t35 -74q0 -51 -47.5 -95.5t-122.5 -64.5l-10 40q62 17 101 50.5t39 69.5q0 27 -22 46t-53 19q-22 0 -48 -14.5t-52 -40.5l-35 35q7 85 60.5 142.5t124.5 57.5
q48 0 92.5 -28t72.5 -77v160h40v-60h100v-35h-100v-465h-40v0z" />
    <glyph glyph-name="L" unicode="L" horiz-adv-x="436" 
d="M306 560h40v-60h100v-35h-100v-465h-40v105q-13 36 -40.5 58t-59.5 22q-36 0 -68 -20t-52 -55q54 38 112 22.5t58 -67.5q0 -48 -54 -81.5t-131 -33.5l-10 35q64 0 109.5 23.5t45.5 56.5q0 12 -14.5 21t-35.5 9q-31 0 -54.5 -8t-35.5 -22l-40 35q20 56 67 90.5t103 34.5
q24 2 50.5 -12.5t49.5 -42.5v235q-13 36 -40.5 58t-59.5 22q-41 0 -72.5 -18t-42.5 -47q52 36 108.5 17.5t56.5 -72.5q0 -50 -54 -85t-131 -35l-10 40q64 0 109.5 23.5t45.5 56.5q0 17 -16 28.5t-39 11.5q-26 0 -48.5 -9t-36.5 -26l-30 30q10 54 53.5 89.5t101.5 35.5
q28 2 55.5 -11t49.5 -39v85v0z" />
    <glyph glyph-name="M" unicode="M" horiz-adv-x="428" 
d="M298 0q-20 35 -67 55t-108 20l-20 40q34 40 84 67t111 38v200q-8 31 -36 50.5t-64 19.5q-44 0 -77.5 -22.5t-42.5 -57.5q16 11 33.5 17t35.5 6q42 0 71.5 -26t29.5 -62q0 -59 -56 -103.5t-139 -51.5l-5 40q68 6 114 39t46 76q0 19 -17.5 32t-42.5 13q-27 0 -50.5 -10.5
t-39.5 -29.5l-35 25q12 67 60 111t110 44q25 2 52.5 -8.5t52.5 -31.5v70h40v-60h100v-35h-100v-465h-40v0zM298 55v125q-42 -4 -78.5 -22t-61.5 -48q49 -4 85 -18.5t55 -36.5v0z" />
    <glyph glyph-name="N" unicode="N" horiz-adv-x="465" 
d="M335 560h40v-60h100v-35h-100v-465h-40v385q-15 41 -49 65.5t-76 24.5q-43 0 -78.5 -26t-51.5 -69q14 14 36.5 22t48.5 8q41 0 70.5 -23.5t29.5 -56.5q0 -54 -60 -92t-145 -38l-5 35q70 0 120 28t50 67q0 17 -17.5 28.5t-42.5 11.5q-30 0 -57.5 -13t-47.5 -37l-35 30
q20 73 71.5 119t113.5 46q41 0 74.5 -17.5t50.5 -47.5v110v0z" />
    <glyph glyph-name="O" unicode="O" horiz-adv-x="238" 
d="M28 315q14 80 65 132.5t115 52.5q49 0 88.5 -29.5t51.5 -75.5v-55q-14 53 -53 86.5t-87 33.5q-41 0 -76.5 -30t-53.5 -80q16 19 39.5 29.5t50.5 10.5q39 0 67 -29.5t28 -70.5q0 -58 -51 -104.5t-129 -60.5l-5 40q63 11 104 46.5t41 78.5q0 25 -16 42.5t-39 17.5
q-24 0 -51.5 -17t-53.5 -48l-35 30v0z" />
    <glyph glyph-name="P" unicode="P" horiz-adv-x="546" 
d="M407 -10q-138 0 -246 97.5t-134 247.5l40 10q24 -137 120.5 -226t219.5 -89q66 0 113 31t47 74q0 25 -12 46.5t-33 33.5q-12 -10 -23.5 -15t-21.5 -5q-21 0 -35.5 11.5t-14.5 28.5t13 28.5t32 11.5q7 0 50 -20q26 26 40.5 57.5t14.5 62.5q0 39 -19 67t-46 28
q-31 0 -53 -28t-22 -67h-40q-7 41 -39.5 68t-75.5 27q-33 0 -58.5 -21t-31.5 -54q8 10 22.5 15t32.5 5q41 0 70.5 -32t29.5 -78q0 -47 -42.5 -85.5t-107.5 -49.5l-5 40q50 9 82.5 36t32.5 59q0 29 -17.5 49.5t-42.5 20.5q-23 0 -43 -12t-32 -33l-35 20q6 68 46.5 114
t93.5 46q48 0 86 -20.5t54 -54.5q16 34 42 54.5t53 20.5q43 0 74 -38t31 -92q0 -43 -15.5 -79.5t-44.5 -60.5q24 -24 37 -51.5t13 -53.5q0 -60 -58.5 -102.5t-141.5 -42.5v0z" />
    <glyph glyph-name="Q" unicode="Q" horiz-adv-x="475" 
d="M345 0q-34 73 -105 120t-160 55l-30 30l90 80q-46 8 -75.5 36.5t-29.5 63.5q0 20 12 41t33 39h-90v35h495v-35h-100v-465h-40v0zM345 60v405h-215q-26 -18 -40.5 -39t-14.5 -41q0 -25 22 -42.5t53 -17.5q14 0 25 2.5t20 7.5l40 35l25 -30l-145 -130q76 -13 136.5 -52.5
t93.5 -97.5v0z" />
    <glyph glyph-name="R" unicode="R" horiz-adv-x="428" 
d="M318 -15q-116 0 -198 107t-82 258h40q0 -135 70.5 -230t169.5 -95q66 0 113 41t47 99q0 35 -14.5 60t-35.5 25l-40 -40q-15 -21 -35 -33t-40 -12q-46 0 -78 32t-32 78q0 54 15 95q-36 17 -69 46t-61 69l35 25q27 -39 55 -66t55 -39q27 46 64.5 73t75.5 27q35 0 60 -22
t25 -53q0 -41 -36.5 -73t-83.5 -32q-20 0 -42 6.5t-43 18.5q-10 -17 -10 -75q0 -29 20.5 -49.5t49.5 -20.5q13 0 28 12t27 33q13 19 29 29.5t31 10.5q37 0 63.5 -39.5t26.5 -95.5q0 -70 -58.5 -120t-141.5 -50v0zM338 365q33 0 56.5 17.5t23.5 42.5q0 17 -13 28.5t-32 11.5
q-29 0 -56 -21.5t-44 -58.5q17 -10 33.5 -15t31.5 -5v0z" />
    <glyph glyph-name="S" unicode="S" horiz-adv-x="345" 
d="M245 0q-25 53 -74.5 86.5t-110.5 38.5l-30 35q37 44 92.5 73.5t122.5 41.5q0 37 -25.5 62.5t-59.5 22.5q-10 -27 -28 -43.5t-37 -16.5q-21 0 -35.5 13t-14.5 32q0 25 22 42.5t53 17.5q-14 52 -25 60h-105v35h501v-35h-61q-8 -43 -36 -71.5t-64 -28.5q-38 0 -71 27.5
t-49 72.5h-70q18 -39 20 -60q54 -10 89.5 -46.5t35.5 -83.5q68 -6 114 -45t46 -90q0 -27 -16 -46t-39 -19q-19 0 -32 11.5t-13 28.5t10.5 28.5t24.5 11.5q8 0 14.5 -1.5t10.5 -3.5q0 35 -35 60t-85 25v-235h-40v0zM245 65v170q-53 -9 -94 -30t-66 -50q49 -4 91 -28t69 -62v0
zM330 400q25 0 42.5 19t17.5 46h-140q8 -29 30 -47t50 -18v0z" />
    <glyph glyph-name="T" unicode="T" horiz-adv-x="724" 
d="M594 -110q-33 57 -94 92.5t-136 42.5l-15 45q56 0 95.5 26.5t39.5 63.5q0 27 -23.5 46t-56.5 19q-14 -51 -57 -83t-98 -32q-85 0 -145 67.5t-60 162.5q0 24 4 44t11 36l40 5q-15 -41 -15 -80q0 -81 47 -138t113 -57q50 0 85 29.5t35 70.5q0 14 -7.5 24.5t-17.5 10.5
q-12 0 -32.5 -10t-32.5 -10q-41 0 -70.5 26.5t-29.5 63.5q0 32 24 64t66 56l-55 70l35 20l55 -70q21 10 44 15t46 5q39 0 67 -22t28 -53q0 -27 -25 -46t-60 -19q-29 0 -59 17t-56 48q-32 -19 -51 -41.5t-19 -43.5t16 -35.5t39 -14.5q12 0 35 10t35 10q27 0 46 -17.5
t19 -42.5q50 0 85 -31t35 -74q0 -35 -24.5 -65t-65.5 -45q39 -3 81 -29t79 -71v610h40v-60h100v-35h-100v-575h-40v0zM399 415q19 0 32 7.5t13 17.5q0 14 -16 24.5t-39 10.5q-22 0 -39.5 -4t-30.5 -11q22 -22 42.5 -33.5t37.5 -11.5v0zM-10 465v35h184v-35h-184v0z" />
    <glyph glyph-name="U" unicode="U" horiz-adv-x="508" 
d="M386 -25q-15 21 -22.5 51.5t-7.5 68.5q0 47 17 92t48 83q-49 -13 -100.5 -50t-99.5 -95q-18 -26 -42 -40.5t-48 -14.5q-37 0 -63.5 29.5t-26.5 70.5q0 17 6.5 32.5t18.5 27.5l35 -15q-10 -12 -15 -24.5t-5 -25.5q0 -23 14.5 -39t35.5 -16q13 0 30 12t35 33q32 46 95 90
q-18 50 -52.5 80t-72.5 30q4 -25 -9.5 -45t-35.5 -20q-21 0 -35.5 13t-14.5 32q0 20 14 35.5t36 19.5l-30 75h-101v35h528v-35h-52q-12 -46 -43 -75.5t-67 -29.5t-67 29.5t-43 75.5h-115l30 -70q58 -5 102 -41t58 -89q28 20 57 32.5t58 17.5l40 -40q-38 -38 -59 -85t-21 -95
q0 -37 5 -65t15 -45l-30 -10v0zM356 400q21 0 40 18t30 47h-140q2 -28 22.5 -46.5t47.5 -18.5v0z" />
    <glyph glyph-name="V" unicode="V" horiz-adv-x="463" 
d="M43 345q0 21 4 40t11 35l40 5q-15 -41 -15 -80q0 -81 47 -138t113 -57q50 0 85 29.5t35 70.5q0 14 -7.5 24.5t-17.5 10.5q-12 0 -32.5 -10t-32.5 -10q-41 0 -70.5 26.5t-29.5 63.5q0 32 24 64t66 56l-55 70l35 20l55 -70q21 10 44 15t46 5q39 0 67 -22t28 -53
q0 -27 -25 -46t-60 -19q-29 0 -59 17t-56 48q-32 -19 -51 -41.5t-19 -43.5t16 -35.5t39 -14.5q12 0 35 10t35 10q27 0 46 -22t19 -53q0 -58 -47 -99t-113 -41q-83 0 -141.5 69t-58.5 166v0zM398 415q19 0 32 7.5t13 17.5q0 14 -16 24.5t-39 10.5q-22 0 -39.5 -4t-30.5 -11
q22 -22 42.5 -33.5t37.5 -11.5v0z" />
    <glyph glyph-name="W" unicode="W" horiz-adv-x="289" 
d="M177 -10q-37 0 -63.5 29.5t-26.5 70.5v375h-97v35h445v-35h-308v-60q28 -33 68.5 -59.5t91.5 -45.5q47 -17 76 -42t29 -48q0 -68 -74 -144t-141 -76v0zM127 90q0 -25 13 -42.5t32 -17.5q56 0 118 62t62 118q0 12 -20.5 27.5t-54.5 27.5q-37 12 -74.5 34.5t-75.5 55.5
v-265v0z" />
    <glyph glyph-name="X" unicode="X" horiz-adv-x="594" 
d="M464 0v270q-10 18 -24 28t-28 10q-17 0 -39 -18t-44 -50q-24 -42 -56 -66t-64 -24q-33 0 -62 23.5t-43 61.5l40 15q7 -24 25 -39.5t40 -15.5t40.5 10.5t29.5 29.5q-40 57 -88 88t-92 27q15 -22 3.5 -46t-38.5 -24q-19 0 -32 14.5t-13 35.5q0 25 22 42.5t53 17.5
q62 0 117 -33.5t88 -91.5l20 30q-15 55 -43.5 99t-66.5 71h-219v35h614v-35h-100v-465h-40v0zM464 320v145h-195q30 -25 51.5 -61t33.5 -79q8 12 24 18.5t36 6.5q14 0 27 -8t23 -22v0z" />
    <glyph glyph-name="Y" unicode="Y" horiz-adv-x="723" 
d="M544 -180q-30 52 -72.5 84t-87.5 36l-25 30q94 79 155 95q-55 20 -80 20l-10 35q76 0 135.5 53t59.5 122q0 25 -14.5 42.5t-35.5 17.5t-45 -21.5t-46 -59.5q-26 -38 -48 -58.5t-36 -20.5q-12 0 -23.5 4t-21.5 11q-51 -88 -107 -139t-103 -51q-23 0 -39 20.5t-16 49.5v375
h-94v35h743v-35h-354q25 -44 52.5 -72.5t52.5 -37.5q17 17 37.5 26t42.5 9q39 0 67 -31t28 -74q0 -58 -38.5 -107.5t-101.5 -72.5q69 -19 129.5 -62.5t105.5 -107.5l-40 -15q-31 44 -66.5 75.5t-73.5 49.5v-225h-30v0zM534 -115v145q-27 -5 -56.5 -20t-58.5 -40
q33 -9 62.5 -31t52.5 -54v0zM384 238q13 0 27.5 12.5t27.5 34.5q23 40 30 45q-33 9 -63.5 39t-51.5 76v-165q0 -17 9 -29.5t21 -12.5v0zM314 280v185h-190v-35q9 -33 59 -72.5t131 -77.5v0zM144 55q35 0 83 49t97 133l-7 8q-65 24 -114 54.5t-79 65.5v-270q0 -17 6 -28.5
t14 -11.5v0z" />
    <glyph glyph-name="Z" unicode="Z" horiz-adv-x="241" 
d="M73 160v305h-83v35h261v-35h-118q102 -146 165 -175q14 -6 22 -17t8 -23q0 -14 -7.5 -30.5t-22.5 -34.5q-44 -55 -85 -85t-70 -30t-49.5 26.5t-20.5 63.5v0zM153 110q28 5 65.5 40t79.5 95q-58 33 -105 80t-80 105v-280q0 -17 11.5 -28.5t28.5 -11.5v0z" />
    <glyph glyph-name="bracketleft" unicode="[" horiz-adv-x="220" 
d="M-10 465v35h90q-14 14 -22 35t-8 45q0 56 50 95.5t120 39.5q58 0 125.5 -36.5t134.5 -103.5l-20 -20q-58 58 -120 89t-120 31q-54 0 -92 -28t-38 -67q0 -25 12 -46.5t33 -33.5h95v-35h-100v-465h-40v465h-100v0z" />
    <glyph glyph-name="backslash" unicode="\" horiz-adv-x="688" 
d="M594 0q-20 42 -30 87.5t-10 92.5q0 35 6.5 70.5t18.5 69.5q-34 -9 -63 -9q-75 0 -134.5 38t-82.5 101q-29 -29 -44.5 -62.5t-15.5 -67.5q0 -25 22 -42.5t53 -17.5q12 0 35 7.5t35 7.5q35 0 60 -25t25 -60q0 -58 -50 -99t-120 -41q-109 0 -187 94t-78 226h40
q0 -110 68.5 -195t156.5 -85q54 0 92 29.5t38 70.5q0 19 -11.5 32t-28.5 13q-13 0 -37.5 -7.5t-37.5 -7.5q-48 0 -81.5 29.5t-33.5 70.5t15.5 78.5t44.5 66.5h-269v35h708v-35h-359q18 -50 67.5 -80.5t111.5 -30.5q37 0 81 16l35 -25q-20 -42 -30 -84t-10 -81
q0 -47 10 -92.5t30 -87.5h-40v0z" />
    <glyph glyph-name="bracketright" unicode="]" horiz-adv-x="220" 
d="M90 0v465h-100v35h100q0 37 -31 63.5t-74 26.5q-37 0 -107.5 -17.5t-107.5 -17.5q-46 0 -78 32t-32 78q0 12 4 23.5t11 21.5l35 -10q-5 -7 -7.5 -16t-2.5 -19q0 -29 20.5 -49.5t49.5 -20.5q37 0 107.5 17.5t107.5 17.5q60 0 102.5 -38t42.5 -92h100v-35h-100v-465h-40v0z
M160 600q-63 0 -109 39t-51 96l40 5q7 -43 41 -70.5t79 -27.5t79 27.5t41 70.5l40 -5q-5 -57 -51 -96t-109 -39v0zM160 680q-17 0 -28.5 9.5t-11.5 23.5q0 15 11 26t27 11q17 0 29.5 -10.5t12.5 -24.5t-11.5 -24.5t-28.5 -10.5v0z" />
    <glyph glyph-name="asciicircum" unicode="^" horiz-adv-x="815" 
d="M253 140q-93 0 -159 69t-66 166l40 5q0 -83 54 -141.5t131 -58.5q39 0 67 22t28 53q0 19 -13 32t-32 13q-14 0 -40 -7.5t-40 -7.5q-31 0 -53 22t-22 53q0 25 11.5 52t33.5 53h-203v35h835v-35h-547q20 -35 65 -57.5t105 -27.5q16 23 34 38t36 22l40 -15q4 -47 54 -76.5
t116 -23.5l40 -40q-38 -81 -36.5 -172.5t41.5 -177.5l-40 -20q-31 31 -76.5 48t-98.5 17l-25 30q33 39 74 66t86 39q-6 32 0.5 74t24.5 91q-79 7 -133 39t-62 76q-28 -16 -44 -44t-16 -61q0 -19 10.5 -32t24.5 -13q10 0 30 5t30 5q35 0 60 -23.5t25 -56.5q0 -41 -38 -70.5
t-92 -29.5q-43 0 -87.5 25t-82.5 70q-17 -15 -40.5 -22.5t-49.5 -7.5v0zM513 115q37 0 63.5 17.5t26.5 42.5q0 17 -13 28.5t-32 11.5q-10 0 -30 -5t-30 -5q-31 0 -53 26.5t-22 63.5q0 23 10 50q-63 6 -114.5 32t-80.5 68q-21 -18 -33 -40.5t-12 -44.5q0 -14 9 -24.5
t21 -10.5q14 0 40 7.5t40 7.5q35 0 60 -25t25 -60q0 -15 -5 -29t-15 -26q28 -40 66.5 -62.5t78.5 -22.5v0zM718 -30q-25 93 -25 100q-29 -3 -55.5 -18.5t-44.5 -41.5q33 0 65 -10t60 -30v0z" />
    <glyph glyph-name="underscore" unicode="_" horiz-adv-x="587" 
d="M593 -100q-9 35 -41 64t-79 46v-110h-40q-19 32 -64 53.5t-106 26.5l-20 40q31 44 80 76.5t110 48.5v205q-47 8 -89 35.5t-71 69.5q-38 -14 -61.5 -44t-23.5 -66q0 -19 11.5 -32t28.5 -13q11 0 32.5 7.5t32.5 7.5q37 0 63.5 -23.5t26.5 -56.5q0 -50 -42.5 -85t-102.5 -35
q-87 0 -148.5 67.5t-61.5 162.5l40 5q0 -81 50 -138t120 -57q43 0 74 23.5t31 56.5q0 17 -14.5 28.5t-35.5 11.5q-11 0 -32.5 -7.5t-32.5 -7.5q-33 0 -56.5 25t-23.5 60t17 67t48 53h-223v35h743v-35h-100v-565h-40v0zM433 -45v150q-41 -11 -76.5 -34t-63.5 -56
q51 -9 87 -24.5t53 -35.5v0zM593 -30v495h-275q31 -37 71.5 -59t83.5 -26v-330q33 -9 64 -29.5t56 -50.5v0z" />
    <glyph glyph-name="grave" unicode="`" horiz-adv-x="605" 
d="M286 30q-106 0 -180.5 80.5t-74.5 194.5l40 10q0 -101 63 -173t152 -72q58 0 99 32t41 78q0 17 -9 41t-26 54q-22 -26 -48 -40.5t-52 -14.5q-46 0 -78 32t-32 78q0 37 21 73t59 62h-271v35h761v-35h-420l85 -140q16 45 57.5 72.5t92.5 27.5q46 0 78 -28t32 -67
q0 -17 -9 -34t-26 -31q24 -16 37 -40t13 -50q0 -39 -31 -67t-74 -28q-31 0 -63.5 15.5t-61.5 44.5q-18 -50 -66 -80t-109 -30v0zM586 120q25 0 42.5 17.5t17.5 42.5q0 19 -10.5 36.5t-29.5 28.5q-43 -20 -55 -20q-19 0 -32 10.5t-13 24.5q0 17 11.5 28.5t28.5 11.5t32 -4
t28 -11q14 12 22 24t8 21q0 23 -22 39t-53 16q-46 0 -81.5 -31t-43.5 -79q24 -52 30 -85q28 -33 59.5 -51.5t60.5 -18.5v0zM291 260q21 0 42.5 16t37.5 44l-75 120q-35 -20 -55 -49.5t-20 -60.5q0 -29 20.5 -49.5t49.5 -20.5v0z" />
    <glyph glyph-name="a" unicode="a" horiz-adv-x="640" 
d="M28 325l40 5q0 -83 52.5 -141.5t127.5 -58.5q52 0 88.5 28t36.5 67q0 33 -29.5 56.5t-70.5 23.5q-25 0 -49.5 -6.5t-45.5 -18.5l-20 35q17 46 46 84t69 66h-283v35h660v-35h-287q20 -35 56 -55.5t78 -20.5q36 0 66 11l25 -35q-22 -26 -33.5 -90.5t-11.5 -159.5
q0 -64 35 -160l-40 -15q-35 29 -78.5 44.5t-91.5 15.5l-25 35q19 34 60 66t100 59q0 138 30 190q-17 -3 -39 -3q-56 0 -102.5 28t-68.5 75q-40 -23 -66 -51.5t-34 -58.5q22 6 48 6q59 0 100.5 -35.5t41.5 -85.5q0 -56 -48.5 -95.5t-116.5 -39.5q-91 0 -155.5 69t-64.5 166v0
zM528 -10q-23 50 -30 125q-39 -14 -105 -80q28 0 62.5 -11.5t72.5 -33.5v0z" />
    <glyph glyph-name="b" unicode="b" horiz-adv-x="672" 
d="M57 325l40 5q0 -87 64.5 -148.5t155.5 -61.5q50 0 85 20.5t35 49.5q0 17 -11.5 28.5t-28.5 11.5q-16 0 -45 -12.5t-45 -12.5q-48 0 -81.5 36.5t-33.5 88.5q0 34 19.5 69.5t55.5 65.5h-277v35h692v-35h-360q26 -55 68 -87.5t87 -32.5q33 0 62.5 10.5t52.5 29.5l35 -25
q-27 -47 -41 -103t-14 -117q0 -45 15 -100.5t45 -119.5l-45 -10q-26 22 -54.5 33.5t-55.5 11.5q-50 0 -147.5 -27.5t-147.5 -27.5q-64 0 -109.5 44t-45.5 106l40 10q0 -50 33.5 -85t81.5 -35q50 0 147.5 27.5t147.5 27.5q29 0 53.5 -6.5t41.5 -18.5q-20 34 -30 77.5
t-10 92.5q0 116 30 180q-17 -10 -37.5 -15t-42.5 -5q-53 0 -104 35t-86 95q-26 -26 -40.5 -52t-14.5 -48q0 -33 22 -56.5t53 -23.5q14 0 40 10t40 10q35 0 60 -23.5t25 -56.5q0 -46 -48.5 -78t-116.5 -32q-106 0 -180.5 72t-74.5 173v0z" />
    <glyph glyph-name="c" unicode="c" horiz-adv-x="446" 
d="M17 250q59 59 133 97t157 53v65h-317v35h357v-275q36 -21 64 -47.5t46 -57.5v440h40v-60h95v-35h-95v-440h-40q0 47 -30 89.5t-80 65.5v-180h-40q-19 71 -92.5 128.5t-182.5 86.5l-15 35v0zM307 85v270q-74 -13 -134 -41t-101 -69q81 -26 141.5 -67.5t93.5 -92.5v0z" />
    <glyph glyph-name="d" unicode="d" horiz-adv-x="675" 
d="M449 0q0 41 -32 70.5t-78 29.5q-22 0 -65 -12.5t-65 -12.5q-68 0 -116.5 50t-48.5 120q0 38 9 69t26 51l35 -20q-15 -17 -22.5 -41.5t-7.5 -53.5q0 -56 36.5 -95.5t88.5 -39.5q22 0 65 13.5t65 13.5q33 0 62 -15t48 -42v345q0 17 -10.5 28.5t-24.5 11.5q-47 0 -90.5 -52
t-39.5 -103q7 2 19 2q17 0 29 -11t12 -26q0 -14 -11.5 -24.5t-28.5 -10.5q-27 0 -46 22t-19 53q0 67 57 128.5t118 61.5q31 0 53 -23.5t22 -56.5v-20q27 46 67 73t83 27q46 0 78 -26.5t32 -63.5q0 -34 -9 -60t-26 -40q21 -12 33 -35t12 -50q0 -48 -33.5 -81.5t-81.5 -33.5
q-46 0 -88 25.5t-67 69.5v-215h-40v0zM639 160q33 0 56.5 22t23.5 53q0 20 -12 39t-33 31q-14 -10 -25.5 -15t-19.5 -5q-19 0 -32 11.5t-13 28.5t14.5 28.5t35.5 11.5q8 0 18 -5t22 -15q16 6 25.5 25t9.5 45q0 25 -20.5 42.5t-49.5 17.5q-40 0 -80.5 -36.5t-69.5 -98.5v-50
q21 -59 62.5 -94.5t87.5 -35.5v0z" />
    <glyph glyph-name="e" unicode="e" horiz-adv-x="536" 
d="M322 0q-33 57 -95.5 100t-144.5 65l-30 40q57 68 127 108.5t143 46.5q-21 46 -60.5 73t-84.5 27q-38 0 -66 -14t-34 -36q22 8 41 -4.5t19 -35.5q0 -19 -13 -32t-32 -13q-25 0 -42.5 20.5t-17.5 49.5q0 43 42.5 74t102.5 31q45 0 83.5 -18.5t61.5 -51.5v130h40v-130
q23 33 60 51.5t80 18.5q46 0 78 -31t32 -74q0 -24 -13 -50t-37 -50q24 -20 37 -47.5t13 -57.5q0 -46 -32 -78t-78 -32q-38 0 -75 22.5t-65 62.5v-165h-40v0zM322 65v255q-50 -4 -105.5 -35t-109.5 -85q64 -17 119 -51.5t96 -83.5v0zM502 120q29 0 49.5 20.5t20.5 49.5
q0 20 -12 41t-33 39q-35 -20 -45 -20q-23 0 -39 11.5t-16 28.5q0 19 16 32t39 13q8 0 40 -15q23 13 36.5 33.5t13.5 41.5q0 27 -20.5 46t-49.5 19q-44 0 -82 -26t-58 -69v-135q23 -50 61 -80t79 -30v0z" />
    <glyph glyph-name="f" unicode="f" horiz-adv-x="436" 
d="M414 -175q-54 64 -135 99.5t-175 35.5l-10 55q20 -7 53 -11t77 -4q54 0 92 25t38 60q0 21 -16 35.5t-39 14.5q-26 0 -72.5 -22.5t-72.5 -22.5q-37 0 -63.5 25t-26.5 60q0 41 32.5 80t87.5 65q38 27 59 49t21 36q0 27 -28 46t-67 19q-33 0 -56.5 -14.5t-23.5 -35.5
q18 3 31.5 -7.5t13.5 -27.5t-13 -28.5t-32 -11.5q-21 0 -35.5 16t-14.5 39q0 43 38 74t92 31q49 0 85 -21t45 -54q26 38 60.5 59t69.5 21q41 0 70.5 -26.5t29.5 -63.5q0 -20 -12 -40t-33 -35q19 -11 29.5 -31t10.5 -44q0 -37 -28 -63.5t-67 -26.5q-47 0 -91 42.5t-69 112.5
l-40 -35q19 -108 45 -130h20q41 0 70.5 -23.5t29.5 -56.5q0 -45 -34 -80.5t-86 -44.5q59 -21 102.5 -50.5t67.5 -64.5l-30 -25v0zM154 130q16 0 80 30q-24 28 -40 120q-42 -24 -66 -52t-24 -53q0 -19 14.5 -32t35.5 -13v0zM429 220q23 0 39 16t16 39q0 16 -8 30t-22 20
q-32 -15 -45 -15q-14 0 -24.5 10.5t-10.5 24.5q0 17 10.5 28.5t24.5 11.5q9 0 20.5 -4t24.5 -11q17 14 26 27t9 23q0 21 -17.5 35.5t-42.5 14.5q-34 0 -68.5 -27t-61.5 -73q25 -68 60.5 -109t69.5 -41v0z" />
    <glyph glyph-name="g" unicode="g" horiz-adv-x="658" 
d="M293 -20q-95 0 -168 83t-86 207l40 10q12 -111 74.5 -185.5t143.5 -74.5q46 0 78.5 26.5t32.5 63.5q0 16 -11.5 33.5t-32.5 31.5q-24 -17 -45.5 -26t-37.5 -9q-38 0 -64.5 28t-26.5 67q0 26 19 54t52 51q74 62 74 85t-32.5 39t-78.5 16q-43 0 -73.5 -19t-30.5 -46
q21 12 42 0.5t21 -35.5q0 -17 -14 -28.5t-34 -11.5q-24 0 -41 20.5t-17 49.5q0 46 43.5 78t105.5 32q51 0 88 -13.5t50 -36.5q26 26 55 40.5t56 14.5q48 0 82 -26.5t34 -63.5q0 -22 -9 -40.5t-25 -29.5q20 -12 32 -30.5t12 -39.5q0 -19 -11.5 -36t-31.5 -29l20 -10
q-18 -25 -27 -58.5t-9 -71.5t13 -72t37 -58l-29 -20q-29 29 -45 65.5t-16 74.5q0 48 6.5 82.5t19.5 52.5q-61 -16 -123 14.5t-98 95.5q-35 -25 -55 -50t-20 -45q0 -21 16 -35.5t38 -14.5q14 0 33 11.5t41 33.5q41 -20 65.5 -51t24.5 -64q0 -54 -46 -92t-111 -38v0zM481 250
q33 0 56 13t23 32q0 17 -11 31t-29 19q-37 -15 -45 -15q-18 0 -30.5 10.5t-12.5 24.5t12.5 24.5t30.5 10.5q5 0 19.5 -7t24.5 -8q15 11 23.5 22.5t8.5 22.5q0 23 -22.5 39t-54.5 16q-25 0 -50 -11.5t-47 -33.5q3 -22 -8.5 -46t-34.5 -44q30 -47 69.5 -73.5t77.5 -26.5v0z
" />
    <glyph glyph-name="h" unicode="h" horiz-adv-x="491" 
d="M337 -50q-23 40 -65.5 65t-94.5 30l-25 40q37 44 82.5 70t92.5 30q-17 10 -115 10q-77 0 -131 41t-54 99q0 16 4 28.5t11 21.5l35 -10q-5 -9 -7.5 -19t-2.5 -21q0 -41 42.5 -70.5t102.5 -29.5q55 0 85 -4.5t40 -15.5v225q0 12 -10.5 21t-24.5 9q-39 0 -67 -31t-28 -74
q6 5 30 5q17 0 28.5 -11.5t11.5 -28.5t-14.5 -28.5t-35.5 -11.5q-25 0 -42.5 23.5t-17.5 56.5q0 58 39.5 99t95.5 41q31 0 53 -16t22 -39v-30q19 32 45.5 51t54.5 19q35 0 60 -23.5t25 -56.5q0 -21 -8 -39.5t-22 -30.5q17 -14 26 -29.5t9 -30.5q0 -26 -13.5 -46.5
t-36.5 -28.5v-260h-40q-2 25 -28.5 56.5t-71.5 63.5v-120h-40v0zM332 15v130q-44 -8 -76.5 -24.5t-48.5 -40.5q44 -12 76 -28.5t49 -36.5v0zM477 25v175q-32 6 -58 24t-42 46v-160q30 -14 55 -35.5t45 -49.5v0zM482 240q19 0 32 13t13 32q0 7 -6.5 15t-18.5 15
q-7 -2 -14.5 -3.5t-15.5 -1.5q-19 0 -32 10.5t-13 24.5q0 23 24 34t51 1q10 10 15 17.5t5 12.5q0 19 -13 32t-32 13q-27 0 -54.5 -30t-45.5 -80q22 -48 50.5 -76.5t54.5 -28.5v0z" />
    <glyph glyph-name="i" unicode="i" horiz-adv-x="290" 
d="M-10 465v35h312q28 20 44 38.5t16 31.5q0 21 -20.5 35.5t-49.5 14.5t-87.5 -10t-87.5 -10q-31 0 -53 22t-22 53q0 23 18 43.5t47 31.5l20 -30q-20 -5 -32.5 -17.5t-12.5 -27.5q0 -14 10.5 -24.5t24.5 -10.5q30 0 90 10t90 10q43 0 74 -25t31 -60q0 -20 -12 -40t-33 -35
h79v-35h-309v-360q0 -31 13 -53t32 -22q46 0 108 71.5t62 123.5q-27 0 -46 13t-19 32q0 21 16 35.5t39 14.5t39 -19t16 -46q0 -93 -70 -179t-145 -86q-35 0 -60 33.5t-25 81.5v360h-97v0z" />
    <glyph glyph-name="j" unicode="j" horiz-adv-x="349" 
d="M261 -80q-97 0 -166 69t-69 166l40 5q0 -83 57 -141.5t138 -58.5q48 0 81.5 23.5t33.5 56.5q0 15 -9.5 29t-25.5 21q-24 -17 -47 -26t-43 -9q-43 0 -74 32t-31 78v300h-156v35h406q0 37 -26.5 63.5t-63.5 26.5q-30 0 -87.5 -15t-87.5 -15q-46 0 -78 29.5t-32 70.5
q0 17 9 35t26 35l30 -20q-12 -12 -18.5 -25t-6.5 -25q0 -25 20.5 -42.5t49.5 -17.5t85 15t85 15q56 0 95.5 -38t39.5 -92h59v-35h-309v-300q0 -29 19 -49.5t46 -20.5q47 0 87.5 40.5t57.5 104.5q-23 -6 -41.5 6.5t-18.5 33.5q0 19 14.5 32t35.5 13t35.5 -19t14.5 -46
q0 -30 -17 -66t-48 -74q21 -15 33 -36t12 -44q0 -50 -45.5 -85t-109.5 -35v0z" />
    <glyph glyph-name="k" unicode="k" horiz-adv-x="283" 
d="M200 -10q-70 0 -120 60t-50 145q66 18 108 69.5t42 115.5q0 31 -4 53t-11 32h-175v35h145q-46 46 -70.5 87.5t-24.5 72.5q0 29 15 53.5t40 36.5l30 -20q-21 -18 -33 -36.5t-12 -33.5q0 -26 27.5 -68t77.5 -92h244v-35h-214q72 -72 111 -146t39 -139q0 -79 -48.5 -134.5
t-116.5 -55.5v0zM200 30q52 0 88.5 44t36.5 106q0 48 -27 106t-78 119q7 -79 -35 -146t-115 -94q5 -57 42.5 -96t87.5 -39v0z" />
    <glyph glyph-name="l" unicode="l" horiz-adv-x="430" 
d="M301 -10q-110 0 -187.5 95t-77.5 230l40 10q0 -122 66 -208.5t159 -86.5q75 0 127.5 44t52.5 106q0 30 -12 55t-33 40q-22 -48 -56 -76.5t-69 -28.5q-33 0 -56.5 31t-23.5 74v190h-241v35h586v-35h-305v-205q0 -21 11.5 -35.5t28.5 -14.5q25 0 54.5 32.5t55.5 87.5
q44 -12 72 -52.5t28 -92.5q0 -88 -60 -141.5t-160 -53.5v0z" />
    <glyph glyph-name="m" unicode="m" horiz-adv-x="793" 
d="M663 -10q-77 0 -141 32t-99 88q-29 -29 -69 -44.5t-86 -15.5q-97 0 -166 83.5t-69 201.5l40 5q0 -104 57 -177t138 -73q70 0 120 42.5t50 102.5q0 29 -14.5 49.5t-35.5 20.5q-12 0 -26.5 -9t-28.5 -26q-16 -19 -33 -29.5t-32 -10.5q-27 0 -46 23.5t-19 56.5v155h-213v35
h949v-35h-306v-175q0 -17 9 -28.5t21 -11.5t25 8t25 22q14 14 31 22t34 8q46 0 78 -33.5t32 -81.5q0 -85 -66 -145t-159 -60v0zM663 30q77 0 131 48.5t54 116.5q0 31 -20.5 53t-49.5 22q-23 0 -57.5 -30t-57.5 -30q-29 0 -49.5 23.5t-20.5 56.5v175h-350v-160
q0 -14 7.5 -24.5t17.5 -10.5q7 0 19 9t26 26q16 19 35.5 29.5t39.5 10.5q37 0 63.5 -31t26.5 -74q0 -31 -9 -58t-26 -47h10q22 -48 79 -76.5t131 -28.5v0z" />
    <glyph glyph-name="n" unicode="n" horiz-adv-x="305" 
d="M-10 465v35h461v-35h-325v-360q0 -31 16 -53t39 -22q34 0 98 67.5t77 117.5q-29 0 -49.5 14.5t-20.5 35.5q0 23 16 39t39 16q27 0 46 -19t19 -46q0 -77 -80 -171t-145 -94q-39 0 -67 33.5t-28 81.5v360h-96v0z" />
    <glyph glyph-name="o" unicode="o" horiz-adv-x="465" 
d="M335 0v305q0 68 -41 116.5t-99 48.5q-50 0 -85 -32t-35 -78q0 -38 18.5 -66.5t46.5 -33.5q-6 23 8 41.5t37 18.5q21 0 35.5 -14.5t14.5 -35.5q0 -23 -19 -39t-46 -16q-56 0 -95.5 42.5t-39.5 102.5q0 62 47 106t113 44q46 0 84 -23t56 -62v135h40v-60h100v-35h-100v-465
h-40v0z" />
    <glyph glyph-name="p" unicode="p" horiz-adv-x="476" 
d="M346 560h40v-60h100v-35h-100v-465h-40q0 79 -41 134.5t-99 55.5q-43 0 -74 -26.5t-31 -63.5q0 -22 9.5 -40t25.5 -25q-2 20 13 35t37 15q19 0 32 -14.5t13 -35.5q0 -19 -20.5 -32t-49.5 -13q-41 0 -70.5 32t-29.5 78q0 54 42.5 92t102.5 38q47 0 85.5 -26t54.5 -69v155
q0 79 -41 134.5t-99 55.5q-43 0 -74 -26.5t-31 -63.5q0 -22 9.5 -40t25.5 -25q-2 20 13 35t37 15q19 0 32 -14.5t13 -35.5q0 -19 -20.5 -32t-49.5 -13q-41 0 -70.5 33.5t-29.5 81.5q0 52 42.5 88.5t102.5 36.5q47 0 85.5 -26t54.5 -69v135v0z" />
    <glyph glyph-name="q" unicode="q" horiz-adv-x="401" 
d="M305 -15q-70 0 -120 57t-50 138l5 30q61 0 113 47t52 102q0 45 -5 51q-11 29 -44 47t-76 18q-46 0 -78 -28.5t-32 -69.5q0 -34 22.5 -57t52.5 -20q-2 4 -3 8t-1 8q0 14 11.5 24t27.5 10q17 0 28.5 -10.5t11.5 -24.5q0 -23 -22 -39t-53 -16q-48 0 -81.5 34t-33.5 82
q0 56 44 95t106 39q22 0 39.5 -4t30.5 -11q-34 34 -52 66.5t-18 58.5q0 37 17 70.5t48 54.5l25 -25q-24 -16 -37 -42.5t-13 -57.5q0 -18 18 -49t52 -71h257v-35h-232q81 -68 125.5 -142.5t44.5 -142.5q0 -81 -52.5 -138t-127.5 -57v0zM305 25q58 0 99 45.5t41 109.5
q0 50 -26 103.5t-74 101.5q13 -72 -35.5 -132t-129.5 -73q-5 -58 34.5 -106.5t90.5 -48.5v0z" />
    <glyph glyph-name="r" unicode="r" horiz-adv-x="516" 
d="M394 -10q-128 0 -231 113t-134 287l40 5q28 -158 118.5 -261.5t201.5 -103.5q62 0 106 35t44 85q0 18 -5 32.5t-15 22.5q-10 -10 -24 -15t-31 -5q-19 0 -32 11.5t-13 28.5t14.5 28.5t35.5 11.5q14 0 26.5 -2.5t23.5 -7.5q20 55 20 80q0 40 -19 72t-51 43l-65 -100h-40
q-4 51 -31.5 85.5t-63.5 34.5q-33 0 -56.5 -23.5t-23.5 -56.5q0 -30 20 -49.5t45 -15.5q0 17 10.5 28.5t24.5 11.5q19 0 32 -10.5t13 -24.5q0 -21 -20.5 -35.5t-49.5 -14.5q-48 0 -81.5 32t-33.5 78q0 50 35 85t85 35q46 0 81.5 -31t43.5 -79q17 37 70 100q52 -19 83.5 -63
t31.5 -97q0 -33 -7.5 -61t-22.5 -49q15 -17 22.5 -38t7.5 -42q0 -66 -54 -113t-131 -47v0z" />
    <glyph glyph-name="s" unicode="s" horiz-adv-x="209" 
d="M29 380q0 50 39.5 85t95.5 35q50 0 92.5 -33t62.5 -87v-75q-18 69 -61.5 112t-93.5 43q-39 0 -67 -25t-28 -60q0 -21 9.5 -37.5t25.5 -22.5q0 17 11.5 28.5t28.5 11.5t28.5 -11.5t11.5 -28.5q0 -19 -16 -32t-39 -13q-41 0 -70.5 32t-29.5 78v0z" />
    <glyph glyph-name="t" unicode="t" horiz-adv-x="441" 
d="M316 -10q-116 0 -198 99.5t-82 240.5l40 5q0 -128 70.5 -219t169.5 -91q72 0 123.5 50t51.5 120q0 56 -42.5 95.5t-102.5 39.5q-28 0 -48 -13t-22 -32q8 3 19 3q21 0 36 -14t15 -34q0 -21 -16 -35.5t-39 -14.5q-27 0 -46 20.5t-19 49.5q0 46 36.5 78t88.5 32
q75 0 127.5 -51.5t52.5 -123.5q0 -85 -63 -145t-152 -60v0zM-10 465v35h597v-35h-597v0z" />
    <glyph glyph-name="u" unicode="u" horiz-adv-x="741" 
d="M611 0q-10 38 -49 61.5t-91 23.5q7 -25 -8.5 -45t-41.5 -20q-23 0 -39 14.5t-16 35.5q0 17 17 31t43 19l-10 45q-24 -17 -53.5 -26t-61.5 -9q-98 0 -176 79.5t-99 200.5l40 10q19 -108 85.5 -179t149.5 -71q58 0 99 36.5t41 88.5q0 43 -31 74t-74 31q-23 0 -41.5 -8
t-28.5 -22q19 0 32 -13t13 -32q0 -17 -13 -28.5t-32 -11.5q-23 0 -39 17.5t-16 42.5q0 39 36.5 67t88.5 28q60 0 102.5 -41t42.5 -99q0 -30 -7.5 -57t-22.5 -48l15 -70q43 0 81 -17t64 -48v405h-621v35h761v-35h-100v-465h-40v0z" />
    <glyph glyph-name="v" unicode="v" horiz-adv-x="419" 
d="M338 -40q-108 0 -196 96.5t-114 243.5l40 10q24 -134 100.5 -222t169.5 -88q48 0 81.5 25t33.5 60q0 27 -15 50t-40 35q-10 -7 -25.5 -11t-34.5 -4t-32 10.5t-13 24.5q0 17 14.5 28.5t35.5 11.5q9 0 50 -15q24 16 37 36t13 39q0 35 -29.5 60t-70.5 25q-34 0 -60 -15
t-35 -40q19 0 32 -10.5t13 -24.5q0 -17 -13 -28.5t-32 -11.5q-21 0 -35.5 16t-14.5 39q0 48 42.5 81.5t102.5 33.5q58 0 99 -35t41 -85q0 -28 -13 -54t-37 -46q28 -16 44 -45.5t16 -64.5q0 -52 -45.5 -88.5t-109.5 -36.5v0zM-10 465v35h575v-35h-575v0z" />
    <glyph glyph-name="w" unicode="w" horiz-adv-x="523" 
d="M336 -195q-20 35 -57.5 55t-82.5 20l-20 35q35 42 110 85q-108 19 -179 115.5t-71 224.5l40 5q0 -130 74.5 -222.5t180.5 -92.5q39 0 67 28t28 67q0 29 -15.5 51t-39.5 29q-26 -15 -40 -15q-19 0 -32 9t-13 21q0 17 13 28.5t32 11.5q10 0 17.5 -1.5t12.5 -3.5
q19 11 29.5 28.5t10.5 36.5q0 25 -25 42.5t-60 17.5q-30 0 -51 -10t-24 -25q14 0 24.5 -9t10.5 -21q0 -17 -13 -28.5t-32 -11.5t-32 14.5t-13 35.5q0 39 39.5 67t95.5 28q50 0 85 -29.5t35 -70.5q0 -24 -10.5 -46.5t-29.5 -38.5q30 -14 47.5 -45t17.5 -70q0 -42 -24.5 -76
t-65.5 -49v-190h-40v0zM336 -140v120q-29 -8 -56 -26t-49 -44q38 -7 65.5 -20t39.5 -30v0zM-10 465v35h543v-35h-543v0z" />
    <glyph glyph-name="x" unicode="x" horiz-adv-x="589" 
d="M19 419q0 38 31 64.5t74 26.5q32 0 56 -12t34 -33q10 21 31.5 33t48.5 12q41 0 70.5 -32t29.5 -78q0 -62 -46 -113.5t-119 -71.5q75 -20 134.5 -64t95.5 -106v515h40v-60h100v-35h-100v-465h-60q-37 80 -125.5 132.5t-204.5 62.5l-10 50q5 -2 14 -3.5t21 -1.5
q91 0 155.5 47t64.5 113q0 29 -17.5 49.5t-42.5 20.5q-23 0 -39 -19t-16 -46v-35h-45v35q0 27 -20.5 46t-49.5 19q-25 0 -42.5 -15t-17.5 -37q0 -17 7.5 -29t18.5 -14q0 14 10 24.5t24 10.5q17 0 28.5 -10.5t11.5 -25.5q0 -18 -18 -30.5t-43 -12.5q-35 0 -59.5 26t-24.5 62
v0z" />
    <glyph glyph-name="y" unicode="y" horiz-adv-x="565" 
d="M441 0q-2 23 -41 39t-94 16q-24 0 -70 -7.5t-70 -7.5q-52 0 -88.5 39.5t-36.5 95.5q0 31 7.5 60t22.5 55l35 -20q-12 -21 -18.5 -45.5t-6.5 -49.5q0 -39 25 -67t60 -28q24 0 70 7.5t70 7.5q46 0 81.5 -12t53.5 -33v280q0 23 -10.5 39t-24.5 16q-46 0 -98 -53.5
t-52 -101.5q20 12 40 0t20 -35q0 -17 -13 -28.5t-32 -11.5q-25 0 -42.5 22t-17.5 53q0 64 65.5 129.5t129.5 65.5q31 0 53 -28t22 -67v-330h-40v0zM-10 465v35h585v-35h-585v0z" />
    <glyph glyph-name="z" unicode="z" 
d="M-190 -10q-114 0 -194.5 101t-80.5 244l40 5q0 -128 69 -219t166 -91q54 0 92 36.5t38 88.5q0 46 -32 78t-78 32q-22 0 -40.5 -10.5t-29.5 -29.5q22 4 38.5 -10t16.5 -35t-14.5 -35.5t-35.5 -14.5q-25 0 -42.5 19t-17.5 46q0 46 36.5 78t88.5 32q62 0 106 -44t44 -106
q0 -68 -50 -116.5t-120 -48.5v0z" />
    <glyph glyph-name="braceleft" unicode="{" horiz-adv-x="220" 
d="M-10 465v35h100q-19 19 -29.5 45t-10.5 55q0 48 38 81.5t92 33.5q48 0 101 -37t99 -103l-20 -20q-48 57 -95 88.5t-85 31.5q-37 0 -63.5 -22t-26.5 -53q0 -34 12 -61t33 -39h95v-35h-100v-465h-40v465h-100v0zM464 601q-41 0 -72 35t-36 87l36 4q7 -38 27 -63t45 -25
t45.5 25t26.5 63l36 -4q-5 -52 -36 -87t-72 -35v0zM464 696q-15 0 -25.5 8.5t-10.5 20.5q0 14 11 24t27 10q14 0 24 -9.5t10 -22.5t-10.5 -22t-25.5 -9v0z" />
    <glyph glyph-name="bar" unicode="|" 
d="M-60 -75q-3 38 -29 64t-61 26q-29 0 -87.5 -10t-87.5 -10q-41 0 -70.5 29.5t-29.5 70.5l40 5q0 -27 17.5 -46t42.5 -19q29 0 87.5 10t87.5 10q28 0 52.5 -13.5t37.5 -36.5v210q0 23 -11.5 39t-28.5 16q-29 0 -62 -24t-63 -66q17 0 28.5 -13t11.5 -32q0 -17 -13 -28.5
t-32 -11.5q-21 0 -35.5 14.5t-14.5 35.5q0 54 60.5 109.5t119.5 55.5q33 0 56.5 -31t23.5 -74v-280h-40v0z" />
    <glyph glyph-name="braceright" unicode="}" horiz-adv-x="331" 
d="M269 -30q-39 67 -100 125.5t-140 104.5l20 35q84 -48 148.5 -110.5t106.5 -134.5l-35 -20v0zM169 290q-48 0 -81.5 32t-33.5 78t33.5 78t81.5 32t81.5 -32t33.5 -78t-33.5 -78t-81.5 -32v0zM169 330q31 0 53 20.5t22 49.5t-22 49.5t-53 20.5t-53 -20.5t-22 -49.5
t22 -49.5t53 -20.5v0z" />
    <glyph glyph-name="asciitilde" unicode="~" 
d="M-135 -205h-49q-20 43 -53.5 69.5t-71.5 30.5l-16 35q63 55 108 75q-62 19 -108 81t-63 149l40 10q18 -91 67.5 -150.5t108.5 -59.5q46 0 79 38t33 92q0 43 -27 74t-65 31q-16 0 -29 -8t-19 -22q19 2 33.5 -11.5t14.5 -33.5q0 -19 -13 -32t-31 -13q-22 0 -37 17.5
t-15 42.5q0 41 28 70.5t68 29.5q55 0 93.5 -42.5t38.5 -102.5q0 -63 -33 -109t-82 -51v-210v0zM-176 -160v145q-24 -3 -96 -65q32 -9 57 -30t39 -50v0z" />
    <glyph glyph-name="c141" horiz-adv-x="518" 
d="M27 255l-10 30q31 44 74 73t91 37v70h-192v35h538v-35h-306v-365q0 -27 16 -46t39 -19q59 16 101 66t54 119q-29 0 -49.5 13t-20.5 32q0 23 16 39t39 16q25 0 42.5 -23.5t17.5 -56.5q0 -86 -65 -165.5t-135 -79.5q-39 0 -67 32t-28 78v70q-29 34 -69 55t-86 25v0z
M182 220v135q-27 -2 -55.5 -20.5t-54.5 -49.5q32 -6 60 -22.5t50 -42.5v0z" />
    <glyph glyph-name="c144" horiz-adv-x="433" 
d="M290 -10q-97 0 -172 66.5t-93 168.5l40 10q16 -89 79.5 -147t145.5 -58q81 0 138 48.5t57 116.5q0 22 -9 42.5t-26 37.5q-31 -53 -64.5 -84t-60.5 -31q-23 0 -41 14t-24 36q-28 33 -64.5 51.5t-75.5 18.5l-30 40q31 44 74 73t91 37v35h-265v35h589v-35h-284v-225
q0 -17 9 -28.5t21 -11.5q37 0 115 135q39 -23 62 -61.5t23 -83.5q0 -83 -69 -141.5t-166 -58.5v0zM255 265v120q-33 -3 -63.5 -21.5t-51.5 -48.5q41 -4 71 -17t44 -33v0z" />
    <glyph glyph-name="uni0090" horiz-adv-x="646" 
d="M464 -50q-23 33 -57.5 51.5t-72.5 18.5q-17 0 -50 -5t-50 -5q-43 0 -78.5 26t-51.5 69l30 15q15 -32 42 -51t58 -19q17 0 50 5t50 5q38 0 72 -15.5t58 -44.5v300q0 25 -11.5 42.5t-28.5 17.5q-41 0 -70.5 -32t-29.5 -78q23 0 39 -13t16 -32q0 -17 -13 -28.5t-32 -11.5
q-23 0 -39 20.5t-16 49.5q-31 -45 -67 -70t-68 -25q-33 0 -56.5 26.5t-23.5 63.5v235h-74v35h802v-35h-688q0 -35 51.5 -79.5t138.5 -85.5q16 45 52 72.5t78 27.5q33 0 56.5 -25t23.5 -60v-20q23 39 59 62t76 23q35 0 60 -25t25 -60q0 -20 -12 -39t-33 -31q25 -9 40 -31
t15 -49q0 -31 -25 -53t-60 -22q-39 0 -77 19.5t-68 55.5v-195h-40v0zM644 110q21 0 35.5 10.5t14.5 24.5q0 20 -15 38t-40 27q-4 -5 -13 -7.5t-22 -2.5q-12 0 -21 7.5t-9 17.5t9 17.5t21 7.5q11 0 20 -2.5t15 -7.5q21 10 33 24.5t12 30.5q0 19 -13 32t-32 13q-35 0 -74 -32
t-71 -88q29 -51 69.5 -80.5t80.5 -29.5v0zM139 180q31 0 64.5 27t60.5 73q-59 22 -100.5 50t-59.5 60v-160q0 -21 10.5 -35.5t24.5 -14.5v0z" />
    <glyph glyph-name="nonbreakingspace" unicode="&#xa0;" horiz-adv-x="200" 
 />
    <glyph glyph-name="exclamdown" unicode="&#xa1;" horiz-adv-x="136" 
 />
    <glyph glyph-name="cent" unicode="&#xa2;" 
d="M-110 500l-35 30l185 200l25 -25l-175 -205v0z" />
    <glyph glyph-name="sterling" unicode="&#xa3;" horiz-adv-x="275" 
d="M155 0q-16 35 -86.5 65.5t-178.5 49.5l-15 40l150 110l-125 70l25 30l165 -100l-160 -120q77 -14 134.5 -38t90.5 -57v290h90q56 0 95.5 -33.5t39.5 -81.5q0 -35 -20.5 -60t-49.5 -25q-23 0 -39 13t-16 32q0 17 13 28.5t32 11.5q14 0 40 -15q15 31 -17.5 60.5t-82.5 29.5
h-45v-300h-40v0zM-157 500h578v-35h-578v35v0z" />
    <glyph glyph-name="currency" unicode="&#xa4;" horiz-adv-x="428" 
d="M303 0q-27 74 -98 126t-167 69l-20 40q50 60 122 103.5t158 66.5v60h-308v35h448v-35h-100v-465h-35v0zM298 80v285q-70 -19 -128 -53.5t-97 -81.5q66 -12 124.5 -51t100.5 -99v0z" />
    <glyph glyph-name="yen" unicode="&#xa5;" horiz-adv-x="645" 
d="M280 135q-51 0 -102.5 46t-87.5 124l40 15q31 -66 71.5 -105.5t78.5 -39.5q47 0 111.5 64.5t128.5 175.5l35 -20q-70 -121 -143.5 -190.5t-131.5 -69.5v0zM280 300q-17 0 -28.5 10.5t-11.5 24.5t11.5 24.5t28.5 10.5t28.5 -9t11.5 -21q0 -17 -11.5 -28.5t-28.5 -11.5v0z
" />
    <glyph glyph-name="brokenbar" unicode="&#xa6;" horiz-adv-x="540" 
d="M451 -5q-24 29 -37 63.5t-13 71.5q0 48 13 91.5t37 78.5q-59 -21 -109 -59.5t-86 -90.5h-40q-38 55 -85 84.5t-90 25.5l-25 35q42 51 94 80.5t106 34.5v55h-226v35h560v-35h-294v-250q43 51 94.5 83t105.5 42l45 -40q-29 -35 -44.5 -80t-15.5 -95q0 -30 11.5 -59.5
t33.5 -55.5l-35 -15v0zM216 205v165q-37 0 -73.5 -19.5t-66.5 -55.5q47 -8 83.5 -31.5t56.5 -58.5v0z" />
    <glyph glyph-name="section" unicode="&#xa7;" horiz-adv-x="416" 
d="M295 0q-46 46 -101.5 73t-113.5 32l-25 30q12 27 70 75l-80 20l-20 30q54 64 123.5 105t146.5 55v45h-305v35h572v-35h-227v-165q10 7 28 11t42 4q29 0 49.5 -26.5t20.5 -63.5q0 -25 -12.5 -72.5t-12.5 -72.5q0 -17 9 -28.5t21 -11.5q11 0 21 2.5t19 7.5l10 -35
q-13 -7 -25.5 -11t-24.5 -4q-29 0 -49.5 23.5t-20.5 56.5q0 26 12.5 75t12.5 75q0 19 -11.5 32t-28.5 13t-32 -4t-28 -11v-260h-40v0zM295 45v210q-59 -16 -107.5 -45.5t-82.5 -69.5q56 -10 105 -34.5t85 -60.5v0zM150 235q73 42 145 55v90q-59 -10 -115.5 -41t-104.5 -79
q18 -2 37 -8t38 -17v0z" />
    <glyph glyph-name="dieresis" unicode="&#xa8;" horiz-adv-x="404" 
d="M276 0q-36 52 -88 81t-107 29l-25 25q17 30 65 70q-52 30 -75 30l-20 35q43 61 107.5 101t142.5 54v40h-286v35h446v65h40v-65h74v-35h-74v-335h-40q-13 36 -44.5 65t-75.5 45v-240h-40v0zM276 55v185q-59 -16 -101.5 -40.5t-63.5 -54.5q51 -9 93.5 -32t71.5 -58v0z
M151 225q24 21 56 34.5t69 20.5v105q-66 -18 -118.5 -48.5t-86.5 -71.5q31 -5 80 -40v0zM436 190v275h-120v-190q33 -6 64.5 -28t55.5 -57v0z" />
    <glyph glyph-name="copyright" unicode="&#xa9;" horiz-adv-x="415" 
d="M365 -5q-64 92 -150.5 147t-179.5 63l-15 35q104 0 177 44t73 106q0 35 -29.5 60t-70.5 25q-20 0 -36.5 -5t-28.5 -15q16 -7 25.5 -19.5t9.5 -25.5q0 -21 -16 -35.5t-39 -14.5q-21 0 -35.5 17.5t-14.5 42.5q0 39 39.5 67t95.5 28q60 0 102.5 -36.5t42.5 -88.5
q0 -56 -46 -103t-119 -67q70 -25 134 -77.5t116 -127.5l-35 -20v0z" />
    <glyph glyph-name="ordfeminine" unicode="&#xaa;" horiz-adv-x="721" 
d="M307 -10q-103 0 -182.5 66.5t-97.5 168.5l35 15q16 -91 85.5 -150.5t159.5 -59.5q64 0 109.5 39.5t45.5 95.5q0 19 -6.5 33.5t-18.5 21.5q-21 -31 -49 -48t-56 -17q-22 0 -45 17.5t-40 47.5q-14 19 -50 37t-90 33l-25 30q29 41 73 68.5t97 36.5v40h-262v35h741v-35h-439
v-55q60 -35 148.5 -39t191.5 24l35 -35q-25 -43 -37.5 -91t-12.5 -99q0 -37 14 -80t41 -90h-45q-27 47 -41 90t-14 80q0 44 10 88.5t30 86.5q-106 -19 -188.5 -13.5t-131.5 33.5v-115q0 -23 11.5 -39t28.5 -16q21 0 46.5 23t48.5 62q35 -20 55 -51t20 -64q0 -72 -57 -123.5
t-138 -51.5v0zM252 260v125q-41 -7 -72 -24t-48 -41q36 -3 67 -18.5t53 -41.5v0z" />
    <glyph glyph-name="guillemotleft" unicode="&#xab;" 
d="M-130 -100q-25 44 -71 69.5t-99 25.5l-20 35q42 50 90.5 83t99.5 47h40v-260h-40v0zM-130 -40v160q-34 -9 -67.5 -32t-62.5 -58q44 -8 78 -26t52 -44v0z" />
    <glyph glyph-name="logicalnot" unicode="&#xac;" 
d="M-130 0q-21 46 -74 79t-126 46l-25 40q37 45 94.5 81.5t130.5 63.5h40v-310h-40v0zM-130 60v205q-35 -3 -78.5 -30t-91.5 -75q55 -10 99 -36t71 -64v0z" />
    <glyph glyph-name="minus" unicode="&#xad;" 
 />
    <glyph glyph-name="registered" unicode="&#xae;" horiz-adv-x="437" 
d="M333 -10q-120 0 -205 121.5t-85 293.5l40 5q0 -157 73 -268.5t177 -111.5q64 0 109.5 41t45.5 99q0 31 -13.5 56.5t-36.5 38.5q-17 -37 -51 -58.5t-74 -21.5q-50 0 -85 29.5t-35 70.5q0 27 16 46t39 19q21 0 35.5 -14.5t14.5 -35.5q0 -19 -14.5 -32t-35.5 -13
q13 -13 30 -20.5t34 -7.5q41 0 71.5 28t34.5 70q50 -18 80 -60.5t30 -94.5q0 -82 -53.5 -131t-141.5 -49v0zM-10 465v35h593v-35h-593v0z" />
    <glyph glyph-name="macron" unicode="&#xaf;" horiz-adv-x="579" 
d="M181 365q0 27 16 46t39 19q21 0 35.5 -14.5t14.5 -35.5q0 -19 -14.5 -32t-35.5 -13q45 -45 104.5 -20.5t65.5 90.5q50 -18 80 -55t30 -80q0 -16 -5 -35t-15 -40v-275h-40q0 43 -19 74t-46 31q-19 0 -32 -17.5t-13 -42.5h-40q0 33 -23.5 56.5t-56.5 23.5t-51.5 -24
t-3.5 -46q21 21 48 12t27 -37q0 -19 -13 -32t-32 -13q-33 0 -56.5 26.5t-23.5 63.5t32 63.5t78 26.5q29 0 54.5 -14.5t40.5 -40.5q7 16 26 25.5t44 9.5q17 0 33 -10.5t27 -29.5v140q-21 -25 -58 -40t-77 -15q-120 0 -205 86.5t-85 208.5l40 5q0 -108 73 -184t177 -76
q64 0 109.5 35t45.5 85q0 21 -13.5 41.5t-36.5 33.5q-17 -37 -48 -58.5t-67 -21.5q-54 0 -92 29.5t-38 70.5v0zM-10 465v35h599v-35h-599v0z" />
    <glyph glyph-name="degree" unicode="&#xb0;" horiz-adv-x="565" 
d="M448 0q-12 25 -41.5 40t-68.5 15q-32 0 -95 -10t-95 -10q-46 0 -78 38t-32 92q0 28 9 54t26 46l35 -15q-15 -17 -22.5 -38t-7.5 -42q0 -39 22 -67t53 -28q30 0 90 10t90 10q39 0 69 -10.5t46 -29.5v270q-26 -38 -63.5 -59t-76.5 -21q-60 0 -102.5 31t-42.5 74
q0 25 19 42.5t46 17.5q19 0 32 -14.5t13 -35.5q0 -16 -11 -29.5t-29 -20.5q5 -11 27 -18t53 -7q35 0 69 28.5t56 76.5q21 0 35.5 -35t14.5 -85v-270h-40v0zM-10 465v35h585v-35h-585v0z" />
    <glyph glyph-name="plusminus" unicode="&#xb1;" 
d="M-166 -20q-98 0 -172.5 93.5t-86.5 231.5h41q4 -112 70.5 -198.5t148.5 -86.5q43 0 74 35t31 85q0 18 -6.5 32.5t-18.5 22.5q-10 -38 -38 -61.5t-62 -23.5q-39 0 -67 26.5t-28 63.5q0 23 16 39t39 16q19 0 32 -13t13 -32q0 -17 -13 -28.5t-32 -11.5q0 -8 11.5 -14
t28.5 -6q27 0 52 30.5t38 79.5q35 -20 55 -52t20 -68q0 -66 -43 -113t-103 -47v0z" />
    <glyph glyph-name="twosuperior" unicode="&#xb2;" 
d="M-60 -85q-5 30 -28 50t-52 20q-25 0 -75 -10t-75 -10q-33 0 -56.5 26.5t-23.5 63.5h40q0 -21 11.5 -35.5t28.5 -14.5q25 0 75 10t75 10q26 0 47.5 -10.5t32.5 -29.5v214q-18 -38 -52 -61t-73 -23q-37 0 -63.5 25t-26.5 60q0 27 16 46t39 19q19 0 32 -11.5t13 -28.5
q0 -19 -14.5 -33.5t-35.5 -16.5q5 -9 16 -14.5t24 -5.5q40 0 75 35t50 90h40v-365h-40v0z" />
    <glyph glyph-name="threesuperior" unicode="&#xb3;" horiz-adv-x="415" 
d="M285 0q0 75 -40.5 130t-99.5 60q-2 -21 -18 -35.5t-37 -14.5q-23 0 -39 14.5t-16 35.5t19 35.5t46 14.5q0 81 -20 140.5t-55 84.5h-35v35h435v-35h-100v-465h-40v0zM285 140v325h-210q31 -38 48 -97t17 -133q48 -8 86 -33t59 -62v0z" />
    <glyph glyph-name="acute" unicode="&#xb4;" horiz-adv-x="357" 
d="M22 320q0 26 18 44t42 16l-20 85h-72v35h377v-35h-70q16 -12 25.5 -31.5t9.5 -43.5q0 -39 -29.5 -67t-70.5 -28q-21 0 -57.5 20t-57.5 20q-2 -21 -16.5 -35.5t-33.5 -14.5t-32 10.5t-13 24.5v0zM232 335q25 0 42.5 16t17.5 39q0 26 -16.5 47t-43.5 28h-135l20 -90
q21 0 57.5 -20t57.5 -20v0z" />
    <glyph glyph-name="mu" unicode="&#xb5;" horiz-adv-x="340" 
d="M210 0q-12 44 -49.5 77.5t-90.5 47.5q0 -21 -14.5 -35.5t-35.5 -14.5t-35.5 14.5t-14.5 35.5q0 20 18 33.5t42 11.5v330h320v-35h-100v-465h-40v0zM210 75v390h-140v-300q41 -11 76.5 -34t63.5 -56v0z" />
    <glyph glyph-name="paragraph" unicode="&#xb6;" horiz-adv-x="285" 
d="M155 0q-9 48 -33 83t-57 47q-5 -20 -19 -32.5t-31 -12.5q-21 0 -35.5 14.5t-14.5 35.5q0 19 17.5 32t42.5 13q0 41 -26 78t-69 57l15 30q55 -26 87.5 -72t32.5 -98q30 -8 90 -80v370h-257v35h397v-35h-100v-465h-40v0z" />
    <glyph glyph-name="periodcentered" unicode="&#xb7;" horiz-adv-x="600" 
d="M100 250q0 83 58.5 141.5t141.5 58.5t141.5 -58.5t58.5 -141.5t-58.5 -141.5t-141.5 -58.5t-141.5 58.5t-58.5 141.5v0z" />
    <glyph glyph-name="periodcentered" unicode="&#x2219;" horiz-adv-x="600" 
d="M100 250q0 83 58.5 141.5t141.5 58.5t141.5 -58.5t58.5 -141.5t-58.5 -141.5t-141.5 -58.5t-141.5 58.5t-58.5 141.5v0z" />
    <glyph glyph-name="cedilla" unicode="&#xb8;" horiz-adv-x="223" 
d="M80 -10l-30 25q39 18 62 50.5t23 69.5q0 42 -42.5 115t-42.5 115q0 25 10.5 51t29.5 49h-100v35h243v-35h-98q-22 -26 -33.5 -52t-11.5 -48q0 -42 42.5 -115t42.5 -115q0 -46 -26 -85.5t-69 -59.5v0z" />
    <glyph glyph-name="onesuperior" unicode="&#xb9;" horiz-adv-x="423" 
d="M293 0q-27 75 -94 127t-156 68l-20 40q41 58 110.5 102t159.5 68v60h-303v35h443v-35h-100v-465h-40v0zM293 75v290q-70 -19 -128 -53.5t-97 -81.5q64 -11 122.5 -51.5t102.5 -103.5v0zM118 10q-17 0 -28.5 11.5t-11.5 28.5t11.5 28.5t28.5 11.5t28.5 -11.5t11.5 -28.5
t-11.5 -28.5t-28.5 -11.5v0z" />
    <glyph glyph-name="ordmasculine" unicode="&#xba;" horiz-adv-x="573" 
d="M443 0v260q-11 40 -33 65t-47 25t-42.5 -23.5t-17.5 -56.5h-40q-3 34 -27.5 57t-57.5 23q-41 0 -70.5 -29.5t-29.5 -70.5q0 -39 28 -67t67 -28q-5 5 -8 12t-3 14q0 18 13.5 31t32.5 13t32 -13t13 -32q0 -27 -23.5 -46t-56.5 -19q-56 0 -95.5 39.5t-39.5 95.5q0 58 41 99
t99 41q35 0 63.5 -16.5t41.5 -43.5q13 27 34.5 43.5t45.5 16.5q22 0 43.5 -14.5t36.5 -40.5v130h-453v35h593v-35h-100v-465h-40v0z" />
    <glyph glyph-name="guillemotright" unicode="&#xbb;" horiz-adv-x="484" 
d="M392 0q-38 54 -91.5 82t-108.5 23l-35 40q38 54 99 90.5t136 49.5v45q0 17 -17.5 28.5t-42.5 11.5t-42.5 -23.5t-17.5 -56.5h-40q0 33 -22 56.5t-53 23.5q-35 0 -60 -20.5t-25 -49.5q0 -17 11 -31.5t29 -23.5q1 17 14 28.5t31 11.5q17 0 28.5 -10.5t11.5 -24.5
q0 -21 -20.5 -35.5t-49.5 -14.5q-39 0 -67 29.5t-28 70.5q0 46 36.5 78t88.5 32q32 0 57.5 -15t37.5 -40q9 25 32.5 40t52.5 15q15 0 29 -5t26 -15v75h-402v35h640v-35h-198v-180q66 0 113 -38t47 -92q0 -25 -16 -42.5t-39 -17.5q-19 0 -32 11.5t-13 28.5q0 19 16.5 31.5
t38.5 8.5q0 29 -33.5 49.5t-81.5 20.5v-245h-40v0zM392 55v190q-55 -10 -102.5 -37t-82.5 -68q54 0 102.5 -22.5t82.5 -62.5v0z" />
    <glyph glyph-name="onequarter" unicode="&#xbc;" horiz-adv-x="526" 
d="M396 0v90q-16 43 -51.5 69t-78.5 26q-45 0 -79 -27t-41 -68q23 19 46 29.5t44 10.5q39 0 67 -22t28 -53q0 -52 -61.5 -88.5t-148.5 -36.5l-5 40q72 0 123.5 25t51.5 60q0 14 -16 24.5t-39 10.5q-22 0 -49 -15.5t-56 -44.5l-35 40q6 66 55 110.5t115 44.5q40 0 74.5 -17
t55.5 -48v165q-13 19 -29 29.5t-31 10.5q-27 0 -46 -25t-19 -60h-40q0 39 -22 67t-53 28q-33 0 -56.5 -19t-23.5 -46q0 -20 11 -36.5t29 -23.5q-2 18 11.5 31.5t33.5 13.5q17 0 28.5 -10.5t11.5 -24.5q0 -21 -19 -35.5t-46 -14.5q-41 0 -70.5 28t-29.5 67q0 46 35 78t85 32
q35 0 61.5 -16.5t33.5 -43.5q11 23 34 36.5t51 13.5q18 0 34 -8t26 -22v90h-406v35h546v-35h-100v-465h-40v0z" />
    <glyph glyph-name="onehalf" unicode="&#xbd;" horiz-adv-x="697" 
d="M443 -100q-144 0 -256.5 83.5t-148.5 216.5l30 10q33 -124 136.5 -202t233.5 -78q83 0 141.5 36.5t58.5 88.5q0 17 -9.5 32.5t-25.5 27.5q-9 -16 -21 -25.5t-24 -9.5q-14 0 -24.5 7.5t-10.5 17.5q0 17 14.5 28.5t35.5 11.5q0 31 -16 53t-39 22t-39 -17.5t-16 -42.5h-25
q-4 40 -27 67.5t-53 27.5q-39 0 -67.5 -30t-32.5 -75q16 19 35.5 29.5t39.5 10.5q31 0 53 -20.5t22 -49.5q0 -33 -29.5 -60t-75.5 -35l-15 20q40 11 65 31.5t25 43.5q0 17 -16 28.5t-39 11.5q-16 0 -35 -13t-35 -37l-30 25q0 60 38 102.5t92 42.5q41 -4 45 -5v85
q-6 7 -18 11t-27 4q-23 0 -39 -16t-16 -39h-40q-6 33 -30 54t-55 21q-29 0 -49.5 -19t-20.5 -46q0 -19 11.5 -32t28.5 -13q0 14 10.5 24.5t24.5 10.5q12 0 21 -9t9 -21q0 -19 -17.5 -32t-42.5 -13q-33 0 -56.5 26.5t-23.5 63.5t31 63.5t74 26.5q33 0 61 -16t44 -44
q10 21 31.5 33t48.5 12q11 0 21 -4t19 -11v70h-408v35h717v-35h-269v-215q6 -6 9.5 -12t5.5 -13q12 12 27.5 18.5t32.5 6.5q37 0 63.5 -29.5t26.5 -70.5q29 -11 47 -38.5t18 -61.5q0 -62 -66 -106t-159 -44v0z" />
    <glyph glyph-name="threequarters" unicode="&#xbe;" horiz-adv-x="527" 
d="M397 0q-30 42 -83 66t-117 24l-35 50q61 61 121.5 95.5t113.5 39.5v35q0 19 -17.5 32t-42.5 13t-42.5 -19t-17.5 -46v-20h-45q0 39 -23.5 67t-56.5 28q-31 0 -53 -19t-22 -46q0 -20 11 -36.5t29 -23.5q-3 18 10.5 31.5t34.5 13.5q17 0 28.5 -11.5t11.5 -28.5
q0 -19 -20.5 -32t-49.5 -13q-41 0 -70.5 29.5t-29.5 70.5q0 46 33.5 78t81.5 32q35 0 63.5 -16.5t41.5 -43.5q10 21 33 33t52 12q18 0 33 -5t27 -15v90h-407v35h547v-35h-100v-465h-40v0zM397 55v175q-38 0 -83.5 -24.5t-91.5 -70.5q56 -5 101.5 -25.5t73.5 -54.5v0z" />
    <glyph glyph-name="questiondown" unicode="&#xbf;" horiz-adv-x="552" 
d="M422 0v95q-44 -8 -102 -53t-123 -122l-35 20l45 55q0 25 -16 42.5t-39 17.5q-13 0 -30 -20t-30 -20q-8 0 -14 3t-6 7q0 46 77 108t133 62q43 0 79.5 -15.5t60.5 -44.5v165q-11 32 -32 51t-43 19q-25 0 -42.5 -17.5t-17.5 -42.5h-40q-2 28 -24 46.5t-51 18.5
q-37 0 -63.5 -22t-26.5 -53q0 -29 20.5 -49.5t49.5 -20.5q-8 22 4.5 41t35.5 19q19 0 32 -13t13 -32q0 -23 -25 -39t-60 -16q-46 0 -78 32t-32 78q0 48 39.5 81.5t95.5 33.5q30 0 54 -12t36 -33q13 19 33 29.5t42 10.5q28 0 49.5 -9.5t30.5 -25.5v90h-432v35h572v-35h-100
v-465h-40v0zM232 20q61 61 155 105q-21 15 -48 22.5t-57 7.5q-29 0 -61.5 -17t-63.5 -48q29 0 50.5 -20t24.5 -50v0z" />
    <glyph glyph-name="Agrave" unicode="&#xc0;" horiz-adv-x="547" 
d="M417 0v105q0 19 -17.5 32t-42.5 13q-21 0 -35.5 -23.5t-14.5 -56.5h-40q0 43 -25 74t-60 31q-29 0 -49.5 -20.5t-20.5 -49.5q0 -21 9.5 -38.5t25.5 -26.5q1 15 11 25t24 10q17 0 28.5 -11.5t11.5 -28.5q0 -14 -16 -24.5t-39 -10.5q-39 0 -67 31t-28 74q0 36 19 65t51 40
q-37 7 -61 35t-24 65q0 43 35 74t85 31q37 0 66 -16.5t39 -43.5q13 23 33.5 36.5t41.5 13.5q17 0 32.5 -8t27.5 -22v90h-427v35h567v-35h-100v-465h-40v0zM287 140q8 23 28.5 36.5t46.5 13.5q19 0 33.5 -6.5t21.5 -18.5v130q0 29 -17.5 49.5t-42.5 20.5q-23 0 -39 -25
t-16 -60h-40q0 39 -25 67t-60 28q-33 0 -56.5 -20.5t-23.5 -49.5q0 -25 14.5 -42.5t35.5 -17.5q-2 18 8.5 31.5t26.5 13.5q17 0 28.5 -10.5t11.5 -24.5t-11.5 -25.5t-28.5 -14.5q35 0 64 -20.5t41 -54.5v0z" />
    <glyph glyph-name="Aacute" unicode="&#xc1;" horiz-adv-x="525" 
d="M401 -10q-87 0 -158 61.5t-97 158.5l40 5q22 -82 82 -133.5t133 -51.5q72 0 123.5 45.5t51.5 109.5q0 26 -6.5 47t-18.5 33q-25 -44 -60 -69.5t-70 -25.5q-33 0 -56.5 31t-23.5 74v45q0 17 -16 28.5t-39 11.5q-21 0 -35.5 -17.5t-14.5 -42.5h-40q0 29 -20.5 49.5
t-49.5 20.5t-48 -16t-12 -34q20 12 40 2t20 -32q0 -14 -13 -24.5t-32 -10.5q-23 0 -39 20.5t-16 49.5q0 35 29.5 60t70.5 25q28 0 52.5 -13.5t37.5 -36.5q13 19 31.5 29.5t38.5 10.5q19 0 33.5 -6.5t21.5 -18.5v90h-351v35h681v-35h-290v-205q0 -21 11.5 -35.5t28.5 -14.5
q29 0 61.5 32.5t58.5 87.5q35 -20 55 -57.5t20 -82.5q0 -83 -63 -141.5t-152 -58.5v0z" />
    <glyph glyph-name="Acircumflex" unicode="&#xc2;" horiz-adv-x="271" 
d="M31 305q0 43 33.5 74t81.5 31q37 0 66 -16.5t39 -43.5q8 23 28.5 36.5t46.5 13.5q17 0 32 -8t23 -22v-60q-4 22 -19.5 36t-35.5 14q-23 0 -39 -20.5t-16 -49.5h-40q-3 34 -27.5 57t-57.5 23q-31 0 -53 -19t-22 -46q0 -17 11 -31t29 -19q1 15 12.5 25t27.5 10
q14 0 24.5 -11.5t10.5 -28.5t-17.5 -28.5t-42.5 -11.5q-39 0 -67 28t-28 67v0zM-10 500h291v-35h-291v35v0z" />
    <glyph glyph-name="Atilde" unicode="&#xc3;" 
d="M-130 -20v15q0 25 -16 42.5t-39 17.5q-14 0 -24.5 -14.5t-10.5 -35.5h-35q0 35 -20.5 60t-49.5 25q-23 0 -39 -16t-16 -39q0 -15 8 -27.5t22 -17.5q2 11 10.5 18t19.5 7q12 0 21 -9t9 -21q0 -14 -13 -24.5t-32 -10.5q-35 0 -60 25t-25 60q0 39 28 67t67 28q30 0 54.5 -18
t35.5 -47q9 13 23 20.5t30 7.5t29.5 -6t22.5 -17v260h40v-350h-40v0z" />
    <glyph glyph-name="Adieresis" unicode="&#xc4;" horiz-adv-x="430" 
d="M-10 465v35h450v-35h-100v-465h-40v55q0 39 -43 69t-107 36q6 -6 9.5 -13.5t3.5 -15.5q0 -25 -17.5 -43t-41.5 -18t-41.5 17.5t-17.5 42.5q0 31 25 53t60 22q53 0 97.5 -18.5t72.5 -51.5v120q0 37 -43 65.5t-107 34.5q6 -6 9.5 -14.5t3.5 -17.5q0 -22 -17.5 -37.5
t-41.5 -15.5t-41.5 17.5t-17.5 42.5q0 29 25 49.5t60 20.5q53 0 97.5 -18.5t72.5 -51.5v135h-310v0z" />
    <glyph glyph-name="Aring" unicode="&#xc5;" horiz-adv-x="477" 
d="M347 0v385q-13 36 -44.5 58t-70.5 22q-26 0 -47.5 -10.5t-32.5 -29.5q26 -26 40.5 -56t14.5 -59q0 -19 -10.5 -32t-24.5 -13q-17 0 -32.5 16.5t-22.5 43.5q-7 -27 -19.5 -43.5t-25.5 -16.5q-19 0 -32 13t-13 32q0 21 17 51.5t48 68.5q-7 16 -25 25.5t-40 9.5h-37v35h37
q34 0 61 -12t39 -33q22 22 49 33.5t56 11.5q38 0 68.5 -13t46.5 -37v110h40v-60h100v-35h-100v-465h-40v0z" />
    <glyph glyph-name="AE" unicode="&#xc6;" horiz-adv-x="232" 
d="M22 330q0 18 21 43.5t59 51.5q-11 19 -29.5 29.5t-40.5 10.5h-42v35h47q29 -3 52.5 -13t37.5 -27q20 24 45 37t50 13q36 0 69 -30t51 -80v-70q-23 63 -56 101.5t-64 38.5q-20 0 -40 -12t-35 -33q39 -23 62 -47t23 -43t-13 -32t-32 -13q-16 0 -33 12t-32 33
q-16 -24 -31 -37t-24 -13q-19 0 -32 13t-13 32v0z" />
    <glyph glyph-name="Ccedilla" unicode="&#xc7;" horiz-adv-x="526" 
d="M370 -10q-125 0 -222.5 69.5t-127.5 180.5l40 10q26 -97 111 -158.5t194 -61.5q77 0 131 32t54 78q0 24 -10.5 45.5t-29.5 34.5q-14 -10 -27 -15t-23 -5q-23 0 -39 11.5t-16 28.5t16 28.5t39 11.5q15 0 50 -20q22 22 33.5 51.5t11.5 63.5q0 35 -22 60t-53 25
q-23 0 -39 -26.5t-16 -63.5h-40q-7 41 -28.5 68t-46.5 27q-16 0 -32 -12t-28 -33q30 -17 47.5 -44t17.5 -56q0 -19 -9 -32t-21 -13q-19 0 -38 16.5t-32 43.5q-13 -27 -30.5 -43.5t-34.5 -16.5q-14 0 -24.5 11.5t-10.5 28.5q0 22 18.5 49.5t51.5 55.5q-12 16 -34 28t-51 17
h-110v35h90q43 0 79.5 -15.5t60.5 -44.5q11 29 35.5 47t54.5 18q27 0 51.5 -17.5t38.5 -47.5q10 27 33.5 43.5t51.5 16.5q46 0 78 -38t32 -92q0 -36 -14.5 -70t-40.5 -60q24 -20 37 -46t13 -54q0 -62 -64.5 -106t-155.5 -44v0z" />
    <glyph glyph-name="Egrave" unicode="&#xc8;" horiz-adv-x="424" 
d="M294 0q-21 77 -91 129.5t-164 60.5l-20 40l140 125l-125 110h-44v35h444v-35h-100v-465h-40v0zM294 90v160l-100 80l-120 -105q69 -12 126 -47t94 -88v0zM294 295v170h-205l205 -170v0z" />
    <glyph glyph-name="Eacute" unicode="&#xc9;" horiz-adv-x="406" 
d="M264 0q-22 59 -75.5 100.5t-124.5 54.5l-25 40q18 21 47 41.5t68 38.5q-45 4 -75 32.5t-30 67.5q2 28 21 52t49 38h-129v35h426v-35h-107q21 -10 33 -30t12 -45q0 -26 -13.5 -49t-36.5 -36v-305h-40v0zM264 70v205q-126 -46 -170 -90q49 -9 93 -38.5t77 -76.5v0zM194 295
l30 15q-14 53 -35 88.5t-45 46.5q-24 -16 -37 -36t-13 -39q0 -31 29.5 -53t70.5 -22v0zM254 315q27 13 43.5 33t16.5 42t-19 43t-51 32h-75q20 -14 41.5 -52.5t43.5 -97.5v0z" />
    <glyph glyph-name="Ecircumflex" unicode="&#xca;" horiz-adv-x="324" 
d="M77 115q0 34 16 64.5t44 50.5q-33 6 -54 31.5t-21 58.5q0 40 22.5 78.5t62.5 66.5h-157v35h312q0 31 -16 53t-39 22q-25 0 -75 -10t-75 -10q-35 0 -60 25t-25 60q0 22 8 41.5t22 33.5l35 -15q-12 -14 -18.5 -29.5t-6.5 -30.5q0 -19 13 -32t32 -13q25 0 72.5 10t72.5 10
q41 0 70.5 -33.5t29.5 -81.5h128v-35h-143q12 -14 18.5 -35t6.5 -45q0 -51 -36 -93t-94 -57q-46 -12 -75.5 -45.5t-29.5 -74.5q0 -35 41 -60t99 -25q46 0 80.5 16.5t44.5 43.5q-19 0 -32 11.5t-13 28.5q0 19 14.5 32t35.5 13q19 0 32 -16t13 -39q0 -54 -52.5 -92t-127.5 -38
q-72 0 -123.5 36.5t-51.5 88.5v0zM167 255q12 0 55 25q-9 33 -31 62.5t-54 52.5q-17 -14 -26 -32.5t-9 -37.5q0 -29 19 -49.5t46 -20.5v0zM252 295q28 16 44 40t16 50q0 24 -10.5 45.5t-29.5 34.5h-55q-14 -1 -31 -13t-34 -32q36 -25 61.5 -57t38.5 -68v0z" />
    <glyph glyph-name="Edieresis" unicode="&#xcb;" horiz-adv-x="373" 
d="M249 -10q-77 0 -131 67.5t-54 162.5l40 2q-19 11 -29.5 26.5t-10.5 31.5q0 21 17.5 60t17.5 60q0 19 -4 35.5t-11 29.5h-94v35h284q-53 53 -81.5 101t-28.5 84q0 17 9 34t26 31l40 -10q-14 -12 -22 -26.5t-8 -28.5q0 -36 28.5 -84t81.5 -101h200v-35h-175
q54 -77 82 -143.5t28 -116.5q0 -89 -60 -152t-145 -63v0zM249 30q68 0 116.5 51.5t48.5 123.5q0 43 -22 97t-63 113q8 -91 -57.5 -158t-162.5 -67q0 -69 42 -117t98 -43v0zM159 235q23 0 48.5 17t46.5 48l-120 120l2 -24q0 -20 -16 -58t-16 -58q0 -19 16 -32t39 -13v0z
M269 325q12 21 18.5 41.5t6.5 38.5q0 39 -10 60h-155l140 -140v0z" />
    <glyph glyph-name="Igrave" unicode="&#xcc;" horiz-adv-x="532" 
d="M312 0q-21 79 -96.5 132.5t-178.5 62.5l-20 45l150 115l-120 110h-57v35h357v-80q30 42 68 66t77 24q48 0 81.5 -32t33.5 -78q0 -28 -13 -54t-37 -46q24 -16 37 -42.5t13 -57.5q0 -52 -33.5 -88.5t-81.5 -36.5q-37 0 -75.5 25t-69.5 70v-170h-35v0zM497 115q29 0 49.5 25
t20.5 60q0 21 -9.5 39.5t-25.5 30.5q-36 -25 -50 -25q-23 0 -39 13t-16 32q0 21 14.5 35.5t35.5 14.5q18 0 50 -15q19 13 29.5 30.5t10.5 34.5q0 33 -22 56.5t-53 23.5q-44 0 -84 -35.5t-61 -94.5v-100q27 -57 67.5 -91t82.5 -34v0zM307 90v145l-110 90l-120 -95
q79 -14 139.5 -50.5t90.5 -89.5v0zM307 290v175h-200l200 -175v0z" />
    <glyph glyph-name="Iacute" unicode="&#xcd;" horiz-adv-x="424" 
d="M-10 465v35h444v-35h-74q7 -6 11 -18t4 -27q0 -56 -58.5 -95.5t-141.5 -39.5q-50 0 -85 28t-35 67q0 27 10.5 49.5t29.5 35.5h-105v0zM175 325q53 0 70 10q-49 105 -70 120q-33 0 -56.5 -22t-23.5 -53q0 -23 23.5 -39t56.5 -16v0zM285 345q23 13 36.5 33.5t13.5 41.5
q0 15 -8 27.5t-22 17.5h-85q17 -17 65 -120v0z" />
    <glyph glyph-name="Icircumflex" unicode="&#xce;" horiz-adv-x="508" 
d="M378 0v255q-18 21 -36.5 33t-33.5 12q-20 0 -44.5 -21.5t-45.5 -58.5q-23 -39 -49.5 -62t-50.5 -23q-38 0 -67 31.5t-33 78.5l35 10q3 -34 21.5 -57t43.5 -23q18 0 42.5 29t57.5 86q-23 62 -60.5 107.5t-84.5 67.5h-83v35h528v-35h-100v-465h-40v0zM253 315
q12 12 26.5 18.5t28.5 6.5q17 0 35 -7.5t35 -22.5v155h-235q39 -33 67 -71t43 -79v0z" />
    <glyph glyph-name="Idieresis" unicode="&#xcf;" horiz-adv-x="646" 
d="M516 -50q-37 53 -100 85.5t-140 39.5v50q60 0 102.5 32t42.5 78q0 17 -9 28.5t-21 11.5q-8 0 -50 -50q-22 -26 -48 -40.5t-52 -14.5q-27 0 -46 20.5t-19 49.5q0 21 16 35.5t39 14.5q17 0 28.5 -13t11.5 -32q0 -11 -5 -25q40 23 50 40q16 28 36 44t39 16q31 0 53 -25
t22 -60q0 -44 -29 -81t-76 -54q43 -8 83 -32.5t72 -62.5v555h40v-60h100v-35h-100v-515h-40v0zM111 300q-39 0 -67 26.5t-28 63.5l35 10q0 -25 17.5 -42.5t42.5 -17.5q23 0 39 17.5t16 42.5q0 27 -10.5 46t-24.5 19h-141v35h356q37 0 63.5 -25t26.5 -60q0 -39 -29.5 -67
t-70.5 -28q-32 0 -65.5 21t-59.5 59q0 -41 -29.5 -70.5t-70.5 -29.5v0zM336 360q25 0 42.5 16t17.5 39q0 19 -17.5 33.5t-42.5 16.5h-130q35 -49 69 -77t61 -28v0z" />
    <glyph glyph-name="Eth" unicode="&#xd0;" horiz-adv-x="560" 
d="M360 80v190q-23 19 -42.5 29.5t-32.5 10.5q-27 0 -49.5 -19.5t-30.5 -50.5q-7 -39 -32.5 -64.5t-58.5 -25.5q-31 0 -58.5 22t-40.5 58l35 20q7 -27 24 -43.5t36 -16.5q16 0 31 15t24 40q2 24 12.5 45t27.5 35q-66 115 -110 140h-105v35h530q19 13 29.5 30.5t10.5 34.5
q0 27 -22 46t-53 19t-90 -15t-90 -15q-35 0 -60 22t-25 53q0 22 9 41.5t26 33.5l30 -10q-12 -14 -18.5 -29.5t-6.5 -30.5q0 -17 16 -28.5t39 -11.5q30 0 87.5 15t87.5 15q46 0 78 -32t32 -78q0 -12 -7.5 -27.5t-22.5 -32.5h136v-35h-306v-385q0 -21 17.5 -35.5t42.5 -14.5
q43 0 96.5 67.5t53.5 122.5q-25 0 -42.5 14.5t-17.5 35.5t14.5 35.5t35.5 14.5q23 0 39 -25t16 -60q0 -81 -67 -163t-133 -82q-39 0 -67 26.5t-28 63.5v0zM280 350q24 0 45 -8t35 -22v145h-210q26 -22 48.5 -53.5t41.5 -71.5q11 5 21 7.5t19 2.5v0z" />
    <glyph glyph-name="Ntilde" unicode="&#xd1;" horiz-adv-x="424" 
d="M-10 465v35h444v-35h-55q10 -17 15 -37.5t5 -42.5q0 -37 -26.5 -63.5t-63.5 -26.5q-35 0 -65.5 32t-44.5 83q-14 -53 -43.5 -86.5t-61.5 -33.5q-26 0 -48.5 22.5t-31.5 57.5l35 10q7 -20 19.5 -32.5t25.5 -12.5q27 0 48.5 37.5t26.5 92.5h-179v0zM309 335q21 0 35.5 14.5
t14.5 35.5q0 24 -6.5 45t-18.5 35h-120q21 -59 47.5 -94.5t47.5 -35.5v0z" />
    <glyph glyph-name="Ograve" unicode="&#xd2;" horiz-adv-x="393" 
d="M388 -95q-51 88 -143.5 139t-201.5 51l-20 50l35 -5q97 0 166 32t69 78q0 43 -36.5 74t-88.5 31q0 -27 -23.5 -46t-56.5 -19q-21 0 -35.5 13t-14.5 32q0 22 24.5 39.5t60.5 20.5q-2 27 -7.5 45t-12.5 25h-113v35h413v-35h-255q11 -19 20 -70q70 -6 117.5 -48t47.5 -97
q0 -46 -45.5 -84.5t-114.5 -50.5q81 -22 147 -72.5t108 -122.5l-40 -15v0z" />
    <glyph glyph-name="Oacute" unicode="&#xd3;" horiz-adv-x="435" 
d="M437 -100q-20 35 -55.5 70.5t-84.5 69.5v-130h-40v25q0 19 -11.5 32t-28.5 13q-21 0 -35.5 -11.5t-14.5 -28.5h-40q0 23 -14.5 39t-35.5 16q-19 0 -32 -7.5t-13 -17.5q14 0 24.5 -13t10.5 -32q0 -14 -13 -24.5t-32 -10.5q-17 0 -28.5 14.5t-11.5 35.5q0 37 28 63.5
t67 26.5q24 0 44 -10.5t31 -29.5q6 14 22.5 22t37.5 8q16 0 28 -5.5t17 -14.5v55q-38 22 -81.5 33.5t-88.5 11.5l5 40h55q79 0 134.5 35t55.5 85q0 39 -30 67.5t-75 32.5q-3 -34 -26 -57t-54 -23q-25 0 -42.5 13t-17.5 32q0 22 26.5 43t68.5 32q0 18 -5 34.5t-15 30.5h-177
v35h455v-35h-233q20 -43 20 -70q62 -5 103.5 -44t41.5 -91q0 -56 -43 -97.5t-107 -47.5q78 -28 140 -78.5t100 -116.5l-30 -20v0z" />
    <glyph glyph-name="Ocircumflex" unicode="&#xd4;" horiz-adv-x="377" 
d="M227 -180q-29 35 -65.5 56t-74.5 24l-25 35q33 39 71 67t79 43q-30 17 -64 26t-71 9l-25 50l35 -5q83 0 141.5 32t58.5 78q0 43 -36.5 74t-88.5 31q-7 -37 -31 -61t-54 -24q-21 0 -35.5 14.5t-14.5 35.5q0 25 27 46.5t68 28.5q-21 77 -35 85h-97v35h397v-35h-255
q18 -18 30 -85q70 -6 117.5 -46.5t47.5 -93.5q0 -50 -39.5 -89.5t-100.5 -50.5q64 -23 122.5 -71.5t107.5 -118.5l-35 -20q-19 33 -48 63t-67 57v-190h-40v0zM227 -135v140q-33 -9 -60.5 -27t-44.5 -43q29 -8 56 -26t49 -44v0z" />
    <glyph glyph-name="Otilde" unicode="&#xd5;" horiz-adv-x="474" 
d="M341 0q-14 54 -46.5 91.5t-73.5 48.5q-10 -14 -22 -22t-23 -8q-21 0 -35.5 13t-14.5 32q0 23 21.5 36t45.5 4q7 39 -14 77.5t-63 62.5q-7 -18 -22 -29t-33 -11q-17 0 -28.5 13t-11.5 32t17.5 32t42.5 13q-22 61 -45 80h-46v35h630v-35h-239v-85q6 5 20 7.5t35 2.5
q39 0 67 -39.5t28 -95.5q0 -24 -7.5 -72.5t-7.5 -72.5q0 -28 16 -53.5t44 -41.5l-30 -20q-32 15 -51 47.5t-19 72.5q0 24 7.5 70t7.5 70q0 37 -17.5 63.5t-42.5 26.5q-18 0 -31 -4t-19 -11v-330h-40v0zM341 90v250q-17 -10 -38.5 -15t-46.5 -5q-53 0 -80 10q35 -29 51 -69.5
t9 -80.5q28 -10 54.5 -33t50.5 -57v0zM256 360q29 0 51 6.5t34 18.5v80h-260q16 -19 26 -39.5t14 -40.5q21 -12 55.5 -18.5t79.5 -6.5v0z" />
    <glyph glyph-name="Odieresis" unicode="&#xd6;" horiz-adv-x="393" 
d="M247 -80q-16 28 -50 47.5t-80 27.5q11 -24 -3.5 -47t-41.5 -23q-21 0 -35.5 14.5t-14.5 35.5q0 27 20.5 46t49.5 19q43 0 83.5 -17t71.5 -48v65q-38 27 -74 41t-66 14l-25 5l-30 45q57 -10 80 -10q68 0 116.5 33.5t48.5 81.5q0 43 -32 74t-78 31h-15q-6 -35 -27.5 -57.5
t-47.5 -22.5q-21 0 -35.5 13t-14.5 32q0 26 22.5 47.5t57.5 27.5q0 17 -5 35t-15 35h-117v35h413v-35h-251q17 -37 20 -70q68 0 116.5 -42.5t48.5 -102.5q0 -50 -35 -89t-90 -51q51 -20 105 -68.5t105 -121.5l-30 -25q-46 65 -105 115v-90h-40v0z" />
    <glyph glyph-name="multiply" unicode="&#xd7;" horiz-adv-x="491" 
d="M464 -60q-66 78 -157.5 121.5t-192.5 43.5v40l55 -5q89 0 152 51.5t63 123.5q0 29 -19 49.5t-46 20.5q-29 0 -49.5 -25t-20.5 -60h-45q0 35 -19 60t-46 25q-29 0 -49.5 -16t-20.5 -39q0 -21 10.5 -36t24.5 -14q5 30 35 30t30 -30q0 -17 -16 -28.5t-39 -11.5
q-35 0 -60 26.5t-25 63.5q0 39 32 67t78 28q32 0 56.5 -15t33.5 -40q9 25 33.5 40t56.5 15q46 0 78 -33.5t32 -81.5q0 -65 -44.5 -118t-115.5 -72q59 -16 115.5 -54.5t104.5 -95.5l-25 -30v0zM-10 465v35h511v-35h-511v0z" />
    <glyph glyph-name="Oslash" unicode="&#xd8;" 
d="M243 -130q-17 0 -28.5 11.5t-11.5 28.5t13 28.5t32 11.5q14 0 24.5 -10.5t10.5 -24.5q0 -19 -11.5 -32t-28.5 -13v0z" />
    <glyph glyph-name="Ugrave" unicode="&#xd9;" horiz-adv-x="522" 
d="M392 0v130q0 10 -9 17.5t-21 7.5q-36 0 -91 -42t-119 -118l-35 25l45 45q5 27 -16.5 48.5t-53.5 21.5q-10 0 -25 -15t-25 -15q-4 0 -7 6t-3 14q0 23 29 56t81 69l-25 15l45 45q20 24 2.5 52t-52.5 28q-13 0 -27.5 -20t-27.5 -20q-8 0 -14 3t-6 7q0 43 73 96.5t132 53.5
q50 0 89 -11.5t61 -33.5v95h40v-60h100v-35h-100v-465h-40v0zM202 100q37 37 70 58.5t60 26.5q-16 24 -46.5 37t-68.5 13q-22 0 -50.5 -17t-59.5 -48q41 -7 68 -27t27 -43v0zM212 340q34 34 73 59t82 41q-20 17 -51 26t-69 9q-30 0 -59.5 -11.5t-55.5 -33.5
q32 -3 54.5 -28.5t25.5 -61.5v0zM392 195v175q0 10 -7.5 17.5t-17.5 7.5q-27 0 -73 -32t-107 -93h40q37 0 79.5 -19.5t85.5 -55.5v0z" />
    <glyph glyph-name="Uacute" unicode="&#xda;" horiz-adv-x="453" 
d="M323 0q-27 74 -101.5 122.5t-173.5 57.5l-30 55l145 110l-115 120h-58v35h473v-35h-100v-465h-40v0zM323 75v390h-220l120 -125l-155 -120q85 -7 152.5 -45.5t102.5 -99.5v0zM163 15q-14 0 -24.5 10.5t-10.5 24.5t10.5 24.5t24.5 10.5t24.5 -10.5t10.5 -24.5t-10.5 -24.5
t-24.5 -10.5v0z" />
    <glyph glyph-name="Ucircumflex" unicode="&#xdb;" horiz-adv-x="475" 
d="M377 0q-8 45 -44 82.5t-91 57.5q-1 -17 -14 -28.5t-31 -11.5q-21 0 -35.5 11.5t-14.5 28.5q0 22 18.5 35.5t41.5 9.5q8 46 -17 84t-68 46q0 -23 -13 -39t-32 -16q-21 0 -35.5 13t-14.5 32t16 32t39 13q-16 59 -55 115h-37v35h631v-35h-209v-130q70 0 120 -33.5t50 -81.5
q0 -35 -20.5 -60t-49.5 -25q-21 0 -35.5 13t-14.5 32t13 32t32 13q8 0 16 -4t14 -11q16 28 -25.5 56.5t-99.5 28.5v-295h-35v0zM372 90v205q-72 0 -123.5 50t-51.5 120h-125q43 -74 50 -115q62 -5 99 -57.5t26 -117.5q40 -7 73 -29.5t52 -55.5v0zM372 335v130h-135
q0 -54 39.5 -92t95.5 -38v0z" />
    <glyph glyph-name="Udieresis" unicode="&#xdc;" horiz-adv-x="655" 
d="M525 0q-18 50 -66 80t-109 30q-5 -18 -19 -29t-31 -11q-19 0 -32 11.5t-13 28.5q0 21 17.5 35.5t42.5 14.5q-5 30 -28.5 52t-56.5 28q-4 -22 -16.5 -36t-28.5 -14q-21 0 -35.5 13t-14.5 32q0 18 18 30t42 10q3 30 -22.5 52.5t-62.5 22.5q-3 -20 -16 -32.5t-29 -12.5
q-19 0 -32 13t-13 32t16 32t39 13q0 19 -4 36.5t-11 33.5h-70v35h675v-35h-100v-465h-40v0zM525 65v400h-170v-70h35q37 0 63.5 -23.5t26.5 -56.5q0 -35 -19 -60t-46 -25q-17 0 -28.5 10.5t-11.5 24.5q0 18 19.5 23.5t35.5 -8.5q5 5 7.5 14t2.5 21q0 19 -13 32t-32 13h-40
v-205q54 -5 98.5 -28.5t71.5 -61.5v0zM315 225v125h-35q-33 0 -56.5 26.5t-23.5 63.5v25h-95q10 -27 10 -75q56 -5 91.5 -40t28.5 -77q25 -4 46 -16.5t34 -31.5v0zM280 390h35v75h-70v-35q0 -17 10.5 -28.5t24.5 -11.5v0z" />
    <glyph glyph-name="Yacute" unicode="&#xdd;" horiz-adv-x="478" 
d="M360 -50q-32 38 -74 59t-86 21q19 -22 6.5 -48.5t-41.5 -26.5q-23 0 -39 16t-16 39q0 25 23.5 42.5t56.5 17.5q53 0 97.5 -18.5t72.5 -51.5q-11 60 -46 103.5t-84 56.5q-7 -16 -19.5 -25.5t-25.5 -9.5q-23 0 -39 13t-16 32q0 20 21.5 32.5t48.5 7.5q7 39 -17.5 73.5
t-67.5 46.5q0 -19 -13 -32t-32 -13t-32 13t-13 32q0 16 12.5 29t32.5 16q-6 33 -20.5 57t-34.5 33h-25v35h634v-35h-224v-125q77 0 131 -41t54 -99q0 -27 -17.5 -46t-42.5 -19q-19 0 -32 13t-13 32q0 23 21.5 33t43.5 -3q0 37 -42.5 63.5t-102.5 26.5v-350h-40v0zM360 95
v210q-66 12 -112.5 56t-57.5 104h-120q14 -14 24.5 -37t15.5 -53q65 -11 103 -62.5t27 -112.5q39 -10 70.5 -37.5t49.5 -67.5v0zM360 345v120h-130q8 -45 43.5 -78t86.5 -42v0z" />
    <glyph glyph-name="Thorn" unicode="&#xde;" horiz-adv-x="399" 
d="M269 0q-17 47 -62.5 80.5t-107.5 44.5l-15 35q35 42 81.5 69t98.5 36q-16 35 -57 60t-98 35q18 -25 6 -52.5t-41 -27.5q-21 0 -35.5 16t-14.5 39q0 27 22 46t53 19q49 0 93.5 -21t76.5 -59v145h-279v35h419v-35h-100v-465h-40v0zM269 70v155q-43 -8 -78 -26t-57 -44
q49 -13 84 -35t51 -50v0z" />
    <glyph glyph-name="germandbls" unicode="&#xdf;" horiz-adv-x="475" 
d="M345 0q-16 19 -37 29.5t-43 10.5q-57 0 -170 -20t-170 -20q-56 0 -95.5 36.5t-39.5 88.5q0 17 4 32t11 28l35 -15q-5 -9 -7.5 -20t-2.5 -25q0 -35 28 -60t67 -25q57 0 170 20t170 20q21 0 42 -7.5t38 -22.5v285q0 17 -19 28.5t-46 11.5q-35 0 -80.5 -44t-89.5 -121
l-35 20l30 45q27 23 1 56.5t-71 33.5q-13 0 -30 -20t-30 -20q-6 0 -10.5 4.5t-4.5 10.5q0 11 4 21t11 19q46 66 97.5 103t97.5 37q45 0 91 -25t84 -70v135h40v-60h100v-35h-100v-465h-40v0zM145 320q35 50 83 73.5t92 11.5q-30 36 -68 55.5t-77 19.5q-33 0 -69.5 -22.5
t-70.5 -62.5q43 8 76.5 -15t33.5 -60v0z" />
    <glyph glyph-name="agrave" unicode="&#xe0;" horiz-adv-x="223" 
d="M93 0v335q-5 55 -26.5 92.5t-48.5 37.5h-28v35h28q21 0 42 -20.5t33 -54.5v135h40v-60h100v-35h-100v-465h-40v0z" />
    <glyph glyph-name="aacute" unicode="&#xe1;" horiz-adv-x="466" 
d="M471 -110q-38 82 -118 131t-177 49q-26 0 -37.5 -1t-17.5 -4l-20 50q10 -3 30.5 -4t54.5 -1q75 0 127.5 50t52.5 120q0 25 -16 42.5t-39 17.5q-15 0 -34 -17.5t-36 -47.5q-21 -46 -52.5 -73t-62.5 -27q-29 0 -49.5 23.5t-20.5 56.5v210h-66v35h486v-35h-370l140 -115
q12 14 29 22t36 8q39 0 67 -29.5t28 -70.5q0 -60 -34 -111.5t-91 -78.5q73 -19 130.5 -68t89.5 -117l-30 -15v0zM126 215q21 0 47 28.5t48 76.5l-125 105v-170q0 -17 9 -28.5t21 -11.5v0z" />
    <glyph glyph-name="acircumflex" unicode="&#xe2;" horiz-adv-x="546" 
d="M230 315q0 48 36.5 81.5t88.5 33.5q62 0 106 -45.5t44 -109.5q0 -68 -57 -116.5t-138 -48.5q-102 0 -182.5 80.5t-102.5 204.5l40 5q19 -108 88.5 -179t156.5 -71q64 0 109.5 38t45.5 92q0 46 -32 78t-78 32q-30 0 -53 -15.5t-27 -39.5q22 4 38.5 -7t16.5 -28
q0 -19 -11.5 -32t-28.5 -13q-25 0 -42.5 17.5t-17.5 42.5v0zM-10 465v35h566v-35h-566v0z" />
    <glyph glyph-name="atilde" unicode="&#xe3;" horiz-adv-x="220" 
d="M90 0v465h-100v35h100q-8 89 -94 149.5t-206 60.5q-54 0 -92 -20.5t-38 -49.5q0 -22 22.5 -37.5t54.5 -15.5q16 0 46.5 4t46.5 4q37 0 63.5 -26.5t26.5 -63.5h-40q0 22 -14.5 37.5t-35.5 15.5q-16 0 -47.5 -4t-47.5 -4q-48 0 -81.5 26.5t-33.5 63.5q0 50 46.5 80
t123.5 30q141 0 240.5 -73t99.5 -177h100v-35h-100v-465h-40v0z" />
    <glyph glyph-name="adieresis" unicode="&#xe4;" horiz-adv-x="571" 
d="M510 -115q-47 40 -96.5 59.5t-93.5 15.5l-35 35q28 41 71.5 75t98.5 60q0 89 15 130q-52 -24 -93 -61t-68 -84l-54 25q-5 56 6.5 109.5t38.5 100.5q-73 -42 -122.5 -89.5t-72.5 -95.5l-50 30v270h-65v35h591v-35h-486v-240q29 50 86.5 96t138.5 84l35 -35
q-27 -47 -41 -98t-14 -102q24 41 70 78t110 67l40 -40q-25 -69 -25 -170q0 -53 12.5 -102.5t37.5 -92.5l-35 -25v0zM495 -65q-20 42 -30 80t-10 70q-38 -18 -67 -40.5t-48 -49.5q40 0 80 -15.5t75 -44.5v0z" />
    <glyph glyph-name="aring" unicode="&#xe5;" 
d="M-5 -210q-21 36 -48.5 66t-61.5 54q-17 -30 -42.5 -47.5t-52.5 -17.5q-35 0 -60 22t-25 53q0 33 26.5 56.5t63.5 23.5q13 0 31 -6.5t39 -18.5l5 40h40q0 -8 -10 -65q38 -27 71 -63.5t59 -81.5l-35 -15v0zM-210 -120q19 0 37 16.5t28 43.5q-12 10 -27 15t-33 5
q-21 0 -35.5 -11.5t-14.5 -28.5t13 -28.5t32 -11.5v0z" />
    <glyph glyph-name="ae" unicode="&#xe6;" 
d="M-5 -260q-21 36 -48.5 66t-61.5 54q-17 -30 -42.5 -47.5t-52.5 -17.5q-35 0 -60 22t-25 53q0 33 26.5 56.5t63.5 23.5q13 0 31 -6.5t39 -18.5l5 40h40q0 -8 -10 -65q38 -27 71 -63.5t59 -81.5l-35 -15v0zM-210 -170q19 0 37 16.5t28 43.5q-12 10 -27 15t-33 5
q-21 0 -35.5 -11.5t-14.5 -28.5t13 -28.5t32 -11.5v0z" />
    <glyph glyph-name="ccedilla" unicode="&#xe7;" 
d="M-53 335q0 21 17.5 35.5t42.5 14.5q41 0 70.5 -33.5t29.5 -81.5q0 -41 -33.5 -70.5t-81.5 -29.5q-24 0 -48.5 11.5t-46.5 33.5v65q11 -32 37.5 -51t57.5 -19t53 19t22 46q0 20 -8 36t-22 24q0 -19 -11.5 -32t-28.5 -13q-21 0 -35.5 13t-14.5 32v0zM-115 500h265v-35h-265
v35v0z" />
    <glyph glyph-name="egrave" unicode="&#xe8;" 
d="M-130 10h40v-60l-35 -15q-6 7 -15 11t-20 4q-21 0 -35.5 -16t-14.5 -39q0 -21 16 -35.5t39 -14.5q20 0 35 8t20 22l35 10l180 -95l-20 -30l-165 85q-17 -17 -39 -26t-46 -9q-39 0 -67 25t-28 60q0 47 38 74t82 11v30v0z" />
    <glyph glyph-name="eacute" unicode="&#xe9;" 
d="M-130 -40h40v-60l-35 -15q-6 7 -15 11t-20 4q-21 0 -35.5 -16t-14.5 -39q0 -21 16 -35.5t39 -14.5q20 0 35 8t20 22l35 10l180 -95l-20 -30l-165 85q-17 -17 -39 -26t-46 -9q-39 0 -67 25t-28 60q0 47 38 74t82 11v30v0z" />
    <glyph glyph-name="ecircumflex" unicode="&#xea;" 
d="M5 115q0 25 17.5 72.5t17.5 72.5q0 21 -13 35.5t-32 14.5q-23 0 -49 -18.5t-49 -51.5v55q26 26 51.5 40.5t46.5 14.5q35 0 60 -26.5t25 -63.5q0 -25 -17.5 -72.5t-17.5 -72.5q0 -26 16 -44.5t39 -20.5l-25 -30q-30 5 -50 32t-20 63v0zM-115 465v35h265v-35h-265v0z" />
    <glyph glyph-name="edieresis" unicode="&#xeb;" horiz-adv-x="302" 
d="M63 200q0 124 63 212t152 88h34v-35h-34q-72 0 -123.5 -77.5t-51.5 -187.5q0 -65 25 -112t65 -58q-2 5 -3.5 10.5t-1.5 10.5q0 20 14.5 34.5t35.5 14.5q19 0 32 -14.5t13 -35.5q0 -25 -20.5 -42.5t-49.5 -17.5q-62 0 -106 61.5t-44 148.5v0z" />
    <glyph glyph-name="igrave" unicode="&#xec;" horiz-adv-x="300" 
d="M-10 465v35h320v-35h-79q-62 -62 -96 -137.5t-34 -152.5q0 -53 25 -93.5t65 -51.5q-2 5 -3.5 10.5t-1.5 10.5q0 20 14.5 34.5t35.5 14.5q19 0 32 -13t13 -32q0 -27 -20.5 -46t-49.5 -19q-62 0 -106 52.5t-44 127.5q0 84 31 160.5t89 134.5h-191v0z" />
    <glyph glyph-name="iacute" unicode="&#xed;" horiz-adv-x="316" 
d="M11 635q0 22 10.5 43t29.5 37l30 -20q-14 -14 -22 -30t-8 -30q0 -19 11.5 -32t28.5 -13q20 0 60 7.5t60 7.5q31 0 53 -22t22 -53q0 -6 -2.5 -13.5t-7.5 -16.5h50v-35h-70q-71 -33 -113 -101t-42 -149q0 -74 33 -126.5t77 -48.5q-4 6 -6 12t-2 13q0 19 14 32t34 13
q19 0 32 -14.5t13 -35.5q0 -27 -25 -46t-60 -19q-62 0 -106 64.5t-44 155.5q0 87 43 162t117 118q9 5 14.5 16t5.5 24q0 12 -9 21t-21 9q-19 0 -57.5 -5t-57.5 -5q-35 0 -60 23.5t-25 56.5v0z" />
    <glyph glyph-name="icircumflex" unicode="&#xee;" horiz-adv-x="315" 
d="M-10 500h235q9 5 14.5 14.5t5.5 20.5q0 12 -9 21t-21 9q-20 0 -60 -5t-60 -5q-35 0 -60 23.5t-25 56.5q0 22 10.5 43t29.5 37l30 -20q-14 -14 -22 -30t-8 -30q0 -19 11.5 -32t28.5 -13q20 0 60 7.5t60 7.5q31 0 53 -22t22 -53q0 -6 -2.5 -13.5t-7.5 -16.5h50v-35h-60
q-75 -35 -120 -103t-45 -147q0 -74 33 -126.5t77 -48.5q-4 6 -6 12t-2 13q0 19 12.5 32t30.5 13q21 0 35.5 -14.5t14.5 -35.5q0 -27 -25 -46t-60 -19q-62 0 -106 66t-44 159q0 76 37.5 141.5t102.5 103.5h-210v35v0z" />
    <glyph glyph-name="idieresis" unicode="&#xef;" horiz-adv-x="220" 
d="M90 0v465h-100v35h100q0 37 -31 63.5t-74 26.5q-31 0 -90 -17.5t-90 -17.5q-46 0 -78 32t-32 78q0 12 4 23.5t11 21.5l35 -10q-5 -7 -7.5 -16t-2.5 -19q0 -29 20.5 -49.5t49.5 -20.5q31 0 90 17.5t90 17.5q60 0 102.5 -38t42.5 -92h100v-35h-100v-465h-40v0z" />
    <glyph glyph-name="eth" unicode="&#xf0;" horiz-adv-x="809" 
d="M242 150q-89 0 -152 66t-63 159l40 5q0 -79 51.5 -134.5t123.5 -55.5q39 0 67 19t28 46q0 14 -14.5 24.5t-35.5 10.5q-9 0 -27.5 -5t-27.5 -5q-37 0 -63.5 26.5t-26.5 63.5q0 19 14.5 44t40.5 51h-207v35h829v-35h-537q14 -29 58 -49t107 -26q14 21 32.5 34t37.5 16
l30 -10q5 -52 58.5 -82t121.5 -18l25 -45q-32 -68 -29.5 -142.5t39.5 -137.5l-40 -10q-36 62 -40 139.5t25 155.5q-62 -5 -115.5 25t-79.5 85q-26 -15 -40.5 -41.5t-14.5 -58.5q0 -21 7.5 -35.5t17.5 -14.5q12 0 35 10t35 10q35 0 60 -26.5t25 -63.5q0 -43 -39.5 -74
t-95.5 -31q-51 0 -97.5 25t-77.5 70q-14 -10 -35.5 -15t-49.5 -5v0zM502 115q39 0 67 19t28 46q0 21 -13 35.5t-32 14.5q-12 0 -32.5 -10t-32.5 -10q-29 0 -49.5 28t-20.5 67q0 23 10 50q-63 5 -112.5 30t-77.5 65q-26 -18 -40.5 -40.5t-14.5 -44.5q0 -19 14.5 -32t35.5 -13
q9 0 27.5 5t27.5 5q37 0 63.5 -22t26.5 -53q0 -15 -5 -31.5t-15 -33.5q30 -36 68 -55.5t77 -19.5v0z" />
    <glyph glyph-name="ntilde" unicode="&#xf1;" 
d="M-160 -60q-87 8 -163 79.5t-117 185.5l30 20q40 -110 109 -177.5t141 -67.5q41 0 70.5 26.5t29.5 63.5q0 18 -12 35.5t-33 29.5q-8 -7 -19.5 -10.5t-25.5 -3.5q-17 0 -28.5 10t-11.5 24t11.5 24.5t28.5 10.5q9 0 19 -2.5t21 -7.5q11 4 18 15t7 25q0 27 -25 46t-60 19
q-36 0 -62 -17.5t-28 -42.5q19 5 34.5 -6t15.5 -29q0 -17 -13 -28.5t-32 -11.5q-23 0 -39 17.5t-16 42.5q0 48 41 81.5t99 33.5q52 0 88.5 -31t36.5 -74q0 -17 -8 -32.5t-22 -27.5q26 -18 40.5 -43t14.5 -52q0 -52 -41 -88.5t-99 -36.5v0z" />
    <glyph glyph-name="ograve" unicode="&#xf2;" 
d="M-110 575q-63 0 -109 39t-51 96l40 5q7 -43 41 -70.5t79 -27.5t79 28t41 70l40 -5q-5 -57 -51 -96t-109 -39v0zM-110 680q-17 0 -28.5 9.5t-11.5 23.5q0 15 12.5 26t30.5 11q15 0 26 -10.5t11 -24.5t-11.5 -24.5t-28.5 -10.5v0z" />
    <glyph glyph-name="oacute" unicode="&#xf3;" horiz-adv-x="426" 
d="M-10 465v35h582v-35h-456l100 -110l-145 -125q69 -12 128 -55.5t97 -109.5v325h85q58 0 99 -36.5t41 -88.5q0 -23 -13 -39t-32 -16q-21 0 -35.5 11.5t-14.5 28.5q0 19 14.5 32t35.5 13q0 23 -26.5 39t-63.5 16h-50v-350h-40q-51 88 -118.5 141t-136.5 59l-25 35l145 125
l-100 105h-71v0z" />
    <glyph glyph-name="ocircumflex" unicode="&#xf4;" 
d="M80 -230l-215 205l25 30l220 -205l-30 -30v0z" />
    <glyph glyph-name="otilde" unicode="&#xf5;" 
d="M-50 -250l-170 145l110 105l25 -30l-75 -75l135 -115l-25 -30v0z" />
    <glyph glyph-name="odieresis" unicode="&#xf6;" 
d="M-130 -120q-5 20 -30.5 32.5t-59.5 12.5q-32 0 -92.5 -20t-92.5 -20q-33 0 -56.5 28t-23.5 67h35q0 -23 13 -39t32 -16q32 0 92.5 20t92.5 20t56.5 -9.5t33.5 -25.5v170l40 30v-250h-40v0z" />
    <glyph glyph-name="divide" unicode="&#xf7;" 
d="M-130 0q-4 13 -19 21.5t-36 8.5q-20 0 -57.5 -15t-57.5 -15q-37 0 -63.5 28t-26.5 67q0 14 4 28t11 27l35 -15q-5 -6 -7.5 -16.5t-2.5 -23.5q0 -23 14.5 -39t35.5 -16q20 0 57.5 12.5t57.5 12.5q19 0 33.5 -4t21.5 -11v285h40v-335h-40v0z" />
    <glyph glyph-name="oslash" unicode="&#xf8;" 
d="M-460 115h40q0 -31 16 -53t39 -22q28 0 82.5 15t82.5 15q32 0 56 -8t34 -22v-45q-6 16 -30.5 25.5t-59.5 9.5q-28 0 -82.5 -15t-82.5 -15q-39 0 -67 33.5t-28 81.5v0z" />
    <glyph glyph-name="ugrave" unicode="&#xf9;" 
d="M-130 80l40 -25v-175h-40q-3 20 -27.5 32.5t-57.5 12.5q-26 0 -77.5 -12.5t-77.5 -12.5q-39 0 -67 29.5t-28 70.5q0 22 8 41.5t22 33.5l30 -25q-10 -10 -15 -23t-5 -27q0 -25 16 -42.5t39 -17.5q26 0 77.5 12.5t77.5 12.5q24 0 46 -7.5t39 -22.5v145v0z" />
    <glyph glyph-name="uacute" unicode="&#xfa;" horiz-adv-x="370" 
d="M240 0v500h40v-500h-40v0z" />
    <glyph glyph-name="ucircumflex" unicode="&#xfb;" 
d="M-48 225q0 14 10.5 24.5t24.5 10.5q18 0 30.5 -12t9.5 -28q15 3 25 18.5t10 36.5q0 25 -19 42.5t-46 17.5q-39 0 -68 -26t-32 -64v80q16 24 42.5 37t57.5 13q43 0 74 -29.5t31 -70.5q0 -39 -26.5 -67t-63.5 -28q-25 0 -42.5 13t-17.5 32v0zM-115 465v35h258v-35h-258v0z
" />
    <glyph glyph-name="udieresis" unicode="&#xfc;" 
d="M-215 580q-22 0 -65 -7.5t-65 -7.5q-31 0 -53 23.5t-22 56.5q0 18 12 35.5t33 29.5l20 -30q-12 -10 -18.5 -19t-6.5 -16q0 -17 10.5 -28.5t24.5 -11.5q22 0 65 7.5t65 7.5q43 0 74 -35t31 -85h-40q0 33 -19 56.5t-46 23.5v0z" />
    <glyph glyph-name="yacute" unicode="&#xfd;" 
d="M25 45q0 20 10 60t10 60q0 29 -19 49.5t-46 20.5q-24 0 -45.5 -10.5t-37.5 -29.5v45q17 17 38.5 26t44.5 9q43 0 74 -32t31 -78q0 -21 -10 -62.5t-10 -62.5q0 -17 7.5 -35t22.5 -35l-35 -20q-17 17 -26 41.5t-9 53.5v0zM-115 465v35h256v-35h-256v0z" />
    <glyph glyph-name="thorn" unicode="&#xfe;" horiz-adv-x="122" 
d="M2 465v35h120v-35h-120v0z" />
    <glyph glyph-name="ydieresis" unicode="&#xff;" 
 />
    <glyph glyph-name="OE" unicode="&#x152;" horiz-adv-x="534" 
d="M404 0q-4 14 -32.5 25t-77.5 20q0 -23 -14.5 -39t-35.5 -16q-23 0 -39 13t-16 32t17.5 33.5t42.5 16.5q-35 61 -82 101t-98 54l-25 45l55 30q-33 28 -51.5 63.5t-18.5 71.5q0 25 17.5 42.5t42.5 17.5q19 0 32 -14.5t13 -35.5q0 -14 -13 -24.5t-32 -10.5l-20 10
q0 -30 16 -57.5t44 -47.5l125 60v75h-40v35h330v-35h-100v-465h-40v0zM404 45v420h-110v-385q91 -16 110 -35v0zM254 355l-165 -85q52 -19 94.5 -55t70.5 -85v225v0z" />
    <glyph glyph-name="oe" unicode="&#x153;" horiz-adv-x="496" 
d="M406 -60q-130 0 -236 121.5t-139 308.5l40 10q31 -174 125.5 -287t209.5 -113q58 0 99 33.5t41 81.5q0 20 -11 35t-29 20q2 -18 -14.5 -31.5t-40.5 -13.5q-19 0 -32 13t-13 32q0 25 23 40t52 10v195q-2 11 -12 18t-23 7q-32 0 -82 -46t-108 -129l-30 20l35 50
q0 24 -22 44.5t-48 20.5q-11 0 -27.5 -15t-27.5 -15q-4 0 -7 4.5t-3 10.5q0 49 63.5 99.5t126.5 50.5q45 0 87.5 -15.5t77.5 -44.5v105h40v-60h121v-35h-121v-275q30 -17 47.5 -42.5t17.5 -52.5q0 -64 -52.5 -109.5t-127.5 -45.5v0zM291 345q34 40 68.5 65.5t66.5 34.5
q-20 17 -47 26t-58 9q-33 0 -66 -17t-59 -48q27 5 61 -20t34 -50v0z" />
    <glyph glyph-name="Scaron" unicode="&#x160;" horiz-adv-x="423" 
d="M-10 465v35h443v-35h-309v-120q38 32 85.5 51t99.5 24l30 -35q-11 -23 -16.5 -45t-5.5 -41q0 -29 7 -69h-40q-9 34 -9 68q0 19 3.5 38.5t10.5 38.5q-58 -10 -101.5 -35t-63.5 -60l-40 30v155h-94v0z" />
    <glyph glyph-name="scaron" unicode="&#x161;" horiz-adv-x="523" 
d="M393 0v315q-17 30 -65 70l-170 -200l-30 25l50 60q-11 30 -40.5 51.5t-69.5 28.5q-6 -14 -14.5 -22t-15.5 -8q-8 0 -14 4.5t-6 10.5q8 47 77.5 111t112.5 64q34 0 82.5 -35.5t102.5 -99.5v185h40v-60h100v-35h-100v-465h-40v0zM203 300l100 110q-29 29 -53.5 44.5
t-41.5 15.5q-21 0 -52.5 -23.5t-67.5 -66.5q40 -7 70.5 -28t44.5 -52v0z" />
    <glyph glyph-name="Ydieresis" unicode="&#x178;" horiz-adv-x="284" 
d="M19 325q0 45 67.5 100t122.5 55q51 0 100 -29t85 -81v-60q-14 30 -30 47.5t-30 17.5q-40 0 -93 -43.5t-107 -121.5l-25 25l40 55q0 23 -17.5 39t-42.5 16q-12 0 -25 -20t-25 -20q-8 0 -14 6t-6 14v0zM179 320q37 37 70 58.5t60 26.5q-14 17 -39 26t-56 9q-35 0 -68 -15.5
t-57 -44.5q34 9 62 -9.5t28 -50.5v0z" />
    <glyph glyph-name="florin" unicode="&#x192;" horiz-adv-x="404" 
d="M324 -5q-29 35 -44.5 80t-15.5 95t10 91t30 69q-64 -23 -118 -64t-92 -96l-40 20v275h-64v35h424v-35h-320v-235q49 58 111 95.5t129 49.5l25 -30q-27 -32 -41 -77t-14 -98q0 -51 13 -93.5t37 -71.5l-30 -10v0z" />
    <glyph glyph-name="circumflex" unicode="&#x2c6;" horiz-adv-x="536" 
d="M406 0q-11 32 -47 51t-83 19q2 -20 -13 -35t-37 -15q-21 0 -35.5 11.5t-14.5 28.5q0 21 17.5 35.5t42.5 14.5q-9 34 -9 75q0 36 10 71.5t29 68.5q-60 -22 -105 -56.5t-70 -78.5l-40 15v260h-61v35h556v-35h-100v-465h-40v0zM406 55v410h-315v-205q27 38 81 69t129 51
l25 -40q-29 -35 -44.5 -74t-15.5 -78q0 -51 10 -78q46 -4 80.5 -18.5t49.5 -36.5v0z" />
    <glyph glyph-name="lozenge" unicode="&#x2dc;" horiz-adv-x="500" 
d="M377 0q-37 79 -105 128.5t-150 56.5l-30 40q53 53 115.5 90t129.5 55q-38 7 -68 26.5t-47 48.5q-26 -38 -59.5 -59t-65.5 -21q-35 0 -60 23.5t-25 56.5q0 23 14.5 39t35.5 16q17 0 28.5 -10.5t11.5 -24.5t-7.5 -24.5t-17.5 -10.5h-10q0 -8 10.5 -14t24.5 -6q22 0 53.5 28
t66.5 77q23 -50 64 -80t86 -30v95h40v-245q39 -18 67 -41t43 -49v395h40v-60h84v-35h-84v-385h-30q-10 37 -41 72.5t-79 62.5v-215h-35v0zM372 80v255q-74 -20 -131 -49t-94 -66q64 -6 123 -42.5t102 -97.5v0z" />
    <glyph glyph-name="endash" unicode="&#x2013;" horiz-adv-x="190" 
d="M300 270q-27 39 -77.5 66t-117.5 39q11 -24 -2 -47t-38 -23q-19 0 -32 14.5t-13 35.5q0 25 19 42.5t46 17.5q60 0 116 -23.5t99 -66.5v-55v0zM-10 500h210v-35h-210v35v0z" />
    <glyph glyph-name="emdash" unicode="&#x2014;" 
d="M-350 0q0 29 25 49.5t60 20.5q38 0 73.5 -17t61.5 -48v185h40v-245h-40q-14 38 -51 61.5t-84 23.5q23 -19 11.5 -47t-41.5 -28q-23 0 -39 13t-16 32v0z" />
    <glyph glyph-name="quoteleft" unicode="&#x2018;" horiz-adv-x="305" 
d="M160 415q-29 0 -49.5 20.5t-20.5 49.5q0 50 27 94t73 71l25 -30q-34 -16 -54.5 -47t-20.5 -68q3 5 11 7.5t19 2.5q19 0 32 -14.5t13 -35.5t-16 -35.5t-39 -14.5v0z" />
    <glyph glyph-name="quoteright" unicode="&#x2019;" horiz-adv-x="315" 
d="M115 355l-20 35q39 18 62 46.5t23 58.5q-4 -7 -13.5 -11t-21.5 -4q-23 0 -39 16t-16 39q0 25 19 42.5t46 17.5q29 0 49.5 -22t20.5 -53q0 -52 -30 -97t-80 -68v0z" />
    <glyph glyph-name="quotesinglbase" unicode="&#x201a;" 
d="M-45 -65q-53 53 -139.5 86.5t-195.5 43.5l-10 40q14 -5 36.5 -7.5t53.5 -2.5q62 0 106 32t44 78q0 33 -25 56.5t-60 23.5q-34 0 -61 -15t-39 -40q21 6 38 -5t17 -30q0 -17 -13 -28.5t-32 -11.5q-21 0 -35.5 16t-14.5 39q0 46 41 78t99 32q52 0 88.5 -33.5t36.5 -81.5
t-32.5 -84.5t-82.5 -45.5q60 -16 112.5 -45.5t92.5 -69.5l-25 -25v0z" />
    <glyph glyph-name="quotedblleft" unicode="&#x201c;" horiz-adv-x="475" 
d="M337 -10q-102 0 -186 59t-119 156l35 15q41 -87 114 -138.5t156 -51.5q79 0 134.5 44t55.5 106q0 35 -12 62.5t-33 42.5q-21 -46 -56.5 -73t-73.5 -27q-31 0 -53 31t-22 74q-23 23 -56.5 37.5t-73.5 17.5q21 -25 9 -55t-44 -30q-21 0 -35.5 17.5t-14.5 42.5q0 27 22 46
t53 19q37 0 73 -11.5t67 -33.5v125h-287v35h631v-35h-304v-185q0 -23 11.5 -39t28.5 -16q28 0 59 31t56 84q44 -25 69.5 -68t25.5 -92q0 -79 -67.5 -134.5t-162.5 -55.5v0z" />
    <glyph glyph-name="quotedblright" unicode="&#x201d;" horiz-adv-x="400" 
d="M-10 465v35h420v-35h-86q23 -13 36.5 -34.5t13.5 -45.5q0 -39 -28 -67t-67 -28q-26 0 -53.5 13t-51.5 37q-20 17 -39.5 26t-35.5 9q17 -21 6.5 -45.5t-36.5 -24.5q-21 0 -35.5 14.5t-14.5 35.5q0 25 22 42.5t53 17.5q22 0 48 -11.5t52 -33.5q23 -19 45 -29.5t40 -10.5
q23 0 39 16t16 39q0 33 -32 56.5t-78 23.5h-234v0z" />
    <glyph glyph-name="quotedblbase" unicode="&#x201e;" horiz-adv-x="569" 
d="M488 -15q-22 31 -33.5 67t-11.5 73t7.5 72.5t22.5 67.5q-68 -25 -117.5 -65t-72.5 -90l-50 15q-5 62 5 121.5t35 113.5q-57 -40 -99 -87t-66 -98l-55 20v270h-63v35h589v-35h-486v-230q35 61 84 107t106 73l45 -35q-27 -58 -41 -110t-14 -95q44 52 99 88t116 52l35 -45
q-38 -66 -39.5 -139.5t34.5 -135.5l-30 -10v0z" />
    <glyph glyph-name="dagger" unicode="&#x2020;" horiz-adv-x="473" 
d="M345 -120q-26 26 -59.5 41.5t-70.5 18.5l-35 35q27 39 70 65t95 35q-29 29 -65.5 44.5t-74.5 15.5l-30 35q28 41 73.5 68t101.5 37q-6 33 -27 54t-48 21q-60 0 -109.5 -35.5t-70.5 -94.5l-50 10v235h-55v35h629v-35h-534v-185q29 51 80 80.5t110 29.5q46 0 78 -33.5
t32 -81.5h45q56 0 95.5 -50t39.5 -120q0 -48 -13 -91.5t-37 -78.5l-30 20q17 24 26 61.5t9 83.5q0 56 -28 95.5t-67 39.5h-40v-355h-40v0zM345 -80v120q-32 -6 -61.5 -24t-53.5 -46q35 -3 64.5 -16t50.5 -34v0zM345 115v115q-42 -7 -73 -21.5t-47 -33.5q39 -3 70.5 -19
t49.5 -41v0z" />
    <glyph glyph-name="daggerdbl" unicode="&#x2021;" horiz-adv-x="457" 
d="M44 465h-54v35h477v-35h-383v-165q36 43 80.5 66.5t89.5 23.5q54 0 92 -31t38 -74v-285h-40q-23 40 -73 69t-117 41l-20 30q41 59 96 97t114 48q0 27 -26.5 46t-63.5 19q-55 0 -102 -35.5t-68 -94.5l-40 20v225v0zM344 55v185q-49 -9 -88.5 -35t-61.5 -65
q54 -14 92.5 -36t57.5 -49v0z" />
    <glyph glyph-name="bullet" unicode="&#x2022;" 
d="M-390 65q0 31 26.5 53t63.5 22q50 0 95 -24t75 -66v255h40v-345h-40q-11 65 -60 105t-110 35q21 -25 9 -55t-44 -30q-23 0 -39 14.5t-16 35.5v0z" />
    <glyph glyph-name="ellipsis" unicode="&#x2026;" horiz-adv-x="220" 
d="M90 0v465h-100v35h100q-8 87 -94 146t-206 59q-54 0 -92 -19t-38 -46q0 -22 21 -37.5t51 -15.5l98 3q37 0 63.5 -25t26.5 -60h-40q0 20 -14.5 34t-35.5 14l-95 -3q-48 0 -81.5 26.5t-33.5 63.5q0 45 46.5 72.5t123.5 27.5q135 0 233 -69t107 -171h100v-35h-100v-465h-40
v0zM187 625q-57 0 -98 35t-46 87l36 4q7 -38 37.5 -63t70.5 -25t70.5 25t37.5 63l36 -4q-5 -52 -46 -87t-98 -35v0zM187 697q-15 0 -25.5 9t-10.5 21q0 14 10 23.5t24 9.5q16 0 27 -9t11 -22t-10.5 -22.5t-25.5 -9.5v0z" />
    <glyph glyph-name="perthousand" unicode="&#x2030;" horiz-adv-x="511" 
d="M409 -20q-69 40 -100 40q-30 0 -87.5 -15t-87.5 -15q-41 0 -70.5 33.5t-29.5 81.5q0 27 10.5 50.5t29.5 39.5l30 -15q-15 -17 -22.5 -36.5t-7.5 -38.5q0 -31 17.5 -53t42.5 -22q30 0 87.5 15t87.5 15q21 0 46.5 -10t53.5 -30q-20 34 -30 71t-10 74q0 45 10 85.5t30 74.5
q-54 -20 -100 -55.5t-80 -84.5l-55 25v255h-184v35h531v-35h-307v-230q48 57 106 93t119 47l25 -40q-27 -32 -41 -74.5t-14 -90.5q0 -46 13 -86t37 -69l-50 -35v0z" />
    <glyph glyph-name="guilsinglleft" unicode="&#x2039;" horiz-adv-x="430" 
d="M300 0q-42 83 -107 131.5t-133 48.5l-30 50l125 105q-52 9 -86 40t-34 70q0 37 32 63.5t78 26.5q27 0 46 -14.5t19 -35.5q0 -19 -14.5 -32t-35.5 -13q-20 0 -33.5 15t-11.5 35q-17 -3 -28.5 -17t-11.5 -33q0 -28 33 -49.5t82 -25.5l110 75v120h40v-60h100v-35h-100v-465
h-40v0zM300 70v325l-220 -175q58 -5 116 -44.5t104 -105.5v0z" />
    <glyph glyph-name="guilsinglright" unicode="&#x203a;" horiz-adv-x="666" 
d="M536 0v250q-13 23 -30.5 36.5t-34.5 13.5q-24 0 -47 -19t-38 -51q-17 -47 -47.5 -76t-62.5 -29q-39 0 -68.5 25.5t-36.5 64.5l40 10q2 -23 20.5 -39t44.5 -16q21 0 43 24.5t37 65.5q-18 26 -37 43.5t-38 26.5l-165 -130l-25 25l30 25q20 29 20 35q0 19 -14.5 32t-35.5 13
q-10 0 -20 -5t-20 -15q-3 -5 -9.5 -7.5t-15.5 -2.5q-4 0 -7 4.5t-3 10.5q0 32 55 71t100 39q43 0 95.5 -34t104.5 -96q-5 60 -27.5 105t-57.5 65h-296v35h686v-35h-100v-465h-40v0zM171 285l85 65q-23 19 -46 29.5t-44 10.5q-13 0 -31 -7.5t-39 -22.5q34 -3 55.5 -25
t19.5 -50v0zM406 305q9 16 26.5 25.5t38.5 9.5t38 -8t27 -22v155h-190q29 -29 44.5 -70.5t15.5 -89.5v0z" />
    <glyph glyph-name="trademark" unicode="&#x2122;" horiz-adv-x="443" 
d="M313 0q-23 63 -95.5 110t-174.5 65l-25 35l145 135l-125 120h-48v35h463v-35h-100v-465h-40v0zM313 70v395h-215l125 -120l-145 -135q75 -13 136 -49.5t99 -90.5v0z" />
    <glyph glyph-name="c129" horiz-adv-x="800" 
d="M100 0v700h600v-700h-600v0zM150 50h500v600h-500v-600v0z" />
    </font>
</defs>
</svg>
